<svg width="60" height="60" viewBox="0 0 60 60" fill="none" xmlns="http://www.w3.org/2000/svg">
<path fill-rule="evenodd" clip-rule="evenodd" d="M60 30C60 46.5703 46.5684 60 30 60C13.4316 60 0 46.5703 0 30C0 13.4297 13.4316 0 30 0C46.5684 0 60 13.4297 60 30ZM38.1719 29.5L30.1719 19H35.1719L40.1719 27L45.6719 19H50.1719L42.6719 29L51.1719 41H46.1719L40.1719 32L34.1719 41H29.6719L38.1719 29.5ZM28.6719 31H13.1719C12.7715 31 13.0059 33 13.1719 34C17.5723 40.8008 23.0059 37.168 25.1719 34.5H28.1719C26.5723 40.5 20.5059 41.332 17.6719 41C12.0723 41.3984 9.67188 35.168 9.17188 32C7.97266 24 13.3379 20.332 16.1719 19.5C26.9727 17.0977 29.0059 26.1641 28.6719 31ZM25.1719 28H13.1719C13.1719 23.1992 17.1719 22 19.1719 22C22.7715 22 24.6719 26 25.1719 28Z" fill="black"/>
</svg>
