<svg width="55" height="60" viewBox="0 0 55 60" fill="none" xmlns="http://www.w3.org/2000/svg">
<path d="M50.2196 31.6958C49.6801 30.9963 49.0946 30.2966 48.4689 29.5996C48.8909 29.111 49.2996 28.6112 49.6945 28.1005C53.6807 22.9318 54.8125 18.243 52.8813 14.8982C50.9502 11.5532 46.3242 10.189 39.8543 11.0569C39.1558 11.1515 38.4603 11.2666 37.7687 11.4022C37.5342 10.7143 37.279 10.0336 37.0033 9.36105C34.5201 3.32449 31.0255 0 27.1631 0C23.3007 0 19.8061 3.32449 17.323 9.36105C17.0473 10.0336 16.7921 10.7143 16.5576 11.4022C15.866 11.2667 15.1705 11.1515 14.472 11.0569C8.00281 10.1891 3.37625 11.5532 1.445 14.8982C-0.48625 18.2432 0.645547 22.9318 4.6318 28.1005C5.02665 28.6112 5.43532 29.1111 5.85734 29.5996C5.23156 30.2966 4.64621 30.9962 4.10668 31.6958C0.120429 36.8645 -1.01137 41.5533 0.919882 44.8982C2.47156 47.5857 5.76219 48.9945 10.3516 48.9945C11.4741 48.9945 12.6753 48.9101 13.9468 48.7395C14.7657 48.6295 15.605 48.4847 16.46 48.3083C16.7289 49.115 17.0164 49.8937 17.323 50.6391C19.8061 56.6755 23.3007 60 27.1631 60C31.0255 60 34.5201 56.6755 37.0032 50.6389C37.3098 49.8936 37.5972 49.1149 37.8662 48.3082C38.7212 48.4846 39.5605 48.6295 40.3794 48.7393C41.6512 48.91 42.8517 48.9943 43.9746 48.9943C48.5635 48.9943 51.8548 47.5855 53.4063 44.898C55.3377 41.5532 54.2059 36.8645 50.2196 31.6958ZM43.4693 14.3116C46.6828 14.3116 48.9541 15.1274 49.8366 16.6559C50.9914 18.656 49.9249 22.0448 46.9106 25.9534C46.6174 26.3327 46.3158 26.7053 46.0059 27.071C44.2435 25.3943 42.2596 23.7537 40.1013 22.1902C39.8032 19.5866 39.3549 17.0987 38.7687 14.7855C40.4895 14.468 42.0696 14.3116 43.4693 14.3116ZM31.8301 38.4366C30.2498 39.3489 28.6902 40.1673 27.1641 40.895C25.5765 40.1371 24.0193 39.317 22.4961 38.4366C20.7518 37.4295 19.0824 36.3635 17.5075 35.2563C17.371 33.5076 17.303 31.7541 17.3039 30C17.3039 27.9612 17.3933 26.004 17.5578 24.1404C18.9921 23.1565 20.4643 22.2289 21.9709 21.3598C23.7334 20.3422 25.4697 19.4429 27.163 18.6546C28.8563 19.4429 30.5927 20.3422 32.3552 21.3598C33.8618 22.2289 35.334 23.1565 36.7682 24.1404C36.9328 26.004 37.0222 27.9612 37.0222 30C37.0222 31.82 36.9507 33.5747 36.8185 35.2563C35.2437 36.3635 33.5744 37.4295 31.8301 38.4366ZM36.2823 39.8442C36.0467 41.3407 35.761 42.7582 35.4329 44.0866C34.1289 43.7078 32.7704 43.2493 31.3692 42.7092C32.1159 42.313 32.8556 41.9036 33.5879 41.4812C34.498 40.9555 35.3963 40.4097 36.2823 39.8442ZM22.9568 42.7091C21.5553 43.2493 20.1971 43.7073 18.893 44.0862C18.565 42.758 18.2793 41.3406 18.0438 39.8442C18.9297 40.4097 19.828 40.9555 20.7382 41.4811C21.4703 41.9036 22.21 42.313 22.9568 42.7091ZM13.8311 32.4544C12.7179 31.5321 11.6748 30.5925 10.7123 29.6441C11.6877 28.714 12.7386 27.7941 13.8566 26.8921C13.8112 27.9274 13.7884 28.9636 13.7882 30C13.7882 30.8237 13.8031 31.6421 13.8311 32.4544ZM18.1411 19.5595C18.3774 18.1588 18.6582 16.8311 18.9764 15.5838C20.2255 15.9329 21.5272 16.3567 22.8703 16.856C21.9743 17.3235 21.0884 17.81 20.2132 18.3152C19.5155 18.7182 18.8247 19.1331 18.1411 19.5595ZM31.4558 16.8559C32.7989 16.3566 34.1006 15.9327 35.3498 15.5837C35.668 16.8311 35.9487 18.1588 36.1851 19.5595C35.5015 19.1331 34.8108 18.7183 34.1131 18.3152C33.2378 17.81 32.3518 17.3234 31.4558 16.8559ZM40.4696 26.8921C41.5876 27.7941 42.6385 28.714 43.6139 29.6441C42.6514 30.5925 41.6083 31.5321 40.495 32.4544C40.5234 31.6366 40.5377 30.8183 40.5379 30C40.5379 28.9548 40.5145 27.918 40.4696 26.8921ZM27.1631 3.51562C29.7059 3.51562 32.4071 6.75035 34.3379 12.2223C32.0116 12.8761 29.6001 13.7429 27.1631 14.8025C24.7261 13.7429 22.3146 12.8762 19.9883 12.2223C21.9191 6.75035 24.6202 3.51562 27.1631 3.51562ZM4.48953 16.656C5.37219 15.1273 7.64246 14.3118 10.8569 14.3118C12.2565 14.3118 13.8366 14.4681 15.5575 14.7858C14.9712 17.0989 14.5231 19.5868 14.225 22.1903C12.0666 23.7538 10.0828 25.3944 8.32039 27.0711C8.0105 26.7054 7.70887 26.3328 7.4157 25.9535C4.40129 22.045 3.33477 18.6561 4.48953 16.656ZM10.3318 45.4846C7.11828 45.4843 4.84695 44.6688 3.96441 43.1404C2.80965 41.1402 3.87617 37.7514 6.89047 33.8428C7.33268 33.2707 7.7936 32.7134 8.27246 32.1716C10.0149 33.8846 11.9927 35.565 14.155 37.1695C14.4397 39.896 14.8866 42.504 15.4842 44.9246C13.587 45.3009 11.8532 45.4847 10.3318 45.4846ZM27.1631 56.4844C24.5709 56.4844 21.8145 53.1223 19.8772 47.4561C22.2427 46.7685 24.6922 45.863 27.1631 44.7623C29.634 45.863 32.0834 46.7685 34.449 47.4561C32.5116 53.1223 29.7553 56.4844 27.1631 56.4844ZM50.3618 43.1404C49.0614 45.3927 44.7475 46.0959 38.8419 44.9246C39.4395 42.504 39.8864 39.896 40.171 37.1695C42.3335 35.565 44.3112 33.8846 46.0536 32.1716C46.5324 32.7134 46.9933 33.2708 47.4356 33.8428C50.4501 37.7514 51.5166 41.1402 50.3618 43.1404Z" fill="black"/>
<path d="M27.1621 35.4297C30.1619 35.4297 32.5938 32.9979 32.5938 29.998C32.5938 26.9982 30.1619 24.5664 27.1621 24.5664C24.1623 24.5664 21.7305 26.9982 21.7305 29.998C21.7305 32.9979 24.1623 35.4297 27.1621 35.4297Z" fill="black"/>
</svg>
