<svg width="37" height="38" viewBox="0 0 37 38" fill="none" xmlns="http://www.w3.org/2000/svg">
<path d="M21.5164 32.5824H20.2869V26.5578C20.2869 26.3948 20.2221 26.2384 20.1068 26.1231C19.9915 26.0078 19.8352 25.9431 19.6721 25.9431C19.5091 25.9431 19.3527 26.0078 19.2374 26.1231C19.1221 26.2384 19.0574 26.3948 19.0574 26.5578V32.5824H3.07377V20.2873H8.18852C8.35157 20.2873 8.50793 20.2226 8.62322 20.1073C8.73851 19.992 8.80328 19.8356 8.80328 19.6726C8.80328 19.5095 8.73851 19.3532 8.62322 19.2379C8.50793 19.1226 8.35157 19.0578 8.18852 19.0578H2.45902C2.29597 19.0578 2.13961 19.1226 2.02432 19.2379C1.90903 19.3532 1.84426 19.5095 1.84426 19.6726V32.5824H0.614754C0.451711 32.5824 0.295346 32.6472 0.180057 32.7625C0.0647685 32.8778 0 33.0341 0 33.1972V34.4267C0 35.2419 0.323843 36.0237 0.900287 36.6002C1.47673 37.1766 2.25856 37.5004 3.07377 37.5004H19.0574C19.8726 37.5004 20.6544 37.1766 21.2309 36.6002C21.8073 36.0237 22.1311 35.2419 22.1311 34.4267V33.1972C22.1311 33.0341 22.0664 32.8778 21.9511 32.7625C21.8358 32.6472 21.6794 32.5824 21.5164 32.5824ZM20.9016 34.4267C20.9016 34.9158 20.7073 35.3849 20.3615 35.7308C20.0156 36.0766 19.5465 36.2709 19.0574 36.2709H17.8279V35.6562C17.8279 35.4931 17.7631 35.3368 17.6478 35.2215C17.5325 35.1062 17.3762 35.0414 17.2131 35.0414C17.0501 35.0414 16.8937 35.1062 16.7784 35.2215C16.6631 35.3368 16.5984 35.4931 16.5984 35.6562V36.2709H5.53279V35.6562C5.53279 35.4931 5.46802 35.3368 5.35273 35.2215C5.23744 35.1062 5.08108 35.0414 4.91803 35.0414C4.75499 35.0414 4.59862 35.1062 4.48334 35.2215C4.36805 35.3368 4.30328 35.4931 4.30328 35.6562V36.2709H3.07377C2.58464 36.2709 2.11555 36.0766 1.76968 35.7308C1.42381 35.3849 1.22951 34.9158 1.22951 34.4267V33.8119H20.9016V34.4267ZM31.9672 4.30373H33.1967C33.3598 4.30373 33.5161 4.23896 33.6314 4.12367C33.7467 4.00838 33.8115 3.85202 33.8115 3.68897C33.8115 3.52593 33.7467 3.36956 33.6314 3.25428C33.5161 3.13899 33.3598 3.07422 33.1967 3.07422H31.9672C31.4781 3.07422 31.009 3.26852 30.6631 3.61439C30.3173 3.96026 30.1229 4.42935 30.1229 4.91848V5.53324H29.5082C29.3452 5.53324 29.1888 5.598 29.0735 5.71329C28.9582 5.82858 28.8934 5.98495 28.8934 6.14799C28.8934 6.31103 28.9582 6.4674 29.0735 6.58269C29.1888 6.69797 29.3452 6.76274 29.5082 6.76274H30.1229V8.60701C30.1229 8.77005 30.1877 8.92641 30.303 9.0417C30.4183 9.15699 30.5747 9.22176 30.7377 9.22176C30.9007 9.22176 31.0571 9.15699 31.1724 9.0417C31.2877 8.92641 31.3525 8.77005 31.3525 8.60701V6.76274H31.9672C32.1303 6.76274 32.2866 6.69797 32.4019 6.58269C32.5172 6.4674 32.582 6.31103 32.582 6.14799C32.582 5.98495 32.5172 5.82858 32.4019 5.71329C32.2866 5.598 32.1303 5.53324 31.9672 5.53324H31.3525V4.91848C31.3525 4.75544 31.4172 4.59907 31.5325 4.48378C31.6478 4.3685 31.8042 4.30373 31.9672 4.30373Z" fill="black"/>
<path d="M35.0416 0.615234H27.6646C27.1754 0.615234 26.7064 0.80954 26.3605 1.15541C26.0146 1.50127 25.8203 1.97037 25.8203 2.4595V3.689C25.8203 3.85205 25.8851 4.00841 26.0004 4.1237C26.1157 4.23899 26.272 4.30376 26.4351 4.30376C26.5981 4.30376 26.7545 4.23899 26.8698 4.1237C26.9851 4.00841 27.0498 3.85205 27.0498 3.689V2.4595C27.0498 2.29645 27.1146 2.14009 27.2299 2.0248C27.3452 1.90951 27.5015 1.84474 27.6646 1.84474H35.0416C35.2047 1.84474 35.361 1.90951 35.4763 2.0248C35.5916 2.14009 35.6564 2.29645 35.6564 2.4595V9.83655C35.6564 9.99959 35.5916 10.156 35.4763 10.2712C35.361 10.3865 35.2047 10.4513 35.0416 10.4513H27.6646C27.5015 10.4513 27.3452 10.3865 27.2299 10.2712C27.1146 10.156 27.0498 9.99959 27.0498 9.83655V6.14802C27.0498 5.98498 26.9851 5.82861 26.8698 5.71332C26.7545 5.59804 26.5981 5.53327 26.4351 5.53327C26.272 5.53327 26.1157 5.59804 26.0004 5.71332C25.8851 5.82861 25.8203 5.98498 25.8203 6.14802V9.83655C25.8203 10.3257 26.0146 10.7948 26.3605 11.1406C26.7064 11.4865 27.1754 11.6808 27.6646 11.6808H35.0416C35.5308 11.6808 35.9998 11.4865 36.3457 11.1406C36.6916 10.7948 36.8859 10.3257 36.8859 9.83655V2.4595C36.8859 1.97037 36.6916 1.50127 36.3457 1.15541C35.9998 0.80954 35.5308 0.615234 35.0416 0.615234ZM28.8941 25.2054C28.8941 25.6917 29.0383 26.1672 29.3085 26.5716C29.5787 26.9759 29.9627 27.2911 30.4121 27.4772C30.8614 27.6633 31.3558 27.712 31.8328 27.6172C32.3098 27.5223 32.748 27.2881 33.0919 26.9442C33.4358 26.6003 33.67 26.1621 33.7649 25.6851C33.8597 25.2081 33.8111 24.7137 33.6249 24.2644C33.4388 23.815 33.1236 23.431 32.7193 23.1608C32.3149 22.8906 31.8394 22.7464 31.3531 22.7464C30.7009 22.7464 30.0755 23.0055 29.6143 23.4666C29.1532 23.9278 28.8941 24.5532 28.8941 25.2054ZM32.5826 25.2054C32.5826 25.4486 32.5105 25.6863 32.3754 25.8885C32.2403 26.0907 32.0483 26.2483 31.8236 26.3413C31.5989 26.4344 31.3517 26.4587 31.1132 26.4113C30.8747 26.3638 30.6557 26.2467 30.4837 26.0748C30.3118 25.9028 30.1947 25.6838 30.1472 25.4453C30.0998 25.2068 30.1241 24.9595 30.2172 24.7349C30.3102 24.5102 30.4678 24.3182 30.67 24.1831C30.8722 24.048 31.1099 23.9759 31.3531 23.9759C31.6792 23.9759 31.9919 24.1054 32.2225 24.336C32.4531 24.5666 32.5826 24.8793 32.5826 25.2054Z" fill="black"/>
<path d="M35.0418 19.6727H27.6647C27.1756 19.6727 26.7065 19.867 26.3606 20.2128C26.0148 20.5587 25.8205 21.0278 25.8205 21.5169V28.894C25.8205 29.3831 26.0148 29.8522 26.3606 30.1981C26.7065 30.5439 27.1756 30.7382 27.6647 30.7382H35.0418C35.5309 30.7382 36 30.5439 36.3459 30.1981C36.6917 29.8522 36.886 29.3831 36.886 28.894V27.6645C36.886 27.5014 36.8213 27.3451 36.706 27.2298C36.5907 27.1145 36.4343 27.0497 36.2713 27.0497C36.1083 27.0497 35.9519 27.1145 35.8366 27.2298C35.7213 27.3451 35.6565 27.5014 35.6565 27.6645V28.894C35.6565 29.057 35.5918 29.2134 35.4765 29.3287C35.3612 29.444 35.2048 29.5087 35.0418 29.5087H27.6647C27.5017 29.5087 27.3453 29.444 27.23 29.3287C27.1147 29.2134 27.05 29.057 27.05 28.894V21.5169C27.05 21.3539 27.1147 21.1975 27.23 21.0822C27.3453 20.9669 27.5017 20.9022 27.6647 20.9022H35.0418C35.2048 20.9022 35.3612 20.9669 35.4765 21.0822C35.5918 21.1975 35.6565 21.3539 35.6565 21.5169V25.2055C35.6565 25.3685 35.7213 25.5249 35.8366 25.6402C35.9519 25.7554 36.1083 25.8202 36.2713 25.8202C36.4343 25.8202 36.5907 25.7554 36.706 25.6402C36.8213 25.5249 36.886 25.3685 36.886 25.2055V21.5169C36.886 21.0278 36.6917 20.5587 36.3459 20.2128C36 19.867 35.5309 19.6727 35.0418 19.6727ZM13.8143 7.90013C13.9122 7.96076 14.025 7.99271 14.1401 7.99234C14.2364 7.99177 14.3311 7.96861 14.4168 7.92472L18.1053 6.08046C18.206 6.02887 18.2905 5.95049 18.3495 5.85396C18.4085 5.75742 18.4398 5.64647 18.4398 5.53333C18.4398 5.42018 18.4085 5.30924 18.3495 5.2127C18.2905 5.11616 18.206 5.03779 18.1053 4.9862L14.4168 3.14193C14.3232 3.09478 14.2191 3.07232 14.1144 3.07671C14.0097 3.0811 13.9079 3.11217 13.8186 3.16699C13.7292 3.22181 13.6554 3.29855 13.6041 3.38993C13.5528 3.4813 13.5257 3.58427 13.5254 3.68907V7.37759C13.5252 7.48206 13.5516 7.58487 13.6022 7.6763C13.6527 7.76772 13.7257 7.84476 13.8143 7.90013ZM14.7549 4.68497L16.4516 5.53333L14.7549 6.38169V4.68497Z" fill="black"/>
<path d="M15.3689 11.0656C16.4631 11.0656 17.5328 10.7411 18.4427 10.1331C19.3526 9.52518 20.0617 8.66108 20.4805 7.65009C20.8992 6.63911 21.0088 5.52665 20.7953 4.4534C20.5818 3.38014 20.0549 2.39429 19.2811 1.62052C18.5073 0.846744 17.5215 0.319797 16.4482 0.106313C15.375 -0.10717 14.2625 0.00239724 13.2515 0.421161C12.2406 0.839924 11.3765 1.54908 10.7685 2.45894C10.1606 3.3688 9.83606 4.43851 9.83606 5.53279C9.83606 7.00017 10.419 8.40746 11.4566 9.44506C12.4942 10.4827 13.9015 11.0656 15.3689 11.0656ZM15.3689 1.22951C16.22 1.22951 17.052 1.48189 17.7596 1.95474C18.4673 2.42759 19.0189 3.09967 19.3446 3.886C19.6703 4.67232 19.7555 5.53756 19.5894 6.37232C19.4234 7.20707 19.0136 7.97384 18.4117 8.57567C17.8099 9.17749 17.0431 9.58734 16.2084 9.75338C15.3736 9.91942 14.5084 9.8342 13.7221 9.5085C12.9357 9.18279 12.2637 8.63123 11.7908 7.92356C11.318 7.21589 11.0656 6.3839 11.0656 5.53279C11.0656 4.39149 11.519 3.29693 12.326 2.48991C13.133 1.68289 14.2276 1.22951 15.3689 1.22951ZM21.5164 13.5246C21.6118 13.5246 21.706 13.5024 21.7913 13.4597C21.8767 13.417 21.9509 13.355 22.0082 13.2787L23.8525 10.8197C23.9503 10.6892 23.9923 10.5253 23.9692 10.3639C23.9462 10.2025 23.8599 10.0568 23.7295 9.95902C23.5991 9.86119 23.4351 9.81919 23.2737 9.84224C23.1123 9.8653 22.9667 9.95153 22.8689 10.082L21.0246 12.541C20.9268 12.6714 20.8848 12.8354 20.9078 12.9968C20.9309 13.1582 21.0171 13.3038 21.1475 13.4016C21.254 13.4814 21.3834 13.5246 21.5164 13.5246ZM22.8689 15.7377C22.9261 15.8141 23.0004 15.876 23.0857 15.9187C23.1711 15.9614 23.2652 15.9836 23.3607 15.9836C23.4937 15.9836 23.6231 15.9405 23.7295 15.8607L26.1885 14.0164C26.319 13.9186 26.4052 13.7729 26.4282 13.6115C26.4513 13.4501 26.4093 13.2862 26.3115 13.1557C26.2136 13.0253 26.068 12.9391 25.9066 12.916C25.7452 12.893 25.5813 12.935 25.4508 13.0328L22.9918 14.8771C22.8614 14.9749 22.7751 15.1205 22.7521 15.2819C22.729 15.4433 22.771 15.6073 22.8689 15.7377ZM28.8934 17.0902C28.8788 17.0087 28.8479 16.931 28.8025 16.8617C28.7571 16.7924 28.6982 16.7331 28.6293 16.6871C28.5604 16.6412 28.483 16.6097 28.4016 16.5944C28.3202 16.5792 28.2366 16.5805 28.1557 16.5984L25.082 17.2131C25.0012 17.2212 24.9229 17.2451 24.8514 17.2834C24.7799 17.3218 24.7166 17.3738 24.6653 17.4366C24.5615 17.5635 24.5124 17.7263 24.5287 17.8893C24.545 18.0524 24.6254 18.2023 24.7522 18.306C24.879 18.4098 25.0419 18.4589 25.2049 18.4426H25.3279L28.4016 17.8279C28.4831 17.8133 28.5608 17.7823 28.6301 17.7369C28.6994 17.6916 28.7587 17.6327 28.8047 17.5638C28.8506 17.4949 28.8821 17.4174 28.8974 17.336C28.9126 17.2546 28.9113 17.171 28.8934 17.0902ZM0.614754 17.2131H7.9918C8.15485 17.2131 8.31121 17.1483 8.4265 17.0331C8.54179 16.9178 8.60656 16.7614 8.60656 16.5984V6.7623C8.60656 6.59925 8.54179 6.44289 8.4265 6.3276C8.31121 6.21231 8.15485 6.14754 7.9918 6.14754H0.614754C0.451711 6.14754 0.295346 6.21231 0.180057 6.3276C0.0647685 6.44289 0 6.59925 0 6.7623V16.5984C0 16.7614 0.0647685 16.9178 0.180057 17.0331C0.295346 17.1483 0.451711 17.2131 0.614754 17.2131ZM1.22951 7.37705H7.37705V15.9836H1.22951V7.37705Z" fill="black"/>
<path d="M5.53275 8.60742H4.30325C4.1402 8.60742 3.98384 8.67219 3.86855 8.78748C3.75326 8.90277 3.68849 9.05913 3.68849 9.22218C3.68849 9.38522 3.75326 9.54158 3.86855 9.65687C3.98384 9.77216 4.1402 9.83693 4.30325 9.83693H5.53275C5.6958 9.83693 5.85216 9.77216 5.96745 9.65687C6.08274 9.54158 6.14751 9.38522 6.14751 9.22218C6.14751 9.05913 6.08274 8.90277 5.96745 8.78748C5.85216 8.67219 5.6958 8.60742 5.53275 8.60742ZM5.53275 11.0664H3.07374C2.9107 11.0664 2.75433 11.1312 2.63904 11.2465C2.52375 11.3618 2.45898 11.5181 2.45898 11.6812C2.45898 11.8442 2.52375 12.0006 2.63904 12.1159C2.75433 12.2312 2.9107 12.2959 3.07374 12.2959H5.53275C5.6958 12.2959 5.85216 12.2312 5.96745 12.1159C6.08274 12.0006 6.14751 11.8442 6.14751 11.6812C6.14751 11.5181 6.08274 11.3618 5.96745 11.2465C5.85216 11.1312 5.6958 11.0664 5.53275 11.0664ZM5.53275 13.5255H3.07374C2.9107 13.5255 2.75433 13.5902 2.63904 13.7055C2.52375 13.8208 2.45898 13.9772 2.45898 14.1402C2.45898 14.3033 2.52375 14.4596 2.63904 14.5749C2.75433 14.6902 2.9107 14.755 3.07374 14.755H5.53275C5.6958 14.755 5.85216 14.6902 5.96745 14.5749C6.08274 14.4596 6.14751 14.3033 6.14751 14.1402C6.14751 13.9772 6.08274 13.8208 5.96745 13.7055C5.85216 13.5902 5.6958 13.5255 5.53275 13.5255ZM20.9754 17.0296C20.935 16.9593 20.8812 16.8977 20.817 16.8483C20.7529 16.7988 20.6796 16.7625 20.6014 16.7414C20.5232 16.7203 20.4416 16.7148 20.3612 16.7252C20.2809 16.7356 20.2034 16.7617 20.1332 16.8021C20.0629 16.8425 20.0013 16.8963 19.9519 16.9604C19.9024 17.0246 19.8661 17.0979 19.845 17.1761C19.8239 17.2543 19.8184 17.3359 19.8288 17.4162C19.8392 17.4966 19.8653 17.5741 19.9057 17.6443L22.6168 22.3349L12.7807 26.0234H12.6885L11.0901 26.9455L10.0266 27.5603C9.88659 27.6412 9.73199 27.6938 9.57164 27.7149C9.4113 27.736 9.24837 27.7252 9.09218 27.6832C8.77841 27.5985 8.51097 27.3929 8.34833 27.1115L7.11882 24.9845C6.97417 24.7062 6.94135 24.3831 7.02706 24.0814C7.11277 23.7797 7.31053 23.5222 7.57989 23.3615L9.70694 22.132L11.2438 24.7939C11.298 24.8877 11.376 24.9655 11.4699 25.0195C11.5638 25.0735 11.6703 25.1017 11.7787 25.1013C11.8868 25.1017 11.9931 25.0736 12.0869 25.0198C12.1807 24.966 12.2586 24.8885 12.3129 24.795C12.3671 24.7014 12.3957 24.5953 12.3959 24.4871C12.396 24.379 12.3676 24.2728 12.3135 24.1791L10.7274 21.4373L18.4426 15.0746L18.6946 15.5111C18.735 15.5813 18.7888 15.6429 18.853 15.6924C18.9172 15.7418 18.9904 15.7781 19.0686 15.7993C19.1468 15.8204 19.2284 15.8259 19.3088 15.8155C19.3891 15.8051 19.4666 15.7789 19.5369 15.7386C19.6071 15.6982 19.6687 15.6444 19.7181 15.5802C19.7676 15.5161 19.8039 15.4428 19.825 15.3646C19.8461 15.2864 19.8516 15.2048 19.8412 15.1244C19.8308 15.0441 19.8047 14.9666 19.7643 14.8964L19.1496 13.8328C19.1045 13.7558 19.0432 13.6895 18.97 13.6386C18.8967 13.5876 18.8133 13.5532 18.7254 13.5377C18.637 13.5211 18.5461 13.524 18.459 13.5463C18.3719 13.5686 18.2908 13.6098 18.2213 13.6668L9.61472 20.7611L6.99587 22.2734C6.5259 22.5471 6.15994 22.969 5.95526 23.4729C5.75059 23.9768 5.71875 24.5343 5.86472 25.0582L5.24997 25.4087C4.93322 25.5905 4.67762 25.8624 4.51556 26.1897C4.35351 26.5171 4.29231 26.8852 4.33973 27.2474C4.38714 27.6095 4.54102 27.9495 4.78188 28.2241C5.02273 28.4987 5.33969 28.6956 5.69259 28.7898C5.84904 28.8312 6.01026 28.8519 6.1721 28.8513C6.4955 28.8499 6.8131 28.7652 7.09423 28.6054L7.70898 28.255C8.0043 28.56 8.37569 28.7807 8.7848 28.8943C8.99488 28.9531 9.21216 28.982 9.4303 28.9804C9.86241 28.9814 10.2869 28.8667 10.6598 28.6484L11.1946 28.341L12.4241 30.4742C12.6685 30.8967 13.0703 31.2051 13.5416 31.3318C14.0129 31.4586 14.5152 31.3933 14.9385 31.1505C15.1485 31.0295 15.3326 30.8683 15.4802 30.6761C15.6279 30.4839 15.7362 30.2645 15.799 30.0304C15.8618 29.7963 15.8779 29.5521 15.8463 29.3118C15.8146 29.0715 15.736 28.8398 15.6147 28.63L14.4959 26.6812L23.7172 23.2201C23.8008 23.1887 23.8766 23.1394 23.9392 23.0757C24.0019 23.012 24.0499 22.9354 24.0799 22.8513C24.1098 22.7681 24.1215 22.6795 24.114 22.5915C24.1066 22.5034 24.0803 22.418 24.0369 22.341L20.9754 17.0296ZM6.45489 27.5357C6.38488 27.5762 6.30758 27.6024 6.2274 27.613C6.14723 27.6235 6.06577 27.6182 5.98767 27.5972C5.83017 27.5563 5.69532 27.4546 5.61267 27.3144C5.5722 27.2444 5.54594 27.1671 5.53539 27.0869C5.52484 27.0067 5.53021 26.9253 5.5512 26.8472C5.57218 26.7687 5.60853 26.6951 5.65812 26.6307C5.70771 26.5664 5.76958 26.5125 5.84013 26.4722L6.37497 26.1648L6.98972 27.2283L6.45489 27.5357ZM14.545 29.257C14.5855 29.327 14.6118 29.4043 14.6223 29.4845C14.6329 29.5647 14.6275 29.6461 14.6065 29.7242C14.5627 29.8805 14.4588 30.0131 14.3176 30.0931C14.1772 30.1737 14.0106 30.1957 13.8541 30.1543C13.6975 30.1129 13.5636 30.0113 13.4815 29.8718L12.252 27.7386L13.2725 27.1545H13.3217L14.545 29.257Z" fill="black"/>
</svg>
