<svg width="51" height="38" viewBox="0 0 51 38" fill="none" xmlns="http://www.w3.org/2000/svg">
<path d="M43.3945 37.5007H12.0988C10.9527 37.5007 10.0215 36.5695 10.0215 35.4234V33.9191C10.0215 33.7042 10.1966 33.5291 10.4115 33.5291H25.2953L30.8906 22.6329C30.9543 22.5055 31.0896 22.418 31.2408 22.418H50.5499C50.6852 22.418 50.8126 22.4896 50.8842 22.601C50.9558 22.7204 50.9638 22.8637 50.9001 22.9831L43.7527 37.2858C43.6811 37.4132 43.5458 37.5007 43.3945 37.5007ZM24.5391 36.7127H43.1558L49.9132 23.198H31.4796L25.8842 34.0942L24.5391 36.7127ZM10.8015 34.3091V35.4234C10.8015 36.1397 11.3825 36.7207 12.0988 36.7207H23.6556L24.8893 34.3091H10.8015Z" fill="black"/>
<path d="M10.41 35.8122H4.59972C2.66563 35.8122 1.09766 34.2363 1.09766 32.3101V28.3783C1.09766 28.2748 1.13875 28.1756 1.21189 28.1025C1.28502 28.0294 1.38422 27.9883 1.48766 27.9883C1.59109 27.9883 1.69029 28.0294 1.76343 28.1025C1.83657 28.1756 1.87766 28.2748 1.87766 28.3783V32.3022C1.87766 33.8065 3.09542 35.0242 4.59972 35.0242H10.41C10.6249 35.0242 10.8 35.1993 10.8 35.4142C10.8 35.6291 10.6249 35.8122 10.41 35.8122Z" fill="black"/>
<path d="M27.9608 29.5882C27.7538 29.5882 27.5787 29.429 27.5708 29.2221C27.141 22.0985 24.5702 18.2304 19.7071 17.4265C18.8554 20.2679 16.197 21.5016 13.8172 21.4698C11.525 21.43 8.9621 20.1565 8.23781 17.3787C4.09901 17.5459 0.787964 20.9604 0.787964 25.131V27.9804H6.53453V24.1759C6.53453 24.0725 6.57562 23.9733 6.64876 23.9001C6.7219 23.827 6.8211 23.7859 6.92453 23.7859C7.02797 23.7859 7.12717 23.827 7.20031 23.9001C7.27344 23.9733 7.31453 24.0725 7.31453 24.1759V28.3704C7.31453 28.5853 7.13943 28.7604 6.92453 28.7604H0.390002C0.175103 28.7763 0 28.6012 0 28.3784V25.139C0 20.4271 3.83635 16.5908 8.54822 16.5908C8.73128 16.5908 8.89842 16.7261 8.93026 16.9012C9.48741 19.6391 11.915 20.65 13.8331 20.6818C16.006 20.7375 18.4097 19.5596 19.0385 16.8932C19.0862 16.6942 19.2613 16.5669 19.4683 16.5908C24.9044 17.315 27.8891 21.5494 28.3508 29.1663C28.3667 29.3812 28.1996 29.5643 27.9847 29.5802C27.9767 29.5882 27.9687 29.5882 27.9608 29.5882Z" fill="black"/>
<path d="M15.5833 34.3074C15.4799 34.3074 15.3807 34.2663 15.3075 34.1931C15.2344 34.12 15.1933 34.0208 15.1933 33.9174V33.2169C15.1933 32.1902 14.3576 31.3545 13.3309 31.3545H5.94469C5.84125 31.3545 5.74206 31.3134 5.66892 31.2402C5.59578 31.1671 5.55469 31.0679 5.55469 30.9645V28.3777C5.55469 28.2743 5.59578 28.1751 5.66892 28.102C5.74206 28.0288 5.84125 27.9877 5.94469 27.9877C6.04812 27.9877 6.14732 28.0288 6.22046 28.102C6.2936 28.1751 6.33469 28.2743 6.33469 28.3777V30.5586H13.3229C14.7794 30.5586 15.9733 31.7445 15.9733 33.209V33.9094C15.9733 34.1322 15.7982 34.3074 15.5833 34.3074ZM27.8963 28.7757H21.0195C20.916 28.7757 20.8168 28.7346 20.7437 28.6615C20.6706 28.5883 20.6295 28.4891 20.6295 28.3857V24.3822C20.6295 24.2788 20.6706 24.1796 20.7437 24.1064C20.8168 24.0333 20.916 23.9922 21.0195 23.9922C21.1229 23.9922 21.2221 24.0333 21.2953 24.1064C21.3684 24.1796 21.4095 24.2788 21.4095 24.3822V27.9957H27.8963C27.9997 27.9957 28.0989 28.0368 28.172 28.1099C28.2452 28.1831 28.2863 28.2822 28.2863 28.3857C28.2863 28.4891 28.2452 28.5883 28.172 28.6615C28.0989 28.7346 27.9997 28.7757 27.8963 28.7757Z" fill="black"/>
<path d="M22.1656 34.3083C22.0622 34.3083 21.963 34.2673 21.8899 34.1941C21.8167 34.121 21.7756 34.0218 21.7756 33.9183V28.3787C21.7756 28.2753 21.8167 28.1761 21.8899 28.1029C21.963 28.0298 22.0622 27.9887 22.1656 27.9887C22.2691 27.9887 22.3683 28.0298 22.4414 28.1029C22.5146 28.1761 22.5556 28.2753 22.5556 28.3787V33.9104C22.5556 34.1332 22.3805 34.3083 22.1656 34.3083ZM13.9119 18.1511C11.0784 18.1511 8.73841 15.8509 8.6827 13.0174L8.67474 12.8025C7.68779 12.1339 7.02718 11.3539 6.70881 10.4704V10.4625C6.6997 10.4369 6.69434 10.4101 6.69289 10.3829L6.41432 8.08268C6.24717 6.6341 6.67697 5.20939 7.59228 4.15878C9.57413 1.90631 12.535 0.919368 16.4191 1.22182C16.7693 1.2457 17.1115 1.15815 17.3742 0.951206L18.5124 0.0836492C18.5919 0.0199753 18.7034 -0.0118619 18.8068 0.00405654C18.9103 0.019975 19.0058 0.0756901 19.0695 0.155282C21.4254 3.3151 21.4493 6.85696 19.1491 8.84676V12.9219C19.1411 15.8031 16.7932 18.1511 13.9119 18.1511ZM7.50473 10.359C7.80718 11.0753 8.38821 11.6962 9.27168 12.2533C9.38311 12.3249 9.44679 12.4443 9.45474 12.5796L9.4627 13.0015C9.5025 15.4052 11.5003 17.3631 13.9119 17.3631C15.0913 17.361 16.2217 16.8916 17.0557 16.0577C17.8896 15.2237 18.359 14.0933 18.3611 12.9139V8.80697C16.6976 7.0639 15.2252 6.28389 14.0393 6.45899C13.0205 6.61022 12.1052 7.48573 11.3331 9.06166C11.2854 9.15717 11.2058 9.22881 11.1023 9.26064C10.9988 9.29248 10.8954 9.28452 10.7999 9.23677C10.1472 8.89452 9.53434 8.81493 8.98515 9.00595C8.17331 9.28452 7.67984 10.0406 7.50473 10.359ZM15.0899 1.94611C12.0892 1.94611 9.76515 2.86142 8.18127 4.67613C7.40922 5.5596 7.05106 6.76144 7.19432 7.99513L7.33759 9.24472C7.66392 8.87064 8.12555 8.48064 8.7225 8.2737C9.37515 8.05084 10.0756 8.09064 10.7919 8.38513C11.6595 6.77736 12.7101 5.87797 13.9119 5.69491C15.3605 5.48001 16.9523 6.27593 18.767 8.12247C20.5181 6.45899 20.4783 3.60163 18.6556 0.951206L17.8438 1.57203C17.4299 1.89039 16.9046 2.04162 16.3554 2.00182C15.9256 1.96203 15.5038 1.94611 15.0899 1.94611Z" fill="black"/>
<path d="M11.9475 21.1525C11.8759 21.1525 11.8042 21.1366 11.7406 21.0968C11.6527 21.0412 11.5902 20.9534 11.5664 20.8522C11.5426 20.751 11.5594 20.6445 11.6132 20.5556C12.1863 19.6244 11.7803 18.0246 11.5814 17.4833C11.5624 17.4354 11.5534 17.384 11.5548 17.3325C11.5563 17.2809 11.5681 17.2302 11.5897 17.1833C11.6113 17.1365 11.6421 17.0945 11.6803 17.0599C11.7186 17.0252 11.7634 16.9987 11.8122 16.9819C12.0112 16.9023 12.242 17.0058 12.3136 17.2127C12.3455 17.3082 13.1732 19.5289 12.2818 20.9774C12.2022 21.0889 12.0748 21.1525 11.9475 21.1525ZM17.7259 20.1576C17.6622 20.1576 17.5906 20.1417 17.5349 20.1099C16.0783 19.2821 16.532 16.7431 16.5559 16.6317C16.5957 16.4168 16.7947 16.2815 17.0096 16.3213C17.2245 16.3611 17.3598 16.568 17.32 16.775C17.2165 17.356 17.113 18.9638 17.9169 19.4254C18.1079 19.5289 18.1716 19.7676 18.0602 19.9587C17.9965 20.086 17.8612 20.1576 17.7259 20.1576ZM29.6886 16.2656C29.6409 16.2656 29.6011 16.2576 29.5533 16.2417C29.4571 16.2047 29.3791 16.1316 29.336 16.0379C29.2929 15.9442 29.288 15.8374 29.3225 15.7403C29.5692 15.0797 29.4021 14.5145 28.7892 13.9574C28.4311 13.6311 28.3037 13.1376 28.4549 12.6919L28.5982 12.2939C28.7574 11.8243 29.2031 11.506 29.7045 11.506H30.2935C30.6994 11.506 31.0815 11.299 31.2725 10.9647C31.6943 10.2484 31.6466 9.15798 31.169 8.47349C30.9939 8.21879 30.6437 8.09941 30.3174 8.18696L29.9354 8.29043C29.5056 8.44165 28.9723 8.29043 28.6141 7.88451C28.2798 7.51042 28.1923 7.01695 28.3913 6.61103C28.5027 6.37225 28.5584 6.18123 28.5584 6.00613C28.5584 5.75939 28.4947 5.56041 28.3594 5.37735C28.24 5.21816 27.9137 5.10673 27.7068 5.14653L27.3168 5.22612C27.2156 5.24559 27.1108 5.2249 27.0247 5.16844C26.9385 5.11198 26.8777 5.02419 26.8551 4.92367C26.8153 4.70877 26.9506 4.50183 27.1576 4.46204L27.5476 4.38244C28.049 4.27897 28.6858 4.50183 28.9882 4.89979C29.227 5.2102 29.3464 5.58429 29.3464 5.99817C29.3464 6.29266 29.2668 6.59511 29.0996 6.94532C29.0121 7.12838 29.1554 7.31144 29.1951 7.3592C29.3145 7.48655 29.5135 7.60593 29.6966 7.54226L30.1025 7.43083C30.7472 7.25573 31.4317 7.49451 31.8058 8.01981C32.4743 8.959 32.5301 10.3678 31.949 11.3627C31.6148 11.9358 30.978 12.286 30.2935 12.286H29.7045C29.5374 12.286 29.3941 12.3894 29.3384 12.5486L29.1951 12.9466C29.1394 13.0978 29.1872 13.257 29.3145 13.3764C30.1503 14.1405 30.405 15.0478 30.0468 16.0109C29.9911 16.1701 29.8478 16.2656 29.6886 16.2656ZM35.0213 17.5789H34.9895C34.8853 17.5707 34.7885 17.5219 34.72 17.443C34.6515 17.364 34.6168 17.2613 34.6233 17.157C34.6631 16.5919 34.8223 16.0507 35.0929 15.5492C35.4033 14.9682 35.5227 14.3076 35.4511 13.655L35.4193 13.4003C35.4033 13.2331 35.3954 13.1137 35.3954 12.9864C35.3954 11.896 35.5864 10.4076 37.2499 10.0017C37.624 9.91411 38.0299 9.89819 38.4756 9.95391C39.4785 10.0972 39.8685 9.93799 40.0117 9.78676C40.1471 9.65146 40.1789 9.39676 40.1073 9.04655C39.6217 6.9294 41.3489 5.83102 41.5081 5.73551C41.6673 5.63204 41.8822 5.66388 42.0095 5.80715C42.1528 5.96633 42.1448 6.21307 41.9856 6.35633C41.9618 6.37225 41.9379 6.39613 41.914 6.40409C41.8583 6.43593 40.4973 7.24777 40.8713 8.87941C40.9907 9.50819 40.8952 9.98574 40.5769 10.32C40.1709 10.7498 39.4705 10.8772 38.3642 10.726C38.014 10.6782 37.7036 10.6862 37.425 10.7578C36.5336 10.9727 36.1674 11.6174 36.1674 12.9784C36.1674 13.0819 36.1754 13.1854 36.1834 13.2968L36.2152 13.5674C36.3046 14.377 36.1494 15.1948 35.7695 15.9154C35.5546 16.3213 35.4272 16.7591 35.3954 17.2127C35.3954 17.4197 35.2282 17.5789 35.0213 17.5789ZM36.1356 6.10164C35.7536 6.10164 35.3636 6.05388 34.9735 5.96633C34.488 5.8549 34.0423 5.52857 33.7717 5.0749L33.3897 4.45408C33.2623 4.24714 33.1827 4.03224 33.1429 3.80938C33.0713 3.40346 32.7768 3.15672 32.538 3.02142C32.1878 2.81448 31.9092 2.50407 31.7182 2.1061L31.4317 1.46937C31.3441 1.27038 31.4317 1.03957 31.6227 0.952016C31.8137 0.864464 32.0525 0.952016 32.1401 1.14304L32.4266 1.77978C32.538 2.02651 32.7131 2.21753 32.9201 2.34488C33.4613 2.65529 33.8115 3.12489 33.8991 3.68203C33.9229 3.80142 33.9707 3.92877 34.0423 4.05612L34.4244 4.67694C34.5915 4.95551 34.8542 5.14653 35.1327 5.2102C35.6421 5.32959 36.1436 5.36143 36.6211 5.29776C36.8838 5.26592 37.1464 5.10673 37.3454 4.86796C37.6479 4.50183 38.0617 4.2551 38.5154 4.16755L40.5689 3.76958C40.7838 3.72979 40.9907 3.86509 41.0305 4.07999C41.0703 4.29489 40.935 4.50183 40.7201 4.54163L38.6666 4.93959C38.3881 4.98735 38.1413 5.13857 37.9583 5.36143C37.6319 5.75939 37.1942 6.01409 36.7325 6.0698C36.5336 6.08572 36.3346 6.10164 36.1356 6.10164Z" fill="black"/>
<path d="M34.1768 17.6173C29.4729 17.6173 25.6445 13.7889 25.6445 9.08503C25.6445 4.38113 29.4729 0.552734 34.1768 0.552734C38.8807 0.552734 42.7091 4.38113 42.7091 9.08503C42.7091 13.7889 38.8807 17.6173 34.1768 17.6173ZM34.1768 1.3407C29.9027 1.3407 26.4245 4.81888 26.4245 9.09299C26.4245 13.3671 29.9027 16.8453 34.1768 16.8453C38.4509 16.8453 41.9212 13.3671 41.9212 9.09299C41.9212 4.81888 38.4509 1.3407 34.1768 1.3407ZM37.4242 34.6262H37.3844L36.2144 34.4909C36.0992 34.4727 35.9946 34.4133 35.9199 34.3238C35.8516 34.2294 35.8204 34.1133 35.8323 33.9974L35.8721 33.6233C35.6334 33.5199 35.4025 33.3925 35.1956 33.2413L34.8932 33.4801C34.8136 33.5438 34.6783 33.5835 34.5748 33.5676C34.4713 33.5517 34.344 33.488 34.2803 33.4005L33.556 32.4772C33.4923 32.3976 33.4525 32.2623 33.4685 32.1588C33.4844 32.0554 33.548 31.928 33.6356 31.8644L33.9301 31.6335C33.8346 31.3948 33.7629 31.1401 33.7231 30.8854L33.3491 30.8456C33.1342 30.8217 32.9511 30.5829 32.967 30.368L33.1023 29.1901C33.1262 28.9752 33.3809 28.7841 33.5799 28.808L33.9619 28.8558C34.0654 28.617 34.1927 28.3862 34.344 28.1792L34.1052 27.8768C33.9699 27.7096 34.0017 27.4072 34.1689 27.2719L35.1001 26.5396C35.1797 26.476 35.315 26.4362 35.4185 26.4521C35.5219 26.468 35.6493 26.5317 35.713 26.6192L35.9438 26.9137C36.1826 26.8182 36.4372 26.7466 36.6919 26.7068L36.7397 26.3247C36.7477 26.2213 36.8193 26.1019 36.8989 26.0382C36.9785 25.9745 37.1138 25.9268 37.2173 25.9427L38.3873 26.078C38.4907 26.0939 38.6181 26.1576 38.6818 26.2451C38.7454 26.3247 38.7852 26.46 38.7693 26.5635L38.7215 26.9376C38.9603 27.0411 39.1832 27.1684 39.3981 27.3196L39.7005 27.0809C39.8677 26.9456 40.1701 26.9853 40.3054 27.1525L41.0377 28.0837C41.1014 28.1633 41.1412 28.2986 41.1252 28.4021C41.1093 28.5056 41.0456 28.6329 40.9661 28.6966L40.6636 28.9354C40.7591 29.1741 40.8307 29.4288 40.8705 29.6835L41.2526 29.7313C41.3561 29.7472 41.4754 29.8109 41.5471 29.8984C41.6107 29.978 41.6505 30.1213 41.6346 30.2248L41.4993 31.3868C41.4834 31.4903 41.4197 31.6097 41.3401 31.6733C41.2605 31.737 41.1173 31.7768 41.0218 31.7688L40.6397 31.7211C40.5363 31.9599 40.4089 32.1907 40.2577 32.3976L40.4965 32.7001C40.5601 32.7797 40.5999 32.915 40.584 33.0184C40.5681 33.1219 40.5044 33.2493 40.4169 33.3129L39.4936 34.0372C39.3264 34.1725 39.016 34.1327 38.8887 33.9656L38.6499 33.6631C38.4111 33.7587 38.1564 33.8303 37.9017 33.8701L37.854 34.2521C37.846 34.3556 37.7744 34.475 37.6948 34.5387C37.6391 34.5864 37.5197 34.6262 37.4242 34.6262ZM36.6601 33.7427L37.1297 33.7984L37.1695 33.496C37.1934 33.3129 37.3764 33.1299 37.5675 33.114C37.9177 33.0821 38.2599 32.9866 38.5783 32.8274C38.7454 32.7478 38.9922 32.7956 39.1036 32.9389L39.2946 33.1856L39.6687 32.8911L39.4777 32.6523C39.3662 32.5091 39.3662 32.2544 39.4856 32.1111C39.7165 31.8325 39.8916 31.5301 40.003 31.1878C40.0587 31.0127 40.2736 30.8694 40.4646 30.8933L40.7671 30.9331L40.8228 30.4635L40.5203 30.4237C40.4231 30.4056 40.3339 30.3575 40.2654 30.2861C40.1969 30.2147 40.1524 30.1237 40.1383 30.0258C40.1065 29.6756 40.0109 29.3333 39.8518 29.015C39.7722 28.8478 39.8279 28.6011 39.9711 28.4817L40.2099 28.2907L39.9154 27.9166L39.6767 28.1076C39.5334 28.219 39.2707 28.219 39.1275 28.0996C38.8569 27.8688 38.5464 27.7017 38.2122 27.5823C38.0371 27.5266 37.8938 27.3037 37.9177 27.1207L37.9575 26.8182L37.4879 26.7625L37.4481 27.0649C37.4242 27.248 37.2411 27.4311 37.0501 27.447C36.6999 27.4788 36.3577 27.5743 36.0393 27.7335C35.8721 27.8211 35.6174 27.7574 35.4981 27.6062L35.315 27.3753L34.9409 27.6698L35.1319 27.9086C35.2513 28.0598 35.2434 28.3145 35.116 28.4578C34.8932 28.7284 34.7181 29.0309 34.6066 29.3731C34.5674 29.4623 34.5026 29.5379 34.4204 29.5903C34.3382 29.6427 34.2424 29.6696 34.145 29.6676L33.8425 29.6278L33.7868 30.0974L34.0893 30.1372C34.2723 30.1611 34.4554 30.3441 34.4713 30.5352C34.5032 30.8854 34.5987 31.2276 34.7578 31.546C34.8454 31.7131 34.7817 31.9678 34.6305 32.0793L34.3997 32.2623L34.6942 32.6364L34.933 32.4454C35.0762 32.3339 35.3389 32.334 35.4742 32.4533C35.7528 32.6842 36.0552 32.8593 36.3975 32.9707C36.5726 33.0264 36.7079 33.2493 36.6919 33.4323L36.6601 33.7427Z" fill="black"/>
<path d="M37.3128 32.358C37.2332 32.358 37.1536 32.35 37.066 32.342C36.6591 32.2939 36.2755 32.1262 35.9638 31.8602C35.6521 31.5942 35.4262 31.2418 35.3146 30.8475C35.2031 30.4532 35.2109 30.0347 35.337 29.6448C35.4631 29.2549 35.702 28.9111 36.0234 28.6569C36.4611 28.3147 36.9944 28.1634 37.5515 28.2271C38.1007 28.2908 38.5942 28.5694 38.9364 28.9992C39.1774 29.3047 39.3276 29.6718 39.3699 30.0585C39.4121 30.4453 39.3447 30.8362 39.1754 31.1865C39.0061 31.5368 38.7416 31.8324 38.4122 32.0396C38.0829 32.2467 37.7019 32.3571 37.3128 32.358ZM37.3048 28.9992C37.0183 28.9992 36.7397 29.0947 36.5089 29.2777C36.2383 29.4926 36.0632 29.7951 36.0234 30.1373C35.9438 30.8457 36.4452 31.4824 37.1536 31.57C37.862 31.6575 38.4987 31.1482 38.5862 30.4398C38.6658 29.7314 38.1644 29.0947 37.456 29.0071C37.4083 28.9992 37.3526 28.9992 37.3048 28.9992Z" fill="black"/>
</svg>
