<svg width="38" height="38" viewBox="0 0 38 38" fill="none" xmlns="http://www.w3.org/2000/svg">
<path d="M20.625 3.75H16.875C16.7092 3.75 16.5503 3.68415 16.4331 3.56694C16.3158 3.44973 16.25 3.29076 16.25 3.125C16.25 2.95924 16.3158 2.80027 16.4331 2.68306C16.5503 2.56585 16.7092 2.5 16.875 2.5H20.625C20.7908 2.5 20.9497 2.56585 21.0669 2.68306C21.1842 2.80027 21.25 2.95924 21.25 3.125C21.25 3.29076 21.1842 3.44973 21.0669 3.56694C20.9497 3.68415 20.7908 3.75 20.625 3.75ZM25.625 37.5H11.875C11.0465 37.499 10.2522 37.1694 9.66639 36.5836C9.08055 35.9978 8.75099 35.2035 8.75 34.375V13.125C8.75 12.9592 8.81585 12.8003 8.93306 12.6831C9.05027 12.5658 9.20924 12.5 9.375 12.5C9.54076 12.5 9.69973 12.5658 9.81694 12.6831C9.93415 12.8003 10 12.9592 10 13.125V34.375C10 35.4087 10.8412 36.25 11.875 36.25H25.625C26.6588 36.25 27.5 35.4087 27.5 34.375V13.125C27.5 12.9592 27.5658 12.8003 27.6831 12.6831C27.8003 12.5658 27.9592 12.5 28.125 12.5C28.2908 12.5 28.4497 12.5658 28.5669 12.6831C28.6842 12.8003 28.75 12.9592 28.75 13.125V34.375C28.75 36.0975 27.3487 37.5 25.625 37.5Z" fill="black"/>
<path d="M28.125 17.5C27.9592 17.5 27.8003 17.4342 27.6831 17.3169C27.5658 17.1997 27.5 17.0408 27.5 16.875V3.125C27.5 2.09125 26.6588 1.25 25.625 1.25H11.875C10.8412 1.25 10 2.09125 10 3.125V16.875C10 17.0408 9.93415 17.1997 9.81694 17.3169C9.69973 17.4342 9.54076 17.5 9.375 17.5C9.20924 17.5 9.05027 17.4342 8.93306 17.3169C8.81585 17.1997 8.75 17.0408 8.75 16.875V3.125C8.75 1.4025 10.1512 0 11.875 0H25.625C27.3487 0 28.75 1.4025 28.75 3.125V16.875C28.75 17.0408 28.6842 17.1997 28.5669 17.3169C28.4497 17.4342 28.2908 17.5 28.125 17.5ZM31.875 6.3125C31.53 6.3125 31.25 6.095 31.25 5.75V5.625C31.25 5.45924 31.3158 5.30027 31.4331 5.18306C31.5503 5.06585 31.7092 5 31.875 5C32.0408 5 32.1997 5.06585 32.3169 5.18306C32.4342 5.30027 32.5 5.45924 32.5 5.625C32.5 5.97 32.22 6.3125 31.875 6.3125ZM31.875 8.8125C31.53 8.8125 31.25 8.595 31.25 8.25V8.125C31.25 7.95924 31.3158 7.80027 31.4331 7.68306C31.5503 7.56585 31.7092 7.5 31.875 7.5C32.0408 7.5 32.1997 7.56585 32.3169 7.68306C32.4342 7.80027 32.5 7.95924 32.5 8.125C32.5 8.47 32.22 8.8125 31.875 8.8125ZM31.875 11.3125C31.53 11.3125 31.25 11.095 31.25 10.75V10.625C31.25 10.4592 31.3158 10.3003 31.4331 10.1831C31.5503 10.0658 31.7092 10 31.875 10C32.0408 10 32.1997 10.0658 32.3169 10.1831C32.4342 10.3003 32.5 10.4592 32.5 10.625C32.5 10.97 32.22 11.3125 31.875 11.3125ZM5.625 27.4375C5.28 27.4375 5 27.22 5 26.875V26.75C5 26.5842 5.06585 26.4253 5.18306 26.3081C5.30027 26.1908 5.45924 26.125 5.625 26.125C5.79076 26.125 5.94973 26.1908 6.06694 26.3081C6.18415 26.4253 6.25 26.5842 6.25 26.75C6.25 27.095 5.97 27.4375 5.625 27.4375ZM5.625 29.9375C5.28 29.9375 5 29.72 5 29.375V29.25C5 29.0842 5.06585 28.9253 5.18306 28.8081C5.30027 28.6908 5.45924 28.625 5.625 28.625C5.79076 28.625 5.94973 28.6908 6.06694 28.8081C6.18415 28.9253 6.25 29.0842 6.25 29.25C6.25 29.595 5.97 29.9375 5.625 29.9375ZM5.625 32.4375C5.28 32.4375 5 32.22 5 31.875V31.75C5 31.5842 5.06585 31.4253 5.18306 31.3081C5.30027 31.1908 5.45924 31.125 5.625 31.125C5.79076 31.125 5.94973 31.1908 6.06694 31.3081C6.18415 31.4253 6.25 31.5842 6.25 31.75C6.25 32.095 5.97 32.4375 5.625 32.4375Z" fill="black"/>
<path d="M29.8012 32.5C29.708 32.5 29.616 32.4792 29.5318 32.439C29.4477 32.3989 29.3736 32.3404 29.315 32.2679C29.2564 32.1954 29.2147 32.1107 29.1931 32.02C29.1715 31.9293 29.1704 31.8349 29.19 31.7438L29.6025 29.8312C29.6271 29.7164 29.6837 29.6108 29.7658 29.5268C29.8478 29.4427 29.952 29.3836 30.0662 29.3563C30.6694 29.2084 31.2459 28.9676 31.775 28.6425C31.8748 28.5816 31.9896 28.5499 32.1065 28.551C32.2234 28.5521 32.3376 28.586 32.4362 28.6488L33.6737 29.44L34.44 28.6675L33.6488 27.44C33.5852 27.3413 33.5507 27.2267 33.5492 27.1094C33.5476 26.992 33.5791 26.8766 33.64 26.7762C33.9652 26.2473 34.2056 25.6708 34.3525 25.0675C34.38 24.9536 34.4388 24.8497 34.5223 24.7675C34.6058 24.6853 34.7107 24.6282 34.825 24.6025L36.25 24.2863V23.215L34.8263 22.8988C34.7119 22.8731 34.6071 22.8159 34.5236 22.7337C34.4401 22.6516 34.3812 22.5476 34.3537 22.4338C34.2063 21.8307 33.9659 21.2542 33.6413 20.725C33.5799 20.6251 33.548 20.5099 33.5493 20.3927C33.5506 20.2754 33.5851 20.161 33.6488 20.0625L34.4412 18.8238L33.6762 18.0587L32.4375 18.8512C32.339 18.9143 32.2247 18.9483 32.1078 18.9494C31.9908 18.9505 31.8759 18.9187 31.7762 18.8575C31.2469 18.5329 30.6705 18.2921 30.0675 18.1438C29.9533 18.1164 29.8491 18.0573 29.767 17.9732C29.685 17.8892 29.6284 17.7836 29.6038 17.6688L29.2963 16.25H28.75C28.5842 16.25 28.4253 16.1842 28.3081 16.0669C28.1908 15.9497 28.125 15.7908 28.125 15.625C28.125 15.4592 28.1908 15.3003 28.3081 15.1831C28.4253 15.0658 28.5842 15 28.75 15H29.8C29.9428 15.0002 30.0812 15.0494 30.1922 15.1392C30.3031 15.229 30.38 15.3542 30.41 15.4938L30.7437 17.035C31.2012 17.1738 31.65 17.3613 32.0825 17.595L33.425 16.7362C33.5451 16.6595 33.6877 16.6261 33.8293 16.6416C33.971 16.6571 34.1031 16.7204 34.2038 16.8212L35.68 18.2963C35.7806 18.3971 35.8438 18.5293 35.859 18.6709C35.8742 18.8125 35.8406 18.9551 35.7638 19.075L34.905 20.4175C35.1387 20.8512 35.3262 21.3 35.465 21.7587L37.0088 22.1012C37.2963 22.165 37.5 22.42 37.5 22.7125V24.7875C37.4999 24.9298 37.4514 25.0677 37.3623 25.1787C37.2732 25.2896 37.1489 25.3668 37.01 25.3975L35.4662 25.74C35.3252 26.2044 35.1375 26.6533 34.9062 27.08L35.7638 28.41C35.8414 28.5295 35.8757 28.672 35.8609 28.8137C35.8461 28.9555 35.7831 29.0879 35.6825 29.1887L34.2062 30.6763C34.1055 30.7774 33.9733 30.841 33.8314 30.8567C33.6896 30.8724 33.5466 30.8392 33.4262 30.7625L32.0837 29.9038C31.6573 30.1346 31.2088 30.3222 30.745 30.4638L30.4113 32.005C30.3813 32.1447 30.3045 32.27 30.1935 32.36C30.0826 32.4501 29.9441 32.4995 29.8012 32.5Z" fill="black"/>
<path d="M30.4886 26.973C30.3547 26.9728 30.2245 26.9296 30.117 26.8498C30.0096 26.77 29.9306 26.6578 29.8917 26.5297C29.8528 26.4017 29.856 26.2645 29.9009 26.1384C29.9458 26.0123 30.03 25.904 30.1411 25.8293C30.6208 25.506 30.9737 25.0265 31.1398 24.4723C31.3058 23.9181 31.2747 23.3235 31.0518 22.7897C30.8288 22.2559 30.4278 21.8158 29.917 21.5443C29.4062 21.2728 28.817 21.1866 28.2498 21.3005C28.1694 21.317 28.0865 21.3175 28.0059 21.302C27.9253 21.2865 27.8485 21.2552 27.7799 21.21C27.7114 21.1648 27.6524 21.1065 27.6064 21.0385C27.5604 20.9705 27.5282 20.8941 27.5117 20.8137C27.4952 20.7332 27.4947 20.6503 27.5103 20.5697C27.5258 20.4891 27.5571 20.4123 27.6023 20.3438C27.6475 20.2752 27.7058 20.2163 27.7738 20.1702C27.8418 20.1242 27.9181 20.092 27.9986 20.0755C28.5435 19.9651 29.1061 19.9769 29.6458 20.1103C30.1856 20.2437 30.6889 20.4953 31.1196 20.847C31.5503 21.1986 31.8975 21.6414 32.1362 22.1436C32.3749 22.6457 32.4991 23.1946 32.4998 23.7505C32.5 24.3667 32.3482 24.9734 32.058 25.5169C31.7678 26.0605 31.3481 26.5241 30.8361 26.8668C30.7334 26.9359 30.6124 26.9729 30.4886 26.973ZM8.74984 17.5005C7.94412 17.5016 7.15951 17.2431 6.51227 16.7632C5.86502 16.2834 5.3896 15.6078 5.15646 14.8365C4.92332 14.0653 4.94487 13.2395 5.21791 12.4814C5.49095 11.7234 6.00095 11.0735 6.67234 10.628C6.81025 10.5419 6.97629 10.513 7.13522 10.5473C7.29414 10.5816 7.43344 10.6765 7.52355 10.8118C7.61367 10.9471 7.64749 11.1123 7.61786 11.2721C7.58823 11.432 7.49747 11.574 7.36484 11.668C6.8851 11.9901 6.53159 12.4682 6.3643 13.0213C6.19701 13.5743 6.22626 14.1682 6.44708 14.7022C6.66791 15.2361 7.06669 15.6772 7.57575 15.9506C8.08481 16.2239 8.67277 16.3127 9.23984 16.2018C9.40239 16.1697 9.57102 16.2032 9.70896 16.295C9.84689 16.3868 9.94291 16.5295 9.97609 16.6918C9.99229 16.7722 9.99247 16.8551 9.9766 16.9356C9.96073 17.0161 9.92913 17.0927 9.88361 17.161C9.83809 17.2293 9.77955 17.2879 9.71133 17.3335C9.64312 17.3791 9.56657 17.4108 9.48608 17.4268C9.24378 17.4761 8.99711 17.5008 8.74984 17.5005Z" fill="black"/>
<path d="M8.75 22.5006H7.7C7.55722 22.5004 7.41883 22.4513 7.30784 22.3614C7.19686 22.2716 7.11998 22.1465 7.09 22.0069L6.75625 20.4656C6.29235 20.3243 5.84385 20.1367 5.4175 19.9056L4.075 20.7644C3.95495 20.8411 3.81229 20.8745 3.67066 20.859C3.52903 20.8436 3.39693 20.7802 3.29625 20.6794L1.82 19.2044C1.71939 19.1035 1.65624 18.9714 1.64101 18.8297C1.62578 18.6881 1.65938 18.5455 1.73625 18.4256L2.595 17.0831C2.36391 16.6559 2.1763 16.2066 2.035 15.7419L0.49125 15.3994C0.352012 15.3686 0.227433 15.2913 0.138109 15.1802C0.048784 15.069 6.28478e-05 14.9307 0 14.7881V12.7131C5.59636e-05 12.5709 0.0486445 12.4329 0.137737 12.322C0.22683 12.2111 0.351095 12.1339 0.49 12.1031L2.03375 11.7606C2.1725 11.3019 2.36 10.8531 2.59375 10.4206L1.7375 9.08938C1.65986 8.96988 1.62557 8.82736 1.64036 8.68563C1.65515 8.54389 1.71812 8.41152 1.81875 8.31063L3.295 6.82313C3.39536 6.72141 3.52767 6.65732 3.6697 6.64161C3.81173 6.62591 3.95484 6.65954 4.075 6.73688L5.4175 7.59563C5.84395 7.36477 6.29244 7.17717 6.75625 7.03563L7.09 5.49438C7.10514 5.41206 7.13666 5.33362 7.18268 5.26372C7.22871 5.19381 7.28831 5.13386 7.35795 5.08743C7.42758 5.04099 7.50584 5.00902 7.58806 4.9934C7.67029 4.97778 7.75482 4.97884 7.83663 4.99651C7.91844 5.01418 7.99587 5.0481 8.06432 5.09626C8.13278 5.14442 8.19086 5.20584 8.23513 5.27687C8.27939 5.3479 8.30894 5.4271 8.32202 5.50977C8.33509 5.59244 8.33143 5.6769 8.31125 5.75813L7.89875 7.67063C7.87414 7.78549 7.81754 7.89105 7.73548 7.9751C7.65341 8.05916 7.54924 8.11827 7.435 8.14563C6.83154 8.29373 6.25468 8.53451 5.725 8.85938C5.62522 8.92027 5.51037 8.95197 5.39348 8.95087C5.27659 8.94976 5.16236 8.9159 5.06375 8.85313L3.82625 8.06188L3.05875 8.83438L3.85 10.0619C3.91408 10.1604 3.94891 10.275 3.95046 10.3925C3.95201 10.51 3.92021 10.6255 3.85875 10.7256C3.53355 11.2545 3.29314 11.8311 3.14625 12.4344C3.11876 12.5483 3.05992 12.6522 2.97642 12.7344C2.89291 12.8165 2.78807 12.8737 2.67375 12.8994L1.25 13.2144V14.2856L2.67375 14.6019C2.78807 14.6275 2.89291 14.6847 2.97642 14.7669C3.05992 14.8491 3.11876 14.953 3.14625 15.0669C3.2875 15.6569 3.52875 16.2319 3.85875 16.7756C3.98375 16.9794 3.98125 17.2369 3.85125 17.4381L3.05875 18.6756L3.82375 19.4406L5.0625 18.6481C5.16121 18.5856 5.27541 18.5519 5.39223 18.5508C5.50906 18.5497 5.62388 18.5813 5.72375 18.6419C6.26875 18.9731 6.84375 19.2131 7.4325 19.3556C7.54674 19.383 7.65091 19.4421 7.73298 19.5261C7.81504 19.6102 7.87164 19.7158 7.89625 19.8306L8.20375 21.2506H8.75C8.91576 21.2506 9.07473 21.3165 9.19194 21.4337C9.30915 21.5509 9.375 21.7099 9.375 21.8756C9.375 22.0414 9.30915 22.2004 9.19194 22.3176C9.07473 22.4348 8.91576 22.5006 8.75 22.5006ZM18.125 21.8756C18.03 21.8758 17.9362 21.8544 17.8507 21.8128C17.7653 21.7712 17.6905 21.7107 17.632 21.6358C17.5735 21.5609 17.5329 21.4737 17.5133 21.3807C17.4936 21.2877 17.4955 21.1915 17.5188 21.0994L18.7687 16.0994C18.788 16.0194 18.823 15.9441 18.8717 15.8778C18.9204 15.8115 18.9817 15.7556 19.0522 15.7133C19.1227 15.6709 19.2009 15.643 19.2823 15.6312C19.3637 15.6194 19.4466 15.6238 19.5263 15.6444C19.6059 15.6641 19.6809 15.6994 19.747 15.7482C19.813 15.7969 19.8687 15.8583 19.911 15.9287C19.9533 15.999 19.9813 16.0771 19.9933 16.1583C20.0054 16.2395 20.0013 16.3223 19.9813 16.4019L18.7312 21.4019C18.6979 21.5374 18.62 21.6577 18.5101 21.7436C18.4001 21.8295 18.2645 21.876 18.125 21.8756ZM21.875 21.8756C21.7515 21.8756 21.6307 21.839 21.528 21.7704C21.4253 21.7018 21.3452 21.6043 21.2979 21.4902C21.2505 21.3761 21.238 21.2506 21.262 21.1294C21.286 21.0082 21.3453 20.8969 21.4325 20.8094L23.4912 18.7506L21.4338 16.6931C21.3199 16.5752 21.2569 16.4174 21.2583 16.2535C21.2598 16.0896 21.3255 15.9329 21.4414 15.817C21.5572 15.7011 21.714 15.6354 21.8779 15.634C22.0417 15.6325 22.1996 15.6955 22.3175 15.8094L24.8175 18.3094C24.9347 18.4266 25.0005 18.5855 25.0005 18.7513C25.0005 18.917 24.9347 19.0759 24.8175 19.1931L22.3175 21.6931C22.1999 21.81 22.0408 21.8756 21.875 21.8756ZM15.625 21.8756C15.4592 21.8756 15.3001 21.81 15.1825 21.6931L12.6825 19.1931C12.5653 19.0759 12.4995 18.917 12.4995 18.7513C12.4995 18.5855 12.5653 18.4266 12.6825 18.3094L15.1825 15.8094C15.3004 15.6955 15.4583 15.6325 15.6221 15.634C15.786 15.6354 15.9428 15.7011 16.0586 15.817C16.1745 15.9329 16.2402 16.0896 16.2417 16.2535C16.2431 16.4174 16.1801 16.5752 16.0662 16.6931L14.0087 18.7506L16.0662 20.8081C16.1538 20.8955 16.2135 21.0068 16.2377 21.1281C16.262 21.2493 16.2497 21.3751 16.2025 21.4894C16.1552 21.6037 16.0751 21.7014 15.9723 21.7701C15.8696 21.8389 15.7487 21.8756 15.625 21.8756Z" fill="black"/>
</svg>
