<svg width="40" height="40" viewBox="0 0 40 40" fill="none" xmlns="http://www.w3.org/2000/svg">
<path d="M23.2422 3.125H24.0234C24.1788 3.125 24.3279 3.06327 24.4378 2.95338C24.5476 2.8435 24.6094 2.69446 24.6094 2.53906C24.6094 2.38366 24.5476 2.23463 24.4378 2.12474C24.3279 2.01486 24.1788 1.95313 24.0234 1.95312H23.2422C23.0868 1.95313 22.9377 2.01486 22.8279 2.12474C22.718 2.23463 22.6562 2.38366 22.6562 2.53906C22.6562 2.69446 22.718 2.8435 22.8279 2.95338C22.9377 3.06327 23.0868 3.125 23.2422 3.125ZM26.3672 3.125H27.1484C27.3038 3.125 27.4529 3.06327 27.5628 2.95338C27.6726 2.8435 27.7344 2.69446 27.7344 2.53906C27.7344 2.38366 27.6726 2.23463 27.5628 2.12474C27.4529 2.01486 27.3038 1.95313 27.1484 1.95312H26.3672C26.2118 1.95313 26.0627 2.01486 25.9529 2.12474C25.843 2.23463 25.7812 2.38366 25.7812 2.53906C25.7812 2.69446 25.843 2.8435 25.9529 2.95338C26.0627 3.06327 26.2118 3.125 26.3672 3.125ZM6.64062 24.1406H5.85938V23.3594C5.85938 23.204 5.79764 23.0549 5.68776 22.9451C5.57787 22.8352 5.42884 22.7734 5.27344 22.7734C5.11804 22.7734 4.969 22.8352 4.85912 22.9451C4.74923 23.0549 4.6875 23.204 4.6875 23.3594V24.7266C4.6875 24.882 4.74923 25.031 4.85912 25.1409C4.969 25.2508 5.11804 25.3125 5.27344 25.3125H6.64062C6.79603 25.3125 6.94506 25.2508 7.05495 25.1409C7.16483 25.031 7.22656 24.882 7.22656 24.7266C7.22656 24.5712 7.16483 24.4221 7.05495 24.3122C6.94506 24.2024 6.79603 24.1406 6.64062 24.1406ZM5.27344 21.2422C5.42884 21.2422 5.57787 21.1805 5.68776 21.0706C5.79764 20.9607 5.85938 20.8116 5.85938 20.6562V17.9531C5.85938 17.7977 5.79764 17.6487 5.68776 17.5388C5.57787 17.4289 5.42884 17.3672 5.27344 17.3672C5.11804 17.3672 4.969 17.4289 4.85912 17.5388C4.74923 17.6487 4.6875 17.7977 4.6875 17.9531V20.6562C4.6875 20.8116 4.74923 20.9607 4.85912 21.0706C4.969 21.1805 5.11804 21.2422 5.27344 21.2422ZM5.27344 15.8359C5.42884 15.8359 5.57787 15.7742 5.68776 15.6643C5.79764 15.5544 5.85938 15.4054 5.85938 15.25V12.5469C5.85938 12.3915 5.79764 12.2424 5.68776 12.1326C5.57787 12.0227 5.42884 11.9609 5.27344 11.9609C5.11804 11.9609 4.969 12.0227 4.85912 12.1326C4.74923 12.2424 4.6875 12.3915 4.6875 12.5469V15.25C4.6875 15.4054 4.74923 15.5544 4.85912 15.6643C4.969 15.7742 5.11804 15.8359 5.27344 15.8359ZM6.64062 7.89062H5.27344C5.11804 7.89062 4.969 7.95236 4.85912 8.06224C4.74923 8.17213 4.6875 8.32116 4.6875 8.47656V9.84375C4.6875 9.99915 4.74923 10.1482 4.85912 10.2581C4.969 10.368 5.11804 10.4297 5.27344 10.4297C5.42884 10.4297 5.57787 10.368 5.68776 10.2581C5.79764 10.1482 5.85938 9.99915 5.85938 9.84375V9.0625H6.64062C6.79603 9.0625 6.94506 9.00077 7.05495 8.89088C7.16483 8.781 7.22656 8.63196 7.22656 8.47656C7.22656 8.32116 7.16483 8.17213 7.05495 8.06224C6.94506 7.95236 6.79603 7.89062 6.64062 7.89062ZM14.1742 9.0625H16.6852C16.8406 9.0625 16.9896 9.00077 17.0995 8.89088C17.2094 8.781 17.2711 8.63196 17.2711 8.47656C17.2711 8.32116 17.2094 8.17213 17.0995 8.06224C16.9896 7.95236 16.8406 7.89062 16.6852 7.89062H14.1742C14.0188 7.89062 13.8698 7.95236 13.7599 8.06224C13.65 8.17213 13.5883 8.32116 13.5883 8.47656C13.5883 8.63196 13.65 8.781 13.7599 8.89088C13.8698 9.00077 14.0188 9.0625 14.1742 9.0625ZM12.2492 8.47656C12.2492 8.32116 12.1875 8.17213 12.0776 8.06224C11.9677 7.95236 11.8187 7.89062 11.6633 7.89062H9.15156C8.99616 7.89062 8.84713 7.95236 8.73724 8.06224C8.62736 8.17213 8.56562 8.32116 8.56562 8.47656C8.56562 8.63196 8.62736 8.781 8.73724 8.89088C8.84713 9.00077 8.99616 9.0625 9.15156 9.0625H11.6633C11.8187 9.0625 11.9677 9.00077 12.0776 8.89088C12.1875 8.781 12.2492 8.63196 12.2492 8.47656ZM19.1961 9.0625H21.7078C21.8632 9.0625 22.0122 9.00077 22.1221 8.89088C22.232 8.781 22.2937 8.63196 22.2937 8.47656C22.2937 8.32116 22.232 8.17213 22.1221 8.06224C22.0122 7.95236 21.8632 7.89062 21.7078 7.89062H19.1961C19.0407 7.89062 18.8917 7.95236 18.7818 8.06224C18.6719 8.17213 18.6102 8.32116 18.6102 8.47656C18.6102 8.63196 18.6719 8.781 18.7818 8.89088C18.8917 9.00077 19.0407 9.0625 19.1961 9.0625ZM24.2188 9.0625H25V9.84375C25 9.99915 25.0617 10.1482 25.1716 10.2581C25.2815 10.368 25.4305 10.4297 25.5859 10.4297C25.7413 10.4297 25.8904 10.368 26.0003 10.2581C26.1101 10.1482 26.1719 9.99915 26.1719 9.84375V8.47656C26.1719 8.32116 26.1101 8.17213 26.0003 8.06224C25.8904 7.95236 25.7413 7.89062 25.5859 7.89062H24.2188C24.0633 7.89062 23.9143 7.95236 23.8044 8.06224C23.6945 8.17213 23.6328 8.32116 23.6328 8.47656C23.6328 8.63196 23.6945 8.781 23.8044 8.89088C23.9143 9.00077 24.0633 9.0625 24.2188 9.0625ZM25.8313 22.6719C25.7773 22.5947 25.7055 22.5316 25.622 22.4881C25.5385 22.4446 25.4457 22.4218 25.3516 22.4218C25.2574 22.4218 25.1646 22.4446 25.0811 22.4881C24.9976 22.5316 24.9258 22.5947 24.8719 22.6719L21.9148 26.8953L19.5422 24.1844C19.4873 24.1215 19.4195 24.0711 19.3435 24.0366C19.2675 24.0021 19.185 23.9843 19.1016 23.9843C19.0181 23.9843 18.9356 24.0021 18.8596 24.0366C18.7836 24.0711 18.7159 24.1215 18.6609 24.1844L13.1922 30.4344C13.1181 30.5191 13.0699 30.6233 13.0534 30.7347C13.037 30.846 13.0529 30.9597 13.0994 31.0623C13.1459 31.1648 13.2209 31.2517 13.3155 31.3127C13.4101 31.3737 13.5203 31.4062 13.6328 31.4062H30.8203C30.9275 31.4062 31.0325 31.3767 31.1241 31.3211C31.2157 31.2655 31.2903 31.1858 31.3397 31.0908C31.3892 30.9957 31.4116 30.8889 31.4046 30.782C31.3976 30.6751 31.3614 30.5722 31.3 30.4844L25.8313 22.6719ZM14.9219 30.2344L19.0992 25.4602L21.2203 27.882L20.7031 28.625C20.614 28.7524 20.5792 28.91 20.6063 29.0631C20.6334 29.2162 20.7202 29.3523 20.8477 29.4414C20.9751 29.5305 21.1327 29.5653 21.2858 29.5382C21.4389 29.5111 21.575 29.4243 21.6641 29.2969L25.3516 24.0297L29.6945 30.2344H14.9219ZM15.1953 22.8125C15.6202 22.8125 16.0356 22.6865 16.3889 22.4504C16.7422 22.2143 17.0176 21.8788 17.1802 21.4862C17.3428 21.0937 17.3854 20.6617 17.3025 20.2449C17.2196 19.8282 17.015 19.4454 16.7145 19.1449C16.414 18.8444 16.0312 18.6398 15.6145 18.5569C15.1977 18.474 14.7657 18.5166 14.3731 18.6792C13.9806 18.8418 13.645 19.1171 13.409 19.4705C13.1729 19.8238 13.0469 20.2391 13.0469 20.6641C13.0477 21.2336 13.2743 21.7796 13.6771 22.1823C14.0798 22.5851 14.6258 22.8117 15.1953 22.8125ZM15.1953 19.6875C15.3885 19.6875 15.5773 19.7448 15.7379 19.8521C15.8985 19.9594 16.0236 20.1119 16.0975 20.2903C16.1715 20.4688 16.1908 20.6651 16.1531 20.8546C16.1154 21.044 16.0224 21.218 15.8858 21.3546C15.7493 21.4912 15.5753 21.5842 15.3858 21.6219C15.1964 21.6595 15 21.6402 14.8216 21.5663C14.6432 21.4924 14.4906 21.3672 14.3833 21.2066C14.276 21.046 14.2188 20.8572 14.2188 20.6641C14.2192 20.4052 14.3222 20.157 14.5052 19.974C14.6883 19.7909 14.9364 19.6879 15.1953 19.6875Z" fill="black"/>
<path d="M39.8281 37.4375L37.6281 35.2344L39.3844 34.4812C39.4979 34.4325 39.5931 34.3492 39.6565 34.2431C39.7198 34.137 39.7479 34.0136 39.7369 33.8906C39.7259 33.7675 39.6763 33.6511 39.5952 33.558C39.514 33.4648 39.4055 33.3997 39.2852 33.3719L34.5312 32.2781V17.5391C34.5304 16.9695 34.3038 16.4235 33.9011 16.0208C33.4983 15.6181 32.9524 15.3915 32.3828 15.3906H30.8594V0.585938C30.8594 0.430537 30.7976 0.281502 30.6878 0.171617C30.5779 0.0617325 30.4288 0 30.2734 0L0.585938 0C0.430537 0 0.281502 0.0617325 0.171617 0.171617C0.0617325 0.281502 0 0.430537 0 0.585938L0 28.7109C0 28.8663 0.0617325 29.0154 0.171617 29.1253C0.281502 29.2351 0.430537 29.2969 0.585938 29.2969H9.92188V32.3828C9.9227 32.9524 10.1493 33.4983 10.5521 33.9011C10.9548 34.3038 11.5008 34.5304 12.0703 34.5312H32.2773L33.3711 39.2852C33.3989 39.4055 33.464 39.514 33.5572 39.5952C33.6503 39.6763 33.7668 39.7259 33.8898 39.7369C34.0129 39.7479 34.1362 39.7198 34.2423 39.6565C34.3484 39.5931 34.4318 39.4979 34.4805 39.3844L35.2344 37.6281L37.4375 39.8281C37.4918 39.8826 37.5563 39.9259 37.6274 39.9554C37.6984 39.9849 37.7746 40.0001 37.8516 40.0001C37.9285 40.0001 38.0047 39.9849 38.0757 39.9554C38.1468 39.9259 38.2113 39.8826 38.2656 39.8281L39.8281 38.2656C39.8825 38.2113 39.9257 38.1467 39.9552 38.0757C39.9846 38.0046 39.9998 37.9285 39.9998 37.8516C39.9998 37.7746 39.9846 37.6985 39.9552 37.6274C39.9257 37.5564 39.8825 37.4918 39.8281 37.4375ZM29.6875 1.17188V3.90625H1.17188V1.17188H29.6875ZM9.92188 17.5391V24.1406H9.15156C8.99616 24.1406 8.84713 24.2024 8.73724 24.3122C8.62736 24.4221 8.56563 24.5712 8.56563 24.7266C8.56563 24.882 8.62736 25.031 8.73724 25.1409C8.84713 25.2508 8.99616 25.3125 9.15156 25.3125H9.92188V28.125H1.17188V5.07812H29.6875V15.3906H26.1539C26.1658 15.3447 26.1719 15.2974 26.1719 15.25V12.5469C26.1719 12.3915 26.1101 12.2424 26.0003 12.1326C25.8904 12.0227 25.7413 11.9609 25.5859 11.9609C25.4305 11.9609 25.2815 12.0227 25.1716 12.1326C25.0617 12.2424 25 12.3915 25 12.5469V15.25C25 15.2974 25.006 15.3447 25.018 15.3906H12.0703C11.5008 15.3915 10.9548 15.6181 10.5521 16.0208C10.1493 16.4235 9.9227 16.9695 9.92188 17.5391ZM12.0703 33.3594C11.8114 33.359 11.5633 33.2559 11.3802 33.0729C11.1972 32.8898 11.0942 32.6417 11.0938 32.3828V17.5391C11.0942 17.2802 11.1972 17.032 11.3802 16.849C11.5633 16.6659 11.8114 16.5629 12.0703 16.5625H32.3828C32.6417 16.5629 32.8898 16.6659 33.0729 16.849C33.2559 17.032 33.359 17.2802 33.3594 17.5391V32.007L32.5148 31.8117C32.418 31.7895 32.317 31.7922 32.2215 31.8197C32.126 31.8471 32.039 31.8984 31.9687 31.9687C31.8984 32.039 31.8471 32.126 31.8197 32.2215C31.7922 32.317 31.7895 32.418 31.8117 32.5148L32.007 33.3594H12.0703ZM37.8516 38.5852L35.4531 36.1875C35.3433 36.0776 35.1944 36.0158 35.0391 36.0156C35.0018 36.0154 34.9646 36.0191 34.9281 36.0266C34.8341 36.0447 34.7461 36.0855 34.6715 36.1456C34.597 36.2057 34.5384 36.2831 34.5008 36.3711L34.1102 37.275L33.1617 33.1648L37.2719 34.1133L36.368 34.5039C36.2799 34.5415 36.2024 34.6001 36.1423 34.6746C36.0822 34.7492 36.0413 34.8373 36.0232 34.9313C36.005 35.0253 36.0103 35.1223 36.0384 35.2139C36.0665 35.3054 36.1166 35.3886 36.1844 35.4562L38.582 37.8547L37.8516 38.5852Z" fill="black"/>
</svg>
