<svg width="37" height="38" viewBox="0 0 37 38" fill="none" xmlns="http://www.w3.org/2000/svg">
<path d="M33.402 5.09698C34.1813 5.09698 34.8118 4.46643 34.8118 3.68716C34.8118 2.9079 34.1813 2.27734 33.402 2.27734C32.6227 2.27734 31.9922 2.9079 31.9922 3.68716C31.9922 4.46643 32.6287 5.09698 33.402 5.09698ZM33.402 3.28266C33.6281 3.28266 33.8125 3.46706 33.8125 3.69311C33.8125 3.91916 33.6281 4.10357 33.402 4.10357C33.17 4.10357 32.9916 3.92511 32.9916 3.69311C32.9916 3.46112 33.176 3.28266 33.402 3.28266Z" fill="black"/>
<path d="M34.9659 0H5.9843C4.8838 0 3.98557 0.898239 3.98557 1.99873V5.05036H1.99873C0.898239 5.05036 0 5.9486 0 7.0491V32.1106C0 33.2111 0.898239 34.1093 1.99873 34.1093H15.282V37.0003C15.282 37.274 15.508 37.5 15.7816 37.5H25.1685C25.4422 37.5 25.6682 37.274 25.6682 37.0003V34.1093H30.9803C32.0808 34.1093 32.9791 33.2111 32.9791 32.1106V29.0589H34.9659C36.0664 29.0589 36.9646 28.1607 36.9646 27.0602V1.99873C36.9646 0.898239 36.0664 0 34.9659 0ZM4.98493 1.99873C4.98493 1.44551 5.43702 0.999366 5.9843 0.999366H34.9659C35.5191 0.999366 35.9653 1.45146 35.9653 1.99873V6.38285H17.0011L14.7704 4.06885C14.5979 3.89039 14.3599 3.78926 14.116 3.78926H9.20249C8.70281 3.78926 8.29235 4.19971 8.29235 4.6994V6.38285H4.98493V1.99873ZM1.99873 33.1159C1.44551 33.1159 0.999365 32.6638 0.999365 32.1165V7.0491C0.999365 6.49588 1.45146 6.04973 1.99873 6.04973H3.98557V27.0661C3.98557 28.1666 4.8838 29.0649 5.9843 29.0649H16.8345C17.0309 29.4456 17.1201 29.8739 17.0844 30.3141H16.3111C15.74 30.3141 15.282 30.7781 15.282 31.3432V33.1159H1.99873ZM19.9814 22.6523C20.0825 22.4738 20.2669 22.3608 20.4751 22.3608C20.7844 22.3608 21.0343 22.6106 21.0343 22.92C21.0343 23.1222 20.9272 23.3066 20.7547 23.4078C20.5643 23.5208 20.3383 23.5089 20.1063 23.378C20.0756 23.3622 20.0507 23.3373 20.0349 23.3066C19.8445 23.0033 19.9219 22.7653 19.9814 22.6523ZM19.9754 21.4566C19.6088 21.5785 19.3011 21.8331 19.1129 22.1704C18.8273 22.682 18.863 23.3066 19.1961 23.842C19.3032 24.0086 19.446 24.1454 19.6185 24.2465C19.8921 24.4012 20.1896 24.4845 20.481 24.4845C20.7547 24.4845 21.0224 24.4131 21.2603 24.2763C21.7362 23.9967 22.0336 23.4791 22.0336 22.9259C22.0336 22.2418 21.5875 21.6648 20.9748 21.4566V18.8868L25.3946 26.8639C25.3886 26.8698 25.3827 26.8817 25.3648 26.8877C23.8004 27.2922 22.7772 28.7556 22.8605 30.3141H18.0957C18.1849 28.7496 17.1558 27.2862 15.5615 26.8401L19.9754 18.8868V21.4566ZM24.6689 36.5006H16.2813L16.3111 31.3075H24.6391C24.657 31.3075 24.6689 31.3194 24.6689 31.3372V36.5006ZM31.9797 32.1106C31.9797 32.6638 31.5276 33.1099 30.9803 33.1099H25.6682V31.3372C25.6682 30.7662 25.2042 30.3081 24.6391 30.3081H23.8658C23.8301 29.8679 23.9253 29.4396 24.1156 29.0589H31.9797V32.1106ZM34.9659 28.0655H25.0853C25.2459 27.9763 25.4184 27.899 25.6087 27.8514C25.924 27.7681 26.1798 27.548 26.3107 27.2506C26.4356 26.9591 26.4178 26.6319 26.2631 26.3523L21.1473 17.1379C21.0164 16.894 20.7606 16.7394 20.481 16.7394C20.1955 16.7453 19.9397 16.8881 19.8029 17.132L14.6812 26.3523C14.5265 26.6319 14.5146 26.965 14.6395 27.2565C14.7644 27.5539 15.0202 27.7681 15.3355 27.8514C15.5259 27.899 15.6924 27.9763 15.859 28.0655H5.9843C5.43108 28.0655 4.98493 27.6134 4.98493 27.0661V7.38222H8.37563C8.87532 7.38222 9.28577 6.97176 9.28577 6.47208V4.78863H14.0744L16.3051 7.10263C16.4776 7.28109 16.7156 7.38222 16.9595 7.38222H35.9653V27.0602C35.9653 27.6134 35.5191 28.0655 34.9659 28.0655Z" fill="black"/>
<path d="M29.9979 5.09698C30.7772 5.09698 31.4077 4.46643 31.4077 3.68716C31.4077 2.9079 30.7772 2.27734 29.9979 2.27734C29.2186 2.27734 28.5881 2.9079 28.5881 3.68716C28.5881 4.46643 29.2186 5.09698 29.9979 5.09698ZM29.9979 3.28266C30.2239 3.28266 30.4083 3.46706 30.4083 3.69311C30.4083 3.91916 30.2239 4.10357 29.9979 4.10357C29.7659 4.10357 29.5874 3.92511 29.5874 3.69311C29.5874 3.46112 29.7718 3.28266 29.9979 3.28266ZM26.5893 5.09698C27.3686 5.09698 27.9992 4.46643 27.9992 3.68716C27.9992 2.9079 27.3686 2.27734 26.5893 2.27734C25.8101 2.27734 25.1795 2.9079 25.1795 3.68716C25.1795 4.46643 25.8101 5.09698 26.5893 5.09698ZM26.5893 3.28266C26.8154 3.28266 26.9998 3.46706 26.9998 3.69311C26.9998 3.91916 26.8154 4.10357 26.5893 4.10357C26.3573 4.10357 26.1789 3.92511 26.1789 3.69311C26.1789 3.46112 26.3633 3.28266 26.5893 3.28266ZM30.105 11.7356C29.8135 12.0271 29.6291 12.3959 29.5577 12.7885H22.5681V12.0033C22.5681 11.4679 22.1338 11.0337 21.5985 11.0337H19.3439C18.8086 11.0337 18.3743 11.4679 18.3743 12.0033V12.7885H11.3907C11.3252 12.4019 11.1408 12.0331 10.8434 11.7297C10.0879 10.9861 8.79706 10.998 8.05944 11.7356C7.68467 12.1104 7.48242 12.6041 7.48242 13.1276C7.48242 13.657 7.69062 14.1567 8.05944 14.5196C8.4342 14.9062 8.93388 15.1025 9.45141 15.1025C9.77858 15.1025 10.1117 15.0252 10.427 14.8646C10.7706 14.6886 11.0466 14.4043 11.2122 14.0556C11.2538 13.9664 11.2895 13.8771 11.3193 13.7879H16.1674C13.5322 15.0728 11.5453 17.4879 10.8553 20.4027H10.082C9.54659 20.4027 9.11234 20.837 9.11234 21.3724V23.6269C9.11234 24.1623 9.54659 24.5965 10.082 24.5965H12.3365C12.8719 24.5965 13.3061 24.1623 13.3061 23.6269V21.3724C13.3061 20.837 12.8719 20.4027 12.3365 20.4027H11.8844C12.7172 17.2619 15.2335 14.7992 18.3922 14.0377V14.2519C18.3922 14.7873 18.8264 15.2215 19.3618 15.2215H21.6163C22.1517 15.2215 22.5859 14.7873 22.5859 14.2519V14.0377C25.7387 14.7992 28.2549 17.2619 29.0937 20.4027H28.6832C28.1479 20.4027 27.7136 20.837 27.7136 21.3724V23.6269C27.7136 24.1623 28.1479 24.5965 28.6832 24.5965H30.9378C31.4731 24.5965 31.9074 24.1623 31.9074 23.6269V21.3724C31.9074 20.837 31.4731 20.4027 30.9378 20.4027H30.1228C29.4268 17.4879 27.44 15.0668 24.8107 13.7879H29.6707C29.7659 14.0615 29.9206 14.3114 30.1288 14.5196C30.5035 14.9062 31.0032 15.1025 31.5207 15.1025C31.8479 15.1025 32.181 15.0252 32.4963 14.8646C32.8399 14.6886 33.1159 14.4043 33.2815 14.0556C33.6682 13.2406 33.5314 12.3543 32.9187 11.7297C32.1394 10.992 30.8485 10.998 30.105 11.7356ZM10.3021 13.6332C10.2307 13.776 10.1117 13.9009 9.96894 13.9723C9.45141 14.234 9.00526 14.0675 8.76137 13.8117C8.57696 13.6332 8.47584 13.3893 8.47584 13.1276C8.47584 12.8718 8.57696 12.6279 8.76137 12.4376C8.94578 12.2532 9.18967 12.152 9.45141 12.152C9.7072 12.152 9.95704 12.2532 10.1355 12.4316C10.4448 12.7528 10.5043 13.199 10.3021 13.6332ZM12.3246 23.5971L10.0998 23.6269L10.0701 21.4021H12.2948L12.3246 23.5971ZM30.9199 23.5971L28.6951 23.6269L28.6654 21.4021H30.8902L30.9199 23.5971ZM19.3796 14.2578L19.3677 13.5083C19.3796 13.4548 19.3796 13.4012 19.3737 13.3417V13.3358C19.3737 13.318 19.3856 13.3061 19.3856 13.2882C19.3856 13.2585 19.3737 13.2347 19.3677 13.2109L19.3499 12.039H21.5747L21.5925 13.2109C21.5866 13.2406 21.5747 13.2644 21.5747 13.2942C21.5747 13.312 21.5806 13.3239 21.5866 13.3417V13.3477C21.5747 13.425 21.5806 13.4964 21.5985 13.5618L21.6104 14.234L19.3796 14.2578ZM32.3535 13.6332C32.2822 13.776 32.1632 13.9009 32.0204 13.9723C31.5029 14.234 31.0567 14.0675 30.8128 13.8117C30.6284 13.6332 30.5273 13.3893 30.5273 13.1276C30.5273 12.8718 30.6284 12.6279 30.8128 12.4376C30.9973 12.2532 31.2411 12.152 31.5029 12.152C31.7587 12.152 32.0085 12.2532 32.187 12.4316C32.4963 12.7528 32.5558 13.199 32.3535 13.6332Z" fill="black"/>
</svg>
