<svg width="38" height="38" viewBox="0 0 38 38" fill="none" xmlns="http://www.w3.org/2000/svg">
<path d="M7.12651 0.25C6.63005 0.251863 6.15441 0.449747 5.80314 0.800582C5.45186 1.15142 5.25337 1.6268 5.25089 2.12327V22.1244C5.25089 22.9583 6.50288 22.9583 6.50288 22.1244V6.50288H31.4979V22.1244C31.479 22.9749 32.7687 22.9749 32.7499 22.1244V2.12327C32.7474 1.62721 32.5492 1.15218 32.1984 0.801411C31.8477 0.450642 31.3726 0.252483 30.8766 0.25H7.12651ZM7.12651 1.50199H30.8766C31.2309 1.50199 31.4979 1.76657 31.4979 2.12327V5.25089H6.50288V2.12327C6.50288 1.76657 6.76745 1.49963 7.12415 1.49963L7.12651 1.50199ZM8.37614 2.74926C8.29394 2.74926 8.21254 2.76545 8.13659 2.79691C8.06064 2.82837 7.99163 2.87448 7.9335 2.93261C7.87537 2.99074 7.82926 3.05975 7.7978 3.1357C7.76634 3.21165 7.75015 3.29305 7.75015 3.37526C7.75015 3.45747 7.76634 3.53887 7.7978 3.61482C7.82926 3.69077 7.87537 3.75978 7.9335 3.8179C7.99163 3.87603 8.06064 3.92214 8.13659 3.9536C8.21254 3.98506 8.29394 4.00126 8.37614 4.00126C8.54217 4.00126 8.70139 3.9353 8.81879 3.8179C8.93619 3.70051 9.00214 3.54128 9.00214 3.37526C9.00214 3.20923 8.93619 3.05001 8.81879 2.93261C8.70139 2.81522 8.54217 2.74926 8.37614 2.74926ZM10.8754 2.74926C10.7932 2.74926 10.7118 2.76545 10.6358 2.79691C10.5599 2.82837 10.4909 2.87448 10.4328 2.93261C10.3746 2.99074 10.3285 3.05975 10.2971 3.1357C10.2656 3.21165 10.2494 3.29305 10.2494 3.37526C10.2494 3.45747 10.2656 3.53887 10.2971 3.61482C10.3285 3.69077 10.3746 3.75978 10.4328 3.8179C10.4909 3.87603 10.5599 3.92214 10.6358 3.9536C10.7118 3.98506 10.7932 4.00126 10.8754 4.00126C11.0414 4.00126 11.2007 3.9353 11.3181 3.8179C11.4354 3.70051 11.5014 3.54128 11.5014 3.37526C11.5014 3.20923 11.4354 3.05001 11.3181 2.93261C11.2007 2.81522 11.0414 2.74926 10.8754 2.74926ZM13.3747 2.74926C13.2925 2.74926 13.2111 2.76545 13.1351 2.79691C13.0592 2.82837 12.9902 2.87448 12.932 2.93261C12.8739 2.99074 12.8278 3.05975 12.7963 3.1357C12.7649 3.21165 12.7487 3.29305 12.7487 3.37526C12.7487 3.45747 12.7649 3.53887 12.7963 3.61482C12.8278 3.69077 12.8739 3.75978 12.932 3.8179C12.9902 3.87603 13.0592 3.92214 13.1351 3.9536C13.2111 3.98506 13.2925 4.00126 13.3747 4.00126C13.5407 4.00126 13.6999 3.9353 13.8173 3.8179C13.9347 3.70051 14.0007 3.54128 14.0007 3.37526C14.0007 3.20923 13.9347 3.05001 13.8173 2.93261C13.6999 2.81522 13.5407 2.74926 13.3747 2.74926ZM22.0937 2.74926C21.2504 2.80832 21.3071 4.02252 22.1244 4.00126H29.627C30.4419 3.98236 30.4419 2.76816 29.627 2.74926H22.0937ZM2.12799 4.00126C1.6313 4.00311 1.15542 4.20092 0.803769 4.55169C0.452115 4.90246 0.253109 5.37784 0.25 5.87452V28.375C0.25 29.4025 1.10041 30.2482 2.12799 30.2482H35.8751C36.3712 30.2457 36.8462 30.0476 37.197 29.6968C37.5477 29.3461 37.7459 28.871 37.7484 28.375V5.87452C37.7459 5.37847 37.5477 4.90343 37.197 4.55267C36.8462 4.2019 36.3712 4.00374 35.8751 4.00126H34.6231C33.7727 3.98236 33.7727 5.26978 34.6231 5.25089H35.8751C36.2318 5.25089 36.4964 5.51546 36.4964 5.87452V24.0001H1.49963V5.87452C1.49963 5.51546 1.77129 5.25089 2.12799 5.25089H3.3729C4.22331 5.26978 4.22331 3.98236 3.3729 3.99889L2.12799 4.00126ZM20.8843 8.99033C20.7503 8.98914 20.6195 9.03094 20.5111 9.10961C20.4027 9.18827 20.3223 9.29964 20.2819 9.42735L16.5306 20.6764C16.2661 21.4677 17.4519 21.8646 17.7188 21.0732L21.4701 9.82184C21.5027 9.72795 21.5126 9.62763 21.4987 9.52919C21.4849 9.43075 21.4478 9.33702 21.3906 9.25576C21.3333 9.17449 21.2575 9.10804 21.1695 9.06188C21.0814 9.01572 20.9837 8.9912 20.8843 8.99033ZM23.6009 12.6046L26.7734 15.2503L23.6009 17.8984C22.9229 18.4275 23.7591 19.4291 24.404 18.8575L28.1482 15.7322C28.2182 15.6734 28.2745 15.6001 28.3131 15.5172C28.3518 15.4344 28.3718 15.3441 28.3718 15.2527C28.3718 15.1612 28.3518 15.0709 28.3131 14.9881C28.2745 14.9053 28.2182 14.8319 28.1482 14.7731L24.4017 11.6455C24.2808 11.5444 24.1269 11.4914 23.9694 11.4967C23.3788 11.5486 23.1662 12.2526 23.6009 12.6069V12.6046ZM13.9865 11.4943C13.845 11.499 13.7093 11.5514 13.6014 11.6431L9.85255 14.7708C9.78253 14.8295 9.72622 14.9029 9.68759 14.9857C9.64896 15.0686 9.62894 15.1589 9.62894 15.2503C9.62894 15.3417 9.64896 15.432 9.68759 15.5149C9.72622 15.5977 9.78253 15.6711 9.85255 15.7298L13.5991 18.8551C14.244 19.4551 15.1062 18.4204 14.3975 17.896L11.2227 15.2503L14.4022 12.6069C14.5035 12.5241 14.5763 12.4117 14.6103 12.2854C14.6444 12.1591 14.638 12.0253 14.5922 11.9028C14.5463 11.7804 14.4632 11.6753 14.3546 11.6025C14.2459 11.5296 14.1172 11.4903 13.9865 11.4943ZM1.49963 25.2521H36.4987V28.375C36.501 28.4573 36.4865 28.5392 36.4561 28.6157C36.4257 28.6923 36.3801 28.7618 36.322 28.8201C36.2639 28.8785 36.1945 28.9244 36.1181 28.9551C36.0417 28.9857 35.9598 29.0006 35.8775 28.9986H2.12799C2.04517 29.0012 1.96269 28.9869 1.8856 28.9565C1.8085 28.9261 1.73841 28.8804 1.6796 28.822C1.62078 28.7636 1.57449 28.6939 1.54355 28.617C1.51261 28.5402 1.49766 28.4578 1.49963 28.375V25.2521ZM20.2843 26.5017H17.7212C16.9228 26.5962 16.9771 27.7253 17.7496 27.7466H20.2512C21.1087 27.8246 21.1795 26.5182 20.2843 26.5017ZM15.496 31.4506C15.3733 31.4481 15.2526 31.4817 15.1489 31.5472C15.0451 31.6127 14.9629 31.7073 14.9125 31.8191C14.6101 32.464 14.0715 33.2176 13.1408 33.9995H12.125C11.6288 34.0032 11.154 34.2025 10.8037 34.5541C10.4535 34.9057 10.256 35.3812 10.2541 35.8775V37.1224C10.2518 37.4673 10.5305 37.7484 10.8754 37.7507H27.1253C27.2077 37.7507 27.2893 37.7345 27.3654 37.7029C27.4415 37.6713 27.5107 37.6249 27.5688 37.5666C27.627 37.5082 27.673 37.4389 27.7044 37.3627C27.7357 37.2864 27.7516 37.2048 27.7513 37.1224V35.8775C27.7482 35.3808 27.5497 34.9052 27.1987 34.5538C26.8477 34.2023 26.3724 34.0032 25.8757 33.9995H24.8599C23.9316 33.2199 23.3906 32.464 23.0882 31.8191C23.0572 31.7392 23.0101 31.6664 22.9499 31.6054C22.8896 31.5444 22.8174 31.4964 22.7378 31.4645C22.6582 31.4325 22.5729 31.4172 22.4872 31.4196C22.4014 31.422 22.3171 31.442 22.2394 31.4783C22.1617 31.5147 22.0923 31.5666 22.0355 31.6308C21.9787 31.6951 21.9357 31.7704 21.9092 31.8519C21.8827 31.9335 21.8732 32.0197 21.8814 32.105C21.8896 32.1904 21.9152 32.2732 21.9567 32.3483C22.2 32.868 22.5709 33.4302 23.0741 33.9995H14.9267C15.4275 33.4325 15.8007 32.8703 16.044 32.3459C16.0894 32.2517 16.1105 32.1476 16.1054 32.0431C16.1002 31.9386 16.0689 31.8371 16.0144 31.7479C15.9599 31.6586 15.8839 31.5844 15.7933 31.532C15.7028 31.4797 15.6005 31.4509 15.496 31.4483V31.4506ZM12.125 35.2491H25.8733C25.9564 35.2472 26.039 35.2621 26.1161 35.293C26.1932 35.3239 26.2632 35.3701 26.322 35.4288C26.3807 35.4876 26.4269 35.5576 26.4578 35.6347C26.4887 35.7118 26.5036 35.7944 26.5017 35.8775V36.5011H11.5014V35.8775C11.5014 35.5208 11.7683 35.2491 12.125 35.2491Z" fill="black"/>
</svg>
