<svg width="211" height="128" viewBox="0 0 211 128" fill="none" xmlns="http://www.w3.org/2000/svg">
<path d="M4.13164 116.343C3.49287 115.442 2.24452 115.23 1.34339 115.868C0.442261 116.507 0.22958 117.755 0.868357 118.657L4.13164 116.343ZM88 101L86.8266 99.3804L88 101ZM210.5 0L190.006 10.6452L209.472 23.0711L210.5 0ZM66.7861 72.9105L64.7935 73.082L66.7861 72.9105ZM68.5727 74.5509L68.6234 72.5516L68.5727 74.5509ZM103.449 50.7014L102.617 52.5205L103.449 50.7014ZM102.535 50.525L102.42 48.5283L102.535 50.525ZM0.868357 118.657C3.55615 122.448 8.01252 125.099 13.6026 126.54C19.2034 127.982 26.0745 128.25 33.8376 127.172C49.3695 125.015 68.7135 117.443 89.1734 102.62L86.8266 99.3804C66.7865 113.899 48.0472 121.16 33.2874 123.21C25.9047 124.235 19.5778 123.948 14.6005 122.666C9.61248 121.381 6.11051 119.135 4.13164 116.343L0.868357 118.657ZM89.1734 102.62C97.3831 96.6718 108.15 86.9063 113.502 76.918C116.182 71.9169 117.654 66.5805 116.427 61.5355C115.177 56.3977 111.261 52.0727 104.28 48.8824L102.617 52.5205C108.869 55.3774 111.667 58.8924 112.54 62.4808C113.435 66.162 112.436 70.4379 109.976 75.0287C105.049 84.2241 94.8595 93.5606 86.8266 99.3804L89.1734 102.62ZM102.42 48.5283C95.7532 48.9123 86.1946 50.4988 78.4045 54.1247C70.6729 57.7233 63.9873 63.7142 64.7935 73.082L68.7787 72.739C68.1938 65.9428 72.8621 61.1164 80.0924 57.7511C87.2643 54.413 96.2757 52.8888 102.65 52.5217L102.42 48.5283ZM68.522 76.5503C100.202 77.3537 165.387 66.0581 202.419 16.366L199.212 13.9758C163.302 62.1625 99.7171 73.3401 68.6234 72.5516L68.522 76.5503ZM64.7935 73.082C64.9664 75.0916 66.6298 76.5023 68.522 76.5503L68.6234 72.5516C68.6312 72.5518 68.6651 72.5569 68.7036 72.5919C68.7225 72.609 68.741 72.6322 68.7554 72.661C68.7703 72.6908 68.777 72.7189 68.7787 72.739L64.7935 73.082ZM104.28 48.8824C103.72 48.6263 103.077 48.4905 102.42 48.5283L102.65 52.5217C102.629 52.5229 102.619 52.5209 102.618 52.5207C102.617 52.5205 102.617 52.5204 102.617 52.5206C102.618 52.5207 102.618 52.5208 102.617 52.5205L104.28 48.8824Z" fill="#075471"/>
</svg>
