<svg width="26" height="30" viewBox="0 0 26 30" fill="none" xmlns="http://www.w3.org/2000/svg">
<path d="M25.17 26.055L19.155 24L17.085 30L12.465 21L8.085 30L6.015 24L0 26.055L4.38 17.055C2.94 15.255 2.085 12.975 2.085 10.5C2.085 7.71523 3.19125 5.04451 5.16038 3.07538C7.12951 1.10625 9.80023 0 12.585 0C15.3698 0 18.0405 1.10625 20.0096 3.07538C21.9788 5.04451 23.085 7.71523 23.085 10.5C23.085 12.975 22.23 15.255 20.79 17.055L25.17 26.055ZM5.085 10.5L9.12 12.51L8.835 17.01L12.585 14.52L16.335 16.995L16.08 12.51L20.085 10.5L16.065 8.475L16.335 4.005L12.585 6.465L8.835 3.975L9.09 8.49L5.085 10.5Z" fill="black"/>
</svg>
