<svg width="84" height="80" viewBox="0 0 84 80" fill="none" xmlns="http://www.w3.org/2000/svg">
<path d="M37.6727 2.1594C40.0893 0.816504 43.0279 0.816507 45.4445 2.1594L73.4353 17.7139C75.9746 19.125 77.5494 21.8017 77.5494 24.7067V55.2936C77.5494 58.1986 75.9746 60.8753 73.4353 62.2864L45.4445 77.8409C43.0279 79.1838 40.0893 79.1838 37.6727 77.8409L9.68188 62.2864C7.14259 60.8753 5.56779 58.1986 5.56779 55.2936V24.7067C5.56779 21.8017 7.14259 19.125 9.68188 17.7139L37.6727 2.1594Z" fill="#075471"/>
<path d="M23.4188 52.4583H40.3573C40.5526 52.4583 40.7399 52.3807 40.878 52.2426C41.0162 52.1045 41.0938 51.9172 41.0938 51.7219C41.0938 51.5266 41.0162 51.3392 40.878 51.2011C40.7399 51.063 40.5526 50.9854 40.3573 50.9854H23.4188C21.7941 50.9854 20.4729 49.6642 20.4729 48.0396V30.3646H55.8229V34.0469C55.8325 35.0116 57.2833 35.0161 57.2958 34.0469V27.4188C57.2958 24.9818 55.314 23 52.8771 23H23.4188C20.9818 23 19 24.9818 19 27.4188V48.0396C19 50.4765 20.9818 52.4583 23.4188 52.4583ZM20.4729 27.4188C20.4729 25.7941 21.7941 24.4729 23.4188 24.4729H52.8771C54.5017 24.4729 55.8229 25.7941 55.8229 27.4188V28.8917H20.4729V27.4188Z" fill="white"/>
<path d="M24.8911 25.9453H23.4182C22.4505 25.9615 22.4498 27.402 23.4182 27.4182H24.8911C25.8589 27.402 25.8596 25.9615 24.8911 25.9453ZM28.5734 25.9453H27.1005C26.1328 25.9615 26.1321 27.402 27.1005 27.4182H28.5734C29.5411 27.402 29.5419 25.9615 28.5734 25.9453ZM32.2557 25.9453H30.7828C29.8151 25.9615 29.8144 27.402 30.7828 27.4182H32.2557C33.2234 27.402 33.2242 25.9615 32.2557 25.9453ZM29.3099 32.5734H22.6818C21.7155 32.5889 21.7119 34.0301 22.6818 34.0463H29.3099C30.2761 34.0309 30.2798 32.5896 29.3099 32.5734ZM22.6818 36.9922H38.1474C39.1107 36.9774 39.1195 35.5362 38.1474 35.5193H22.6818C21.717 35.534 21.7104 36.976 22.6818 36.9922ZM38.8839 39.2015C38.8839 39.0062 38.8063 38.8189 38.6682 38.6808C38.53 38.5427 38.3427 38.4651 38.1474 38.4651H22.6818C22.4865 38.4651 22.2991 38.5427 22.161 38.6808C22.0229 38.8189 21.9453 39.0062 21.9453 39.2015C21.9453 39.3969 22.0229 39.5842 22.161 39.7223C22.2991 39.8604 22.4865 39.938 22.6818 39.938H38.1474C38.3427 39.938 38.53 39.8604 38.6682 39.7223C38.8063 39.5842 38.8839 39.3969 38.8839 39.2015ZM27.6212 42.3632C27.4831 42.2251 27.2958 42.1475 27.1005 42.1475C26.9052 42.1475 26.718 42.2251 26.5798 42.3632L24.3705 44.5725C24.2324 44.7106 24.1548 44.8979 24.1548 45.0932C24.1548 45.2885 24.2324 45.4758 24.3705 45.6139L26.5798 47.8233C27.2633 48.5008 28.2995 47.4661 27.6212 46.7819L25.9325 45.0932L27.6212 43.4045C27.7593 43.2664 27.8368 43.0791 27.8368 42.8838C27.8368 42.6886 27.7593 42.5013 27.6212 42.3632ZM33.208 47.8233C33.3461 47.9613 33.5334 48.0389 33.7287 48.0389C33.9239 48.0389 34.1112 47.9613 34.2493 47.8233L36.4587 45.6139C36.5968 45.4758 36.6743 45.2885 36.6743 45.0932C36.6743 44.8979 36.5968 44.7106 36.4587 44.5725L34.2493 42.3632C33.5659 41.6856 32.5297 42.7196 33.208 43.4045L34.8967 45.0932L33.208 46.7819C33.0699 46.92 32.9924 47.1073 32.9924 47.3026C32.9924 47.4979 33.0699 47.6852 33.208 47.8233ZM28.2744 49.4486C28.453 49.5273 28.6555 49.5322 28.8377 49.4621C29.0198 49.392 29.1668 49.2526 29.2466 49.0745L32.1924 42.4464C32.2717 42.2679 32.2768 42.0651 32.2067 41.8828C32.1365 41.7005 31.9968 41.5536 31.8183 41.4743C31.6398 41.395 31.437 41.3898 31.2547 41.46C31.0724 41.5301 30.9255 41.6699 30.8462 41.8484L27.9003 48.4765C27.861 48.5649 27.8396 48.6602 27.8371 48.7569C27.8347 48.8535 27.8513 48.9498 27.886 49.0401C27.9208 49.1303 27.9729 49.2129 28.0396 49.283C28.1062 49.3531 28.186 49.4094 28.2744 49.4486ZM49.715 47.5184L48.0263 45.8297L49.715 44.141C50.3925 43.459 49.3578 42.4206 48.6736 43.0996L46.4642 45.309C46.3262 45.4471 46.2486 45.6344 46.2486 45.8297C46.2486 46.0249 46.3262 46.2122 46.4642 46.3503L48.6736 48.5597C49.357 49.2373 50.3932 48.2025 49.715 47.5184ZM56.3431 43.0996C55.6589 42.4221 54.6235 43.4575 55.3017 44.141L56.9904 45.8297L55.3017 47.5184C54.6242 48.2018 55.6589 49.238 56.3431 48.5597C59.5842 45.1993 59.5717 46.4534 56.3431 43.0996ZM53.912 42.2107C53.7334 42.132 53.531 42.1272 53.3488 42.1973C53.1667 42.2674 53.0197 42.4067 52.9399 42.5848L49.9941 49.213C49.9148 49.3915 49.9096 49.5942 49.9798 49.7765C50.05 49.9588 50.1897 50.1058 50.3682 50.1851C50.5467 50.2644 50.7494 50.2695 50.9317 50.1993C51.1141 50.1292 51.261 49.9895 51.3403 49.811L54.2862 43.1828C54.3254 43.0944 54.3469 42.9992 54.3494 42.9025C54.3518 42.8058 54.3352 42.7096 54.3005 42.6193C54.2657 42.529 54.2135 42.4465 54.1469 42.3764C54.0802 42.3063 54.0004 42.25 53.912 42.2107Z" fill="white"/>
<path d="M58.7686 35.5195H46.2488C43.8119 35.5195 41.8301 37.5013 41.8301 39.9383V51.7216C41.8301 54.1586 43.8119 56.1404 46.2488 56.1404H58.7686C61.2056 56.1404 63.1874 54.1586 63.1874 51.7216V39.9383C63.1874 37.5013 61.2056 35.5195 58.7686 35.5195ZM61.7145 51.7216C61.7145 53.3462 60.3932 54.6674 58.7686 54.6674H46.2488C44.6242 54.6674 43.303 53.3462 43.303 51.7216V39.9383C43.303 38.3137 44.6242 36.9924 46.2488 36.9924H58.7686C60.3932 36.9924 61.7145 38.3137 61.7145 39.9383V51.7216Z" fill="white"/>
</svg>
