<svg width="90" height="90" viewBox="0 0 90 90" fill="none" xmlns="http://www.w3.org/2000/svg">
<path d="M11.25 69.6094H43.5938C43.9667 69.6094 44.3244 69.4612 44.5881 69.1975C44.8518 68.9338 45 68.5761 45 68.2031C45 67.8302 44.8518 67.4725 44.5881 67.2088C44.3244 66.945 43.9667 66.7969 43.5938 66.7969H11.25C8.14781 66.7969 5.625 64.2741 5.625 61.1719V27.4219H73.125V34.4531C73.1433 36.2953 75.9136 36.3037 75.9375 34.4531V21.7969C75.9375 17.1436 72.1533 13.3594 67.5 13.3594H11.25C6.59672 13.3594 2.8125 17.1436 2.8125 21.7969V61.1719C2.8125 65.8252 6.59672 69.6094 11.25 69.6094ZM5.625 21.7969C5.625 18.6947 8.14781 16.1719 11.25 16.1719H67.5C70.6022 16.1719 73.125 18.6947 73.125 21.7969V24.6094H5.625V21.7969Z" fill="white"/>
<path d="M14.0625 18.9844H11.25C9.40219 19.0153 9.40078 21.7659 11.25 21.7969H14.0625C15.9103 21.7659 15.9117 19.0153 14.0625 18.9844ZM21.0938 18.9844H18.2813C16.4334 19.0153 16.432 21.7659 18.2813 21.7969H21.0938C22.9416 21.7659 22.943 19.0153 21.0938 18.9844ZM28.125 18.9844H25.3125C23.4647 19.0153 23.4633 21.7659 25.3125 21.7969H28.125C29.9728 21.7659 29.9742 19.0153 28.125 18.9844ZM22.5 31.6406H9.84375C7.99875 31.6701 7.99172 34.4222 9.84375 34.4531H22.5C24.345 34.4236 24.352 31.6715 22.5 31.6406ZM9.84375 40.0781H39.375C41.2144 40.05 41.2313 37.2979 39.375 37.2656H9.84375C8.00156 37.2937 7.98891 40.0472 9.84375 40.0781ZM40.7813 44.2968C40.7813 43.9239 40.6331 43.5662 40.3694 43.3025C40.1057 43.0388 39.748 42.8906 39.375 42.8906H9.84375C9.47079 42.8906 9.1131 43.0388 8.84938 43.3025C8.58566 43.5662 8.4375 43.9239 8.4375 44.2968C8.4375 44.6698 8.58566 45.0275 8.84938 45.2912C9.1131 45.5549 9.47079 45.7031 9.84375 45.7031H39.375C39.748 45.7031 40.1057 45.5549 40.3694 45.2912C40.6331 45.0275 40.7813 44.6698 40.7813 44.2968ZM19.2755 50.3339C19.0118 50.0702 18.6541 49.9221 18.2813 49.9221C17.9084 49.9221 17.5507 50.0702 17.287 50.3339L13.0683 54.5526C12.8047 54.8163 12.6566 55.1739 12.6566 55.5468C12.6566 55.9197 12.8047 56.2773 13.0683 56.5411L17.287 60.7598C18.592 62.0535 20.5706 60.0778 19.2755 58.7714L16.0509 55.5468L19.2755 52.3223C19.5391 52.0586 19.6872 51.701 19.6872 51.3281C19.6872 50.9552 19.5391 50.5976 19.2755 50.3339ZM29.9433 60.7598C30.207 61.0234 30.5646 61.1715 30.9375 61.1715C31.3104 61.1715 31.668 61.0234 31.9317 60.7598L36.1505 56.5411C36.4141 56.2773 36.5622 55.9197 36.5622 55.5468C36.5622 55.1739 36.4141 54.8163 36.1505 54.5526L31.9317 50.3339C30.6267 49.0401 28.6481 51.0145 29.9433 52.3223L33.1678 55.5468L29.9433 58.7714C29.6797 59.0351 29.5316 59.3927 29.5316 59.7656C29.5316 60.1385 29.6797 60.4961 29.9433 60.7598ZM20.5228 63.8634C20.8638 64.0137 21.2505 64.0229 21.5983 63.8891C21.9461 63.7552 22.2268 63.4892 22.3791 63.149L28.0041 50.4928C28.1555 50.1519 28.1653 49.7648 28.0313 49.4167C27.8974 49.0686 27.6306 48.788 27.2897 48.6365C26.9488 48.4851 26.5617 48.4753 26.2136 48.6093C25.8655 48.7432 25.5849 49.01 25.4334 49.3509L19.8084 62.0071C19.7334 62.1759 19.6924 62.3578 19.6877 62.5425C19.6831 62.7271 19.7148 62.9109 19.7811 63.0832C19.8475 63.2556 19.9471 63.4132 20.0744 63.5471C20.2016 63.681 20.354 63.7884 20.5228 63.8634ZM61.463 60.1776L58.2385 56.9531L61.463 53.7286C62.7568 52.4264 60.781 50.4436 59.4746 51.7401L55.2558 55.9589C54.9922 56.2226 54.8441 56.5802 54.8441 56.9531C54.8441 57.326 54.9922 57.6836 55.2558 57.9473L59.4746 62.166C60.7796 63.4598 62.7582 61.484 61.463 60.1776ZM74.1193 51.7401C72.8129 50.4464 70.8357 52.4236 72.1308 53.7286L75.3553 56.9531L72.1308 60.1776C70.8371 61.4826 72.8129 63.4612 74.1193 62.166C80.3082 55.7493 80.2843 58.1442 74.1193 51.7401ZM69.4772 50.0428C69.1362 49.8925 68.7496 49.8832 68.4017 50.0171C68.0539 50.1509 67.7732 50.417 67.621 50.7572L61.996 63.4134C61.8445 63.7543 61.8347 64.1413 61.9687 64.4895C62.1027 64.8376 62.3695 65.1182 62.7103 65.2696C63.0512 65.4211 63.4383 65.4309 63.7864 65.2969C64.1345 65.1629 64.4152 64.8961 64.5666 64.5553L70.1916 51.899C70.2666 51.7302 70.3076 51.5483 70.3123 51.3637C70.317 51.1791 70.2853 50.9953 70.2189 50.8229C70.1526 50.6506 70.0529 50.4929 69.9257 50.3591C69.7984 50.2252 69.646 50.1177 69.4772 50.0428Z" fill="white"/>
<path d="M78.75 37.2656H54.8438C50.1905 37.2656 46.4062 41.0498 46.4062 45.7031V68.2031C46.4062 72.8564 50.1905 76.6406 54.8438 76.6406H78.75C83.4033 76.6406 87.1875 72.8564 87.1875 68.2031V45.7031C87.1875 41.0498 83.4033 37.2656 78.75 37.2656ZM84.375 68.2031C84.375 71.3053 81.8522 73.8281 78.75 73.8281H54.8438C51.7416 73.8281 49.2188 71.3053 49.2188 68.2031V45.7031C49.2188 42.6009 51.7416 40.0781 54.8438 40.0781H78.75C81.8522 40.0781 84.375 42.6009 84.375 45.7031V68.2031Z" fill="white"/>
</svg>
