<svg width="90" height="90" viewBox="0 0 90 90" fill="none" xmlns="http://www.w3.org/2000/svg">
<path d="M61.6219 28.1391C61.3366 27.3142 60.8014 26.5988 60.0907 26.0922C59.3799 25.5856 58.529 25.3131 57.6562 25.3125H56.25V22.5H57.6562C58.7741 22.4967 59.8452 22.0511 60.6357 21.2607C61.4261 20.4702 61.8717 19.3991 61.875 18.2812V7.03125C61.8717 5.91339 61.4261 4.84228 60.6357 4.05183C59.8452 3.26138 58.7741 2.81584 57.6562 2.8125H7.03125C5.91339 2.81584 4.84228 3.26138 4.05183 4.05183C3.26138 4.84228 2.81584 5.91339 2.8125 7.03125V18.2812C2.81584 19.3991 3.26138 20.4702 4.05183 21.2607C4.84228 22.0511 5.91339 22.4967 7.03125 22.5H8.4375V25.3125H7.03125C5.91339 25.3158 4.84228 25.7614 4.05183 26.5518C3.26138 27.3423 2.81584 28.4134 2.8125 29.5312V40.7812C2.81584 41.8991 3.26138 42.9702 4.05183 43.7607C4.84228 44.5511 5.91339 44.9967 7.03125 45H8.4375V47.8125H7.03125C5.91339 47.8158 4.84228 48.2614 4.05183 49.0518C3.26138 49.8423 2.81584 50.9134 2.8125 52.0312V63.2812C2.81584 64.3991 3.26138 65.4702 4.05183 66.2607C4.84228 67.0511 5.91339 67.4967 7.03125 67.5H33.75V78.75C33.75 84.2906 47.1938 87.1875 60.4688 87.1875C73.7438 87.1875 87.1875 84.2906 87.1875 78.75V36.5625C87.1875 31.1766 74.5172 28.3078 61.6219 28.1391ZM7.03125 19.6875C6.65829 19.6875 6.3006 19.5393 6.03688 19.2756C5.77316 19.0119 5.625 18.6542 5.625 18.2812V7.03125C5.625 6.65829 5.77316 6.3006 6.03688 6.03688C6.3006 5.77316 6.65829 5.625 7.03125 5.625H57.6562C58.0292 5.625 58.3869 5.77316 58.6506 6.03688C58.9143 6.3006 59.0625 6.65829 59.0625 7.03125V18.2812C59.0625 18.6542 58.9143 19.0119 58.6506 19.2756C58.3869 19.5393 58.0292 19.6875 57.6562 19.6875H7.03125ZM53.4375 22.5V25.3125H47.8125V22.5H53.4375ZM45 22.5V25.3125H19.6875V22.5H45ZM16.875 22.5V25.3125H11.25V22.5H16.875ZM33.75 64.6875H7.03125C6.65829 64.6875 6.3006 64.5393 6.03688 64.2756C5.77316 64.0119 5.625 63.6542 5.625 63.2812V52.0312C5.625 51.6583 5.77316 51.3006 6.03688 51.0369C6.3006 50.7732 6.65829 50.625 7.03125 50.625H33.75V64.6875ZM11.25 47.8125V45H16.875V47.8125H11.25ZM33.75 47.8125H19.6875V45H33.75V47.8125ZM33.75 36.5625V42.1875H7.03125C6.65829 42.1875 6.3006 42.0393 6.03688 41.7756C5.77316 41.5119 5.625 41.1542 5.625 40.7812V29.5312C5.625 29.1583 5.77316 28.8006 6.03688 28.5369C6.3006 28.2732 6.65829 28.125 7.03125 28.125H57.6562C57.7231 28.1323 57.7891 28.1464 57.8531 28.1672C45.4781 28.5188 33.75 31.3875 33.75 36.5625ZM84.375 78.75C84.375 80.6625 75.9375 84.375 60.4688 84.375C45 84.375 36.5625 80.6625 36.5625 78.75V68.6531C41.1891 71.5922 50.85 73.125 60.4688 73.125C70.0875 73.125 79.7484 71.5922 84.375 68.6531V78.75ZM84.375 64.6875C84.375 66.6 75.9375 70.3125 60.4688 70.3125C45 70.3125 36.5625 66.6 36.5625 64.6875V54.5906C41.1891 57.5297 50.85 59.0625 60.4688 59.0625C70.0875 59.0625 79.7484 57.5297 84.375 54.5906V64.6875ZM84.375 50.625C84.375 52.5375 75.9375 56.25 60.4688 56.25C45 56.25 36.5625 52.5375 36.5625 50.625V40.5281C41.1891 43.4672 50.85 45 60.4688 45C70.0875 45 79.7484 43.4672 84.375 40.5281V50.625ZM60.4688 42.1875C45 42.1875 36.5625 38.475 36.5625 36.5625C36.5625 34.65 45 30.9375 60.4688 30.9375C75.9375 30.9375 84.375 34.65 84.375 36.5625C84.375 38.475 75.9375 42.1875 60.4688 42.1875Z" fill="white"/>
<path d="M59.0625 49.2188H61.875V52.0312H59.0625V49.2188ZM59.0625 64.6875H61.875V67.5H59.0625V64.6875ZM59.0625 77.3438H61.875V80.1562H59.0625V77.3438ZM15.4688 30.9375H9.84375C9.47079 30.9375 9.1131 31.0857 8.84938 31.3494C8.58566 31.6131 8.4375 31.9708 8.4375 32.3438V37.9688C8.4375 38.3417 8.58566 38.6994 8.84938 38.9631C9.1131 39.2268 9.47079 39.375 9.84375 39.375H15.4688C15.8417 39.375 16.1994 39.2268 16.4631 38.9631C16.7268 38.6994 16.875 38.3417 16.875 37.9688V32.3438C16.875 31.9708 16.7268 31.6131 16.4631 31.3494C16.1994 31.0857 15.8417 30.9375 15.4688 30.9375ZM14.0625 36.5625H11.25V33.75H14.0625V36.5625ZM26.7188 30.9375H21.0938C20.7208 30.9375 20.3631 31.0857 20.0994 31.3494C19.8357 31.6131 19.6875 31.9708 19.6875 32.3438V37.9688C19.6875 38.3417 19.8357 38.6994 20.0994 38.9631C20.3631 39.2268 20.7208 39.375 21.0938 39.375H26.7188C27.0917 39.375 27.4494 39.2268 27.7131 38.9631C27.9768 38.6994 28.125 38.3417 28.125 37.9688V32.3438C28.125 31.9708 27.9768 31.6131 27.7131 31.3494C27.4494 31.0857 27.0917 30.9375 26.7188 30.9375ZM25.3125 36.5625H22.5V33.75H25.3125V36.5625ZM15.4688 8.4375H9.84375C9.47079 8.4375 9.1131 8.58566 8.84938 8.84938C8.58566 9.1131 8.4375 9.47079 8.4375 9.84375V15.4688C8.4375 15.8417 8.58566 16.1994 8.84938 16.4631C9.1131 16.7268 9.47079 16.875 9.84375 16.875H15.4688C15.8417 16.875 16.1994 16.7268 16.4631 16.4631C16.7268 16.1994 16.875 15.8417 16.875 15.4688V9.84375C16.875 9.47079 16.7268 9.1131 16.4631 8.84938C16.1994 8.58566 15.8417 8.4375 15.4688 8.4375ZM14.0625 14.0625H11.25V11.25H14.0625V14.0625ZM26.7188 8.4375H21.0938C20.7208 8.4375 20.3631 8.58566 20.0994 8.84938C19.8357 9.1131 19.6875 9.47079 19.6875 9.84375V15.4688C19.6875 15.8417 19.8357 16.1994 20.0994 16.4631C20.3631 16.7268 20.7208 16.875 21.0938 16.875H26.7188C27.0917 16.875 27.4494 16.7268 27.7131 16.4631C27.9768 16.1994 28.125 15.8417 28.125 15.4688V9.84375C28.125 9.47079 27.9768 9.1131 27.7131 8.84938C27.4494 8.58566 27.0917 8.4375 26.7188 8.4375ZM25.3125 14.0625H22.5V11.25H25.3125V14.0625ZM30.9375 8.4375H50.625V11.25H30.9375V8.4375ZM53.4375 8.4375H56.25V11.25H53.4375V8.4375ZM30.9375 14.0625H50.625V16.875H30.9375V14.0625ZM53.4375 14.0625H56.25V16.875H53.4375V14.0625ZM15.4688 53.4375H9.84375C9.47079 53.4375 9.1131 53.5857 8.84938 53.8494C8.58566 54.1131 8.4375 54.4708 8.4375 54.8438V60.4688C8.4375 60.8417 8.58566 61.1994 8.84938 61.4631C9.1131 61.7268 9.47079 61.875 9.84375 61.875H15.4688C15.8417 61.875 16.1994 61.7268 16.4631 61.4631C16.7268 61.1994 16.875 60.8417 16.875 60.4688V54.8438C16.875 54.4708 16.7268 54.1131 16.4631 53.8494C16.1994 53.5857 15.8417 53.4375 15.4688 53.4375ZM14.0625 59.0625H11.25V56.25H14.0625V59.0625ZM26.7188 53.4375H21.0938C20.7208 53.4375 20.3631 53.5857 20.0994 53.8494C19.8357 54.1131 19.6875 54.4708 19.6875 54.8438V60.4688C19.6875 60.8417 19.8357 61.1994 20.0994 61.4631C20.3631 61.7268 20.7208 61.875 21.0938 61.875H26.7188C27.0917 61.875 27.4494 61.7268 27.7131 61.4631C27.9768 61.1994 28.125 60.8417 28.125 60.4688V54.8438C28.125 54.4708 27.9768 54.1131 27.7131 53.8494C27.4494 53.5857 27.0917 53.4375 26.7188 53.4375ZM25.3125 59.0625H22.5V56.25H25.3125V59.0625Z" fill="white"/>
</svg>
