<svg width="91" height="91" viewBox="0 0 91 91" fill="none" xmlns="http://www.w3.org/2000/svg">
<path d="M49.7657 11.375C49.7657 9.02322 47.8518 7.10938 45.5 7.10938C43.1483 7.10938 41.2344 9.02322 41.2344 11.375C41.2344 13.7268 43.1483 15.6406 45.5 15.6406C47.8518 15.6406 49.7657 13.7268 49.7657 11.375ZM44.0782 11.375C44.0779 11.0934 44.1611 10.818 44.3174 10.5837C44.4737 10.3494 44.696 10.1668 44.9561 10.0589C45.2163 9.95099 45.5026 9.92268 45.7788 9.97756C46.055 10.0324 46.3087 10.168 46.5079 10.3672C46.707 10.5663 46.8426 10.82 46.8975 11.0963C46.9523 11.3725 46.924 11.6588 46.8161 11.9189C46.7082 12.179 46.5256 12.4013 46.2913 12.5576C46.057 12.7139 45.7817 12.7972 45.5 12.7969C44.7166 12.7969 44.0782 12.1599 44.0782 11.375ZM9.24219 58.8656C8.26331 59.4324 7.54911 60.3642 7.25618 61.4567C6.96326 62.5492 7.11551 63.7134 7.67955 64.6938C8.24553 65.6736 9.17736 66.3885 10.2702 66.6815C11.3631 66.9746 12.5276 66.8217 13.5078 66.2565C14.4862 65.6892 15.1998 64.7573 15.4925 63.6649C15.7851 62.5724 15.6328 61.4086 15.069 60.4282C14.502 59.45 13.5704 58.7363 12.4784 58.4434C11.3863 58.1506 10.2226 58.3024 9.24219 58.8656ZM12.0859 63.7924C11.9242 63.8872 11.7453 63.9491 11.5595 63.9745C11.3737 63.9999 11.1847 63.9883 11.0034 63.9404C10.8221 63.8924 10.6521 63.8091 10.5031 63.6952C10.3542 63.5813 10.2292 63.4391 10.1355 63.2767C10.0417 63.1143 9.981 62.935 9.95683 62.749C9.93266 62.5631 9.94551 62.3742 9.99464 62.1932C10.0438 62.0122 10.1282 61.8428 10.2431 61.6946C10.358 61.5464 10.5011 61.4224 10.6641 61.3297C10.9905 61.1441 11.377 61.0952 11.7394 61.1935C12.1017 61.2919 12.4105 61.5296 12.5982 61.8548C12.786 62.1799 12.8375 62.5662 12.7415 62.9292C12.6455 63.2922 12.4099 63.6025 12.0859 63.7924ZM81.7579 58.8656C80.7774 58.3027 79.6138 58.1512 78.5219 58.444C77.4299 58.7369 76.4983 59.4503 75.931 60.4282C75.3669 61.4085 75.2144 62.5725 75.507 63.665C75.7997 64.7575 76.5136 65.6894 77.4922 66.2565C78.4724 66.8208 79.6379 66.9733 80.7303 66.6803C81.8227 66.3873 82.7543 65.6729 83.3205 64.6938C83.8846 63.7134 84.0368 62.5492 83.7439 61.4567C83.451 60.3642 82.7368 59.4324 81.7579 58.8656ZM80.8578 63.272C80.6693 63.5983 80.3588 63.8365 79.9947 63.9339C79.6306 64.0314 79.2426 63.9802 78.9163 63.7916C78.5899 63.6031 78.3518 63.2926 78.2543 62.9285C78.1568 62.5644 78.208 62.1765 78.3966 61.8501C78.4895 61.6882 78.6135 61.5462 78.7615 61.4323C78.9095 61.3185 79.0785 61.235 79.2589 61.1866C79.4392 61.1382 79.6273 61.126 79.8124 61.1505C79.9975 61.1751 80.1759 61.236 80.3374 61.3297C81.0156 61.7207 81.2503 62.5923 80.8578 63.272Z" fill="white"/>
<path d="M84.6029 53.9417C83.4726 53.2838 82.2228 52.8571 80.9262 52.6865C79.6296 52.5158 78.3119 52.6047 77.0499 52.9478C74.775 53.5525 72.7908 54.9497 71.4548 56.8878L61.1406 51.7292V39.2693L76.8978 31.3893C77.5565 32.2427 78.4023 32.9335 79.3702 33.4083C80.338 33.8831 81.402 34.1293 82.4801 34.1278C83.7114 34.1278 84.9271 33.8037 86.0234 33.1723C87.6685 32.2225 88.8444 30.6898 89.3363 28.8555C89.8283 27.0213 89.5752 25.1046 88.6254 23.4609C87.6756 21.8172 86.1428 20.6414 84.3086 20.1494C83.4072 19.9042 82.4662 19.8407 81.5401 19.9625C80.6139 20.0843 79.7213 20.389 78.914 20.8589C77.5553 21.6344 76.4943 22.8411 75.8988 24.2877C75.3033 25.7344 75.2076 27.3383 75.6266 28.8456L61.1406 36.09V27.0156H46.9218V21.2144C51.7377 20.5205 55.4531 16.3786 55.4531 11.375C55.4531 5.88798 50.9884 1.42188 45.5 1.42188C40.0115 1.42188 35.5468 5.88798 35.5468 11.375C35.5468 16.3786 39.2622 20.5205 44.0781 21.2144V27.0156H29.8593V36.0886L15.3733 28.8456C15.7924 27.3383 15.6966 25.7344 15.1011 24.2877C14.5057 22.8411 13.4446 21.6344 12.0859 20.8589C11.2786 20.389 10.386 20.0843 9.45987 19.9625C8.53376 19.8407 7.59267 19.9042 6.69133 20.1494C4.85712 20.6414 3.32434 21.8172 2.37452 23.4609C1.42471 25.1046 1.17162 27.0213 1.66359 28.8555C2.15556 30.6898 3.33145 32.2225 4.97655 33.1723C5.78454 33.6405 6.67715 33.9442 7.60298 34.0659C8.52881 34.1877 9.46959 34.1251 10.3711 33.8819C11.8531 33.4805 13.163 32.6051 14.1007 31.3893L29.8593 39.2679V51.7278L19.5437 56.885C18.2079 54.9466 16.2236 53.5493 13.9486 52.9449C12.6865 52.6026 11.369 52.5142 10.0725 52.6848C8.77593 52.8554 7.52616 53.2817 6.39558 53.9388C1.64368 56.6845 0.00852644 62.7829 2.75132 67.5362C4.0723 69.821 6.2462 71.4881 8.79548 72.1711C11.3447 72.8541 14.0609 72.4973 16.3473 71.1791C20.5034 68.7789 22.2751 63.8123 20.8191 59.4258L29.8593 54.9085V63.9844H44.0781V75.503C42.4736 75.8329 41.0319 76.7059 39.9959 77.9747C38.9599 79.2435 38.393 80.8307 38.3906 82.4688C38.3906 86.3889 41.5799 89.5781 45.5 89.5781C49.4201 89.5781 52.6093 86.3889 52.6093 82.4688C52.6067 80.8308 52.0396 79.2438 51.0037 77.975C49.9677 76.7062 48.5262 75.8332 46.9218 75.503V63.9844H61.1406V54.9085L70.178 59.4273C68.722 63.8152 70.4937 68.7804 74.6498 71.1805C76.9363 72.4984 79.6523 72.855 82.2015 72.172C84.7506 71.4889 86.9245 69.8222 88.2458 67.5376C90.99 62.7843 89.3548 56.6859 84.6029 53.9417ZM78.3481 25.9123C78.4919 25.3707 78.7416 24.8631 79.0828 24.4187C79.424 23.9743 79.8499 23.6019 80.3359 23.323C81.0666 22.9027 81.9054 22.7081 82.7466 22.7638C83.5878 22.8196 84.3936 23.1232 85.0624 23.6363C85.7313 24.1494 86.2332 24.8491 86.505 25.6471C86.7767 26.4451 86.806 27.3058 86.5893 28.1204C86.2663 29.1789 85.5448 30.0706 84.5771 30.6073C83.6093 31.1441 82.4709 31.2841 81.4019 30.9976C80.333 30.7112 79.417 30.0208 78.8473 29.0721C78.2776 28.1234 78.0986 26.9904 78.3481 25.9123ZM38.3906 11.375C38.3906 7.45489 41.5799 4.26562 45.5 4.26562C49.4201 4.26562 52.6093 7.45489 52.6093 11.375C52.6093 15.2951 49.4201 18.4844 45.5 18.4844C41.5799 18.4844 38.3906 15.2951 38.3906 11.375ZM12.2253 29.1484C11.8027 29.8779 11.1735 30.466 10.4171 30.8383C9.66069 31.2107 8.81097 31.3507 7.97509 31.2408C7.13922 31.1308 6.35462 30.7758 5.72027 30.2205C5.08591 29.6651 4.63022 28.9344 4.41065 28.1204C4.16114 27.0423 4.34013 25.9093 4.90986 24.9606C5.47958 24.0118 6.39552 23.3214 7.46447 23.035C8.53343 22.7486 9.67184 22.8885 10.6396 23.4253C11.6074 23.9621 12.3288 24.8538 12.6518 25.9123C12.7982 26.4531 12.8359 27.0176 12.7627 27.5731C12.6895 28.1286 12.5068 28.664 12.2253 29.1484ZM14.9282 68.7178C11.5314 70.6771 7.17619 69.5112 5.21685 66.1158C4.59549 65.0353 4.2687 63.8105 4.26916 62.5641C4.26962 61.3177 4.59731 60.0932 5.21946 59.0131C5.84161 57.9331 6.73642 57.0353 7.81441 56.4095C8.89239 55.7838 10.1158 55.452 11.3622 55.4474C11.9807 55.4474 12.6021 55.5299 13.2135 55.6934C14.1163 55.9328 14.9627 56.3489 15.7037 56.9176C16.4447 57.4862 17.0655 58.1962 17.5303 59.0064C18.4707 60.6398 18.7249 62.5795 18.2371 64.4001C17.7493 66.2206 16.5594 67.7734 14.9282 68.7178ZM49.7656 82.4688C49.7656 84.8205 47.8517 86.7344 45.5 86.7344C43.1482 86.7344 41.2343 84.8205 41.2343 82.4688C41.2343 80.117 43.1482 78.2031 45.5 78.2031C47.8517 78.2031 49.7656 80.117 49.7656 82.4688ZM58.2968 61.1406H32.7031V29.8594H58.2968V61.1406ZM85.7831 66.1158C83.8252 69.5126 79.4657 70.6786 76.0717 68.7178C72.6777 66.757 71.5103 62.4018 73.4697 59.0064C73.9344 58.1962 74.5553 57.4862 75.2962 56.9176C76.0372 56.3489 76.8836 55.9328 77.7865 55.6934C78.688 55.4492 79.629 55.3864 80.555 55.5084C81.481 55.6304 82.3736 55.935 83.181 56.4044C84.8119 57.349 86.0016 58.9018 86.4893 60.7222C86.9771 62.5427 86.7231 64.4823 85.7831 66.1158Z" fill="white"/>
<path d="M55.4531 44.0781H46.9218V46.9219H41.2343V49.7656H35.5468V58.2969H55.4531V44.0781ZM38.3906 52.6094H41.2343V55.4531H38.3906V52.6094ZM44.0781 55.4531V49.7656H46.9218V55.4531H44.0781ZM52.6093 55.4531H49.7656V46.9219H52.6093V55.4531ZM35.5468 32.7031H38.3906V35.5469H35.5468V32.7031ZM41.2343 32.7031H55.4531V35.5469H41.2343V32.7031ZM35.5468 38.3906H55.4531V41.2344H35.5468V38.3906Z" fill="white"/>
</svg>
