<svg width="512" height="392" viewBox="0 0 512 392" fill="none" xmlns="http://www.w3.org/2000/svg">
<path d="M473.534 0.707031H347.394C343.251 0.707031 339.894 4.06503 339.894 8.20703C339.894 12.349 343.251 15.707 347.394 15.707H473.535C486.474 15.707 497.001 26.234 497.001 39.173V86.164H15V39.173C15 26.234 25.526 15.707 38.466 15.707H312.349C316.492 15.707 319.849 12.349 319.849 8.20703C319.849 4.06503 316.492 0.707031 312.349 0.707031H38.466C17.256 0.707031 0 17.963 0 39.173V352.826C0 374.036 17.256 391.292 38.466 391.292H473.534C494.744 391.292 512 374.036 512 352.826V39.173C512 17.963 494.744 0.707031 473.534 0.707031ZM473.534 376.291H38.466C25.526 376.291 15 365.764 15 352.825V101.164H497V352.826C497 365.764 486.474 376.291 473.534 376.291Z" fill="white"/>
<path d="M49.6978 50.935C49.6978 58.608 55.9178 64.827 63.5898 64.827C71.2628 64.827 77.4828 58.607 77.4828 50.935C77.4828 43.262 71.2628 37.043 63.5898 37.043C55.9178 37.043 49.6978 43.263 49.6978 50.935ZM92.4338 50.935C92.4338 58.608 98.6538 64.827 106.326 64.827C113.999 64.827 120.219 58.607 120.219 50.935C120.219 43.262 113.999 37.043 106.326 37.043C98.6538 37.043 92.4338 43.263 92.4338 50.935ZM135.17 50.935C135.17 58.608 141.39 64.827 149.062 64.827C156.735 64.827 162.955 58.607 162.955 50.935C162.955 43.262 156.735 37.043 149.062 37.043C141.39 37.043 135.17 43.263 135.17 50.935ZM224.462 127.808H53.5488C43.8998 127.808 36.0488 135.659 36.0488 145.308V246.254C36.0488 250.396 39.4058 253.754 43.5488 253.754C47.6918 253.754 51.0488 250.396 51.0488 246.254V145.308C51.0488 143.93 52.1698 142.808 53.5488 142.808H224.462C225.841 142.808 226.962 143.93 226.962 145.308V316.222C226.962 317.6 225.841 318.722 224.462 318.722H53.5488C52.886 318.721 52.2506 318.458 51.7819 317.989C51.3133 317.52 51.0496 316.885 51.0488 316.222V281.343C51.0488 277.201 47.6918 273.843 43.5488 273.843C39.4058 273.843 36.0488 277.201 36.0488 281.343V316.222C36.0488 325.871 43.8998 333.722 53.5488 333.722H224.462C234.111 333.722 241.962 325.871 241.962 316.222V145.308C241.962 135.658 234.111 127.808 224.462 127.808ZM284.182 218.019H337.394C347.043 218.019 354.894 210.168 354.894 200.519V145.308C354.894 135.659 347.043 127.808 337.394 127.808H284.182C274.533 127.808 266.682 135.659 266.682 145.308V200.519C266.682 210.169 274.532 218.019 284.182 218.019ZM281.682 145.308C281.682 143.93 282.803 142.808 284.182 142.808H337.394C338.773 142.808 339.894 143.93 339.894 145.308V200.519C339.894 201.897 338.773 203.019 337.394 203.019H284.182C283.519 203.018 282.884 202.755 282.415 202.286C281.946 201.817 281.683 201.182 281.682 200.519V145.308ZM422.084 243.895H284.182C274.533 243.895 266.682 251.746 266.682 261.395V316.606C266.682 326.255 274.533 334.106 284.182 334.106H359.661C363.804 334.106 367.161 330.748 367.161 326.606C367.161 322.464 363.804 319.106 359.661 319.106H284.182C283.519 319.105 282.884 318.842 282.415 318.373C281.946 317.904 281.683 317.269 281.682 316.606V261.395C281.682 260.017 282.803 258.895 284.182 258.895H422.084C423.463 258.895 424.584 260.017 424.584 261.395V316.606C424.584 317.984 423.463 319.106 422.084 319.106H394.661C390.518 319.106 387.161 322.464 387.161 326.606C387.161 330.748 390.518 334.106 394.661 334.106H422.084C431.733 334.106 439.584 326.255 439.584 316.606V261.395C439.584 251.745 431.733 243.895 422.084 243.895ZM378.738 162.575H418.584C422.727 162.575 426.084 159.217 426.084 155.075C426.084 150.933 422.727 147.575 418.584 147.575H378.738C376.749 147.575 374.841 148.365 373.435 149.772C372.028 151.178 371.238 153.086 371.238 155.075C371.238 157.064 372.028 158.972 373.435 160.378C374.841 161.785 376.749 162.575 378.738 162.575ZM434.238 179.633H378.738C374.595 179.633 371.238 182.991 371.238 187.133C371.238 191.275 374.595 194.633 378.738 194.633H434.238C438.381 194.633 441.738 191.275 441.738 187.133C441.738 182.991 438.381 179.633 434.238 179.633ZM400.584 226.074C404.727 226.074 408.084 222.716 408.084 218.574C408.084 214.432 404.727 211.074 400.584 211.074H378.738C374.595 211.074 371.238 214.432 371.238 218.574C371.238 222.716 374.595 226.074 378.738 226.074H400.584Z" fill="white"/>
<path d="M117.472 276.538C119.796 276.538 122.12 275.927 124.239 274.704L178.378 243.447C182.615 241.001 185.145 236.621 185.145 231.729C185.146 226.836 182.617 222.456 178.379 220.009L124.239 188.752C120.002 186.307 114.944 186.306 110.707 188.752C106.471 191.198 103.941 195.579 103.941 200.471V262.986C103.941 267.878 106.47 272.259 110.707 274.705C112.762 275.901 115.095 276.533 117.472 276.538ZM118.94 203.012L168.675 231.726L118.94 260.441V203.012Z" fill="white"/>
</svg>
