<svg width="84" height="80" viewBox="0 0 84 80" fill="none" xmlns="http://www.w3.org/2000/svg">
<path d="M37.6727 2.1594C40.0893 0.816504 43.0279 0.816507 45.4445 2.1594L73.4353 17.7139C75.9746 19.125 77.5494 21.8017 77.5494 24.7067V55.2936C77.5494 58.1986 75.9746 60.8753 73.4353 62.2864L45.4445 77.8409C43.0279 79.1838 40.0893 79.1838 37.6727 77.8409L9.68188 62.2864C7.14259 60.8753 5.56779 58.1986 5.56779 55.2936V24.7067C5.56779 21.8017 7.14259 19.125 9.68188 17.7139L37.6727 2.1594Z" fill="#075471"/>
<path d="M59.8446 24H49.4972C49.1573 24 48.8819 24.2746 48.8819 24.6133C48.8819 24.9519 49.1573 25.2265 49.4972 25.2265H59.8447C60.9061 25.2265 61.7696 26.0873 61.7696 27.1452V30.9876H22.2305V27.1452C22.2305 26.0873 23.0939 25.2265 24.1554 25.2265H46.6224C46.9622 25.2265 47.2376 24.9519 47.2376 24.6133C47.2376 24.2746 46.9622 24 46.6224 24H24.1554C22.4155 24 21 25.411 21 27.1452V52.7917C21 54.526 22.4155 55.9369 24.1554 55.9369H59.8446C61.5845 55.9369 63 54.526 63 52.7917V27.1452C63 25.411 61.5845 24 59.8446 24ZM59.8446 54.7103H24.1554C23.0939 54.7103 22.2305 53.8496 22.2305 52.7916V32.2141H61.7695V52.7917C61.7695 53.8496 60.9061 54.7103 59.8446 54.7103Z" fill="white"/>
<path d="M25.0767 28.1047C25.0767 28.7321 25.5869 29.2406 26.2163 29.2406C26.8457 29.2406 27.3559 28.732 27.3559 28.1047C27.3559 27.4773 26.8457 26.9688 26.2163 26.9688C25.5869 26.9688 25.0767 27.4773 25.0767 28.1047ZM28.5824 28.1047C28.5824 28.7321 29.0926 29.2406 29.722 29.2406C30.3514 29.2406 30.8616 28.732 30.8616 28.1047C30.8616 27.4773 30.3514 26.9688 29.722 26.9688C29.0926 26.9688 28.5824 27.4773 28.5824 28.1047ZM32.0881 28.1047C32.0881 28.7321 32.5983 29.2406 33.2276 29.2406C33.8571 29.2406 34.3673 28.732 34.3673 28.1047C34.3673 27.4773 33.8571 26.9688 33.2276 26.9688C32.5983 26.9688 32.0881 27.4773 32.0881 28.1047ZM39.4128 34.3903H25.3926C24.6011 34.3903 23.957 35.0323 23.957 35.8212V44.0753C23.957 44.414 24.2324 44.6885 24.5723 44.6885C24.9121 44.6885 25.1875 44.414 25.1875 44.0753V35.8212C25.1875 35.7086 25.2795 35.6168 25.3926 35.6168H39.4128C39.5259 35.6168 39.6179 35.7086 39.6179 35.8212V49.7964C39.6179 49.909 39.5259 50.0008 39.4128 50.0008H25.3926C25.3382 50.0007 25.2861 49.9792 25.2476 49.9408C25.2092 49.9025 25.1876 49.8506 25.1875 49.7964V46.9444C25.1875 46.6057 24.9121 46.3312 24.5723 46.3312C24.2324 46.3312 23.957 46.6057 23.957 46.9444V49.7964C23.957 50.5853 24.6011 51.2273 25.3926 51.2273H39.4128C40.2043 51.2273 40.8483 50.5853 40.8483 49.7964V35.8212C40.8483 35.0322 40.2043 34.3903 39.4128 34.3903ZM44.3117 41.7666H48.6768C49.4683 41.7666 50.1123 41.1246 50.1123 40.3357V35.8212C50.1123 35.0323 49.4683 34.3903 48.6768 34.3903H44.3117C43.5202 34.3903 42.8762 35.0323 42.8762 35.8212V40.3357C42.8762 41.1247 43.5201 41.7666 44.3117 41.7666ZM44.1066 35.8212C44.1066 35.7086 44.1986 35.6168 44.3117 35.6168H48.6768C48.7899 35.6168 48.8818 35.7086 48.8818 35.8212V40.3357C48.8818 40.4484 48.7899 40.5401 48.6768 40.5401H44.3117C44.2573 40.54 44.2052 40.5185 44.1668 40.4802C44.1283 40.4418 44.1067 40.3899 44.1066 40.3357V35.8212ZM55.624 43.8824H44.3117C43.5202 43.8824 42.8762 44.5244 42.8762 45.3133V49.8278C42.8762 50.6167 43.5202 51.2587 44.3117 51.2587H50.5033C50.8432 51.2587 51.1186 50.9841 51.1186 50.6454C51.1186 50.3067 50.8432 50.0322 50.5033 50.0322H44.3117C44.2573 50.0321 44.2052 50.0106 44.1668 49.9722C44.1283 49.9339 44.1067 49.882 44.1066 49.8278V45.3133C44.1066 45.2006 44.1986 45.1089 44.3117 45.1089H55.624C55.7371 45.1089 55.8291 45.2006 55.8291 45.3133V49.8278C55.8291 49.9404 55.7371 50.0322 55.624 50.0322H53.3744C53.0346 50.0322 52.7592 50.3067 52.7592 50.6454C52.7592 50.9841 53.0346 51.2587 53.3744 51.2587H55.624C56.4155 51.2587 57.0595 50.6167 57.0595 49.8278V45.3133C57.0595 44.5243 56.4155 43.8824 55.624 43.8824ZM52.0683 37.2331H55.3369C55.6767 37.2331 55.9521 36.9585 55.9521 36.6199C55.9521 36.2812 55.6767 36.0066 55.3369 36.0066H52.0683C51.9051 36.0066 51.7486 36.0712 51.6332 36.1863C51.5178 36.3012 51.453 36.4572 51.453 36.6199C51.453 36.7825 51.5178 36.9385 51.6332 37.0535C51.7486 37.1685 51.9051 37.2331 52.0683 37.2331ZM56.621 38.6279H52.0683C51.7284 38.6279 51.453 38.9025 51.453 39.2411C51.453 39.5798 51.7284 39.8544 52.0683 39.8544H56.621C56.9608 39.8544 57.2362 39.5798 57.2362 39.2411C57.2362 38.9025 56.9608 38.6279 56.621 38.6279ZM53.8603 42.4252C54.2002 42.4252 54.4755 42.1507 54.4755 41.812C54.4755 41.4733 54.2002 41.1987 53.8603 41.1987H52.0683C51.7284 41.1987 51.453 41.4733 51.453 41.812C51.453 42.1507 51.7284 42.4252 52.0683 42.4252H53.8603Z" fill="white"/>
<path d="M30.6373 46.5545C30.8279 46.5545 31.0186 46.5046 31.1924 46.4046L35.6335 43.8488C35.9811 43.6488 36.1886 43.2906 36.1886 42.8906C36.1887 42.4905 35.9812 42.1324 35.6336 41.9323L31.1924 39.3765C30.8448 39.1766 30.4299 39.1765 30.0824 39.3765C29.7349 39.5765 29.5273 39.9348 29.5273 40.3348V45.4464C29.5273 45.8464 29.7348 46.2046 30.0824 46.4046C30.2509 46.5024 30.4423 46.5541 30.6373 46.5545ZM30.7577 40.5425L34.8376 42.8904L30.7577 45.2383V40.5425Z" fill="white"/>
</svg>
