<svg width="84" height="80" viewBox="0 0 84 80" fill="none" xmlns="http://www.w3.org/2000/svg">
<path d="M37.6727 2.1594C40.0893 0.816504 43.0279 0.816507 45.4445 2.1594L73.4353 17.7139C75.9746 19.125 77.5494 21.8017 77.5494 24.7067V55.2936C77.5494 58.1986 75.9746 60.8753 73.4353 62.2864L45.4445 77.8409C43.0279 79.1838 40.0893 79.1838 37.6727 77.8409L9.68188 62.2864C7.14259 60.8753 5.56779 58.1986 5.56779 55.2936V24.7067C5.56779 21.8017 7.14259 19.125 9.68188 17.7139L37.6727 2.1594Z" fill="#075471"/>
<path d="M26.9061 35.2734C26.9061 35.1023 26.9741 34.9382 27.0951 34.8172C27.2161 34.6962 27.3802 34.6283 27.5513 34.6283H39.176C39.3471 34.6283 39.5112 34.6962 39.6322 34.8172C39.7532 34.9382 39.8212 35.1023 39.8212 35.2734C39.8212 35.4445 39.7532 35.6086 39.6322 35.7296C39.5112 35.8506 39.3471 35.9186 39.176 35.9186H27.5513C27.3802 35.9186 27.2161 35.8506 27.0951 35.7296C26.9741 35.6086 26.9061 35.4445 26.9061 35.2734ZM27.5513 32.6815H39.176C39.3471 32.6815 39.5112 32.6135 39.6322 32.4925C39.7532 32.3715 39.8212 32.2074 39.8212 32.0363C39.8212 31.8652 39.7532 31.7011 39.6322 31.5801C39.5112 31.4591 39.3471 31.3912 39.176 31.3912H27.5513C27.3802 31.3912 27.2161 31.4591 27.0951 31.5801C26.9741 31.7011 26.9061 31.8652 26.9061 32.0363C26.9061 32.2074 26.9741 32.3715 27.0951 32.4925C27.2161 32.6135 27.3802 32.6815 27.5513 32.6815ZM27.5513 29.4442H39.176C39.3471 29.4442 39.5112 29.3762 39.6322 29.2552C39.7532 29.1343 39.8212 28.9702 39.8212 28.7991C39.8212 28.6279 39.7532 28.4638 39.6322 28.3429C39.5112 28.2219 39.3471 28.1539 39.176 28.1539H27.5513C27.3802 28.1539 27.2161 28.2219 27.0951 28.3429C26.9741 28.4638 26.9061 28.6279 26.9061 28.7991C26.9061 28.9702 26.9741 29.1343 27.0951 29.2552C27.2161 29.3762 27.3802 29.4442 27.5513 29.4442ZM27.5513 39.1558H39.176C39.3471 39.1558 39.5112 39.0878 39.6322 38.9668C39.7532 38.8458 39.8212 38.6817 39.8212 38.5106C39.8212 38.3395 39.7532 38.1754 39.6322 38.0544C39.5112 37.9334 39.3471 37.8654 39.176 37.8654H27.5513C27.3802 37.8654 27.2161 37.9334 27.0951 38.0544C26.9741 38.1754 26.9061 38.3395 26.9061 38.5106C26.9061 38.6817 26.9741 38.8458 27.0951 38.9668C27.2161 39.0878 27.3802 39.1558 27.5513 39.1558ZM46.5091 42.7213H27.5513C27.3802 42.7213 27.2161 42.7892 27.0951 42.9102C26.9741 43.0312 26.9061 43.1953 26.9061 43.3664C26.9061 43.5375 26.9741 43.7016 27.0951 43.8226C27.2161 43.9436 27.3802 44.0116 27.5513 44.0116H46.5091C46.6802 44.0116 46.8443 43.9436 46.9653 43.8226C47.0863 43.7016 47.1542 43.5375 47.1542 43.3664C47.1542 43.1953 47.0863 43.0312 46.9653 42.9102C46.8443 42.7892 46.6802 42.7213 46.5091 42.7213ZM46.5091 45.9584H27.5513C27.3802 45.9584 27.2161 46.0264 27.0951 46.1474C26.9741 46.2684 26.9061 46.4325 26.9061 46.6036C26.9061 46.7747 26.9741 46.9388 27.0951 47.0598C27.2161 47.1808 27.3802 47.2488 27.5513 47.2488H46.5091C46.6802 47.2488 46.8443 47.1808 46.9653 47.0598C47.0863 46.9388 47.1542 46.7747 47.1542 46.6036C47.1542 46.4325 47.0863 46.2684 46.9653 46.1474C46.8443 46.0264 46.6802 45.9584 46.5091 45.9584ZM46.5091 52.4328H27.5513C27.3802 52.4328 27.2161 52.5008 27.0951 52.6218C26.9741 52.7428 26.9061 52.9069 26.9061 53.078C26.9061 53.2491 26.9741 53.4132 27.0951 53.5342C27.2161 53.6552 27.3802 53.7231 27.5513 53.7231H46.5091C46.6802 53.7231 46.8443 53.6552 46.9653 53.5342C47.0863 53.4132 47.1542 53.2491 47.1542 53.078C47.1542 52.9069 47.0863 52.7428 46.9653 52.6218C46.8443 52.5008 46.6802 52.4328 46.5091 52.4328ZM46.5091 49.1956H27.5513C27.3802 49.1956 27.2161 49.2636 27.0951 49.3846C26.9741 49.5056 26.9061 49.6697 26.9061 49.8408C26.9061 50.0119 26.9741 50.176 27.0951 50.297C27.2161 50.418 27.3802 50.4859 27.5513 50.4859H46.5091C46.6802 50.4859 46.8443 50.418 46.9653 50.297C47.0863 50.176 47.1542 50.0119 47.1542 49.8408C47.1542 49.6697 47.0863 49.5056 46.9653 49.3846C46.8443 49.2636 46.6802 49.1956 46.5091 49.1956ZM59.7291 27.9746V30.269C59.7291 30.3993 59.6896 30.5267 59.6158 30.6341C59.542 30.7416 59.4374 30.8242 59.3157 30.8711L58.2196 31.2929C58.0535 31.8764 57.8203 32.4386 57.5249 32.9685L58.002 34.0426C58.0549 34.1618 58.0705 34.2941 58.0467 34.4223C58.0229 34.5505 57.9608 34.6685 57.8686 34.7607L56.2463 36.3831C56.1541 36.4753 56.0361 36.5374 55.9079 36.5612C55.7798 36.585 55.6474 36.5694 55.5282 36.5165L54.4546 36.0396C53.9246 36.3351 53.3621 36.5683 52.7784 36.7345L52.3568 37.8302C52.3099 37.9519 52.2273 38.0565 52.1198 38.1303C52.0123 38.2041 51.885 38.2436 51.7547 38.2436H51.0605V58.6553C51.0605 59.3968 50.4574 60 49.7159 60H28.2722C27.9078 60 27.579 59.8639 27.3214 59.6062L23.3938 55.6786C23.1362 55.4209 23 55.0922 23 54.7278V25.3581C23 24.6166 23.6031 24.0134 24.3447 24.0134H43.1613C43.1501 23.9168 43.1609 23.8189 43.1929 23.727C43.2248 23.6351 43.2772 23.5517 43.3459 23.4829L44.9683 21.8606C45.0605 21.7684 45.1784 21.7063 45.3066 21.6824C45.4348 21.6586 45.5672 21.6742 45.6863 21.7271L46.7605 22.2042C47.2903 21.9088 47.8525 21.6757 48.4359 21.5095L48.8579 20.4135C48.9047 20.2918 48.9874 20.1871 49.0949 20.1133C49.2024 20.0395 49.3297 20 49.4601 20H51.7544C51.8848 20 52.0121 20.0395 52.1196 20.1133C52.2271 20.1871 52.3097 20.2917 52.3565 20.4134L52.7784 21.5094C53.3618 21.6756 53.924 21.9087 54.4539 22.2041L55.5281 21.727C55.6472 21.6741 55.7796 21.6585 55.9078 21.6823C56.036 21.7061 56.1539 21.7683 56.2461 21.8605L57.8685 23.4828C57.9606 23.575 58.0227 23.693 58.0465 23.8212C58.0704 23.9494 58.0548 24.0817 58.0018 24.2009L57.5249 25.2746C57.8205 25.8046 58.0537 26.3671 58.2198 26.9507L59.3156 27.3724C59.4373 27.4193 59.5419 27.5019 59.6157 27.6094C59.6896 27.7169 59.7291 27.8442 59.7291 27.9746ZM27.3373 57.7973V55.6628H25.2027L27.3373 57.7973ZM49.7701 38.2437H49.4601C49.3298 38.2437 49.2024 38.2042 49.095 38.1304C48.9875 38.0566 48.9049 37.952 48.858 37.8303L48.4362 36.7342C47.8528 36.5681 47.2905 36.335 46.7607 36.0395L45.6865 36.5166C45.5673 36.5696 45.4349 36.5851 45.3068 36.5613C45.1786 36.5375 45.0606 36.4754 44.9684 36.3832L43.3461 34.7608C43.2539 34.6686 43.1918 34.5507 43.168 34.4225C43.1442 34.2943 43.1598 34.1619 43.2127 34.0428L43.6896 32.9691C43.394 32.4391 43.1608 31.8766 42.9947 31.2929L41.899 30.8712C41.7773 30.8243 41.6727 30.7417 41.5989 30.6342C41.5251 30.5267 41.4856 30.3994 41.4856 30.2691V27.9747C41.4856 27.8443 41.5251 27.717 41.5989 27.6095C41.6727 27.502 41.7773 27.4194 41.899 27.3726L42.995 26.9507C43.1582 26.3777 43.3861 25.8252 43.6742 25.3037H24.3447C24.3304 25.3041 24.3168 25.3099 24.3067 25.32C24.2965 25.3302 24.2907 25.3438 24.2903 25.3581V54.3725H27.6326C28.1812 54.3725 28.6275 54.8188 28.6275 55.3674V58.7098H49.7156C49.7299 58.7094 49.7435 58.7035 49.7536 58.6934C49.7638 58.6833 49.7696 58.6697 49.77 58.6554V38.2437H49.7701ZM58.4388 28.4176L57.4478 28.0362C57.35 27.9986 57.2629 27.9377 57.1939 27.8588C57.1249 27.7799 57.0762 27.6854 57.052 27.5835C56.8897 26.9017 56.6196 26.2502 56.2518 25.6536C56.1969 25.5643 56.1645 25.463 56.1574 25.3584C56.1504 25.2538 56.169 25.1491 56.2115 25.0533L56.643 24.0821L55.6471 23.0862L54.6753 23.5178C54.5795 23.5603 54.4748 23.5789 54.3703 23.5719C54.2657 23.5648 54.1645 23.5324 54.0752 23.4775C53.4788 23.1098 52.8274 22.8398 52.1458 22.6776C52.0439 22.6533 51.9494 22.6046 51.8705 22.5356C51.7916 22.4666 51.7308 22.3795 51.6931 22.2817L51.3114 21.2903H49.9031L49.5215 22.2816C49.4839 22.3794 49.423 22.4665 49.3441 22.5355C49.2652 22.6045 49.1708 22.6532 49.0688 22.6775C48.3872 22.8397 47.7358 23.1097 47.1393 23.4774C47.0501 23.5324 46.9488 23.5647 46.8443 23.5718C46.7397 23.5788 46.635 23.5603 46.5392 23.5177L45.5675 23.0862L44.5717 24.0821L45.0032 25.0536C45.0457 25.1494 45.0643 25.2541 45.0572 25.3587C45.0502 25.4633 45.0178 25.5646 44.9629 25.6538C44.5951 26.2502 44.3251 26.9016 44.1629 27.5833C44.1387 27.6853 44.09 27.7798 44.021 27.8586C43.952 27.9375 43.8649 27.9984 43.7671 28.0361L42.7758 28.4176V29.826L43.7668 30.2074C43.8646 30.2451 43.9518 30.3059 44.0207 30.3848C44.0897 30.4637 44.1384 30.5582 44.1626 30.6602C44.3249 31.342 44.5949 31.9935 44.9627 32.5901C45.0177 32.6793 45.0501 32.7806 45.0571 32.8852C45.0641 32.9898 45.0456 33.0945 45.003 33.1903L44.5717 34.1615L45.5675 35.1574L46.5393 34.7258C46.6351 34.6833 46.7398 34.6647 46.8443 34.6718C46.9489 34.6788 47.0502 34.7111 47.1394 34.7661C47.7359 35.1337 48.3872 35.4038 49.0688 35.566C49.1708 35.5903 49.2653 35.639 49.3442 35.708C49.423 35.7769 49.4839 35.8641 49.5216 35.9619L49.9031 36.9532H51.3115L51.6929 35.9622C51.7305 35.8644 51.7914 35.7772 51.8703 35.7083C51.9492 35.6393 52.0437 35.5906 52.1456 35.5663C52.8274 35.4042 53.479 35.1341 54.0755 34.7663C54.1648 34.7113 54.2661 34.6789 54.3706 34.6719C54.4752 34.6649 54.5799 34.6835 54.6757 34.726L55.647 35.1574L56.6429 34.1615L56.2113 33.1898C56.1688 33.094 56.1502 32.9893 56.1572 32.8847C56.1642 32.7802 56.1966 32.6789 56.2515 32.5896C56.6192 31.9932 56.8893 31.3419 57.0514 30.6603C57.0757 30.5583 57.1244 30.4638 57.1934 30.3849C57.2624 30.3061 57.3495 30.2452 57.4473 30.2075L58.4387 29.826V28.4176H58.4388ZM55.7797 29.1219C55.7797 31.974 53.4594 34.2943 50.6072 34.2943C47.7551 34.2943 45.4346 31.974 45.4346 29.1219C45.4346 26.2697 47.7551 23.9493 50.6072 23.9493C53.4594 23.9493 55.7797 26.2697 55.7797 29.1219ZM54.4894 29.1219C54.4894 26.9812 52.7479 25.2396 50.6072 25.2396C48.4666 25.2396 46.725 26.9811 46.725 29.1219C46.725 31.2624 48.4666 33.004 50.6072 33.004C52.7479 33.004 54.4894 31.2624 54.4894 29.1219Z" fill="white"/>
</svg>
