<svg width="84" height="80" viewBox="0 0 84 80" fill="none" xmlns="http://www.w3.org/2000/svg">
<path d="M37.6727 2.1594C40.0893 0.816504 43.0279 0.816507 45.4445 2.1594L73.4353 17.7139C75.9746 19.125 77.5494 21.8017 77.5494 24.7067V55.2936C77.5494 58.1986 75.9746 60.8753 73.4353 62.2864L45.4445 77.8409C43.0279 79.1838 40.0893 79.1838 37.6727 77.8409L9.68188 62.2864C7.14259 60.8753 5.56779 58.1986 5.56779 55.2936V24.7067C5.56779 21.8017 7.14259 19.125 9.68188 17.7139L37.6727 2.1594Z" fill="#075471"/>
<path d="M50.9796 35.3123C50.9796 33.9709 49.8882 32.8795 48.5468 32.8795H35.4533C34.1119 32.8795 33.0205 33.9709 33.0205 35.3123V44.272C33.0205 45.6135 34.1119 46.7048 35.4533 46.7048H43.261L46.5688 50.1481C46.6579 50.241 46.7728 50.305 46.8987 50.332C47.0245 50.359 47.1555 50.3478 47.2749 50.2997C47.3943 50.2516 47.4966 50.169 47.5686 50.0623C47.6407 49.9557 47.6792 49.8299 47.6792 49.7012V46.7048H48.5468C49.8882 46.7048 50.9796 45.6135 50.9796 44.272V35.3123ZM49.6893 44.272C49.6893 44.902 49.1768 45.4145 48.5468 45.4145H47.034C46.8629 45.4145 46.6988 45.4825 46.5778 45.6035C46.4568 45.7245 46.3889 45.8886 46.3889 46.0597V48.0983L44.0011 45.6127C43.9409 45.5501 43.8687 45.5002 43.7887 45.4661C43.7088 45.4321 43.6228 45.4145 43.5359 45.4145H35.4533C34.8233 45.4145 34.3108 44.902 34.3108 44.272V35.3123C34.3108 34.6823 34.8233 34.1698 35.4533 34.1698H48.5468C49.1768 34.1698 49.6893 34.6823 49.6893 35.3123V44.272ZM47.4961 36.986C47.4961 37.1572 47.4282 37.3213 47.3072 37.4422C47.1862 37.5632 47.0221 37.6312 46.851 37.6312H37.3086C37.1375 37.6312 36.9734 37.5632 36.8524 37.4422C36.7314 37.3213 36.6635 37.1572 36.6635 36.986C36.6635 36.8149 36.7314 36.6508 36.8524 36.5298C36.9734 36.4089 37.1375 36.3409 37.3086 36.3409H46.851C47.0221 36.3409 47.1862 36.4089 47.3072 36.5299C47.4282 36.6509 47.4961 36.815 47.4961 36.986ZM47.4961 39.8229C47.4961 39.9076 47.4794 39.9915 47.447 40.0698C47.4146 40.1481 47.3671 40.2192 47.3072 40.2791C47.2473 40.339 47.1761 40.3865 47.0979 40.419C47.0196 40.4514 46.9357 40.4681 46.851 40.4681H37.3086C37.1375 40.4681 36.9734 40.4001 36.8524 40.2791C36.7314 40.1581 36.6635 39.994 36.6635 39.8229C36.6635 39.6518 36.7314 39.4877 36.8524 39.3667C36.9734 39.2457 37.1375 39.1777 37.3086 39.1777H46.851C47.0221 39.1778 47.1862 39.2457 47.3072 39.3667C47.4282 39.4877 47.4961 39.6518 47.4961 39.8229ZM47.4961 42.6596C47.4961 42.8307 47.4282 42.9948 47.3072 43.1158C47.1862 43.2368 47.0221 43.3048 46.851 43.3048H37.3086C37.1375 43.3048 36.9734 43.2368 36.8524 43.1158C36.7314 42.9948 36.6635 42.8307 36.6635 42.6596C36.6635 42.4885 36.7314 42.3244 36.8524 42.2034C36.9734 42.0824 37.1375 42.0144 37.3086 42.0144H46.851C47.0221 42.0145 47.1862 42.0824 47.3072 42.2034C47.4282 42.3244 47.4961 42.4885 47.4961 42.6596ZM57.8033 53.4714C58.3827 52.9131 58.7443 52.1302 58.7443 51.264C58.7442 51.1636 58.7392 51.0632 58.7294 50.9633C60.869 47.705 62 43.9154 62 40C62 36.9602 61.3037 33.9479 59.9806 31.2339H60.4398C60.5303 31.2339 60.6198 31.2148 60.7024 31.178C60.7851 31.1411 60.8591 31.0873 60.9196 31.0199C60.9801 30.9526 61.0257 30.8733 61.0536 30.7872C61.0814 30.7011 61.0908 30.6101 61.0812 30.5201C60.8652 28.5023 59.5695 26.8475 57.8033 26.0997C58.3827 25.5414 58.7443 24.7585 58.7443 23.8922C58.7443 22.201 57.3684 20.8251 55.6772 20.8251C54.2568 20.8251 53.0592 21.7957 52.7119 23.1085C49.5112 21.0722 45.8285 20 42 20C38.2029 20 34.5465 21.0559 31.3623 23.0614C31.0273 21.7309 29.821 20.7428 28.388 20.7428C26.6968 20.7428 25.3209 22.1188 25.3209 23.8099C25.3209 24.6761 25.6824 25.4591 26.2619 26.0173C24.4956 26.7652 23.1998 28.4199 22.9839 30.4378C22.9742 30.5278 22.9837 30.6188 23.0115 30.705C23.0394 30.7911 23.085 30.8704 23.1455 30.9377C23.206 31.005 23.28 31.0588 23.3627 31.0957C23.4453 31.1326 23.5348 31.1516 23.6253 31.1516H24.0596C22.7102 33.8878 22 36.9282 22 40C22 43.9141 23.1278 47.6947 25.2628 50.951C25.2522 51.055 25.2469 51.1595 25.2469 51.2641C25.2469 52.1303 25.6085 52.9132 26.1879 53.4715C24.4217 54.2194 23.126 55.8741 22.91 57.892C22.9004 57.982 22.9098 58.073 22.9377 58.1591C22.9655 58.2452 23.0112 58.3245 23.0717 58.3918C23.1322 58.4591 23.2062 58.513 23.2888 58.5498C23.3715 58.5867 23.461 58.6058 23.5515 58.6058H33.0765C33.167 58.6058 33.2565 58.5868 33.3391 58.5499C33.4218 58.5131 33.4958 58.4592 33.5563 58.3919C33.6089 58.333 33.6502 58.2648 33.6781 58.1909C36.274 59.3772 39.1267 60 42 60C44.9115 60 47.7033 59.3913 50.3139 58.1934C50.3418 58.2664 50.3828 58.3337 50.4349 58.3919C50.4954 58.4592 50.5694 58.5131 50.6521 58.5499C50.7348 58.5868 50.8242 58.6058 50.9148 58.6058L60.4398 58.6057C60.5303 58.6057 60.6198 58.5867 60.7024 58.5498C60.7851 58.513 60.8591 58.4591 60.9196 58.3918C60.9801 58.3245 61.0257 58.2452 61.0536 58.1591C61.0814 58.0729 61.0908 57.9819 61.0812 57.8919C60.8652 55.874 59.5695 54.2194 57.8033 53.4714ZM55.6773 53.0407H55.6756C54.6967 53.0398 53.9005 52.2431 53.9005 51.264C53.9005 50.2843 54.6976 49.4872 55.6773 49.4872C56.6569 49.4872 57.454 50.2843 57.454 51.264C57.454 52.2431 56.6578 53.0398 55.6789 53.0407H55.6773ZM59.6584 29.9435H51.696C52.199 28.2008 53.7998 26.96 55.6755 26.9593H55.6789C57.5546 26.96 59.1554 28.2008 59.6584 29.9435ZM55.6773 22.1153C56.6569 22.1153 57.454 22.9124 57.454 23.8921C57.454 24.8713 56.6579 25.668 55.6789 25.6689H55.6756C54.6967 25.668 53.9005 24.8713 53.9005 23.8921C53.9005 22.9124 54.6976 22.1153 55.6773 22.1153ZM26.6113 23.81C26.6113 22.8303 27.4083 22.0332 28.3881 22.0332C29.3678 22.0332 30.1648 22.8303 30.1648 23.81C30.1648 24.7892 29.3686 25.5859 28.3897 25.5868H28.3865C27.4074 25.5859 26.6113 24.7892 26.6113 23.81ZM28.3863 26.8771H28.3897C30.2653 26.8779 31.866 28.1187 32.3691 29.8614L24.4068 29.8615C24.9098 28.1187 26.5106 26.8778 28.3863 26.8771ZM26.5373 51.2641C26.5373 50.2844 27.3344 49.4873 28.314 49.4873C29.2937 49.4873 30.0908 50.2844 30.0908 51.2641C30.0908 52.2433 29.2947 53.0399 28.3156 53.0408H28.3124C27.3335 53.0399 26.5373 52.2432 26.5373 51.2641ZM24.3329 57.3155C24.8359 55.5727 26.4367 54.3319 28.3123 54.3311H28.3157C30.1914 54.3319 31.7921 55.5727 32.2952 57.3155H24.3329ZM33.4303 56.6337C32.9167 55.1976 31.8226 54.0569 30.4402 53.4715C31.0196 52.9132 31.3811 52.1303 31.3811 51.2641C31.3811 49.5729 30.0052 48.197 28.314 48.197C27.3033 48.197 26.4056 48.6886 25.8465 49.4451C24.1712 46.5873 23.2903 43.346 23.2903 40C23.2903 36.9102 24.0581 33.8552 25.5112 31.1518L33.1505 31.1517C33.241 31.1517 33.3305 31.1326 33.4132 31.0958C33.4958 31.0589 33.5698 31.0051 33.6303 30.9378C33.6908 30.8704 33.7365 30.7911 33.7643 30.705C33.7921 30.6189 33.8016 30.5279 33.7919 30.4379C33.576 28.4201 32.2802 26.7654 30.514 26.0175C30.9123 25.6346 31.1997 25.1513 31.3461 24.6185C34.4834 22.4413 38.1648 21.2903 42 21.2903C45.8585 21.2903 49.5584 22.4538 52.7062 24.655C52.8498 25.2138 53.1477 25.711 53.5511 26.0996C51.7848 26.8475 50.4891 28.5022 50.2732 30.52C50.2636 30.61 50.2731 30.701 50.3009 30.7871C50.3288 30.8732 50.3744 30.9525 50.4349 31.0198C50.4954 31.0871 50.5694 31.141 50.652 31.1778C50.7347 31.2147 50.8242 31.2338 50.9147 31.2338H58.5327C59.9571 33.9158 60.7097 36.9427 60.7097 40C60.7097 43.3455 59.8273 46.5925 58.1498 49.4521C57.5911 48.6917 56.691 48.1969 55.6773 48.1969C53.986 48.1969 52.6102 49.5729 52.6102 51.264C52.6102 52.1302 52.9717 52.9132 53.5511 53.4715C52.1615 54.06 51.0629 55.2094 50.5527 56.6561L50.5481 56.6474C47.8887 58.0158 45.0127 58.7097 42 58.7097C39.0182 58.7097 36.0617 57.9913 33.4303 56.6337ZM51.696 57.3155C52.199 55.5727 53.7998 54.3319 55.6756 54.3311H55.6789C57.5546 54.3319 59.1553 55.5727 59.6584 57.3154L51.696 57.3155Z" fill="white"/>
</svg>
