<svg width="84" height="80" viewBox="0 0 84 80" fill="none" xmlns="http://www.w3.org/2000/svg">
<path d="M37.6727 2.1594C40.0893 0.816504 43.0279 0.816507 45.4445 2.1594L73.4353 17.7139C75.9746 19.125 77.5494 21.8017 77.5494 24.7067V55.2936C77.5494 58.1986 75.9746 60.8753 73.4353 62.2864L45.4445 77.8409C43.0279 79.1838 40.0893 79.1838 37.6727 77.8409L9.68188 62.2864C7.14259 60.8753 5.56779 58.1986 5.56779 55.2936V24.7067C5.56779 21.8017 7.14259 19.125 9.68188 17.7139L37.6727 2.1594Z" fill="#075471"/>
<path d="M60.0209 31.399C58.8618 30.0746 57.2983 29.1695 55.5726 28.8238C54.1768 23.7434 49.5177 20 44.0001 20C41.9922 19.9998 40.0163 20.5034 38.2534 21.4647C36.4905 22.4259 34.997 23.8141 33.9096 25.5021C33.308 25.3358 32.6793 25.2918 32.0604 25.3728C31.4416 25.4539 30.8454 25.6582 30.3069 25.9738C29.7685 26.2894 29.2989 26.7098 28.9258 27.2101C28.5528 27.7105 28.2839 28.2806 28.1351 28.8867C26.8151 29.2032 25.5972 29.8504 24.5962 30.7674C23.5953 31.6844 22.8441 32.841 22.4134 34.1284C21.9827 35.4157 21.8866 36.7915 22.1342 38.1262C22.3819 39.4609 22.965 40.7107 23.8289 41.7579L24.8569 40.9089C24.0525 39.9335 23.542 38.7496 23.385 37.4951C23.228 36.2407 23.4309 34.9674 23.97 33.8239C24.5091 32.6804 25.3623 31.7137 26.43 31.0367C27.4976 30.3596 28.7358 30.0001 30.0001 30C30.2026 30 30.4067 30.0092 30.6069 30.0272L30.7266 28.6993C30.485 28.6776 30.2426 28.6667 30.0001 28.6667C29.8685 28.6667 29.7376 28.6699 29.6076 28.6764C29.9037 27.9914 30.4213 27.4255 31.0773 27.0697C31.7334 26.7139 32.4899 26.5887 33.2257 26.7141C33.0569 27.0569 32.9045 27.4075 32.769 27.7647L34.0166 28.2354C34.8982 25.8989 36.5716 23.9457 38.7452 22.7161C40.9188 21.4865 43.4548 21.0584 45.9116 21.5063C48.3684 21.9542 50.5902 23.2497 52.1901 25.1672C53.7899 27.0848 54.6664 29.5028 54.6668 32H56.0001C56 31.4208 55.9582 30.8424 55.8749 30.2692C57.255 30.6791 58.4663 31.5228 59.3294 32.6751C60.1925 33.8273 60.6615 35.227 60.6668 36.6667C60.6699 38.0392 60.2464 39.3788 59.4551 40.5002L60.5452 41.268C61.5756 39.8019 62.084 38.0323 61.9889 36.2429C61.8938 34.4534 61.2008 32.7477 60.0209 31.399Z" fill="white"/>
<path d="M28.0007 49.3333C28.3688 49.3333 28.6673 49.0349 28.6673 48.6667C28.6673 48.2985 28.3688 48 28.0007 48C27.6325 48 27.334 48.2985 27.334 48.6667C27.334 49.0349 27.6325 49.3333 28.0007 49.3333Z" fill="white"/>
<path d="M30.0016 49.3333C30.3698 49.3333 30.6683 49.0349 30.6683 48.6667C30.6683 48.2985 30.3698 48 30.0016 48C29.6334 48 29.335 48.2985 29.335 48.6667C29.335 49.0349 29.6334 49.3333 30.0016 49.3333Z" fill="white"/>
<path d="M32.0016 49.3333C32.3698 49.3333 32.6683 49.0349 32.6683 48.6667C32.6683 48.2985 32.3698 48 32.0016 48C31.6334 48 31.335 48.2985 31.335 48.6667C31.335 49.0349 31.6334 49.3333 32.0016 49.3333Z" fill="white"/>
<path d="M34.001 48H38.001V49.3333H34.001V48Z" fill="white"/>
<path d="M28.0007 44.0033C28.3688 44.0033 28.6673 43.7048 28.6673 43.3366C28.6673 42.9684 28.3688 42.6699 28.0007 42.6699C27.6325 42.6699 27.334 42.9684 27.334 43.3366C27.334 43.7048 27.6325 44.0033 28.0007 44.0033Z" fill="white"/>
<path d="M30.0016 44.0033C30.3698 44.0033 30.6683 43.7048 30.6683 43.3366C30.6683 42.9684 30.3698 42.6699 30.0016 42.6699C29.6334 42.6699 29.335 42.9684 29.335 43.3366C29.335 43.7048 29.6334 44.0033 30.0016 44.0033Z" fill="white"/>
<path d="M32.0016 44.0033C32.3698 44.0033 32.6683 43.7048 32.6683 43.3366C32.6683 42.9684 32.3698 42.6699 32.0016 42.6699C31.6334 42.6699 31.335 42.9684 31.335 43.3366C31.335 43.7048 31.6334 44.0033 32.0016 44.0033Z" fill="white"/>
<path d="M34.001 42.6699H38.001V44.0033H34.001V42.6699Z" fill="white"/>
<path d="M38.0007 34.6699H28.0007C27.2937 34.6707 26.6159 34.952 26.1159 35.4519C25.616 35.9518 25.3348 36.6296 25.334 37.3366V38.6699C25.3339 39.0485 25.4147 39.4228 25.5709 39.7677C25.7271 40.1126 25.9551 40.4202 26.2397 40.6699C25.9551 40.9197 25.7271 41.2273 25.5709 41.5722C25.4147 41.9171 25.3339 42.2913 25.334 42.6699V44.0033C25.3339 44.3819 25.4147 44.7562 25.5709 45.1011C25.7271 45.446 25.9551 45.7536 26.2397 46.0033C25.9551 46.253 25.7271 46.5606 25.5709 46.9055C25.4147 47.2504 25.3339 47.6247 25.334 48.0033V49.3366C25.3348 50.0436 25.616 50.7214 26.1159 51.2213C26.6159 51.7213 27.2937 52.0025 28.0007 52.0033H38.0007C38.7077 52.0025 39.3855 51.7213 39.8854 51.2213C40.3853 50.7214 40.6665 50.0436 40.6674 49.3366V48.0033C40.6674 47.6247 40.5866 47.2504 40.4305 46.9055C40.2743 46.5606 40.0463 46.253 39.7617 46.0033C40.0463 45.7536 40.2743 45.446 40.4305 45.1011C40.5866 44.7562 40.6674 44.3819 40.6674 44.0033V42.6699C40.6674 42.2913 40.5866 41.9171 40.4305 41.5722C40.2743 41.2273 40.0463 40.9197 39.7617 40.6699C40.0463 40.4202 40.2743 40.1126 40.4305 39.7677C40.5866 39.4228 40.6674 39.0485 40.6674 38.6699V37.3366C40.6665 36.6296 40.3853 35.9518 39.8854 35.4519C39.3855 34.952 38.7077 34.6707 38.0007 34.6699ZM39.334 48.0033V49.3366C39.3336 49.6901 39.193 50.029 38.9431 50.279C38.6931 50.529 38.3542 50.6696 38.0007 50.67H28.0007C27.6472 50.6696 27.3082 50.529 27.0583 50.279C26.8083 50.029 26.6677 49.6901 26.6673 49.3366V48.0033C26.6677 47.6498 26.8083 47.3109 27.0583 47.0609C27.3082 46.811 27.6472 46.6703 28.0007 46.67H38.0007C38.3542 46.6703 38.6931 46.811 38.9431 47.0609C39.193 47.3109 39.3336 47.6498 39.334 48.0033ZM39.334 42.6699V44.0033C39.3336 44.3568 39.193 44.6957 38.9431 44.9457C38.6931 45.1956 38.3542 45.3362 38.0007 45.3366H28.0007C27.6472 45.3362 27.3082 45.1956 27.0583 44.9457C26.8083 44.6957 26.6677 44.3568 26.6673 44.0033V42.6699C26.6677 42.3164 26.8083 41.9775 27.0583 41.7276C27.3082 41.4776 27.6472 41.337 28.0007 41.3366H38.0007C38.3542 41.337 38.6931 41.4776 38.9431 41.7276C39.193 41.9775 39.3336 42.3164 39.334 42.6699ZM28.0007 40.0033C27.6472 40.0029 27.3082 39.8623 27.0583 39.6123C26.8083 39.3623 26.6677 39.0234 26.6673 38.6699V37.3366C26.6677 36.9831 26.8083 36.6442 27.0583 36.3942C27.3082 36.1443 27.6472 36.0037 28.0007 36.0033H38.0007C38.3542 36.0037 38.6931 36.1443 38.9431 36.3942C39.193 36.6442 39.3336 36.9831 39.334 37.3366V38.6699C39.3336 39.0234 39.193 39.3623 38.9431 39.6123C38.6931 39.8623 38.3542 40.0029 38.0007 40.0033H28.0007Z" fill="white"/>
<path d="M28.0007 38.6673C28.3688 38.6673 28.6673 38.3688 28.6673 38.0007C28.6673 37.6325 28.3688 37.334 28.0007 37.334C27.6325 37.334 27.334 37.6325 27.334 38.0007C27.334 38.3688 27.6325 38.6673 28.0007 38.6673Z" fill="white"/>
<path d="M30.0016 38.6673C30.3698 38.6673 30.6683 38.3688 30.6683 38.0007C30.6683 37.6325 30.3698 37.334 30.0016 37.334C29.6334 37.334 29.335 37.6325 29.335 38.0007C29.335 38.3688 29.6334 38.6673 30.0016 38.6673Z" fill="white"/>
<path d="M32.0016 38.6673C32.3698 38.6673 32.6683 38.3688 32.6683 38.0007C32.6683 37.6325 32.3698 37.334 32.0016 37.334C31.6334 37.334 31.335 37.6325 31.335 38.0007C31.335 38.3688 31.6334 38.6673 32.0016 38.6673Z" fill="white"/>
<path d="M34.001 37.334H38.001V38.6673H34.001V37.334ZM56.001 38.0007H50.6677C49.9607 38.0015 49.2829 38.2827 48.783 38.7826C48.283 39.2825 48.0018 39.9603 48.001 40.6673V44.6673C48.0018 45.3743 48.283 46.0521 48.783 46.5521C49.2829 47.052 49.9607 47.3332 50.6677 47.334H56.001C56.708 47.3332 57.3858 47.052 57.8858 46.5521C58.3857 46.0521 58.6669 45.3743 58.6677 44.6673V40.6673C58.6669 39.9603 58.3857 39.2825 57.8858 38.7826C57.3858 38.2827 56.708 38.0015 56.001 38.0007ZM57.3344 40.6673V41.0261C56.9294 40.7907 56.4694 40.667 56.001 40.6673H54.5704C54.3227 40.6682 54.0796 40.5996 53.8688 40.4693C53.658 40.3391 53.488 40.1523 53.3779 39.9303L53.1501 39.4747C53.1261 39.4267 53.1001 39.3801 53.0735 39.334H56.001C56.3545 39.3344 56.6934 39.475 56.9434 39.725C57.1934 39.9749 57.334 40.3138 57.3344 40.6673ZM57.3344 44.6673C57.334 45.0208 57.1934 45.3597 56.9434 45.6097C56.6934 45.8597 56.3545 46.0003 56.001 46.0007H50.6677C50.3142 46.0003 49.9753 45.8597 49.7253 45.6097C49.4754 45.3597 49.3347 45.0208 49.3344 44.6673V40.6673C49.3347 40.3138 49.4754 39.9749 49.7253 39.725C49.9753 39.475 50.3142 39.3344 50.6677 39.334H50.7649C51.0127 39.3331 51.2558 39.4017 51.4666 39.532C51.6773 39.6623 51.8474 39.849 51.9574 40.071L52.1853 40.5267C52.4054 40.9707 52.7456 41.3441 53.1672 41.6046C53.5887 41.8652 54.0749 42.0024 54.5704 42.0007H56.001C56.3545 42.0011 56.6934 42.1417 56.9434 42.3916C57.1934 42.6416 57.334 42.9805 57.3344 43.334V44.6673ZM56.001 50.6674H50.6677C49.9607 50.6682 49.2829 50.9494 48.783 51.4493C48.283 51.9492 48.0018 52.627 48.001 53.334V57.334C48.0018 58.041 48.283 58.7188 48.783 59.2188C49.2829 59.7187 49.9607 59.9999 50.6677 60.0007H56.001C56.708 59.9999 57.3858 59.7187 57.8858 59.2188C58.3857 58.7188 58.6669 58.041 58.6677 57.334V53.334C58.6669 52.627 58.3857 51.9492 57.8858 51.4493C57.3858 50.9494 56.708 50.6682 56.001 50.6674ZM57.3344 53.334V53.6928C56.9294 53.4574 56.4694 53.3337 56.001 53.334H54.5704C54.3227 53.3349 54.0796 53.2663 53.8688 53.136C53.658 53.0058 53.488 52.819 53.3779 52.597L53.1501 52.1414C53.1261 52.0934 53.1001 52.0468 53.0735 52.0007H56.001C56.3545 52.0011 56.6934 52.1417 56.9434 52.3917C57.1934 52.6416 57.334 52.9805 57.3344 53.334ZM57.3344 57.334C57.334 57.6875 57.1934 58.0264 56.9434 58.2764C56.6934 58.5264 56.3545 58.667 56.001 58.6674H50.6677C50.3142 58.667 49.9753 58.5264 49.7253 58.2764C49.4754 58.0264 49.3347 57.6875 49.3344 57.334V53.334C49.3347 52.9805 49.4754 52.6416 49.7253 52.3917C49.9753 52.1417 50.3142 52.0011 50.6677 52.0007H50.7649C51.0127 51.9998 51.2558 52.0684 51.4666 52.1987C51.6773 52.329 51.8474 52.5157 51.9574 52.7377L52.1853 53.1934C52.4054 53.6374 52.7456 54.0108 53.1672 54.2713C53.5887 54.5319 54.0749 54.6691 54.5704 54.6674H56.001C56.3545 54.6678 56.6934 54.8084 56.9434 55.0583C57.1934 55.3083 57.334 55.6472 57.3344 56.0007V57.334ZM41.3343 42.0007V43.334H43.3343V56.0007C43.3343 56.1775 43.4046 56.3471 43.5296 56.4721C43.6546 56.5971 43.8242 56.6674 44.001 56.6674H46.6677V55.334H44.6677V43.334H46.6677V42.0007H41.3343Z" fill="white"/>
</svg>
