<svg width="84" height="80" viewBox="0 0 84 80" fill="none" xmlns="http://www.w3.org/2000/svg">
<path d="M37.6727 2.1594C40.0893 0.816504 43.0279 0.816507 45.4445 2.1594L73.4353 17.7139C75.9746 19.125 77.5494 21.8017 77.5494 24.7067V55.2936C77.5494 58.1986 75.9746 60.8753 73.4353 62.2864L45.4445 77.8409C43.0279 79.1838 40.0893 79.1838 37.6727 77.8409L9.68188 62.2864C7.14259 60.8753 5.56779 58.1986 5.56779 55.2936V24.7067C5.56779 21.8017 7.14259 19.125 9.68188 17.7139L37.6727 2.1594Z" fill="#075471"/>
<path d="M59.5 43.75H45.8637C45.1463 42.6535 44.1313 41.7841 42.9375 41.2438V36.0113C43.338 35.5601 43.5602 34.9783 43.5625 34.375H43.875C44.3721 34.3745 44.8488 34.1768 45.2003 33.8253C45.5518 33.4738 45.7495 32.9971 45.75 32.5V31.25C45.75 28.2663 44.5647 25.4048 42.455 23.295C40.3452 21.1853 37.4837 20 34.5 20C31.5163 20 28.6548 21.1853 26.545 23.295C24.4353 25.4048 23.25 28.2663 23.25 31.25V32.5C23.2505 32.9971 23.4482 33.4738 23.7997 33.8253C24.1512 34.1768 24.6279 34.3745 25.125 34.375H25.4375C25.4398 34.9783 25.662 35.5601 26.0625 36.0113V41.2331C24.8538 41.7757 23.8275 42.6557 23.1069 43.7673C22.3862 44.879 22.0019 46.1752 22 47.5V53.75C22.001 54.5785 22.3306 55.3728 22.9164 55.9586C23.5022 56.5444 24.2965 56.874 25.125 56.875H32.625V57.5C32.6258 58.1628 32.8895 58.7982 33.3581 59.2669C33.8268 59.7355 34.4622 59.9992 35.125 60H59.5C60.1628 59.9992 60.7982 59.7355 61.2669 59.2669C61.7355 58.7982 61.9992 58.1628 62 57.5V46.25C61.9992 45.5872 61.7355 44.9518 61.2669 44.4831C60.7982 44.0145 60.1628 43.7508 59.5 43.75ZM40.125 40.625H37.9375V40.145C39.0526 39.3504 39.8594 38.1954 40.2219 36.875H41.0625C41.2738 36.8722 41.4838 36.8424 41.6875 36.7862V40.8188C41.1759 40.6938 40.6516 40.6287 40.125 40.625ZM32.74 38.75C32.8874 39.167 33.1775 39.5185 33.5591 39.7423C33.9406 39.9661 34.3889 40.0478 34.8248 39.973C35.2608 39.8982 35.6562 39.6717 35.9413 39.3335C36.2264 38.9954 36.3828 38.5673 36.3828 38.125C36.3828 37.6827 36.2264 37.2546 35.9413 36.9165C35.6562 36.5783 35.2608 36.3518 34.8248 36.277C34.3889 36.2022 33.9406 36.2839 33.5591 36.5077C33.1775 36.7315 32.8874 37.083 32.74 37.5H30.3575C29.9994 36.8265 29.8122 36.0753 29.8125 35.3125V31.8606C32.3178 31.7478 34.7401 30.9291 36.8 29.4987L39.1875 30.9738V35.3125C39.1889 36.2239 38.9242 37.1159 38.4258 37.879C37.9275 38.642 37.2171 39.243 36.382 39.608C35.5469 39.9731 34.6234 40.0863 33.7248 39.9339C32.8263 39.7815 31.9918 39.37 31.3238 38.75H32.74ZM33.875 38.125C33.875 38.0014 33.9117 37.8805 33.9803 37.7778C34.049 37.675 34.1466 37.5949 34.2608 37.5476C34.375 37.5003 34.5007 37.4879 34.6219 37.512C34.7432 37.5361 34.8545 37.5956 34.9419 37.6831C35.0294 37.7705 35.0889 37.8818 35.113 38.0031C35.1371 38.1243 35.1247 38.25 35.0774 38.3642C35.0301 38.4784 34.95 38.576 34.8472 38.6447C34.7445 38.7133 34.6236 38.75 34.5 38.75C34.3343 38.7498 34.1754 38.6839 34.0582 38.5668C33.9411 38.4496 33.8752 38.2907 33.875 38.125ZM40.4375 35.3125V31.875H41.0625C41.3939 31.8753 41.7117 32.0071 41.946 32.2415C42.1804 32.4758 42.3122 32.7936 42.3125 33.125V34.375C42.3122 34.7064 42.1804 35.0242 41.946 35.2585C41.7117 35.4929 41.3939 35.6247 41.0625 35.625H40.4219C40.4269 35.5206 40.4375 35.4181 40.4375 35.3125ZM41.0625 30.625H40.4375C40.4374 30.5185 40.41 30.4138 40.3581 30.3208C40.3061 30.2278 40.2313 30.1497 40.1406 30.0937L37.1056 28.2187C37.0013 28.1539 36.8802 28.1213 36.7574 28.1251C36.6346 28.1289 36.5157 28.1689 36.4156 28.24L36.2031 28.3906C34.1545 29.8482 31.7017 30.6294 29.1875 30.625H27.9375C27.7302 30.6275 27.524 30.656 27.3237 30.71C27.3788 28.8434 28.1591 27.0717 29.4989 25.7709C30.8387 24.47 32.6326 23.7424 34.5 23.7424C36.3674 23.7424 38.1613 24.47 39.5011 25.7709C40.8409 27.0717 41.6212 28.8434 41.6763 30.71C41.476 30.656 41.2698 30.6275 41.0625 30.625ZM28.5781 35.625H27.9375C27.6061 35.6247 27.2883 35.4929 27.054 35.2585C26.8196 35.0242 26.6878 34.7064 26.6875 34.375V33.125C26.6878 32.7936 26.8196 32.4758 27.054 32.2415C27.2883 32.0071 27.6061 31.8753 27.9375 31.875H28.5625V35.3125C28.5625 35.4181 28.5731 35.5206 28.5781 35.625ZM27.9375 36.875H28.7781C28.8354 37.087 28.9045 37.2957 28.985 37.5H28.6056C28.3749 37.4992 28.1486 37.4365 27.9504 37.3185C27.7522 37.2004 27.5893 37.0313 27.4787 36.8288C27.6299 36.8583 27.7835 36.8738 27.9375 36.875ZM32.3125 40.8275C33.7163 41.3913 35.2837 41.3913 36.6875 40.8275V41.5625C36.6875 42.1427 36.457 42.6991 36.0468 43.1093C35.6366 43.5195 35.0802 43.75 34.5 43.75C33.9198 43.75 33.3634 43.5195 32.9532 43.1093C32.543 42.6991 32.3125 42.1427 32.3125 41.5625V40.8275ZM25.125 33.125C24.9593 33.1248 24.8004 33.0589 24.6832 32.9418C24.5661 32.8246 24.5002 32.6657 24.5 32.5V31.25C24.5 28.5978 25.5536 26.0543 27.4289 24.1789C29.3043 22.3036 31.8478 21.25 34.5 21.25C37.1522 21.25 39.6957 22.3036 41.5711 24.1789C43.4464 26.0543 44.5 28.5978 44.5 31.25V32.5C44.4998 32.6657 44.4339 32.8246 44.3168 32.9418C44.1996 33.0589 44.0407 33.1248 43.875 33.125H43.5625C43.5602 32.5217 43.338 31.9399 42.9375 31.4887V30.9375C42.9375 28.6997 42.0486 26.5536 40.4662 24.9713C38.8839 23.3889 36.7378 22.5 34.5 22.5C32.2622 22.5 30.1161 23.3889 28.5338 24.9713C26.9514 26.5536 26.0625 28.6997 26.0625 30.9375V31.4887C25.662 31.9399 25.4398 32.5217 25.4375 33.125H25.125ZM27.3125 38.3844C27.7024 38.6213 28.1494 38.7477 28.6056 38.75H29.6681C30.0526 39.2887 30.5238 39.7599 31.0625 40.1444V40.625H28.875C28.3488 40.6267 27.8245 40.689 27.3125 40.8106V38.3844ZM36.9475 55.625H33.875V52.5563C34.6418 52.6867 35.3493 53.0519 35.8996 53.6016C36.45 54.1513 36.8161 54.8583 36.9475 55.625ZM33.875 57.5V56.875H42V58.75H35.125C34.7936 58.7497 34.4758 58.6179 34.2415 58.3835C34.0071 58.1492 33.8753 57.8314 33.875 57.5ZM42 46.25V55.625H38.2063C38.0532 54.4179 37.4656 53.3078 36.5534 52.5026C35.6412 51.6973 34.4668 51.252 33.25 51.25H27C26.8342 51.25 26.6753 51.3158 26.5581 51.4331C26.4408 51.5503 26.375 51.7092 26.375 51.875C26.375 52.0408 26.4408 52.1997 26.5581 52.3169C26.6753 52.4342 26.8342 52.5 27 52.5H32.625V55.625H25.125C24.6279 55.6245 24.1512 55.4268 23.7997 55.0753C23.4482 54.7238 23.2505 54.2471 23.25 53.75V47.5C23.2517 46.0087 23.8448 44.5789 24.8994 43.5244C25.9539 42.4698 27.3837 41.8767 28.875 41.875H31.0781C31.1548 42.7296 31.5485 43.5246 32.1818 44.1035C32.815 44.6825 33.642 45.0036 34.5 45.0036C35.358 45.0036 36.185 44.6825 36.8182 44.1035C37.4515 43.5246 37.8452 42.7296 37.9219 41.875H40.125C40.9166 41.8786 41.6986 42.0491 42.4198 42.3755C43.141 42.7018 43.7853 43.1765 44.3106 43.7687C43.6838 43.8153 43.0976 44.0968 42.6693 44.5567C42.2409 45.0167 42.0019 45.6214 42 46.25ZM60.75 57.5C60.7497 57.8314 60.6179 58.1492 60.3835 58.3835C60.1492 58.6179 59.8314 58.7497 59.5 58.75H43.25V46.25C43.2503 45.9186 43.3821 45.6008 43.6165 45.3665C43.8508 45.1321 44.1686 45.0003 44.5 45H59.5C59.8314 45.0003 60.1492 45.1321 60.3835 45.3665C60.6179 45.6008 60.7497 45.9186 60.75 46.25V57.5Z" fill="white"/>
<path d="M52 48.75C51.3819 48.75 50.7777 48.9333 50.2638 49.2767C49.7499 49.62 49.3494 50.1081 49.1129 50.6791C48.8764 51.2501 48.8145 51.8785 48.935 52.4847C49.0556 53.0909 49.3533 53.6477 49.7903 54.0847C50.2273 54.5218 50.7842 54.8194 51.3903 54.94C51.9965 55.0605 52.6249 54.9986 53.1959 54.7621C53.7669 54.5256 54.255 54.1251 54.5983 53.6112C54.9417 53.0973 55.125 52.4931 55.125 51.875C55.124 51.0465 54.7945 50.2522 54.2086 49.6664C53.6228 49.0806 52.8285 48.751 52 48.75ZM52 53.75C51.6292 53.75 51.2667 53.64 50.9583 53.434C50.65 53.228 50.4096 52.9351 50.2677 52.5925C50.1258 52.2499 50.0887 51.8729 50.161 51.5092C50.2334 51.1455 50.412 50.8114 50.6742 50.5492C50.9364 50.287 51.2705 50.1084 51.6342 50.036C51.9979 49.9637 52.3749 50.0008 52.7175 50.1427C53.0601 50.2846 53.353 50.525 53.559 50.8333C53.765 51.1416 53.875 51.5042 53.875 51.875C53.8745 52.3721 53.6768 52.8488 53.3253 53.2003C52.9738 53.5518 52.4971 53.7495 52 53.75Z" fill="white"/>
</svg>
