<svg width="84" height="80" viewBox="0 0 84 80" fill="none" xmlns="http://www.w3.org/2000/svg">
<path d="M37.6727 2.1594C40.0893 0.816504 43.0279 0.816507 45.4445 2.1594L73.4353 17.7139C75.9746 19.125 77.5494 21.8017 77.5494 24.7067V55.2936C77.5494 58.1986 75.9746 60.8753 73.4353 62.2864L45.4445 77.8409C43.0279 79.1838 40.0893 79.1838 37.6727 77.8409L9.68188 62.2864C7.14259 60.8753 5.56779 58.1986 5.56779 55.2936V24.7067C5.56779 21.8017 7.14259 19.125 9.68188 17.7139L37.6727 2.1594Z" fill="#075471"/>
<path d="M61.2762 30.7264H61.276L61.2747 30.7251L58.6374 30.3488C58.5047 30.3299 58.3805 30.272 58.2806 30.1825C58.1807 30.093 58.1096 29.9759 58.0763 29.846C58.043 29.7161 58.049 29.5792 58.0935 29.4527C58.1379 29.3262 58.219 29.2157 58.3262 29.1352L60.4577 27.5366C60.6016 27.4287 60.6967 27.2681 60.7221 27.0901C60.7475 26.9121 60.7012 26.7313 60.5933 26.5875L58.1527 23.3333C58.0448 23.1894 57.8842 23.0944 57.7062 23.0689C57.5282 23.0435 57.3474 23.0898 57.2035 23.1977L55.0727 24.7963C54.9655 24.8777 54.8365 24.9253 54.7022 24.9331C54.5678 24.9409 54.4342 24.9085 54.3183 24.8401C54.2024 24.7716 54.1095 24.6703 54.0514 24.5489C53.9933 24.4275 53.9726 24.2915 53.9921 24.1584L54.369 21.5211C54.3817 21.433 54.3768 21.3432 54.3548 21.257C54.3327 21.1707 54.2939 21.0896 54.2405 21.0184C54.1871 20.9471 54.1203 20.8871 54.0437 20.8417C53.9671 20.7963 53.8823 20.7664 53.7942 20.7538L53.7934 20.7537L49.7691 20.1788C49.6809 20.1661 49.5912 20.1709 49.5049 20.193C49.4187 20.215 49.3376 20.2538 49.2663 20.3072C49.1951 20.3605 49.135 20.4274 49.0896 20.504C49.0442 20.5806 49.0143 20.6654 49.0016 20.7535V20.7537L48.6247 23.3909C48.6058 23.5237 48.5479 23.6479 48.4584 23.7477C48.3689 23.8476 48.2518 23.9187 48.1219 23.952C47.992 23.9853 47.8551 23.9794 47.7286 23.9349C47.6021 23.8904 47.4916 23.8094 47.4111 23.7021L45.8132 21.5706C45.7053 21.4268 45.5447 21.3317 45.3667 21.3062C45.1887 21.2808 45.0079 21.3271 44.8641 21.435L42.8268 22.9638C41.9051 22.8658 40.9756 22.8658 40.054 22.9638C34.0179 23.6537 29.2845 28.4674 28.6962 34.5141C28.6779 34.706 28.6711 34.8965 28.6616 35.087H28.4582C28.3021 35.0873 28.151 35.1414 28.0302 35.2402C27.9094 35.339 27.8264 35.4765 27.7952 35.6294L27.3267 37.8572L25.4501 36.5629C25.3196 36.4729 25.1616 36.4314 25.0037 36.4458C24.8457 36.4602 24.6978 36.5294 24.5857 36.6416L22.5518 38.6754C22.4399 38.7875 22.3707 38.9353 22.3563 39.0931C22.342 39.2509 22.3833 39.4087 22.4732 39.5392L23.7613 41.4124L21.5329 41.8808C21.3816 41.914 21.2462 41.9979 21.1493 42.1186C21.0524 42.2394 20.9997 42.3897 21 42.5445V45.2564C20.9999 45.412 21.0534 45.5629 21.1514 45.6837C21.2494 45.8046 21.386 45.888 21.5383 45.9201L23.7667 46.3886L22.4786 48.2618C22.3887 48.3922 22.3474 48.55 22.3618 48.7078C22.3761 48.8656 22.4453 49.0134 22.5573 49.1255L24.5911 51.1593C24.7033 51.2715 24.8512 51.3407 25.0091 51.3551C25.167 51.3695 25.325 51.328 25.4555 51.238L27.3287 49.9465L27.7972 52.1749C27.8284 52.3278 27.9114 52.4653 28.0322 52.5641C28.153 52.6629 28.3042 52.717 28.4602 52.7173H31.1721C31.3277 52.7173 31.4786 52.6639 31.5994 52.5659C31.7203 52.4679 31.8037 52.3313 31.8358 52.179L32.3042 49.9505L34.1774 51.2387C34.3079 51.3285 34.4657 51.3699 34.6235 51.3555C34.7813 51.3411 34.9291 51.272 35.0412 51.16L36.094 50.1038V52.0359C36.0955 52.5098 36.2216 52.975 36.4596 53.3848C36.6975 53.7946 37.0391 54.1346 37.4499 54.3708V58.1375C37.4499 59.6352 38.6641 60.8494 40.1618 60.8494H42.8736C44.3713 60.8494 45.5854 59.6352 45.5854 58.1375V54.3708C45.9963 54.1346 46.3378 53.7946 46.5758 53.3848C46.8138 52.975 46.9398 52.5098 46.9413 52.0359V49.3526C46.9504 48.797 47.0987 48.2525 47.3726 47.769C47.6466 47.2855 48.0374 46.8785 48.5094 46.5852C49.0721 46.2201 49.6056 45.8121 50.1053 45.3648L49.201 44.3547C48.7539 44.7553 48.2763 45.1205 47.7725 45.4469C47.11 45.8627 46.5626 46.4382 46.1805 47.1206C45.7983 47.803 45.5937 48.5705 45.5854 49.3526V52.0359C45.5854 52.7848 44.9784 53.3918 44.2295 53.3918H38.8058C38.057 53.3918 37.4499 52.7848 37.4499 52.0359V49.2963C37.4422 48.5291 37.2411 47.7763 36.8652 47.1074C36.4893 46.4386 35.9508 45.8754 35.2995 45.4699C29.9261 42.0935 28.3071 35.0005 31.6835 29.6271C32.7142 27.9868 34.1429 26.6337 35.8367 25.6935C37.5306 24.7534 39.4347 24.2568 41.3719 24.2499C41.3618 24.274 41.353 24.2987 41.3455 24.3238C41.3203 24.5018 41.3669 24.6825 41.475 24.8262L43.0729 26.957C43.1552 27.0635 43.2031 27.1925 43.2104 27.3269C43.2177 27.4613 43.1839 27.5947 43.1136 27.7095C43.0458 27.8251 42.9451 27.9179 42.8243 27.976C42.7036 28.034 42.5682 28.0548 42.4356 28.0356L39.7984 27.6587C39.7102 27.646 39.6205 27.6508 39.5342 27.6729C39.448 27.6949 39.3669 27.7338 39.2956 27.7871C39.2244 27.8405 39.1643 27.9074 39.1189 27.984C39.0735 28.0606 39.0437 28.1453 39.031 28.2335L39.0309 28.2342L38.4553 32.2606C38.4298 32.4386 38.4761 32.6194 38.5839 32.7633C38.6916 32.9072 38.8522 33.0024 39.0302 33.028L39.0309 33.0281L41.6682 33.405C41.8009 33.4239 41.9251 33.4818 42.025 33.5713C42.1249 33.6608 42.196 33.7779 42.2293 33.9078C42.2626 34.0377 42.2566 34.1746 42.2121 34.3011C42.1677 34.4276 42.0866 34.5381 41.9794 34.6186L39.8485 36.2165C39.7047 36.3244 39.6096 36.485 39.5842 36.663C39.5587 36.841 39.6051 37.0218 39.713 37.1656L42.1536 40.4198C42.2615 40.5637 42.4221 40.6588 42.6001 40.6842C42.7781 40.7096 42.9589 40.6633 43.1027 40.5554L45.2342 38.9575C45.3415 38.8773 45.4701 38.8306 45.6038 38.8234C45.7376 38.8162 45.8704 38.8488 45.9857 38.9171C46.1009 38.9853 46.1934 39.0862 46.2514 39.2069C46.3093 39.3276 46.3303 39.4628 46.3115 39.5954L45.9352 42.2327C45.9226 42.3208 45.9274 42.4106 45.9494 42.4968C45.9715 42.5831 46.0103 42.6642 46.0637 42.7354C46.117 42.8067 46.1839 42.8668 46.2605 42.9122C46.3371 42.9576 46.4218 42.9875 46.51 43.0001H46.5101L50.5372 43.5757C50.5689 43.5798 50.6008 43.5818 50.6328 43.5818C50.7961 43.582 50.9539 43.5233 51.0773 43.4164C51.2007 43.3095 51.2815 43.1617 51.3046 43.0001L51.6809 40.3629C51.6998 40.2301 51.7577 40.1059 51.8472 40.0061C51.9367 39.9062 52.0538 39.8351 52.1837 39.8018C52.3136 39.7685 52.4505 39.7744 52.577 39.8189C52.7035 39.8634 52.814 39.9444 52.8945 40.0517L54.4931 42.1825C54.601 42.3264 54.7616 42.4215 54.9396 42.4469C55.1176 42.4723 55.2984 42.426 55.4422 42.3181L58.6964 39.8775C58.8403 39.7696 58.9353 39.609 58.9608 39.431C58.9862 39.253 58.9399 39.0722 58.832 38.9283L57.2341 36.7975C57.1521 36.6908 57.1044 36.5619 57.0971 36.4275C57.0898 36.2932 57.1234 36.1599 57.1934 36.045C57.2596 35.928 57.3601 35.8341 57.4813 35.7759C57.6025 35.7178 57.7386 35.6981 57.8713 35.7196L60.5086 36.0958C60.5967 36.1085 60.6865 36.1037 60.7727 36.0816C60.859 36.0596 60.9401 36.0208 61.0113 35.9674C61.0826 35.914 61.1427 35.8471 61.1881 35.7706C61.2335 35.694 61.2634 35.6092 61.276 35.5211V35.5209L61.8509 31.4939C61.8636 31.4057 61.8588 31.316 61.8367 31.2297C61.8147 31.1434 61.7759 31.0624 61.7225 30.9911C61.6691 30.9198 61.6023 30.8598 61.5257 30.8144C61.4491 30.7689 61.3643 30.7391 61.2762 30.7264ZM38.8058 54.7478H44.2295V56.1037H38.8058V54.7478ZM38.8058 57.4596H44.2295V58.1375C44.2295 58.8864 43.6225 59.4935 42.8736 59.4935H40.1618C39.4129 59.4935 38.8058 58.8864 38.8058 58.1375V57.4596ZM33.4086 45.7682C33.7788 46.071 34.1656 46.3528 34.5673 46.6123C35.2078 47.0171 35.69 47.6295 35.9333 48.3472L34.4791 49.7987L33.071 48.8278C32.4544 48.4029 31.6101 48.5584 31.1851 49.175C31.0832 49.3228 31.0117 49.4894 30.9748 49.6651L30.6195 51.358H29.008L28.6528 49.6678C28.4985 48.935 27.7795 48.466 27.0467 48.6202C26.871 48.6572 26.7044 48.7287 26.5565 48.8306L25.1477 49.7987L23.9125 48.5662L24.8827 47.1587C25.308 46.5424 25.1531 45.698 24.5367 45.2726C24.3888 45.1705 24.222 45.0988 24.0461 45.0618L22.3559 44.7059V43.095L24.0461 42.7391C24.7786 42.5838 25.2466 41.864 25.0912 41.1314C25.0544 40.9576 24.9837 40.7928 24.8833 40.6463L23.9125 39.2348L25.1477 38.0022L26.5572 38.9731C27.1741 39.3976 28.0184 39.2416 28.4429 38.6248C28.5446 38.4771 28.6159 38.3106 28.6528 38.1351L28.7714 37.5711C28.88 38.3522 29.06 39.1217 29.309 39.87C27.0783 40.1359 25.4855 42.16 25.7515 44.3907C26.0174 46.6214 28.0414 48.2142 30.2722 47.9483C30.9335 47.8694 31.5653 47.6294 32.1122 47.2493C32.659 46.8692 33.1042 46.3606 33.4086 45.7682ZM32.3558 44.813C31.8495 46.2202 30.2984 46.9505 28.8912 46.4443C27.4841 45.9381 26.7537 44.387 27.2599 42.9798C27.4489 42.4544 27.7957 42.0003 28.2528 41.6796C28.7099 41.359 29.255 41.1875 29.8133 41.1886H29.8391C30.4626 42.5329 31.314 43.7591 32.3558 44.813ZM60.0259 34.6558L58.0598 34.3752C56.9478 34.2164 55.9176 34.9891 55.7588 36.1011C55.6826 36.635 55.8215 37.1775 56.1453 37.609L57.3364 39.1975L55.167 40.8246L53.9751 39.2368C53.3012 38.3381 52.0264 38.1558 51.1278 38.8297C50.6962 39.1533 50.4109 39.635 50.3345 40.169L50.0599 42.1378L47.3759 41.754L47.6566 39.788C47.8158 38.676 47.0434 37.6455 45.9315 37.4864C45.667 37.4485 45.3975 37.4631 45.1387 37.5294C44.8798 37.5957 44.6365 37.7124 44.4227 37.8727L42.8343 39.0639L41.2072 36.8945L42.7949 35.7026C43.6937 35.0287 43.8759 33.7539 43.2021 32.8553C42.8785 32.4237 42.3967 32.1384 41.8628 32.062L39.8967 31.7813L40.2804 29.0973L42.2465 29.378C43.3584 29.5372 44.3889 28.7648 44.5481 27.6529C44.5859 27.3883 44.5713 27.1189 44.505 26.86C44.4387 26.6012 44.3221 26.3579 44.1617 26.1441L42.9665 24.5543L45.1359 22.9272L46.3278 24.5156C47.0017 25.4144 48.2765 25.5966 49.1751 24.9228C49.6066 24.5992 49.892 24.1174 49.9684 23.5835L50.2491 21.6174L52.9331 22.0004L52.6524 23.9665C52.4936 25.0785 53.2663 26.1087 54.3783 26.2675C54.9123 26.3438 55.4548 26.2048 55.8863 25.8811L57.4747 24.6899L59.1018 26.8593L57.5134 28.0512C56.6147 28.7251 56.4324 29.9999 57.1063 30.8985C57.4299 31.3301 57.9116 31.6154 58.4456 31.6918L60.4116 31.9725L60.0259 34.6558Z" fill="white"/>
<path d="M50.1512 26.4494C47.1558 26.4494 44.7276 28.8777 44.7276 31.8731C44.7276 34.8684 47.1558 37.2967 50.1512 37.2967C53.1466 37.2967 55.5749 34.8684 55.5749 31.8731C55.5715 28.879 53.1452 26.4527 50.1512 26.4494ZM50.1512 35.9408C47.9046 35.9408 46.0835 34.1196 46.0835 31.8731C46.0835 29.6265 47.9046 27.8053 50.1512 27.8053C52.3978 27.8053 54.219 29.6265 54.219 31.8731C54.2163 34.1185 52.3967 35.9382 50.1512 35.9408ZM40.8388 49.9989H42.1947V52.0328H40.8388V49.9989ZM38.5514 43.3407C34.3663 41.7058 32.299 36.9877 33.9339 32.8026C34.5675 31.181 35.7045 29.8053 37.1779 28.8778L36.4531 27.7307C32.0179 30.5249 30.6875 36.3854 33.4816 40.8206C34.5638 42.5383 36.1682 43.8638 38.0592 44.6024C39.7331 45.2437 40.8384 46.8505 40.8388 48.643H42.1947C42.1969 46.2912 40.7476 44.1819 38.5514 43.3407ZM54.3979 45.2532H59.1436V46.6091H54.3979V45.2532ZM53.2862 49.8414L54.154 48.7996L58.2221 52.1889L57.3542 53.2305L53.2862 49.8414ZM50.3302 50.6769H51.6861V55.4225H50.3302V50.6769ZM21.6914 31.7136L27.1147 30.3581L27.4434 31.6727L22.02 33.0285L21.6914 31.7136ZM22.8176 24.7885L23.6053 23.6857L28.3505 27.0752L27.5629 28.1779L22.8176 24.7885ZM28.6264 20.3358L29.9399 20L31.3266 25.4232L30.0131 25.7591L28.6264 20.3358Z" fill="white"/>
</svg>
