<svg width="411" height="371" viewBox="0 0 411 371" fill="none" xmlns="http://www.w3.org/2000/svg">
<path d="M48.2597 297.199C22.6497 260.759 -35.9303 154.129 82.1497 122.269C200.23 90.4093 162.43 -0.60075 248.69 0.73925C334.95 2.07925 419.61 74.3293 409.21 142.889C398.81 211.449 304.16 205.999 277.7 276.829C251.24 347.659 93.3197 361.299 48.2597 297.199Z" fill="#075471"/>
<path opacity="0.7" d="M48.2597 297.549C22.6497 261.109 -35.9303 154.479 82.1497 122.619C200.23 90.7589 162.43 -0.251123 248.69 1.07888C334.95 2.40888 419.61 74.6789 409.21 143.239C398.81 211.799 304.21 206.349 277.7 277.169C251.19 347.989 93.3197 361.649 48.2597 297.549Z" fill="white"/>
<path d="M342.52 133.161C346.737 132.169 350.565 129.948 353.52 126.781L360.57 129.171L364.08 123.081L358.5 118.171C359.754 114.016 359.754 109.585 358.5 105.431L364.08 100.521L360.57 94.4206L353.52 96.8106C350.567 93.6422 346.738 91.4247 342.52 90.4406L341.06 83.1406H337.54" stroke="#263238" stroke-miterlimit="10"/>
<path d="M334 83.1406L332.54 90.4406C328.323 91.4269 324.494 93.6441 321.54 96.8106L314.54 94.4206L311.03 100.521L316.61 105.431C315.356 109.585 315.356 114.016 316.61 118.171L311 123.081L314.51 129.171L321.51 126.781C324.466 129.947 328.294 132.166 332.51 133.161L333.97 140.451H340.97L342.43 133.161" stroke="#263238" stroke-miterlimit="10"/>
<path d="M337.09 123.53C324.55 122.65 322.2 104.39 334.73 101.18" stroke="#263238" stroke-miterlimit="10"/>
<path d="M345 103.701C351.24 109.411 349.27 120.571 341 123.091" stroke="#263238" stroke-miterlimit="10"/>
<path d="M339 100.93C340.091 101.059 341.156 101.352 342.16 101.8" stroke="#263238" stroke-miterlimit="10"/>
<path d="M379.88 138.71L381.36 136.94C384.116 137.696 387.035 137.623 389.75 136.73L393.07 140.32" stroke="#263238" stroke-miterlimit="10"/>
<path d="M374.41 111L375.06 112.75C373.028 114.758 371.637 117.322 371.06 120.12L366.29 121.21L366.4 125.84L371.23 126.68C371.591 128.054 372.15 129.368 372.89 130.58C373.631 131.792 374.547 132.887 375.61 133.83L374.16 138.51L378.23 140.72" stroke="#263238" stroke-miterlimit="10"/>
<path d="M393.07 140.32L397 137.9L395.32 133.3C397.349 131.29 398.74 128.726 399.32 125.93L404.09 124.85L403.97 120.22L399.15 119.38C398.429 116.616 396.904 114.128 394.77 112.23L396.22 107.55L392.15 105.34L389 109.1C386.248 108.334 383.33 108.407 380.62 109.31L377.29 105.72L373.34 108.14" stroke="#263238" stroke-miterlimit="10"/>
<path d="M392.48 121.321C393.85 127.061 388.39 132.591 382.62 130.261C377.12 128.031 376.32 119.961 381.43 116.861" stroke="#263238" stroke-miterlimit="10"/>
<path d="M387.761 116.16C388.911 116.568 389.942 117.255 390.761 118.16" stroke="#263238" stroke-miterlimit="10"/>
<path d="M70.8203 235.001L78.3403 242.511C78.0212 243.853 78.051 245.255 78.4269 246.582C78.8028 247.909 79.5123 249.118 80.4877 250.094C81.4632 251.069 82.6721 251.779 83.9995 252.154C85.3268 252.53 86.7282 252.56 88.0703 252.241L83.3503 247.531L84.6303 242.751L89.4003 241.471L94.1203 246.191C94.4394 244.849 94.4096 243.447 94.0337 242.12C93.6578 240.793 92.9484 239.584 91.9729 238.608C90.9974 237.633 89.7885 236.923 88.4612 236.548C87.1339 236.172 85.7324 236.142 84.3903 236.461L77.4703 229.541" stroke="#263238" stroke-miterlimit="10"/>
<path d="M66.4803 218.582L59.5903 211.692C59.8961 210.352 59.856 208.957 59.474 207.637C59.0919 206.317 58.3803 205.116 57.4062 204.147C56.4321 203.178 55.2275 202.472 53.9057 202.097C52.5839 201.722 51.1883 201.689 49.8503 202.002L54.5703 206.722L53.2903 211.492L48.5203 212.772L43.8003 208.002C43.4843 209.345 43.5165 210.746 43.8941 212.073C44.2716 213.4 44.9818 214.609 45.9574 215.584C46.933 216.56 48.1416 217.27 49.4687 217.648C50.7958 218.025 52.1973 218.058 53.5403 217.742L60.4303 224.632" stroke="#263238" stroke-miterlimit="10"/>
<path d="M74.2202 225.83L83.8302 216.22C84.3047 215.748 84.8475 215.351 85.4402 215.04L87.3702 214.04L94.3702 206.04L90.0002 201.74L82.0002 208.74L81.0002 210.67C80.6957 211.267 80.2972 211.81 79.8202 212.28L72.2002 219.91" stroke="#263238" stroke-miterlimit="10"/>
<path d="M48.6408 251C49.2932 251.415 50.0717 251.584 50.8373 251.478C51.6029 251.371 52.3059 250.996 52.8208 250.42L69.4708 233.77C69.8684 233.412 70.1688 232.959 70.3437 232.454C70.5186 231.949 70.5623 231.407 70.4708 230.88L73.3608 227.99L73.5408 228.16C73.6394 228.26 73.7569 228.339 73.8866 228.394C74.0162 228.448 74.1553 228.476 74.2958 228.476C74.4363 228.476 74.5754 228.448 74.705 228.394C74.8346 228.339 74.9522 228.26 75.0508 228.16C75.2481 227.958 75.3585 227.687 75.3585 227.405C75.3585 227.123 75.2481 226.852 75.0508 226.65L69.3508 220.95C69.1492 220.75 68.8764 220.638 68.5923 220.639C68.3081 220.64 68.036 220.753 67.8358 220.955C67.6356 221.156 67.5236 221.429 67.5245 221.713C67.5255 221.998 67.6392 222.27 67.8408 222.47L68.0208 222.64L65.1308 225.53C64.6038 225.437 64.0619 225.481 63.5563 225.656C63.0507 225.831 62.5979 226.132 62.2408 226.53L45.6108 243.25C45.228 243.591 44.9321 244.018 44.7477 244.497C44.5633 244.975 44.4958 245.49 44.5508 246" stroke="#263238" stroke-miterlimit="10"/>
<path d="M45.2207 247.76C45.6111 248.383 46.0744 248.957 46.6007 249.47C47.1871 250.088 47.8609 250.617 48.6007 251.04" stroke="#263238" stroke-miterlimit="10"/>
<path d="M50.3398 245.99L53.2498 243.08" stroke="#263238" stroke-miterlimit="10"/>
<path d="M57.1807 239.15L69.4807 226.59" stroke="#263238" stroke-miterlimit="10"/>
<path d="M325.56 26.7598H58.96V199.96H325.56V26.7598Z" fill="white"/>
<path d="M325.56 26.7598H58.96V199.96H87.15H131.84H325.56V26.7598Z" fill="#BFBFBF"/>
<path d="M325.56 26.7598H58.96V49.4198H325.56V26.7598Z" fill="white"/>
<path d="M325.56 26.7598H58.96V49.4198H325.56V26.7598Z" fill="#757575"/>
<path d="M317.39 30.3691H307.19C305.743 30.3691 304.57 31.5421 304.57 32.9891V43.1891C304.57 44.6361 305.743 45.8091 307.19 45.8091H317.39C318.837 45.8091 320.01 44.6361 320.01 43.1891V32.9891C320.01 31.5421 318.837 30.3691 317.39 30.3691Z" fill="white"/>
<path d="M298.45 30.3691H288.29C286.832 30.3691 285.65 31.5511 285.65 33.0091V43.1691C285.65 44.6272 286.832 45.8091 288.29 45.8091H298.45C299.908 45.8091 301.09 44.6272 301.09 43.1691V33.0091C301.09 31.5511 299.908 30.3691 298.45 30.3691Z" fill="white"/>
<path d="M279.55 30.3691H269.35C267.903 30.3691 266.73 31.5421 266.73 32.9891V43.1891C266.73 44.6361 267.903 45.8091 269.35 45.8091H279.55C280.997 45.8091 282.17 44.6361 282.17 43.1891V32.9891C282.17 31.5421 280.997 30.3691 279.55 30.3691Z" fill="white"/>
<path d="M310.34 59.4199H74.18C71.297 59.4199 68.96 61.757 68.96 64.6399V184.74C68.96 187.623 71.297 189.96 74.18 189.96H310.34C313.223 189.96 315.56 187.623 315.56 184.74V64.6399C315.56 61.757 313.223 59.4199 310.34 59.4199Z" fill="#263238" stroke="#263238" stroke-linecap="round" stroke-linejoin="round"/>
<path d="M308.98 41.3993L315.6 34.7793" stroke="#263238" stroke-linecap="round" stroke-linejoin="round"/>
<path d="M308.98 34.7793L315.6 41.3993" stroke="#263238" stroke-linecap="round" stroke-linejoin="round"/>
<path d="M297.78 36.6699H288.95V42.4999H297.78V36.6699Z" stroke="#263238" stroke-linecap="round" stroke-linejoin="round"/>
<path d="M278.86 42.5H270.03" stroke="#263238" stroke-linecap="round" stroke-linejoin="round"/>
<path d="M300.06 148.16H282.53C282 148.16 281.491 147.949 281.116 147.574C280.741 147.199 280.53 146.691 280.53 146.16C280.53 145.63 280.741 145.121 281.116 144.746C281.491 144.371 282 144.16 282.53 144.16H300.06C300.591 144.16 301.099 144.371 301.474 144.746C301.85 145.121 302.06 145.63 302.06 146.16C302.06 146.691 301.85 147.199 301.474 147.574C301.099 147.949 300.591 148.16 300.06 148.16Z" fill="#757575"/>
<path d="M300.06 162H251.13C250.599 162 250.091 161.789 249.716 161.414C249.341 161.039 249.13 160.53 249.13 160C249.13 159.47 249.341 158.961 249.716 158.586C250.091 158.211 250.599 158 251.13 158H300.06C300.59 158 301.099 158.211 301.474 158.586C301.849 158.961 302.06 159.47 302.06 160C302.06 160.53 301.849 161.039 301.474 161.414C301.099 161.789 300.59 162 300.06 162Z" fill="#757575"/>
<path d="M300.06 175.83H192.26C191.729 175.83 191.221 175.619 190.846 175.244C190.47 174.869 190.26 174.361 190.26 173.83C190.26 173.3 190.47 172.791 190.846 172.416C191.221 172.041 191.729 171.83 192.26 171.83H300.06C300.59 171.83 301.099 172.041 301.474 172.416C301.849 172.791 302.06 173.3 302.06 173.83C302.06 174.361 301.849 174.869 301.474 175.244C301.099 175.619 300.59 175.83 300.06 175.83Z" fill="#757575"/>
<path d="M87.46 134.33H79.29C78.7596 134.33 78.2509 134.119 77.8758 133.744C77.5008 133.369 77.29 132.861 77.29 132.33C77.29 131.8 77.5008 131.291 77.8758 130.916C78.2509 130.541 78.7596 130.33 79.29 130.33H87.46C87.9905 130.33 88.4992 130.541 88.8743 130.916C89.2493 131.291 89.46 131.8 89.46 132.33C89.46 132.861 89.2493 133.369 88.8743 133.744C88.4992 134.119 87.9905 134.33 87.46 134.33Z" fill="#BFBFBF"/>
<path d="M87.46 148.16H79.29C78.7596 148.16 78.2509 147.949 77.8758 147.574C77.5008 147.199 77.29 146.691 77.29 146.16C77.29 145.63 77.5008 145.121 77.8758 144.746C78.2509 144.371 78.7596 144.16 79.29 144.16H87.46C87.9905 144.16 88.4992 144.371 88.8743 144.746C89.2493 145.121 89.46 145.63 89.46 146.16C89.46 146.691 89.2493 147.199 88.8743 147.574C88.4992 147.949 87.9905 148.16 87.46 148.16Z" fill="#BFBFBF"/>
<path d="M87.46 162H79.29C78.7596 162 78.2509 161.789 77.8758 161.414C77.5008 161.039 77.29 160.53 77.29 160C77.29 159.47 77.5008 158.961 77.8758 158.586C78.2509 158.211 78.7596 158 79.29 158H87.46C87.9905 158 88.4992 158.211 88.8743 158.586C89.2493 158.961 89.46 159.47 89.46 160C89.46 160.53 89.2493 161.039 88.8743 161.414C88.4992 161.789 87.9905 162 87.46 162Z" fill="#BFBFBF"/>
<path d="M87.46 175.83H79.29C78.7596 175.83 78.2509 175.619 77.8758 175.244C77.5008 174.869 77.29 174.361 77.29 173.83C77.29 173.3 77.5008 172.791 77.8758 172.416C78.2509 172.041 78.7596 171.83 79.29 171.83H87.46C87.9905 171.83 88.4992 172.041 88.8743 172.416C89.2493 172.791 89.46 173.3 89.46 173.83C89.46 174.361 89.2493 174.869 88.8743 175.244C88.4992 175.619 87.9905 175.83 87.46 175.83Z" fill="#BFBFBF"/>
<g opacity="0.7">
<path d="M87.46 134.33H79.29C78.7596 134.33 78.2509 134.119 77.8758 133.744C77.5008 133.369 77.29 132.861 77.29 132.33C77.29 131.8 77.5008 131.291 77.8758 130.916C78.2509 130.541 78.7596 130.33 79.29 130.33H87.46C87.9905 130.33 88.4992 130.541 88.8743 130.916C89.2493 131.291 89.46 131.8 89.46 132.33C89.46 132.861 89.2493 133.369 88.8743 133.744C88.4992 134.119 87.9905 134.33 87.46 134.33Z" fill="#BFBFBF"/>
</g>
<g opacity="0.7">
<path d="M87.46 148.16H79.29C78.7596 148.16 78.2509 147.949 77.8758 147.574C77.5008 147.199 77.29 146.691 77.29 146.16C77.29 145.63 77.5008 145.121 77.8758 144.746C78.2509 144.371 78.7596 144.16 79.29 144.16H87.46C87.9905 144.16 88.4992 144.371 88.8743 144.746C89.2493 145.121 89.46 145.63 89.46 146.16C89.46 146.691 89.2493 147.199 88.8743 147.574C88.4992 147.949 87.9905 148.16 87.46 148.16Z" fill="#BFBFBF"/>
</g>
<g opacity="0.7">
<path d="M87.46 162H79.29C78.7596 162 78.2509 161.789 77.8758 161.414C77.5008 161.039 77.29 160.53 77.29 160C77.29 159.47 77.5008 158.961 77.8758 158.586C78.2509 158.211 78.7596 158 79.29 158H87.46C87.9905 158 88.4992 158.211 88.8743 158.586C89.2493 158.961 89.46 159.47 89.46 160C89.46 160.53 89.2493 161.039 88.8743 161.414C88.4992 161.789 87.9905 162 87.46 162Z" fill="#BFBFBF"/>
</g>
<g opacity="0.7">
<path d="M87.46 175.83H79.29C78.7596 175.83 78.2509 175.619 77.8758 175.244C77.5008 174.869 77.29 174.361 77.29 173.83C77.29 173.3 77.5008 172.791 77.8758 172.416C78.2509 172.041 78.7596 171.83 79.29 171.83H87.46C87.9905 171.83 88.4992 172.041 88.8743 172.416C89.2493 172.791 89.46 173.3 89.46 173.83C89.46 174.361 89.2493 174.869 88.8743 175.244C88.4992 175.619 87.9905 175.83 87.46 175.83Z" fill="#BFBFBF"/>
</g>
<path d="M251.13 120.49H79.29C78.7596 120.49 78.2509 120.28 77.8758 119.904C77.5008 119.529 77.29 119.021 77.29 118.49C77.29 117.96 77.5008 117.451 77.8758 117.076C78.2509 116.701 78.7596 116.49 79.29 116.49H251.13C251.66 116.49 252.169 116.701 252.544 117.076C252.919 117.451 253.13 117.96 253.13 118.49C253.13 119.021 252.919 119.529 252.544 119.904C252.169 120.28 251.66 120.49 251.13 120.49Z" fill="#BFBFBF"/>
<path d="M300.06 92.8301H282.53C282 92.8301 281.491 92.6194 281.116 92.2443C280.741 91.8692 280.53 91.3605 280.53 90.8301C280.53 90.2996 280.741 89.7909 281.116 89.4159C281.491 89.0408 282 88.8301 282.53 88.8301H300.06C300.591 88.8301 301.099 89.0408 301.474 89.4159C301.85 89.7909 302.06 90.2996 302.06 90.8301C302.06 91.3605 301.85 91.8692 301.474 92.2443C301.099 92.6194 300.591 92.8301 300.06 92.8301Z" fill="#BFBFBF"/>
<path d="M275.2 92.8301H258.46C257.93 92.8301 257.421 92.6194 257.046 92.2443C256.671 91.8692 256.46 91.3605 256.46 90.8301C256.46 90.2996 256.671 89.7909 257.046 89.4159C257.421 89.0408 257.93 88.8301 258.46 88.8301H275.2C275.73 88.8301 276.239 89.0408 276.614 89.4159C276.989 89.7909 277.2 90.2996 277.2 90.8301C277.2 91.3605 276.989 91.8692 276.614 92.2443C276.239 92.6194 275.73 92.8301 275.2 92.8301Z" fill="#BFBFBF"/>
<path d="M251.13 92.8301H79.29C78.7596 92.8301 78.2509 92.6194 77.8758 92.2443C77.5008 91.8692 77.29 91.3605 77.29 90.8301C77.29 90.2996 77.5008 89.7909 77.8758 89.4159C78.2509 89.0408 78.7596 88.8301 79.29 88.8301H251.13C251.66 88.8301 252.169 89.0408 252.544 89.4159C252.919 89.7909 253.13 90.2996 253.13 90.8301C253.13 91.3605 252.919 91.8692 252.544 92.2443C252.169 92.6194 251.66 92.8301 251.13 92.8301Z" fill="#BFBFBF"/>
<path d="M300.06 134.33H282.53C282 134.33 281.491 134.119 281.116 133.744C280.741 133.369 280.53 132.861 280.53 132.33C280.53 131.8 280.741 131.291 281.116 130.916C281.491 130.541 282 130.33 282.53 130.33H300.06C300.591 130.33 301.099 130.541 301.474 130.916C301.85 131.291 302.06 131.8 302.06 132.33C302.06 132.861 301.85 133.369 301.474 133.744C301.099 134.119 300.591 134.33 300.06 134.33Z" fill="#999999"/>
<path d="M275.2 134.33H96.46C95.9295 134.33 95.4208 134.119 95.0457 133.744C94.6707 133.369 94.46 132.861 94.46 132.33C94.46 131.8 94.6707 131.291 95.0457 130.916C95.4208 130.541 95.9295 130.33 96.46 130.33H275.2C275.73 130.33 276.239 130.541 276.614 130.916C276.989 131.291 277.2 131.8 277.2 132.33C277.2 132.861 276.989 133.369 276.614 133.744C276.239 134.119 275.73 134.33 275.2 134.33Z" fill="#999999"/>
<path d="M147.79 148.16H96.46C95.9295 148.16 95.4208 147.949 95.0457 147.574C94.6707 147.199 94.46 146.691 94.46 146.16C94.46 145.63 94.6707 145.121 95.0457 144.746C95.4208 144.371 95.9295 144.16 96.46 144.16H147.79C148.32 144.16 148.829 144.371 149.204 144.746C149.579 145.121 149.79 145.63 149.79 146.16C149.79 146.691 149.579 147.199 149.204 147.574C148.829 147.949 148.32 148.16 147.79 148.16Z" fill="#999999"/>
<path d="M147.79 162H96.46C95.9295 162 95.4208 161.789 95.0457 161.414C94.6707 161.039 94.46 160.53 94.46 160C94.46 159.47 94.6707 158.961 95.0457 158.586C95.4208 158.211 95.9295 158 96.46 158H147.79C148.32 158 148.829 158.211 149.204 158.586C149.579 158.961 149.79 159.47 149.79 160C149.79 160.53 149.579 161.039 149.204 161.414C148.829 161.789 148.32 162 147.79 162Z" fill="#999999"/>
<path d="M147.79 175.83H96.46C95.9295 175.83 95.4208 175.619 95.0457 175.244C94.6707 174.869 94.46 174.361 94.46 173.83C94.46 173.3 94.6707 172.791 95.0457 172.416C95.4208 172.041 95.9295 171.83 96.46 171.83H147.79C148.32 171.83 148.829 172.041 149.204 172.416C149.579 172.791 149.79 173.3 149.79 173.83C149.79 174.361 149.579 174.869 149.204 175.244C148.829 175.619 148.32 175.83 147.79 175.83Z" fill="#999999"/>
<path d="M114.08 353.24C114.08 353.24 108.84 362.24 110.9 362.59C112.96 362.94 117.29 355.11 117.29 355.11L129.14 352L120.21 351.08L114.08 353.24Z" fill="white" stroke="#263238" stroke-linecap="round" stroke-linejoin="round"/>
<path opacity="0.3" d="M114.08 353.24C114.08 353.24 108.84 362.24 110.9 362.59C112.96 362.94 117.29 355.11 117.29 355.11L129.14 352L120.21 351.08L114.08 353.24Z" fill="black" stroke="#263238" stroke-linecap="round" stroke-linejoin="round"/>
<path d="M118.069 347.081C118.069 347.081 110.729 345.341 108.709 348.781C106.689 352.221 100.709 362.431 102.969 363.591C105.229 364.751 107.139 360.991 107.139 360.991L118.069 347.081Z" fill="white" stroke="#263238" stroke-linecap="round" stroke-linejoin="round"/>
<path d="M148.089 357.54C143.275 359.204 138.144 359.744 133.089 359.12L124.739 361.9C124.739 361.9 117.399 365.51 113.979 363.69C110.559 361.87 122.679 357.85 122.679 357.85C122.679 357.85 130.829 354.32 128.399 353.47C125.969 352.62 116.769 352.79 114.969 354.17C113.169 355.55 108.419 364.54 104.969 364.02C101.519 363.5 106.409 358.62 107.639 356.74C108.869 354.86 111.639 347.36 117.199 347.04C122.759 346.72 141.569 347.69 141.569 347.69L163.659 345.33L168.869 357.9L148.089 357.54Z" fill="white" stroke="#263238" stroke-linecap="round" stroke-linejoin="round"/>
<path d="M159.62 360.65C160.235 361.092 160.977 361.324 161.735 361.314C162.492 361.303 163.227 361.049 163.83 360.59C164.495 360.873 165.23 360.954 165.941 360.823C166.653 360.691 167.309 360.352 167.83 359.85C169.44 358.08 169.58 342.55 165.12 340.8C163.83 340.3 160.61 340.35 160.12 342.15C159.776 342.01 159.404 341.954 159.035 341.985C158.665 342.016 158.308 342.133 157.993 342.328C157.677 342.523 157.412 342.789 157.218 343.106C157.025 343.422 156.909 343.78 156.88 344.15C156.44 346.95 159.22 349.56 158.29 357.61C158.209 358.19 158.29 358.781 158.525 359.318C158.76 359.854 159.139 360.315 159.62 360.65Z" fill="#075471" stroke="#263238" stroke-linecap="round" stroke-linejoin="round"/>
<path opacity="0.3" d="M159.62 360.65C160.235 361.092 160.977 361.324 161.735 361.314C162.492 361.303 163.227 361.049 163.83 360.59C164.495 360.873 165.23 360.954 165.941 360.823C166.653 360.691 167.309 360.352 167.83 359.85C169.44 358.08 169.58 342.55 165.12 340.8C163.83 340.3 160.61 340.35 160.12 342.15C159.776 342.01 159.404 341.954 159.035 341.985C158.665 342.016 158.308 342.133 157.993 342.328C157.677 342.523 157.412 342.789 157.218 343.106C157.025 343.422 156.909 343.78 156.88 344.15C156.44 346.95 159.22 349.56 158.29 357.61C158.209 358.19 158.29 358.781 158.525 359.318C158.76 359.854 159.139 360.315 159.62 360.65Z" fill="black" stroke="#263238" stroke-linecap="round" stroke-linejoin="round"/>
<path d="M164.72 357C164.715 352.77 163.815 348.589 162.08 344.73" stroke="#263238" stroke-linecap="round" stroke-linejoin="round"/>
<path d="M269.849 351.39C269.109 357.08 268.269 363.24 267.309 369.93H181.469L181.879 358.87C176.749 360.11 166.779 359.35 166.779 359.35V343C172.839 339.57 173.779 340.53 173.779 340.53C173.779 340.53 174.089 300.63 177.719 290.67C179.104 286.92 181.576 283.668 184.819 281.33C185.683 280.688 186.588 280.103 187.529 279.58L187.659 279.5C188.659 278.97 189.869 278.41 191.249 277.83L191.629 277.68C205.069 272.19 234.399 265.82 261.729 277.5C263.639 278.32 279.239 285.77 280.569 296.5C281.289 302.67 277.109 333.21 269.849 351.39Z" fill="#075471"/>
<mask id="mask0_370_516" style="mask-type:luminance" maskUnits="userSpaceOnUse" x="166" y="270" width="115" height="100">
<path d="M269.849 351.39C269.109 357.08 268.269 363.24 267.309 369.93H181.469L181.879 358.87C176.749 360.11 166.779 359.35 166.779 359.35V343C172.839 339.57 173.779 340.53 173.779 340.53C173.779 340.53 174.089 300.63 177.719 290.67C179.104 286.92 181.576 283.668 184.819 281.33C185.683 280.688 186.588 280.103 187.529 279.58L187.659 279.5C188.659 278.97 189.869 278.41 191.249 277.83L191.629 277.68C205.069 272.19 234.399 265.82 261.729 277.5C263.639 278.32 279.239 285.77 280.569 296.5C281.289 302.67 277.109 333.21 269.849 351.39Z" fill="white"/>
</mask>
<g mask="url(#mask0_370_516)">
<path opacity="0.2" d="M256.249 302.199L247.689 341.929C246.359 340.879 242.529 340.809 237.689 341.269C238.742 340.112 239.615 338.805 240.279 337.389C253.189 309.389 255.999 302.759 256.249 302.199Z" fill="black"/>
<path opacity="0.2" d="M271.89 345.85C269.805 353.76 268.275 361.806 267.31 369.93H181.47L182.26 357.19C187.61 356.43 197 355.65 206.75 353.92C207.497 356.97 207.576 360.146 206.98 363.23C206.98 363.23 246.46 368.13 259.71 364.94C263.49 364.03 266.91 358.75 269.84 351.48C270.55 349.71 271.23 347.82 271.89 345.85Z" fill="black"/>
<path opacity="0.3" d="M174.77 341.28C174.77 341.28 172.84 339.57 166.77 343V359.35C166.77 359.35 176.77 359 180.69 356.87C184.07 358.96 183.47 320.69 184.07 300.08C179.17 301.43 178.78 310.75 178.02 319.52C177.392 326.834 176.306 334.102 174.77 341.28Z" fill="black"/>
</g>
<path d="M269.849 351.39C269.109 357.08 268.269 363.24 267.309 369.93H181.469L181.879 358.87C176.749 360.11 166.779 359.35 166.779 359.35V343C172.839 339.57 173.779 340.53 173.779 340.53C173.779 340.53 174.089 300.63 177.719 290.67C179.104 286.92 181.576 283.668 184.819 281.33C185.683 280.688 186.588 280.103 187.529 279.58L187.659 279.5C188.659 278.97 189.869 278.41 191.249 277.83L191.629 277.68C205.069 272.19 234.399 265.82 261.729 277.5C263.639 278.32 279.239 285.77 280.569 296.5C281.289 302.67 277.109 333.21 269.849 351.39Z" stroke="#263238" stroke-linecap="round" stroke-linejoin="round"/>
<path d="M280.529 296.531C280.529 296.771 280.589 297.051 280.599 297.361C281.039 305.041 276.859 334.021 269.839 351.481C266.909 358.751 263.489 364.031 259.709 364.941C246.459 368.131 206.979 363.231 206.979 363.231C208.01 357.813 206.956 352.206 204.029 347.531C204.029 347.531 242.789 338.051 247.689 341.931L256.269 302.161" stroke="#263238" stroke-linecap="round" stroke-linejoin="round"/>
<path d="M250.39 344.1C253.153 345.428 255.521 347.455 257.26 349.98" stroke="#263238" stroke-linecap="round" stroke-linejoin="round"/>
<path d="M151.65 345.52C151.65 345.52 148.03 344.76 146.56 346.41C145.09 348.06 138.79 357.52 140.92 359.32C143.05 361.12 147.38 351.23 147.38 351.23L151.65 345.52Z" fill="white" stroke="#263238" stroke-linecap="round" stroke-linejoin="round"/>
<path d="M158.909 345.35C158.909 345.35 150.909 343.63 149.079 346.08C147.249 348.53 137.159 361.21 143.459 361.61L153.459 350.33L158.909 345.35Z" fill="white" stroke="#263238" stroke-linecap="round" stroke-linejoin="round"/>
<path d="M177.05 358.831C177.05 358.831 168.8 360.631 165.45 361.291C162.1 361.951 155.88 366.291 152.2 364.561C148.52 362.831 164.2 356.461 164.2 356.461L169.6 354.291L177.05 358.831Z" fill="#BFBFBF" stroke="#263238" stroke-linecap="round" stroke-linejoin="round"/>
<path d="M183.729 309.47C183.849 306.34 183.959 303.21 184.079 300.08" stroke="#263238" stroke-linecap="round" stroke-linejoin="round"/>
<path d="M181.47 369.93C183 351 183.57 313.73 183.57 313.73" stroke="#263238" stroke-linecap="round" stroke-linejoin="round"/>
<path d="M206.999 348.621H178.529C178.529 348.621 156.449 341.991 152.779 347.141C149.109 352.291 141.249 360.141 143.459 361.611C145.669 363.081 154.999 352.421 154.999 352.421L163.099 352.491C163.099 352.491 156.229 355.491 154.759 356.951C153.289 358.411 150.099 362.591 151.759 363.331C153.419 364.071 158.879 358.671 158.879 358.671C158.879 358.671 166.969 356.671 168.929 357.671C175.219 360.89 182.494 361.604 189.289 359.671L210.999 362.371L206.999 348.621Z" fill="white" stroke="#263238" stroke-linecap="round" stroke-linejoin="round"/>
<path d="M253.3 315.93C252.515 311.376 252.484 306.724 253.21 302.16" stroke="#263238" stroke-linecap="round" stroke-linejoin="round"/>
<path d="M259.75 292.081C259.75 292.081 273.55 273.901 280.53 296.531" stroke="#263238" stroke-linecap="round" stroke-linejoin="round"/>
<path d="M201.14 346.37C201.628 345.79 202.289 345.38 203.026 345.2C203.763 345.02 204.539 345.08 205.24 345.37C205.813 344.928 206.505 344.666 207.227 344.616C207.95 344.566 208.671 344.731 209.3 345.09C211.3 346.41 215.3 361.41 211.41 364.22C210.29 365.02 207.16 365.77 206.2 364.16C205.899 364.381 205.551 364.528 205.183 364.59C204.815 364.651 204.438 364.624 204.083 364.512C203.727 364.4 203.403 364.206 203.136 363.945C202.87 363.684 202.669 363.364 202.55 363.01C201.43 360.4 203.48 357.19 200.55 349.62C200.342 349.076 200.287 348.486 200.391 347.913C200.495 347.34 200.754 346.807 201.14 346.37Z" fill="#075471"/>
<mask id="mask1_370_516" style="mask-type:luminance" maskUnits="userSpaceOnUse" x="200" y="344" width="14" height="22">
<path d="M201.14 346.37C201.628 345.79 202.289 345.38 203.026 345.2C203.763 345.02 204.539 345.08 205.24 345.37C205.813 344.928 206.505 344.666 207.227 344.616C207.95 344.566 208.671 344.731 209.3 345.09C211.3 346.41 215.3 361.41 211.41 364.22C210.29 365.02 207.16 365.77 206.2 364.16C205.899 364.381 205.551 364.528 205.183 364.59C204.815 364.651 204.438 364.624 204.083 364.512C203.727 364.4 203.403 364.206 203.136 363.945C202.87 363.684 202.669 363.364 202.55 363.01C201.43 360.4 203.48 357.19 200.55 349.62C200.342 349.076 200.287 348.486 200.391 347.913C200.495 347.34 200.754 346.807 201.14 346.37Z" fill="white"/>
</mask>
<g mask="url(#mask1_370_516)">
<path opacity="0.3" d="M201.14 346.37C201.628 345.79 202.289 345.38 203.026 345.2C203.763 345.02 204.539 345.08 205.24 345.37C205.813 344.928 206.505 344.666 207.227 344.616C207.95 344.566 208.671 344.731 209.3 345.09C211.3 346.41 215.3 361.41 211.41 364.22C210.29 365.02 207.16 365.77 206.2 364.16C205.899 364.381 205.551 364.528 205.183 364.59C204.815 364.651 204.438 364.624 204.083 364.512C203.727 364.4 203.403 364.206 203.136 363.945C202.87 363.684 202.669 363.364 202.55 363.01C201.43 360.4 203.48 357.19 200.55 349.62C200.342 349.076 200.287 348.486 200.391 347.913C200.495 347.34 200.754 346.807 201.14 346.37Z" fill="black"/>
</g>
<path d="M201.14 346.37C201.628 345.79 202.289 345.38 203.026 345.2C203.763 345.02 204.539 345.08 205.24 345.37C205.813 344.928 206.505 344.666 207.227 344.616C207.95 344.566 208.671 344.731 209.3 345.09C211.3 346.41 215.3 361.41 211.41 364.22C210.29 365.02 207.16 365.77 206.2 364.16C205.899 364.381 205.551 364.528 205.183 364.59C204.815 364.651 204.438 364.624 204.083 364.512C203.727 364.4 203.403 364.206 203.136 363.945C202.87 363.684 202.669 363.364 202.55 363.01C201.43 360.4 203.48 357.19 200.55 349.62C200.342 349.076 200.287 348.486 200.391 347.913C200.495 347.34 200.754 346.807 201.14 346.37Z" stroke="#263238" stroke-linecap="round" stroke-linejoin="round"/>
<path d="M207.46 354.16C207.813 356.478 207.84 358.834 207.54 361.16" stroke="#263238" stroke-linecap="round" stroke-linejoin="round"/>
<path d="M220 309.25C219.979 309.636 219.845 310.006 219.614 310.315C219.383 310.624 219.065 310.858 218.702 310.986C218.338 311.115 217.944 311.132 217.57 311.037C217.196 310.941 216.859 310.737 216.601 310.45C216.344 310.163 216.177 309.805 216.122 309.423C216.068 309.042 216.127 308.652 216.294 308.304C216.461 307.956 216.727 307.666 217.06 307.469C217.392 307.273 217.775 307.179 218.16 307.2C218.671 307.241 219.147 307.476 219.489 307.858C219.831 308.239 220.014 308.738 220 309.25Z" fill="white" stroke="#263238" stroke-linecap="round" stroke-linejoin="round"/>
<path d="M218.56 339.45C218.535 339.832 218.399 340.198 218.166 340.503C217.934 340.807 217.617 341.036 217.255 341.161C216.893 341.286 216.502 341.3 216.131 341.203C215.761 341.106 215.428 340.901 215.173 340.615C214.919 340.329 214.755 339.974 214.702 339.594C214.649 339.215 214.71 338.829 214.876 338.484C215.043 338.139 215.308 337.851 215.637 337.656C215.967 337.461 216.347 337.369 216.73 337.39C217.245 337.421 217.728 337.655 218.071 338.041C218.414 338.427 218.59 338.934 218.56 339.45Z" fill="white" stroke="#263238" stroke-linecap="round" stroke-linejoin="round"/>
<path d="M236.42 272.271L235 252.121L214.14 257.001L213 273.131C211.69 273.291 210.44 273.481 209.21 273.661L214.31 285.891L224.31 287.201L240.25 272.511C239 272.411 237.68 272.331 236.42 272.271Z" fill="white"/>
<mask id="mask2_370_516" style="mask-type:luminance" maskUnits="userSpaceOnUse" x="209" y="252" width="32" height="36">
<path d="M236.42 272.271L235 252.121L214.14 257.001L213 273.131C211.69 273.291 210.44 273.481 209.21 273.661L214.31 285.891L224.31 287.201L240.25 272.511C239 272.411 237.68 272.331 236.42 272.271Z" fill="white"/>
</mask>
<g mask="url(#mask2_370_516)">
<path d="M213.83 264.081C213.97 278.421 230.72 274.021 235.36 259.701L234.99 252.121L214.14 257.001L213.83 264.081Z" fill="#263238"/>
</g>
<path d="M236.42 272.271L235 252.121L214.14 257.001L213 273.131C211.69 273.291 210.44 273.481 209.21 273.661L214.31 285.891L224.31 287.201L240.25 272.511C239 272.411 237.68 272.331 236.42 272.271Z" stroke="#263238" stroke-linecap="round" stroke-linejoin="round"/>
<path d="M201.06 235.111C201.06 235.111 193.44 221.931 192.32 214.981C188.83 193.511 204.32 200.751 204.32 200.751C204.32 200.751 215.32 190.941 228.93 192.661C242.54 194.381 246.18 200.191 255.37 203.761C255.37 203.761 248.47 238.761 239.64 246.621C230.81 254.481 201.06 235.111 201.06 235.111Z" fill="#263238" stroke="#263238" stroke-linecap="round" stroke-linejoin="round"/>
<path d="M205.07 203.94C205.07 203.94 201.64 195.6 210.34 189.23" stroke="#263238" stroke-linecap="round" stroke-linejoin="round"/>
<path d="M220.05 198.93C230.24 194.43 234.79 201.93 246.16 203.93" stroke="#BFBFBF" stroke-miterlimit="10"/>
<path d="M212.18 203.94C213.106 202.775 214.226 201.777 215.49 200.99" stroke="#BFBFBF" stroke-miterlimit="10"/>
<path d="M222.64 207.21C222.64 207.21 227.05 202.98 235.8 208.48C238.44 210.218 241.413 211.39 244.53 211.92" stroke="#BFBFBF" stroke-miterlimit="10"/>
<path d="M236.119 216.371C223.439 216.701 210.339 210.971 210.339 210.971C198.519 218.101 200.279 229.691 200.279 229.691C202.979 257.391 206.629 264.771 219.569 264.771C232.509 264.771 243.029 250.771 243.879 230.821C238.999 231.051 236.119 216.371 236.119 216.371Z" fill="white" stroke="#263238" stroke-linecap="round" stroke-linejoin="round"/>
<path d="M242.79 229.691C243.08 229.261 243.466 228.905 243.917 228.65C244.368 228.395 244.872 228.248 245.39 228.221C247.69 228.221 249.39 231.221 248.58 234.971C247.77 238.721 246.71 241.711 244.41 241.711C243.884 241.692 243.377 241.513 242.955 241.199C242.534 240.884 242.218 240.449 242.05 239.951" fill="white"/>
<path d="M242.79 229.691C243.08 229.261 243.466 228.905 243.917 228.65C244.368 228.395 244.872 228.248 245.39 228.221C247.69 228.221 249.39 231.221 248.58 234.971C247.77 238.721 246.71 241.711 244.41 241.711C243.884 241.692 243.377 241.513 242.955 241.199C242.534 240.884 242.218 240.449 242.05 239.951" stroke="#263238" stroke-linecap="round" stroke-linejoin="round"/>
<path d="M217.58 243.29C217.58 243.29 219.13 245.41 216.16 247C213.19 248.59 210.83 248.56 210.07 246.74C209.31 244.92 212.61 229.74 212.61 229.74" stroke="#263238" stroke-linecap="round" stroke-linejoin="round"/>
<path d="M212.109 232.17C210.509 231.36 204.109 228.56 198.029 232.38L198.419 238.26C198.419 238.26 200.659 239.49 205.799 239.49C207.481 239.521 209.16 239.346 210.799 238.97" stroke="#263238" stroke-linecap="round" stroke-linejoin="round"/>
<path d="M217.42 232.381L219.28 238.511C219.28 238.511 220.04 239.511 225.19 239.511C230.34 239.511 232.03 238.281 232.03 238.281L231.88 232.401C231.88 232.401 224.41 228.001 217.42 232.381Z" stroke="#263238" stroke-linecap="round" stroke-linejoin="round"/>
<path d="M212.52 232.381H217.42" stroke="#263238" stroke-linecap="round" stroke-linejoin="round"/>
<path d="M213.56 252.56C216.237 253.323 219.084 253.236 221.71 252.31C223.73 251.548 225.489 250.222 226.78 248.49" stroke="#263238" stroke-linecap="round" stroke-linejoin="round"/>
<path d="M221.71 226.58C228.14 223.93 230.98 227.11 230.98 227.11" stroke="#263238" stroke-linecap="round" stroke-linejoin="round"/>
<path d="M204.739 226.32C205.844 225.791 207.076 225.584 208.293 225.724C209.51 225.864 210.663 226.344 211.619 227.11" stroke="#263238" stroke-linecap="round" stroke-linejoin="round"/>
<path d="M224.269 231.051C224.869 231.051 225.269 232.051 225.269 233.221C225.269 234.391 224.769 235.381 224.189 235.381C223.609 235.381 223.189 234.381 223.189 233.221C223.189 232.061 223.679 231.051 224.269 231.051Z" fill="#263238"/>
<path d="M208.3 230.781C208.89 230.781 209.3 231.781 209.3 232.951C209.3 234.121 208.8 235.111 208.22 235.111C207.64 235.111 207.22 234.111 207.22 232.951C207.22 231.791 207.72 230.781 208.3 230.781Z" fill="#263238"/>
<path d="M197.64 219.74C197.846 220.92 198.181 222.074 198.64 223.18" stroke="#BFBFBF" stroke-miterlimit="10"/>
<path d="M205.31 206.53C198.99 204.83 196.49 208.63 196.96 214.63" stroke="#BFBFBF" stroke-miterlimit="10"/>
<path d="M211.999 272.191L219.699 286.051L238.189 271.461L243.879 272.261L231.879 293.411C231.77 293.601 231.624 293.768 231.449 293.9C231.274 294.032 231.074 294.128 230.861 294.181C230.648 294.235 230.426 294.244 230.21 294.21C229.993 294.175 229.785 294.098 229.599 293.981L219.369 287.521L211.369 292.401C211.135 292.544 210.869 292.626 210.595 292.638C210.321 292.651 210.049 292.595 209.802 292.474C209.556 292.353 209.344 292.172 209.186 291.948C209.029 291.724 208.93 291.463 208.899 291.191L206.899 273.131L211.999 272.191Z" fill="#075471"/>
<mask id="mask3_370_516" style="mask-type:luminance" maskUnits="userSpaceOnUse" x="206" y="271" width="38" height="24">
<path d="M211.999 272.191L219.699 286.051L238.189 271.461L243.879 272.261L231.879 293.411C231.77 293.601 231.624 293.768 231.449 293.9C231.274 294.032 231.074 294.128 230.861 294.181C230.648 294.235 230.426 294.244 230.21 294.21C229.993 294.175 229.785 294.098 229.599 293.981L219.369 287.521L211.369 292.401C211.135 292.544 210.869 292.626 210.595 292.638C210.321 292.651 210.049 292.595 209.802 292.474C209.556 292.353 209.344 292.172 209.186 291.948C209.029 291.724 208.93 291.463 208.899 291.191L206.899 273.131L211.999 272.191Z" fill="white"/>
</mask>
<g mask="url(#mask3_370_516)">
<path opacity="0.3" d="M211.32 272.101L219.7 286.051L238.52 271.201L244.18 272.101L231.91 293.411C231.801 293.602 231.654 293.768 231.479 293.9C231.304 294.033 231.104 294.128 230.891 294.182C230.678 294.235 230.457 294.244 230.24 294.21C230.023 294.176 229.816 294.098 229.63 293.981L219.4 287.521L211.4 292.401C211.166 292.544 210.899 292.626 210.625 292.639C210.352 292.651 210.079 292.595 209.833 292.474C209.586 292.354 209.374 292.173 209.217 291.948C209.059 291.724 208.96 291.464 208.93 291.191L206.93 273.131L211.32 272.101Z" fill="black"/>
</g>
<path d="M211.999 272.191L219.699 286.051L238.189 271.461L243.879 272.261L231.879 293.411C231.77 293.601 231.624 293.768 231.449 293.9C231.274 294.032 231.074 294.128 230.861 294.181C230.648 294.235 230.426 294.244 230.21 294.21C229.993 294.175 229.785 294.098 229.599 293.981L219.369 287.521L211.369 292.401C211.135 292.544 210.869 292.626 210.595 292.638C210.321 292.651 210.049 292.595 209.802 292.474C209.556 292.353 209.344 292.172 209.186 291.948C209.029 291.724 208.93 291.463 208.899 291.191L206.899 273.131L211.999 272.191Z" stroke="#263238" stroke-linecap="round" stroke-linejoin="round"/>
<path d="M97.3496 363.23H147.63V369.93H97.3496C96.8192 369.93 96.3105 369.72 95.9354 369.345C95.5603 368.97 95.3496 368.461 95.3496 367.93V365.2C95.3575 364.675 95.5717 364.174 95.9459 363.806C96.3201 363.437 96.8243 363.23 97.3496 363.23Z" fill="#263238" stroke="#263238" stroke-linecap="round" stroke-linejoin="round"/>
<path d="M190.89 369.93H147.63V363.23L191 366.08C191.347 366.106 191.671 366.261 191.908 366.515C192.146 366.769 192.278 367.103 192.28 367.45V368.56C192.28 368.742 192.244 368.922 192.174 369.089C192.104 369.257 192.001 369.409 191.872 369.536C191.742 369.664 191.589 369.764 191.42 369.832C191.252 369.9 191.071 369.933 190.89 369.93Z" fill="#075471" stroke="#263238" stroke-linecap="round" stroke-linejoin="round"/>
<path d="M231.909 233.371L242.789 229.691L241.499 231.321" stroke="#263238" stroke-linecap="round" stroke-linejoin="round"/>
<path d="M301.6 245.889C301.6 245.889 289.07 207.629 320.6 204.949C352.13 202.269 355.82 231.629 358.71 246.349C360.97 257.859 382.49 278.909 365.83 294.619C348.45 311.029 306.11 305.549 303.67 282.229C301.23 258.909 303.44 254.129 301.6 245.889Z" fill="#263238" stroke="#263238" stroke-linecap="round" stroke-linejoin="round"/>
<path d="M338.36 252C338.36 252 336.99 269 345.74 283.55C345.74 283.55 333.95 287.4 321.65 283.74C322.16 279.237 321.91 274.68 320.91 270.26L320.49 268.41L329.43 260.68L338.36 252Z" fill="white"/>
<mask id="mask4_370_516" style="mask-type:luminance" maskUnits="userSpaceOnUse" x="320" y="252" width="26" height="34">
<path d="M338.36 252C338.36 252 336.99 269 345.74 283.55C345.74 283.55 333.95 287.4 321.65 283.74C322.16 279.237 321.91 274.68 320.91 270.26L320.49 268.41L329.43 260.68L338.36 252Z" fill="white"/>
</mask>
<g mask="url(#mask4_370_516)">
<path d="M316.721 264.77C318.351 273.9 319.841 275.89 327.581 274.26C333.311 273.05 338.201 264.45 338.481 258.2C338.199 255.362 338.063 252.512 338.071 249.66L329.431 260.66L316.721 264.77Z" fill="#263238"/>
</g>
<path d="M338.36 252C338.36 252 336.99 269 345.74 283.55C345.74 283.55 333.95 287.4 321.65 283.74C322.16 279.237 321.91 274.68 320.91 270.26L320.49 268.41L329.43 260.68L338.36 252Z" stroke="#263238" stroke-linecap="round" stroke-linejoin="round"/>
<path d="M250.63 349.069C250.63 349.069 233.18 341.069 232.2 347.689C231.22 354.309 235.49 364.529 251.47 359.499L285 363.919C285 363.919 290.74 352.489 284.61 346.259C284.6 346.259 255.06 350.849 250.63 349.069Z" fill="white" stroke="#263238" stroke-linecap="round" stroke-linejoin="round"/>
<path d="M223.74 356.229C223.74 356.229 220.98 357.119 220.57 358.949C220.16 360.779 219.27 363.369 220.33 363.379C221.39 363.389 222.68 359.738 222.68 359.738L225.37 359.039L223.74 356.229Z" fill="white" stroke="#263238" stroke-linecap="round" stroke-linejoin="round"/>
<path d="M242.018 338.859L223.877 340.76L226.584 366.598L244.724 364.698L242.018 338.859Z" fill="white" stroke="#263238" stroke-linecap="round" stroke-linejoin="round"/>
<path d="M223.87 340.76L221.165 341.043L223.872 366.882L226.577 366.598L223.87 340.76Z" fill="#075471" stroke="#263238" stroke-linecap="round" stroke-linejoin="round"/>
<path d="M237.14 335.119C236.103 335.24 235.155 335.762 234.497 336.573C233.839 337.383 233.525 338.419 233.62 339.459C233.636 339.55 233.656 339.64 233.68 339.729L234.59 339.639L235.59 339.539C235.568 339.447 235.551 339.353 235.54 339.259C235.502 338.901 235.558 338.539 235.704 338.209C235.849 337.88 236.079 337.595 236.37 337.382C236.661 337.17 237.003 337.038 237.362 337C237.72 336.962 238.082 337.019 238.411 337.165C238.74 337.311 239.025 337.542 239.237 337.833C239.449 338.125 239.58 338.467 239.617 338.825C239.655 339.184 239.597 339.546 239.45 339.875C239.303 340.203 239.072 340.488 238.78 340.699C238.897 341.021 239.103 341.303 239.374 341.512C239.645 341.721 239.97 341.848 240.31 341.879C240.903 341.31 241.302 340.571 241.453 339.764C241.605 338.957 241.5 338.123 241.154 337.378C240.808 336.633 240.238 336.015 239.524 335.61C238.81 335.205 237.987 335.034 237.17 335.119H237.14Z" fill="white" stroke="#263238" stroke-linecap="round" stroke-linejoin="round"/>
<path d="M227.29 346.119L233.54 345.459" stroke="#263238" stroke-linecap="round" stroke-linejoin="round"/>
<path d="M227.59 348.959L239.72 347.689" stroke="#263238" stroke-linecap="round" stroke-linejoin="round"/>
<path d="M227.89 351.81L233.96 351.18" stroke="#263238" stroke-linecap="round" stroke-linejoin="round"/>
<path d="M228.189 354.66L238.319 353.6" stroke="#263238" stroke-linecap="round" stroke-linejoin="round"/>
<path d="M228.49 357.509L234.55 356.869" stroke="#263238" stroke-linecap="round" stroke-linejoin="round"/>
<path d="M228.79 360.349L242.09 358.959" stroke="#263238" stroke-linecap="round" stroke-linejoin="round"/>
<path d="M229.08 363.199L235.33 362.549" stroke="#263238" stroke-linecap="round" stroke-linejoin="round"/>
<path d="M233.78 335.469C232.745 335.592 231.798 336.115 231.143 336.925C230.487 337.736 230.174 338.771 230.27 339.809C230.282 339.903 230.298 339.996 230.32 340.089L231.24 339.989L232.24 339.889C232.209 339.798 232.189 339.704 232.18 339.609C232.16 339.086 232.34 338.575 232.683 338.179C233.026 337.784 233.507 337.534 234.028 337.481C234.549 337.428 235.07 337.574 235.487 337.891C235.903 338.209 236.183 338.673 236.27 339.189C236.309 339.547 236.25 339.908 236.101 340.236C235.951 340.563 235.716 340.844 235.42 341.049C235.536 341.37 235.742 341.652 236.013 341.861C236.284 342.07 236.609 342.198 236.95 342.229C237.542 341.66 237.942 340.92 238.093 340.113C238.244 339.306 238.14 338.472 237.794 337.727C237.448 336.983 236.878 336.365 236.164 335.96C235.449 335.555 234.627 335.383 233.81 335.469H233.78Z" fill="white" stroke="#263238" stroke-linecap="round" stroke-linejoin="round"/>
<path d="M230.42 335.82C229.384 335.943 228.438 336.466 227.782 337.276C227.127 338.087 226.814 339.122 226.91 340.16C226.91 340.26 226.91 340.34 226.91 340.44L227.83 340.34L228.83 340.24C228.805 340.151 228.785 340.061 228.77 339.97C228.729 339.609 228.784 339.245 228.929 338.912C229.074 338.58 229.305 338.292 229.597 338.077C229.89 337.862 230.234 337.729 230.594 337.69C230.955 337.651 231.319 337.707 231.651 337.854C231.983 338.001 232.27 338.233 232.483 338.526C232.696 338.82 232.828 339.164 232.865 339.525C232.903 339.886 232.844 340.25 232.696 340.581C232.547 340.912 232.314 341.198 232.02 341.41C232.133 341.731 232.336 342.012 232.606 342.22C232.876 342.428 233.2 342.553 233.54 342.58C233.977 342.17 234.313 341.663 234.521 341.101C234.729 340.539 234.804 339.936 234.74 339.34C234.619 338.306 234.1 337.361 233.293 336.704C232.487 336.047 231.456 335.73 230.42 335.82Z" fill="white" stroke="#263238" stroke-linecap="round" stroke-linejoin="round"/>
<path d="M227.07 336.168C226.033 336.289 225.084 336.811 224.427 337.622C223.769 338.432 223.454 339.468 223.55 340.508C223.564 340.603 223.584 340.696 223.61 340.788L224.52 340.688L225.52 340.588C225.499 340.499 225.482 340.409 225.47 340.318C225.431 339.96 225.488 339.598 225.633 339.268C225.779 338.939 226.009 338.654 226.3 338.441C226.591 338.229 226.933 338.097 227.291 338.059C227.65 338.021 228.012 338.078 228.341 338.224C228.67 338.37 228.955 338.601 229.167 338.892C229.378 339.184 229.51 339.526 229.547 339.884C229.585 340.243 229.527 340.605 229.38 340.934C229.233 341.262 229.002 341.547 228.71 341.758C228.827 342.079 229.033 342.359 229.304 342.566C229.575 342.774 229.9 342.899 230.24 342.928C230.674 342.515 231.007 342.009 231.215 341.447C231.423 340.886 231.5 340.284 231.44 339.688C231.319 338.645 230.793 337.692 229.976 337.033C229.158 336.375 228.115 336.064 227.07 336.168Z" fill="white" stroke="#263238" stroke-linecap="round" stroke-linejoin="round"/>
<path d="M222.08 340.67C222.037 340.309 222.092 339.943 222.237 339.61C222.381 339.276 222.612 338.987 222.905 338.772C223.198 338.556 223.542 338.422 223.903 338.383C224.265 338.344 224.63 338.401 224.962 338.549C225.294 338.696 225.582 338.929 225.795 339.224C226.008 339.518 226.139 339.864 226.175 340.225C226.212 340.587 226.152 340.952 226.001 341.283C225.851 341.614 225.616 341.899 225.32 342.11C225.437 342.43 225.643 342.711 225.914 342.918C226.185 343.125 226.51 343.251 226.85 343.28C227.418 342.736 227.81 342.034 227.976 341.266C228.142 340.497 228.074 339.696 227.781 338.966C227.488 338.236 226.983 337.611 226.331 337.17C225.68 336.73 224.911 336.494 224.125 336.494C223.338 336.494 222.569 336.73 221.918 337.17C221.266 337.611 220.761 338.236 220.468 338.966C220.175 339.696 220.107 340.497 220.273 341.266C220.439 342.034 220.831 342.736 221.4 343.28L221.17 341.03L222.17 340.93C222.131 340.847 222.1 340.759 222.08 340.67Z" fill="white" stroke="#263238" stroke-linecap="round" stroke-linejoin="round"/>
<path d="M219.07 348C219.24 348.377 219.437 348.742 219.66 349.09C219.467 349.779 219.432 350.503 219.556 351.207C219.681 351.912 219.962 352.579 220.38 353.16C220.38 353.16 220.46 356.01 221.47 356.46C222.48 356.91 224.09 357.46 224.06 356.66C224.03 355.86 223.56 353.47 221.74 352.94C221.74 352.94 223.83 353.35 223.6 352.19C223.37 351.03 222.97 349.35 221.69 348.87L221 348.57C221 348.57 222.66 348.87 222.52 347.62C222.38 346.37 222.24 344.9 221.29 344.55C221.07 344.47 220.82 344.4 220.56 344.33C219.16 344 218.26 346.2 219.07 348Z" fill="white" stroke="#263238" stroke-linecap="round" stroke-linejoin="round"/>
<path d="M248.67 348.85C248.67 348.85 246.72 344.53 243.53 342.28C240.34 340.03 239.14 335.65 237.84 336.71C236.54 337.77 237.72 342.42 239.74 344.01C241.76 345.6 239.5 349.15 244.47 353.53" fill="white"/>
<path d="M248.67 348.85C248.67 348.85 246.72 344.53 243.53 342.28C240.34 340.03 239.14 335.65 237.84 336.71C236.54 337.77 237.72 342.42 239.74 344.01C241.76 345.6 239.5 349.15 244.47 353.53" stroke="#263238" stroke-linecap="round" stroke-linejoin="round"/>
<path d="M366.14 361.459C365.7 364.179 365.23 367.002 364.73 369.929H296.15C296.04 369.009 296.69 367.159 297.31 363.929C289.67 366.519 276.31 362.499 276.31 362.499C277.97 358.129 276.82 347.029 276.82 347.029L284.6 345.379C284.6 345.379 287.83 311.559 290.29 301.869C292.9 291.589 307.18 280.369 355.21 283.679C355.21 283.679 377.37 283.259 380.81 297.949C384.05 311.659 367.06 360.829 366.14 361.459Z" fill="#075471"/>
<mask id="mask5_370_516" style="mask-type:luminance" maskUnits="userSpaceOnUse" x="276" y="283" width="106" height="87">
<path d="M366.14 361.459C365.7 364.179 365.23 367.002 364.73 369.929H296.15C296.04 369.009 296.69 367.159 297.31 363.929C289.67 366.519 276.31 362.499 276.31 362.499C277.97 358.129 276.82 347.029 276.82 347.029L284.6 345.379C284.6 345.379 287.83 311.559 290.29 301.869C292.9 291.589 307.18 280.369 355.21 283.679C355.21 283.679 377.37 283.259 380.81 297.949C384.05 311.659 367.06 360.829 366.14 361.459Z" fill="white"/>
</mask>
<g mask="url(#mask5_370_516)">
<path opacity="0.2" d="M297.309 363.939C291.999 365.739 283.949 364.349 279.529 363.329C280.679 362.449 281.399 360.649 281.669 358.329C285.269 357.769 288.869 352.049 291.239 326.049C291.799 319.949 292.999 316.119 294.539 313.539C292.986 319.39 292.924 325.538 294.359 331.419C295.219 334.909 297.919 343.309 298.159 346.789C298.64 352.518 298.354 358.286 297.309 363.939Z" fill="black"/>
<path opacity="0.2" d="M366.129 361.469C365.702 364.189 365.236 367.009 364.729 369.929H296.149C297.379 366.169 300.399 348.269 296.149 337.389C295.979 336.949 310.879 330.689 320.859 333.249C363.159 344.099 348.589 309.139 360.669 302.779L350.249 343.649L344.559 345.459C356.879 346.219 353.319 364.689 353.319 364.689C357.843 365.29 362.426 364.138 366.129 361.469Z" fill="black"/>
</g>
<path d="M366.14 361.459C365.7 364.179 365.23 367.002 364.73 369.929H296.15C296.04 369.009 296.69 367.159 297.31 363.929C289.67 366.519 276.31 362.499 276.31 362.499C277.97 358.129 276.82 347.029 276.82 347.029L284.6 345.379C284.6 345.379 287.83 311.559 290.29 301.869C292.9 291.589 307.18 280.369 355.21 283.679C355.21 283.679 377.37 283.259 380.81 297.949C384.05 311.659 367.06 360.829 366.14 361.459Z" stroke="#263238" stroke-linecap="round" stroke-linejoin="round"/>
<path d="M278.1 345.129C278.1 345.129 280.7 346.519 281.55 352.629C282.4 358.739 281.09 363.999 277.7 363.919C274.31 363.839 273.7 362.509 274.4 361.249C275.1 359.989 276.58 358.299 275.45 353.069C274.03 346.519 271.11 347.119 271.11 347.119C271.11 347.119 275 343.389 278.1 345.129Z" fill="#075471" stroke="#263238" stroke-linecap="round" stroke-linejoin="round"/>
<path opacity="0.2" d="M281.67 358.369C281.4 360.649 280.67 362.449 279.53 363.369C279.01 363.776 278.361 363.985 277.7 363.959C274.3 363.879 273.7 362.549 274.4 361.289C275.1 360.029 276.58 358.339 275.45 353.109C274.03 346.559 271.11 347.159 271.11 347.159C271.11 347.159 275.01 343.429 278.11 345.159C278.11 345.159 280.71 346.549 281.56 352.659C281.831 354.551 281.868 356.468 281.67 358.369Z" fill="black"/>
<path d="M343.43 271.459C343.43 271.459 326.19 276.689 318.35 273.899L316.72 284.369C316.72 284.369 324.35 291.009 348.79 282.839L343.43 271.459Z" fill="#075471" stroke="#263238" stroke-linecap="round" stroke-linejoin="round"/>
<path d="M282.17 342.079C284.22 348.749 286.05 354.079 284.24 354.669C282.43 355.259 280.94 349.759 278.89 343.079C276.84 336.399 275.01 331.079 276.82 330.499C278.63 329.919 280.12 335.399 282.17 342.079Z" fill="#075471" stroke="#263238" stroke-linecap="round" stroke-linejoin="round"/>
<path d="M278.63 342.238L281.91 341.238C281.43 339.668 280.98 338.168 280.55 336.828L277.28 337.828C277.68 339.178 278.14 340.658 278.63 342.238Z" fill="#263238"/>
<path d="M278.33 333.658C278.33 333.658 279.86 330.588 281.27 332.758C282.68 334.928 282.97 341.518 283.97 341.528" stroke="#263238" stroke-linecap="round" stroke-linejoin="round"/>
<path d="M298.67 301C297.42 304.83 295.67 309 294.54 313.59C292.987 319.441 292.926 325.589 294.36 331.47C295.22 334.96 297.92 343.36 298.16 346.84C298.637 352.556 298.351 358.31 297.31 363.95C296.69 367.17 296.04 369.02 296.15 369.95" stroke="#263238" stroke-linecap="round" stroke-linejoin="round"/>
<path d="M341.12 346.599C341.12 346.599 313.22 350.409 303.81 350.599C302.37 350.599 298.05 350.099 298.05 350.099L291.36 345.629C291.36 345.629 286.21 344.869 283.68 345.439L280.8 349.209C280.8 349.209 277.21 350.369 279.26 353.089C279.047 353.727 279.023 354.413 279.192 355.064C279.36 355.716 279.714 356.304 280.21 356.759C280.21 356.759 280.37 359.129 281.95 360.079C281.95 360.079 282.26 362.289 284 362.919C285.74 363.549 296.63 361.809 299.95 360.869C303.27 359.929 335.47 364.969 348.1 364.659C348.1 364.679 358.92 351.999 341.12 346.599Z" fill="white" stroke="#263238" stroke-linecap="round" stroke-linejoin="round"/>
<path d="M341.55 240.999C341.55 240.999 334.19 243.869 329.83 235.929C327.94 232.489 324.12 225.319 324.12 225.319C323.03 228.129 324.37 232.409 324.37 232.409C321.87 231.319 317.05 231.059 317.05 231.059C315.34 228.199 314.84 221.699 314.84 221.699C312.47 225.699 313.15 231.339 313.15 231.339C309.282 231.712 305.62 233.261 302.66 235.779C303.29 238.329 303.51 242.309 303.3 250.579C303.03 261.369 308.22 264.329 313.3 268.369C318.38 272.409 332.21 274.489 336.99 253.369C336.99 253.369 346.99 249.639 342.11 241.809L341.55 240.999Z" fill="white" stroke="#263238" stroke-linecap="round" stroke-linejoin="round"/>
<path d="M333.35 228C334.839 231.215 337.01 234.068 339.713 236.359C342.415 238.651 345.584 240.327 349 241.27" stroke="#BFBFBF" stroke-miterlimit="10"/>
<path d="M330.72 220C330.954 221.314 331.288 222.607 331.72 223.87" stroke="#BFBFBF" stroke-miterlimit="10"/>
<path d="M335.72 220.488C335.72 220.488 341.4 231.328 350.28 231.588" stroke="#BFBFBF" stroke-miterlimit="10"/>
<path d="M353.13 248.059C353.13 248.059 367.58 271.459 367.58 285.059" stroke="#BFBFBF" stroke-miterlimit="10"/>
<path d="M349.31 254.299C349.31 254.299 352.88 267.349 358.63 273.899" stroke="#BFBFBF" stroke-miterlimit="10"/>
<path d="M303.9 220.369C303.467 222.295 303.183 224.25 303.05 226.219" stroke="#BFBFBF" stroke-miterlimit="10"/>
<path d="M315.73 208.109C315.73 208.109 309 209.369 304.61 217.299" stroke="#BFBFBF" stroke-miterlimit="10"/>
<path d="M307.21 268.699C307.21 268.699 306.99 279.199 312.35 285.099" stroke="#BFBFBF" stroke-miterlimit="10"/>
<path d="M316.72 236.568C324.01 235.138 327.2 238.848 327.2 238.848" stroke="#263238" stroke-linecap="round" stroke-linejoin="round"/>
<path d="M304.58 239.64C305.384 238.828 306.347 238.191 307.409 237.767C308.471 237.344 309.608 237.144 310.75 237.18" stroke="#263238" stroke-linecap="round" stroke-linejoin="round"/>
<path d="M321.47 260.999C323.72 259.719 324.97 256.379 324.97 256.379L324.5 256.639C321.567 258.207 318.371 259.224 315.07 259.639C315.841 260.535 316.885 261.153 318.041 261.399C319.197 261.644 320.402 261.504 321.47 260.999Z" stroke="#263238" stroke-linecap="round" stroke-linejoin="round"/>
<path d="M312.55 254.06C311.6 253.94 308.89 252.66 308.66 250.82C308.59 250.27 308.99 249.77 309.58 249.33C310.748 248.51 311.687 247.405 312.308 246.121C312.929 244.836 313.212 243.414 313.13 241.99C313.13 241.79 313.13 241.67 313.13 241.67" stroke="#263238" stroke-linecap="round" stroke-linejoin="round"/>
<path d="M321.87 239.499C322.56 239.409 323.27 240.559 323.45 242.049C323.63 243.539 323.23 244.809 322.53 244.899C321.83 244.989 321.14 243.839 320.95 242.349C320.76 240.859 321.18 239.579 321.87 239.499Z" fill="#263238"/>
<path d="M309.85 243.809C310.03 245.269 309.63 246.519 308.95 246.599C308.27 246.679 307.58 245.599 307.4 244.109C307.22 242.619 307.62 241.389 308.3 241.309C308.98 241.229 309.67 242.339 309.85 243.809Z" fill="#263238"/>
<path d="M332.23 240.75C332.23 240.75 331.3 238.11 332.36 236.75" stroke="#263238" stroke-linecap="round" stroke-linejoin="round"/>
<path d="M366.13 361.469C362.426 364.143 357.838 365.295 353.31 364.689C353.31 364.689 356.87 346.219 344.55 345.459L350.24 343.649L360.66 302.779" stroke="#263238" stroke-linecap="round" stroke-linejoin="round"/>
<path d="M353.31 343.648C353.31 343.648 359.91 345.388 361.76 351.068" stroke="#263238" stroke-linecap="round" stroke-linejoin="round"/>
<path d="M326.38 277.879C332.66 277.836 338.861 276.473 344.58 273.879" stroke="#263238" stroke-linecap="round" stroke-linejoin="round"/>
<path d="M317.88 276.898C319.291 277.266 320.729 277.52 322.18 277.658" stroke="#263238" stroke-linecap="round" stroke-linejoin="round"/>
<path d="M346 288.618C347.78 287.992 349.647 287.255 351.6 286.408" stroke="#263238" stroke-linecap="round" stroke-linejoin="round"/>
<path d="M315.11 288.77C315.11 288.77 321.82 295.14 339.57 290.59" stroke="#263238" stroke-linecap="round" stroke-linejoin="round"/>
<path d="M320.91 320.43C320.91 320.43 321.91 335.8 333.35 341.53" stroke="#263238" stroke-linecap="round" stroke-linejoin="round"/>
<path d="M340.84 346.839C340.84 346.839 343.08 341.899 349.78 344.339C349.78 344.339 356.11 346.519 358.01 353.029C359.91 359.539 357.53 365.349 352.91 365.589C348.29 365.829 347.45 365.469 348.23 364.049C349.05 362.499 349.508 360.783 349.57 359.03C349.633 357.278 349.297 355.534 348.59 353.929C345.72 347.059 340.84 346.839 340.84 346.839Z" fill="#075471"/>
<mask id="mask6_370_516" style="mask-type:luminance" maskUnits="userSpaceOnUse" x="340" y="343" width="19" height="23">
<path d="M340.84 346.839C340.84 346.839 343.08 341.899 349.78 344.339C349.78 344.339 356.11 346.519 358.01 353.029C359.91 359.539 357.53 365.349 352.91 365.589C348.29 365.829 347.45 365.469 348.23 364.049C349.05 362.499 349.508 360.783 349.57 359.03C349.633 357.278 349.297 355.534 348.59 353.929C345.72 347.059 340.84 346.839 340.84 346.839Z" fill="white"/>
</mask>
<g mask="url(#mask6_370_516)">
<g opacity="0.2">
<path d="M340.84 346.839C340.84 346.839 343.08 341.899 349.78 344.339C349.78 344.339 356.11 346.519 358.01 353.029C359.91 359.539 357.53 365.349 352.91 365.589C348.29 365.829 347.45 365.469 348.23 364.049C349.05 362.499 349.508 360.783 349.57 359.03C349.633 357.278 349.297 355.534 348.59 353.929C345.72 347.059 340.84 346.839 340.84 346.839Z" fill="black"/>
</g>
</g>
<path d="M340.84 346.839C340.84 346.839 343.08 341.899 349.78 344.339C349.78 344.339 356.11 346.519 358.01 353.029C359.91 359.539 357.53 365.349 352.91 365.589C348.29 365.829 347.45 365.469 348.23 364.049C349.05 362.499 349.508 360.783 349.57 359.03C349.633 357.278 349.297 355.534 348.59 353.929C345.72 347.059 340.84 346.839 340.84 346.839Z" stroke="#263238" stroke-linecap="round" stroke-linejoin="round"/>
<path d="M34.4398 326.509C34.4398 326.509 30.9998 297.099 0.589844 308.999C0.589844 308.999 26.4698 308.809 30.8498 330.999L34.8498 330.569L34.4398 326.509Z" fill="#075471"/>
<path opacity="0.1" d="M34.4398 326.509C34.4398 326.509 30.9998 297.099 0.589844 308.999C0.589844 308.999 26.4698 308.809 30.8498 330.999L34.8498 330.569L34.4398 326.509Z" fill="black"/>
<path d="M34.86 326C34.86 326 32.23 294.64 26.5 270.27C26.5 270.27 44 288.78 40 323.63L34.86 326Z" fill="#075471"/>
<path opacity="0.1" d="M34.86 326C34.86 326 32.23 294.64 26.5 270.27C26.5 270.27 44 288.78 40 323.63L34.86 326Z" fill="black"/>
<path d="M33.1601 346.779C33.1601 346.779 28.1601 303.579 11.3301 288.779C11.3301 288.779 41.3301 296.249 36.9101 342.129L33.1601 346.779Z" fill="#075471"/>
<path d="M38.4402 344.999C38.4402 344.999 45.7902 302.129 63.3502 288.219C63.3502 288.219 32.9702 294.059 34.9502 340.119L38.4402 344.999Z" fill="#075471"/>
<path d="M53.8496 330.939H18.3496V337.109H19.5296V358.879C19.5296 361.801 20.6869 364.605 22.7484 366.675C24.8099 368.746 27.6076 369.916 30.5296 369.929H41.5296C44.4612 369.929 47.2728 368.766 49.3467 366.694C51.4205 364.622 52.587 361.811 52.5896 358.879V337.109H53.7696L53.8496 330.939Z" fill="white" stroke="#263238" stroke-miterlimit="10"/>
<path d="M42.8496 336.818H47.5696Z" fill="white"/>
<path d="M42.8496 336.818H47.5696" stroke="#263238" stroke-miterlimit="10"/>
<path d="M24.3398 336.818H37.9998Z" fill="white"/>
<path d="M24.3398 336.818H37.9998" stroke="#263238" stroke-miterlimit="10"/>
<path d="M173.999 342.768L164.899 268.668C164.727 267.509 164.152 266.448 163.277 265.67C162.402 264.891 161.28 264.445 160.109 264.408H149.689L161.749 346.998H170.279C170.816 347.008 171.347 346.902 171.838 346.685C172.329 346.469 172.766 346.148 173.12 345.746C173.474 345.343 173.736 344.868 173.888 344.354C174.04 343.84 174.078 343.299 173.999 342.768Z" fill="#075471" stroke="#263238" stroke-linecap="round" stroke-linejoin="round"/>
<path d="M168 346.999H63.1598C61.9905 346.96 60.8718 346.513 59.9984 345.735C59.125 344.956 58.5523 343.896 58.3797 342.739L49.2798 268.639C49.1994 268.108 49.2361 267.567 49.3873 267.052C49.5385 266.537 49.8004 266.061 50.1549 265.658C50.5093 265.255 50.9476 264.934 51.4391 264.719C51.9305 264.503 52.4632 264.397 52.9998 264.409H157.88C159.049 264.448 160.168 264.895 161.041 265.674C161.914 266.452 162.487 267.512 162.66 268.669L171.76 342.769C171.839 343.303 171.8 343.848 171.646 344.365C171.492 344.882 171.226 345.359 170.868 345.762C170.509 346.166 170.067 346.485 169.571 346.699C169.076 346.913 168.539 347.015 168 346.999Z" fill="#263238"/>
<mask id="mask7_370_516" style="mask-type:luminance" maskUnits="userSpaceOnUse" x="49" y="264" width="123" height="83">
<path d="M168 346.999H63.1598C61.9905 346.96 60.8718 346.513 59.9984 345.735C59.125 344.956 58.5523 343.896 58.3797 342.739L49.2798 268.639C49.1994 268.108 49.2361 267.567 49.3873 267.052C49.5385 266.537 49.8004 266.061 50.1549 265.658C50.5093 265.255 50.9476 264.934 51.4391 264.719C51.9305 264.503 52.4632 264.397 52.9998 264.409H157.88C159.049 264.448 160.168 264.895 161.041 265.674C161.914 266.452 162.487 267.512 162.66 268.669L171.76 342.769C171.839 343.303 171.8 343.848 171.646 344.365C171.492 344.882 171.226 345.359 170.868 345.762C170.509 346.166 170.067 346.485 169.571 346.699C169.076 346.913 168.539 347.015 168 346.999Z" fill="white"/>
</mask>
<g mask="url(#mask7_370_516)">
<path opacity="0.1" d="M168 346.999H63.1598C61.9905 346.96 60.8718 346.513 59.9984 345.735C59.125 344.956 58.5523 343.896 58.3797 342.739L49.2798 268.639C49.1994 268.108 49.2361 267.567 49.3873 267.052C49.5385 266.537 49.8004 266.061 50.1549 265.658C50.5093 265.255 50.9476 264.934 51.4391 264.719C51.9305 264.503 52.4632 264.397 52.9998 264.409H157.88C159.049 264.448 160.168 264.895 161.041 265.674C161.914 266.452 162.487 267.512 162.66 268.669L171.76 342.769C171.839 343.303 171.8 343.848 171.646 344.365C171.492 344.882 171.226 345.359 170.868 345.762C170.509 346.166 170.067 346.485 169.571 346.699C169.076 346.913 168.539 347.015 168 346.999Z" fill="white"/>
</g>
<path d="M168 346.999H63.1598C61.9905 346.96 60.8718 346.513 59.9984 345.735C59.125 344.956 58.5523 343.896 58.3797 342.739L49.2798 268.639C49.1994 268.108 49.2361 267.567 49.3873 267.052C49.5385 266.537 49.8004 266.061 50.1549 265.658C50.5093 265.255 50.9476 264.934 51.4391 264.719C51.9305 264.503 52.4632 264.397 52.9998 264.409H157.88C159.049 264.448 160.168 264.895 161.041 265.674C161.914 266.452 162.487 267.512 162.66 268.669L171.76 342.769C171.839 343.303 171.8 343.848 171.646 344.365C171.492 344.882 171.226 345.359 170.868 345.762C170.509 346.166 170.067 346.485 169.571 346.699C169.076 346.913 168.539 347.015 168 346.999Z" stroke="#263238" stroke-linecap="round" stroke-linejoin="round"/>
<path d="M119.129 363.87L123.319 316.14C123.337 315.866 123.299 315.592 123.206 315.334C123.114 315.077 122.969 314.84 122.782 314.641C122.594 314.441 122.368 314.282 122.116 314.173C121.865 314.065 121.593 314.009 121.319 314.01H94.8894C94.3934 314.007 93.9141 314.189 93.5446 314.519C93.175 314.85 92.9415 315.307 92.8894 315.8L88.3294 367.8C88.3116 368.073 88.3502 368.347 88.4427 368.605C88.5352 368.863 88.6797 369.099 88.8672 369.299C89.0547 369.499 89.2813 369.658 89.5328 369.766C89.7843 369.875 90.0555 369.93 90.3294 369.93H142.769C143.3 369.93 143.809 369.719 144.184 369.344C144.559 368.969 144.769 368.46 144.769 367.93C144.769 367.399 144.559 366.891 144.184 366.516C143.809 366.14 143.3 365.93 142.769 365.93H121.079C120.816 365.923 120.556 365.865 120.315 365.758C120.075 365.65 119.857 365.497 119.676 365.305C119.495 365.114 119.353 364.888 119.259 364.642C119.166 364.396 119.121 364.133 119.129 363.87Z" fill="#263238" stroke="#263238" stroke-linecap="round" stroke-linejoin="round"/>
<path d="M144.73 368C144.73 367.469 144.519 366.961 144.144 366.586C143.769 366.211 143.26 366 142.73 366H121.08C120.805 366.001 120.533 365.945 120.281 365.835C120.029 365.726 119.801 365.566 119.614 365.365C119.426 365.165 119.282 364.927 119.19 364.668C119.098 364.409 119.061 364.134 119.08 363.86L123.27 316.13C123.356 315.845 123.378 315.545 123.333 315.251C123.288 314.956 123.179 314.676 123.012 314.43C122.845 314.183 122.625 313.977 122.369 313.827C122.113 313.676 121.826 313.584 121.529 313.558C121.233 313.533 120.935 313.573 120.656 313.677C120.377 313.781 120.125 313.946 119.918 314.16C119.711 314.374 119.555 314.631 119.46 314.913C119.365 315.195 119.334 315.494 119.37 315.79L114.81 367.79C114.792 368.059 114.829 368.329 114.919 368.584C115.008 368.838 115.148 369.072 115.33 369.271C115.513 369.47 115.733 369.63 115.979 369.741C116.225 369.853 116.49 369.914 116.76 369.92H142.76C143.272 369.913 143.761 369.709 144.127 369.352C144.494 368.995 144.71 368.511 144.73 368Z" fill="#075471" stroke="#263238" stroke-linecap="round" stroke-linejoin="round"/>
<path d="M24.5 369.93H399.5" stroke="#263238" stroke-linecap="round" stroke-linejoin="round"/>
<path d="M374.41 188.33H354.7C353.472 188.33 352.295 188.818 351.426 189.686C350.558 190.554 350.07 191.732 350.07 192.96V202.56C350.07 203.788 350.558 204.966 351.426 205.834C352.295 206.702 353.472 207.19 354.7 207.19H359.85L361.36 216.04L369.26 207.19H374.41C375.019 207.191 375.622 207.073 376.185 206.84C376.748 206.608 377.26 206.268 377.691 205.838C378.122 205.407 378.464 204.897 378.697 204.334C378.93 203.772 379.05 203.169 379.05 202.56V193C379.054 192.388 378.937 191.782 378.706 191.215C378.474 190.649 378.133 190.134 377.702 189.7C377.271 189.266 376.758 188.921 376.193 188.686C375.628 188.451 375.022 188.33 374.41 188.33Z" fill="white" stroke="#263238" stroke-linecap="round" stroke-linejoin="round"/>
<path d="M344.19 160H324.48C323.871 159.999 323.268 160.117 322.705 160.35C322.142 160.582 321.63 160.922 321.199 161.353C320.768 161.783 320.427 162.293 320.193 162.856C319.96 163.418 319.84 164.021 319.84 164.63V174.22C319.84 175.451 320.329 176.631 321.199 177.501C322.069 178.371 323.249 178.86 324.48 178.86H329.63L333.54 187.71L339.04 178.86H344.19C345.42 178.86 346.601 178.371 347.471 177.501C348.341 176.631 348.83 175.451 348.83 174.22V164.63C348.83 164.021 348.71 163.418 348.476 162.856C348.243 162.293 347.901 161.783 347.47 161.353C347.039 160.922 346.528 160.582 345.965 160.35C345.402 160.117 344.799 159.999 344.19 160Z" fill="white" stroke="#263238" stroke-linecap="round" stroke-linejoin="round"/>
<path d="M305.83 169.91H287.21C286.048 169.91 284.934 170.372 284.113 171.193C283.292 172.014 282.83 173.128 282.83 174.29V183.35C282.83 184.512 283.292 185.626 284.113 186.447C284.934 187.269 286.048 187.73 287.21 187.73H292.08L297.16 196.08L300.96 187.73H305.83C306.992 187.73 308.106 187.269 308.927 186.447C309.749 185.626 310.21 184.512 310.21 183.35V174.29C310.21 173.128 309.749 172.014 308.927 171.193C308.106 170.372 306.992 169.91 305.83 169.91Z" fill="white" stroke="#263238" stroke-linecap="round" stroke-linejoin="round"/>
<path d="M294 176.68V177.77C294 179.11 293.36 179.84 292 179.84H291.37V183H290.05V174.6H292C293.33 174.6 294 175.33 294 176.68ZM291.41 175.8V178.64H292C292.42 178.64 292.64 178.45 292.64 177.85V176.59C292.64 175.99 292.42 175.8 292 175.8H291.41Z" fill="#263238"/>
<path d="M296 183H294.68V174.6H296V178.2H297.5V174.6H298.84V183H297.5V179.4H296V183Z" fill="#263238"/>
<path d="M303.68 176.68V177.77C303.68 179.11 303.04 179.84 301.68 179.84H301.06V183H299.74V174.6H301.68C303 174.6 303.68 175.33 303.68 176.68ZM301.09 175.8V178.64H301.71C302.13 178.64 302.36 178.45 302.36 177.85V176.59C302.36 175.99 302.13 175.8 301.71 175.8H301.09Z" fill="#263238"/>
<path d="M331.51 170.68V171.8C331.51 173.14 330.84 173.91 329.51 173.91C328.18 173.91 327.51 173.14 327.51 171.8V167.43C327.51 166.09 328.18 165.32 329.51 165.32C330.84 165.32 331.51 166.09 331.51 167.43V168.25H330.26V167.35C330.26 166.75 330 166.52 329.58 166.52C329.16 166.52 328.9 166.75 328.9 167.35V171.88C328.9 172.48 329.16 172.7 329.58 172.7C330 172.7 330.26 172.48 330.26 171.88V170.68H331.51Z" fill="#263238"/>
<path d="M334.68 169.149H336.29V170.079H334.68V171.729H333.74V170.079H332.14V169.149H333.74V167.529H334.68V169.149Z" fill="#263238"/>
<path d="M339.43 169.149H341V170.079H339.39V171.729H338.46V170.079H336.85V169.149H338.46V167.529H339.39L339.43 169.149Z" fill="#263238"/>
<path d="M355.311 198.68V197.4L360.661 195.4V196.7L357.001 198L360.671 199.31V200.61L355.311 198.68Z" fill="#263238"/>
<path d="M365.92 192.301H367.47L363 203.781H361.44L365.92 192.301Z" fill="#263238"/>
<path d="M368.21 200.65V199.35L371.88 198.04L368.21 196.73V195.43L373.56 197.43V198.71L368.21 200.65Z" fill="#263238"/>
</svg>
