<svg width="20" height="20" viewBox="0 0 20 20" fill="none" xmlns="http://www.w3.org/2000/svg">
<path fill-rule="evenodd" clip-rule="evenodd" d="M14.6274 13.4216C14.8099 13.3303 15.0196 13.3092 15.2166 13.3622C15.4137 13.4151 15.5845 13.5386 15.6966 13.7091L15.7449 13.7941L17.4116 17.1275C17.471 17.2463 17.5012 17.3777 17.4996 17.5106C17.4979 17.6435 17.4645 17.7741 17.4021 17.8915C17.3397 18.0088 17.2502 18.1096 17.1409 18.1853C17.0316 18.261 16.9059 18.3094 16.7741 18.3266L16.6666 18.3333H3.33324C3.20029 18.3333 3.06927 18.3016 2.95111 18.2406C2.83295 18.1797 2.73107 18.0914 2.65399 17.9831C2.57692 17.8748 2.52687 17.7496 2.50804 17.618C2.48921 17.4864 2.50213 17.3522 2.54574 17.2266L2.5874 17.1266L4.25407 13.7933C4.34748 13.6002 4.51175 13.4506 4.7127 13.3755C4.91364 13.3005 5.13578 13.3058 5.33289 13.3904C5.53 13.475 5.6869 13.6324 5.77094 13.8297C5.85497 14.0271 5.85968 14.2492 5.78407 14.45L5.7449 14.5391L4.68157 16.6666H15.3182L14.2549 14.5391C14.1562 14.3415 14.14 14.1128 14.2099 13.9033C14.2797 13.6937 14.4299 13.5205 14.6274 13.4216ZM9.9999 1.66663C11.547 1.66663 13.0307 2.28121 14.1247 3.37517C15.2187 4.46913 15.8332 5.95286 15.8332 7.49996C15.8332 9.48496 14.7591 11.0975 13.6474 12.2416C13.0333 12.8653 12.3583 13.4259 11.6324 13.915L11.3216 14.12L11.0449 14.2941C11.0016 14.32 10.9599 14.3441 10.9207 14.3691L10.7066 14.4925C10.2666 14.7425 9.73323 14.7425 9.29323 14.4925L9.07907 14.3683L8.82073 14.2108C8.77305 14.1808 8.72555 14.1505 8.67823 14.12L8.3674 13.915C7.64152 13.4259 6.96648 12.8653 6.3524 12.2416C5.24074 11.0975 4.16657 9.48496 4.16657 7.49996C4.16657 5.95286 4.78115 4.46913 5.87511 3.37517C6.96907 2.28121 8.45281 1.66663 9.9999 1.66663ZM9.9999 3.33329C8.89483 3.33329 7.83502 3.77228 7.05362 4.55368C6.27222 5.33508 5.83324 6.39489 5.83324 7.49996C5.83324 8.86329 6.5749 10.0791 7.5474 11.08C8.132 11.6712 8.77849 12.1978 9.47573 12.6508L9.75907 12.8316C9.84657 12.8858 9.9274 12.9341 9.9999 12.9766L10.2416 12.8316L10.5241 12.6508C11.2213 12.1978 11.8678 11.6712 12.4524 11.08C13.4249 10.08 14.1666 8.86329 14.1666 7.49996C14.1666 6.39489 13.7276 5.33508 12.9462 4.55368C12.1648 3.77228 11.105 3.33329 9.9999 3.33329ZM9.9999 4.99996C10.6629 4.99996 11.2988 5.26335 11.7677 5.73219C12.2365 6.20103 12.4999 6.83692 12.4999 7.49996C12.4999 8.163 12.2365 8.79888 11.7677 9.26772C11.2988 9.73656 10.6629 9.99996 9.9999 9.99996C9.33686 9.99996 8.70097 9.73656 8.23213 9.26772C7.76329 8.79888 7.4999 8.163 7.4999 7.49996C7.4999 6.83692 7.76329 6.20103 8.23213 5.73219C8.70097 5.26335 9.33686 4.99996 9.9999 4.99996ZM9.9999 6.66662C9.77889 6.66662 9.56693 6.75442 9.41065 6.9107C9.25437 7.06698 9.16657 7.27894 9.16657 7.49996C9.16657 7.72097 9.25437 7.93293 9.41065 8.08921C9.56693 8.24549 9.77889 8.33329 9.9999 8.33329C10.2209 8.33329 10.4329 8.24549 10.5892 8.08921C10.7454 7.93293 10.8332 7.72097 10.8332 7.49996C10.8332 7.27894 10.7454 7.06698 10.5892 6.9107C10.4329 6.75442 10.2209 6.66662 9.9999 6.66662Z" fill="#22B4AB"/>
</svg>
