<svg width="90" height="90" viewBox="0 0 90 90" fill="none" xmlns="http://www.w3.org/2000/svg">
<path d="M60.4688 31.1934C60.4688 30.8205 60.3206 30.4628 60.0569 30.1991C59.7931 29.9353 59.4355 29.7872 59.0625 29.7872H57.2808C57.0679 29.1273 56.8017 28.4858 56.4848 27.8691L57.7462 26.6077C58.0099 26.3439 58.158 25.9863 58.158 25.6134C58.158 25.2406 58.0099 24.8829 57.7462 24.6192L54.1308 21.0037C53.8671 20.7401 53.5094 20.592 53.1366 20.592C52.7637 20.592 52.4061 20.7401 52.1423 21.0037L50.8809 22.2652C50.2641 21.9484 49.6227 21.6822 48.9628 21.4692V19.6875C48.9628 19.3145 48.8147 18.9569 48.5509 18.6931C48.2872 18.4294 47.9295 18.2812 47.5566 18.2812H42.4434C42.0705 18.2812 41.7128 18.4294 41.4491 18.6931C41.1853 18.9569 41.0372 19.3145 41.0372 19.6875V21.4692C40.3773 21.6821 39.7358 21.9483 39.1191 22.2652L37.8577 21.0037C37.5939 20.7401 37.2363 20.592 36.8634 20.592C36.4906 20.592 36.1329 20.7401 35.8692 21.0037L32.2538 24.6192C31.9901 24.8829 31.842 25.2406 31.842 25.6134C31.842 25.9863 31.9901 26.3439 32.2538 26.6077L33.5152 27.8691C33.1984 28.4859 32.9322 29.1273 32.7192 29.7872H30.9375C30.5645 29.7872 30.2069 29.9353 29.9431 30.1991C29.6794 30.4628 29.5312 30.8205 29.5312 31.1934V36.3066C29.5312 36.6795 29.6794 37.0372 29.9431 37.3009C30.2069 37.5647 30.5645 37.7128 30.9375 37.7128H32.7192C32.9321 38.3727 33.1983 39.0142 33.5152 39.6309L32.2538 40.8923C31.9901 41.1561 31.842 41.5137 31.842 41.8866C31.842 42.2594 31.9901 42.6171 32.2538 42.8808L35.8692 46.4962C36.1329 46.7599 36.4906 46.908 36.8634 46.908C37.2363 46.908 37.5939 46.7599 37.8577 46.4962L39.1191 45.2348C39.7359 45.5516 40.3773 45.8178 41.0372 46.0308V47.8125C41.0372 48.1855 41.1853 48.5431 41.4491 48.8069C41.7128 49.0706 42.0705 49.2188 42.4434 49.2188H47.5566C47.9295 49.2188 48.2872 49.0706 48.5509 48.8069C48.8147 48.5431 48.9628 48.1855 48.9628 47.8125V46.0308C49.6227 45.8179 50.2642 45.5517 50.8809 45.2348L52.1423 46.4962C52.4061 46.7599 52.7637 46.908 53.1366 46.908C53.5094 46.908 53.8671 46.7599 54.1308 46.4962L57.7462 42.8808C58.0099 42.6171 58.158 42.2594 58.158 41.8866C58.158 41.5137 58.0099 41.1561 57.7462 40.8923L56.4848 39.6309C56.8016 39.0141 57.0678 38.3727 57.2808 37.7128H59.0625C59.4355 37.7128 59.7931 37.5647 60.0569 37.3009C60.3206 37.0372 60.4688 36.6795 60.4688 36.3066V31.1934ZM57.6562 34.9003H57.1669C56.5947 34.9047 56.0388 35.0918 55.5804 35.4343C55.122 35.7768 54.7851 36.2569 54.6187 36.8044C54.4453 37.3494 54.2256 37.8787 53.962 38.3864C53.6913 38.8916 53.5893 39.4702 53.671 40.0375C53.7527 40.6048 54.0139 41.131 54.4162 41.5392L54.7636 41.8866L53.1366 43.5136L52.7892 43.1662C52.3813 42.7635 51.855 42.5021 51.2876 42.4203C50.7201 42.3386 50.1415 42.4408 49.6364 42.712C49.1286 42.9754 48.5994 43.1951 48.0544 43.3687C47.5069 43.5351 47.0268 43.872 46.6843 44.3304C46.3418 44.7888 46.1547 45.3447 46.1503 45.9169V46.4062H43.8497V45.9169C43.8453 45.3447 43.6582 44.7888 43.3157 44.3304C42.9732 43.872 42.4931 43.5351 41.9456 43.3687C41.4006 43.1953 40.8713 42.9756 40.3636 42.712C39.8584 42.4415 39.2798 42.3396 38.7126 42.4213C38.1453 42.5031 37.6191 42.7641 37.2108 43.1662L36.8634 43.5136L35.2364 41.8866L35.5838 41.5392C35.9863 41.1311 36.2476 40.6049 36.3293 40.0375C36.4111 39.4701 36.309 38.8915 36.038 38.3864C35.7746 37.8786 35.5549 37.3494 35.3812 36.8044C35.2149 36.2569 34.878 35.7768 34.4196 35.4343C33.9612 35.0918 33.4053 34.9047 32.8331 34.9003H32.3438V32.5997H32.8331C33.4053 32.5953 33.9612 32.4082 34.4196 32.0657C34.878 31.7232 35.2149 31.2431 35.3812 30.6956C35.5547 30.1506 35.7744 29.6213 36.038 29.1136C36.3088 28.6084 36.4107 28.0298 36.329 27.4625C36.2473 26.8952 35.9861 26.369 35.5838 25.9608L35.2364 25.6134L36.8634 23.9864L37.2108 24.3338C37.6187 24.7365 38.145 24.9979 38.7124 25.0797C39.2799 25.1614 39.8585 25.0592 40.3636 24.788C40.8714 24.5246 41.4006 24.3049 41.9456 24.1312C42.4931 23.9649 42.9732 23.628 43.3157 23.1696C43.6582 22.7112 43.8453 22.1553 43.8497 21.5831V21.0938H46.1503V21.5831C46.1547 22.1553 46.3418 22.7112 46.6843 23.1696C47.0268 23.628 47.5069 23.9649 48.0544 24.1312C48.5994 24.3047 49.1287 24.5244 49.6364 24.788C50.1416 25.0588 50.7202 25.1607 51.2875 25.079C51.8548 24.9973 52.381 24.7361 52.7892 24.3338L53.1366 23.9864L54.7636 25.6134L54.4162 25.9608C54.0137 26.3689 53.7524 26.8951 53.6707 27.4625C53.5889 28.0299 53.691 28.6085 53.962 29.1136C54.2254 29.6214 54.4451 30.1506 54.6187 30.6956C54.7851 31.2431 55.122 31.7232 55.5804 32.0657C56.0388 32.4082 56.5947 32.5953 57.1669 32.5997H57.6562V34.9003Z" fill="white"/>
<path d="M45 25.3125C43.3312 25.3125 41.6999 25.8074 40.3124 26.7345C38.9248 27.6616 37.8434 28.9794 37.2048 30.5211C36.5661 32.0629 36.3991 33.7594 36.7246 35.3961C37.0502 37.0328 37.8538 38.5362 39.0338 39.7162C40.2138 40.8962 41.7172 41.6998 43.3539 42.0254C44.9906 42.3509 46.6871 42.1838 48.2289 41.5452C49.7706 40.9066 51.0884 39.8252 52.0155 38.4376C52.9426 37.0501 53.4375 35.4188 53.4375 33.75C53.4349 31.513 52.5451 29.3684 50.9633 27.7867C49.3816 26.2049 47.237 25.3151 45 25.3125ZM45 39.375C43.8875 39.375 42.7999 39.0451 41.8749 38.427C40.9499 37.8089 40.2289 36.9304 39.8032 35.9026C39.3774 34.8748 39.266 33.7438 39.4831 32.6526C39.7001 31.5615 40.2359 30.5592 41.0225 29.7725C41.8092 28.9859 42.8115 28.4501 43.9026 28.2331C44.9938 28.016 46.1248 28.1274 47.1526 28.5532C48.1804 28.9789 49.0589 29.6999 49.677 30.6249C50.2951 31.5499 50.625 32.6375 50.625 33.75C50.6231 35.2413 50.0299 36.6709 48.9754 37.7254C47.9209 38.7799 46.4913 39.3731 45 39.375ZM4.21875 88.5938H85.7812C86.014 88.5937 86.243 88.536 86.4479 88.4256C86.6528 88.3153 86.8271 88.1558 86.9552 87.9615C87.0832 87.7672 87.1611 87.5442 87.1818 87.3124C87.2025 87.0806 87.1653 86.8473 87.0736 86.6334L78.6361 66.9459C78.5277 66.693 78.3474 66.4775 78.1177 66.326C77.888 66.1745 77.6189 66.0938 77.3438 66.0938H60.4687V68.9062H76.4156L83.648 85.7812H6.35203L13.583 68.9062H29.5312V66.0938H12.6562C12.3811 66.0938 12.112 66.1745 11.8823 66.326C11.6525 66.4775 11.4723 66.693 11.3639 66.9459L2.9264 86.6334C2.83472 86.8473 2.79754 87.0806 2.81821 87.3124C2.83888 87.5442 2.91675 87.7672 3.04483 87.9615C3.17291 88.1558 3.34721 88.3153 3.55209 88.4256C3.75698 88.536 3.98604 88.5937 4.21875 88.5938ZM40.7812 53.4375H43.5937V61.875H40.7812V53.4375Z" fill="white"/>
<path d="M40.7812 64.6875H43.5938V67.5H40.7812V64.6875ZM40.7812 70.3125H43.5938V77.3438H40.7812V70.3125ZM46.4062 53.4375H49.2188V63.2812H46.4062V53.4375ZM46.4062 66.0938H49.2188V77.3438H46.4062V66.0938ZM52.0312 56.25H54.8438V68.9062H52.0312V56.25ZM35.1562 71.7188H37.9688V74.5312H35.1562V71.7188ZM35.1562 54.8438H37.9688V68.9062H35.1562V54.8438ZM52.0312 71.7188H54.8438V74.5312H52.0312V71.7188ZM67.5 5.625C67.127 5.625 66.7694 5.77316 66.5056 6.03688C66.2419 6.3006 66.0938 6.65829 66.0938 7.03125V15.4688C66.0938 15.8417 66.2419 16.1994 66.5056 16.4631C66.7694 16.7268 67.127 16.875 67.5 16.875H71.7188V19.6875H68.9062C68.5333 19.6875 68.1756 19.8357 67.9119 20.0994C67.6482 20.3631 67.5 20.7208 67.5 21.0938V28.125C67.5 28.498 67.6482 28.8556 67.9119 29.1194C68.1756 29.3831 68.5333 29.5312 68.9062 29.5312H75.9375C76.3105 29.5312 76.6681 29.3831 76.9319 29.1194C77.1956 28.8556 77.3438 28.498 77.3438 28.125V25.3125H84.375C84.748 25.3125 85.1056 25.1643 85.3694 24.9006C85.6331 24.6369 85.7812 24.2792 85.7812 23.9062V12.6562C85.7812 12.2833 85.6331 11.9256 85.3694 11.6619C85.1056 11.3982 84.748 11.25 84.375 11.25H77.3438V7.03125C77.3438 6.65829 77.1956 6.3006 76.9319 6.03688C76.6681 5.77316 76.3105 5.625 75.9375 5.625H67.5ZM68.9062 14.0625V8.4375H74.5312V11.25H73.125C72.752 11.25 72.3944 11.3982 72.1306 11.6619C71.8669 11.9256 71.7188 12.2833 71.7188 12.6562V14.0625H68.9062ZM74.5312 26.7188H70.3125V22.5H71.7188V23.9062C71.7188 24.2792 71.8669 24.6369 72.1306 24.9006C72.3944 25.1643 72.752 25.3125 73.125 25.3125H74.5312V26.7188ZM82.9688 14.0625V22.5H74.5312V14.0625H82.9688ZM49.2188 12.6562C49.5917 12.6562 49.9494 12.5081 50.2131 12.2444C50.4768 11.9806 50.625 11.623 50.625 11.25V2.8125C50.625 2.43954 50.4768 2.08185 50.2131 1.81813C49.9494 1.55441 49.5917 1.40625 49.2188 1.40625H40.7812C40.4083 1.40625 40.0506 1.55441 39.7869 1.81813C39.5232 2.08185 39.375 2.43954 39.375 2.8125V11.25C39.375 11.623 39.5232 11.9806 39.7869 12.2444C40.0506 12.5081 40.4083 12.6562 40.7812 12.6562H49.2188ZM42.1875 4.21875H47.8125V9.84375H42.1875V4.21875ZM5.625 43.5938H14.0625C14.4355 43.5938 14.7931 43.4456 15.0569 43.1819C15.3206 42.9181 15.4688 42.5605 15.4688 42.1875V37.9688H22.5C22.873 37.9688 23.2306 37.8206 23.4944 37.5569C23.7581 37.2931 23.9062 36.9355 23.9062 36.5625V25.3125C23.9062 24.9395 23.7581 24.5819 23.4944 24.3181C23.2306 24.0544 22.873 23.9062 22.5 23.9062H11.25C10.877 23.9062 10.5194 24.0544 10.2556 24.3181C9.99191 24.5819 9.84375 24.9395 9.84375 25.3125V32.3438H5.625C5.25204 32.3438 4.89435 32.4919 4.63063 32.7556C4.36691 33.0194 4.21875 33.377 4.21875 33.75V42.1875C4.21875 42.5605 4.36691 42.9181 4.63063 43.1819C4.89435 43.4456 5.25204 43.5938 5.625 43.5938ZM12.6562 26.7188H21.0938V35.1562H12.6562V26.7188ZM7.03125 35.1562H9.84375V36.5625C9.84375 36.9355 9.99191 37.2931 10.2556 37.5569C10.5194 37.8206 10.877 37.9688 11.25 37.9688H12.6562V40.7812H7.03125V35.1562ZM14.0625 19.6875H21.0938C21.4667 19.6875 21.8244 19.5393 22.0881 19.2756C22.3518 19.0119 22.5 18.6542 22.5 18.2812V11.25C22.5 10.877 22.3518 10.5194 22.0881 10.2556C21.8244 9.99191 21.4667 9.84375 21.0938 9.84375H14.0625C13.6895 9.84375 13.3319 9.99191 13.0681 10.2556C12.8044 10.5194 12.6562 10.877 12.6562 11.25V18.2812C12.6562 18.6542 12.8044 19.0119 13.0681 19.2756C13.3319 19.5393 13.6895 19.6875 14.0625 19.6875ZM15.4688 12.6562H19.6875V16.875H15.4688V12.6562ZM66.0938 43.5938C65.7208 43.5938 65.3631 43.7419 65.0994 44.0056C64.8357 44.2694 64.6875 44.627 64.6875 45V50.625C64.6875 50.998 64.8357 51.3556 65.0994 51.6194C65.3631 51.8831 65.7208 52.0312 66.0938 52.0312H71.7188C72.0917 52.0312 72.4494 51.8831 72.7131 51.6194C72.9768 51.3556 73.125 50.998 73.125 50.625V45C73.125 44.627 72.9768 44.2694 72.7131 44.0056C72.4494 43.7419 72.0917 43.5938 71.7188 43.5938H66.0938ZM70.3125 49.2188H67.5V46.4062H70.3125V49.2188Z" fill="white"/>
<path d="M16.4433 73.125H26.7187V70.3125H15.4687C15.1823 70.3123 14.9026 70.3996 14.6672 70.5627C14.4317 70.7258 14.2516 70.9569 14.1511 71.2252L9.93234 82.4752C9.85256 82.688 9.82556 82.917 9.85364 83.1425C9.88172 83.368 9.96406 83.5834 10.0936 83.7702C10.2231 83.9569 10.396 84.1095 10.5974 84.2149C10.7988 84.3202 11.0227 84.3751 11.25 84.375H78.75C78.9773 84.3751 79.2012 84.3202 79.4026 84.2149C79.604 84.1095 79.7769 83.9569 79.9064 83.7702C80.0359 83.5834 80.1183 83.368 80.1463 83.1425C80.1744 82.917 80.1474 82.688 80.0676 82.4752L75.8489 71.2252C75.7484 70.9569 75.5683 70.7258 75.3328 70.5627C75.0974 70.3996 74.8177 70.3123 74.5312 70.3125H63.2812V73.125H73.5567L76.7208 81.5625H13.2792L16.4433 73.125Z" fill="white"/>
</svg>
