<svg width="50" height="50" viewBox="0 0 50 50" fill="none" xmlns="http://www.w3.org/2000/svg">
<path d="M10.7143 36.8156V37.4999C10.7148 38.1272 10.549 38.7433 10.2338 39.2856H49.2187C49.6494 39.2856 50 38.9351 50 38.5044V35.7142H11.4536C11.3031 36.1374 11.0489 36.5161 10.7143 36.8156ZM32.1429 36.6071H33.9286C34.1654 36.6071 34.3925 36.7011 34.5599 36.8686C34.7274 37.036 34.8214 37.2631 34.8214 37.4999C34.8214 37.7367 34.7274 37.9638 34.5599 38.1313C34.3925 38.2987 34.1654 38.3928 33.9286 38.3928H32.1429C31.9061 38.3928 31.679 38.2987 31.5115 38.1313C31.3441 37.9638 31.25 37.7367 31.25 37.4999C31.25 37.2631 31.3441 37.036 31.5115 36.8686C31.679 36.7011 31.9061 36.6071 32.1429 36.6071ZM21.4286 36.6071H28.5714C28.8082 36.6071 29.0353 36.7011 29.2028 36.8686C29.3702 37.036 29.4643 37.2631 29.4643 37.4999C29.4643 37.7367 29.3702 37.9638 29.2028 38.1313C29.0353 38.2987 28.8082 38.3928 28.5714 38.3928H21.4286C21.1918 38.3928 20.9647 38.2987 20.7972 38.1313C20.6298 37.9638 20.5357 37.7367 20.5357 37.4999C20.5357 37.2631 20.6298 37.036 20.7972 36.8686C20.9647 36.7011 21.1918 36.6071 21.4286 36.6071ZM16.0714 36.6071H17.8571C18.0939 36.6071 18.321 36.7011 18.4885 36.8686C18.6559 37.036 18.75 37.2631 18.75 37.4999C18.75 37.7367 18.6559 37.9638 18.4885 38.1313C18.321 38.2987 18.0939 38.3928 17.8571 38.3928H16.0714C15.8346 38.3928 15.6075 38.2987 15.4401 38.1313C15.2726 37.9638 15.1786 37.7367 15.1786 37.4999C15.1786 37.2631 15.2726 37.036 15.4401 36.8686C15.6075 36.7011 15.8346 36.6071 16.0714 36.6071ZM21.7292 41.0713L19.7814 46.4285H30.2186L28.2708 41.0713H21.7292ZM3.57143 36.8156C3.23682 36.5161 2.98265 36.1374 2.83214 35.7142H0V38.5044C0 38.9351 0.350558 39.2856 0.78125 39.2856H4.0519C3.73672 38.7433 3.57094 38.1272 3.57143 37.4999V36.8156ZM9.82143 27.6785H8.03571V32.1428H8.98326C9.14732 30.9371 9.67556 29.7804 10.5112 28.821C11.2181 28.0093 11.6074 26.9692 11.6071 25.8928C11.6071 24.6679 11.121 23.5254 10.2381 22.6757C9.35569 21.8266 8.19196 21.385 6.96652 21.4318C4.69966 21.5187 2.81975 23.3591 2.68661 25.6213C2.61562 26.826 3.01864 27.9812 3.82143 28.874C4.63237 29.7759 5.14487 30.9145 5.30402 32.1428H6.25V27.6785H4.46429C4.22749 27.6785 4.00038 27.5844 3.83294 27.417C3.6655 27.2495 3.57143 27.0224 3.57143 26.7856V25.8928C3.57143 25.656 3.6655 25.4289 3.83294 25.2614C4.00038 25.094 4.22749 24.9999 4.46429 24.9999C4.70109 24.9999 4.92819 25.094 5.09563 25.2614C5.26307 25.4289 5.35714 25.656 5.35714 25.8928H6.25C6.25 25.656 6.34407 25.4289 6.51151 25.2614C6.67896 25.094 6.90606 24.9999 7.14286 24.9999C7.37966 24.9999 7.60676 25.094 7.7742 25.2614C7.94165 25.4289 8.03571 25.656 8.03571 25.8928H8.92857C8.92857 25.656 9.02264 25.4289 9.19008 25.2614C9.35753 25.094 9.58463 24.9999 9.82143 24.9999C10.0582 24.9999 10.2853 25.094 10.4528 25.2614C10.6202 25.4289 10.7143 25.656 10.7143 25.8928V26.7856C10.7143 27.0224 10.6202 27.2495 10.4528 27.417C10.2853 27.5844 10.0582 27.6785 9.82143 27.6785ZM35.3056 48.2142H14.6944C13.624 48.2142 12.7301 48.9845 12.5382 49.9999H37.4618C37.2698 48.9845 36.376 48.2142 35.3056 48.2142ZM17.3323 17.5506L18.2452 15.741C18.3159 15.6009 18.4223 15.482 18.5536 15.3961C18.685 15.3102 18.8366 15.2605 18.9932 15.2519C19.1499 15.2432 19.3061 15.276 19.4461 15.3469C19.586 15.4179 19.7048 15.5244 19.7905 15.6558C19.8752 15.7871 19.9935 15.8934 20.1331 15.9635C20.2377 16.0166 20.3518 16.0484 20.4687 16.0572C20.5857 16.0659 20.7032 16.0514 20.8145 16.0145C20.926 15.9781 21.0292 15.9199 21.1181 15.8434C21.207 15.7668 21.2798 15.6733 21.3324 15.5684C21.554 15.1289 21.3769 14.5909 20.9374 14.3691C20.798 14.2984 20.6422 14.2664 20.4863 14.2764C20.3296 14.2856 20.1733 14.2533 20.0331 14.1829C19.8929 14.1125 19.7737 14.0064 19.6876 13.8752C19.6014 13.744 19.5514 13.5925 19.5424 13.4358C19.5335 13.2792 19.566 13.1229 19.6367 12.9828L20.5497 11.1734L14.1724 7.95605L10.955 14.3333L11.7522 14.7355L11.7523 14.7354C11.91 14.4208 12.1284 14.1405 12.3951 13.9109C12.6617 13.6813 12.9713 13.5069 13.3058 13.3977C13.6398 13.2867 13.9924 13.2431 14.3433 13.2694C14.6943 13.2956 15.0365 13.3912 15.3502 13.5506C16.6687 14.2158 17.2003 15.8298 16.5352 17.1485L17.3323 17.5506Z" fill="#075471"/>
<path d="M45.5991 21.7085C45.4818 21.7085 45.3657 21.6854 45.2574 21.6405C45.1491 21.5956 45.0506 21.5298 44.9677 21.4469L43.23 19.7092C43.1068 19.7634 42.9825 19.8152 42.8571 19.8644V22.3212C42.8571 22.558 42.7631 22.7851 42.5956 22.9526C42.4282 23.12 42.2011 23.2141 41.9643 23.2141H36.6071C36.3703 23.2141 36.1432 23.12 35.9758 22.9526C35.8084 22.7851 35.7143 22.558 35.7143 22.3212V19.8643C35.5889 19.8151 35.4646 19.7634 35.3414 19.7091L34.8214 20.2291V32.1426C34.8214 32.3794 34.7274 32.6065 34.5599 32.774C34.3925 32.9414 34.1654 33.0355 33.9286 33.0355H16.0714C15.8346 33.0355 15.6075 32.9414 15.4401 32.774C15.2726 32.6065 15.1786 32.3794 15.1786 32.1426V23.2141C15.1786 22.9773 15.2726 22.7502 15.4401 22.5827C15.6075 22.4153 15.8346 22.3212 16.0714 22.3212H17.8571C17.8571 20.8443 19.0588 19.6426 20.5357 19.6426C22.0126 19.6426 23.2143 20.8443 23.2143 22.3212H24.1071V20.2967C24.1071 20.1399 24.1484 19.9858 24.2268 19.8501C24.3053 19.7143 24.4181 19.6016 24.5539 19.5232C24.6897 19.4449 24.8438 19.4037 25.0006 19.4038C25.1574 19.4039 25.3114 19.4453 25.4471 19.5238C25.5824 19.6024 25.7363 19.6435 25.8929 19.6426C26.3852 19.6426 26.7857 19.2421 26.7857 18.7498C26.7857 18.2575 26.3852 17.8569 25.8929 17.8569C25.7333 17.8569 25.5834 17.8969 25.4471 17.9757C25.3114 18.0542 25.1574 18.0957 25.0006 18.0958C24.8437 18.0959 24.6897 18.0547 24.5538 17.9764C24.418 17.898 24.3052 17.7853 24.2268 17.6495C24.1484 17.5137 24.1071 17.3596 24.1071 17.2028V14.2855C24.1071 14.0487 24.2012 13.8216 24.3687 13.6542C24.5361 13.4867 24.7632 13.3926 25 13.3926H26.7857V8.0355C26.7857 7.7987 26.8798 7.5716 27.0472 7.40416C27.2147 7.23672 27.4418 7.14265 27.6786 7.14265H30.1355C30.1847 7.0173 30.2364 6.89298 30.2907 6.76977L28.8778 5.35693H0.78125C0.350558 5.35693 0 5.70749 0 6.13818V33.9284H2.83214C2.98215 33.5065 3.2352 33.1287 3.5683 32.8295C3.53717 31.7841 3.15893 30.8078 2.49342 30.0678C1.3692 28.8174 0.804687 27.2009 0.903906 25.5163C1.0904 22.3471 3.72344 19.7691 6.89799 19.6473C8.61674 19.581 10.241 20.2001 11.4762 21.3889C12.7122 22.5784 13.3929 24.1778 13.3929 25.8926C13.3931 27.4002 12.8478 28.8569 11.8577 29.9938C11.1481 30.8085 10.7464 31.8112 10.7171 32.8294C11.0503 33.1286 11.3035 33.5064 11.4535 33.9284H50V17.6776L46.2306 21.447C46.0631 21.6144 45.8359 21.7085 45.5991 21.7085ZM2.67857 6.24979H8.92857C9.16537 6.24979 9.39247 6.34386 9.55992 6.5113C9.72736 6.67875 9.82143 6.90585 9.82143 7.14265C9.82143 7.37945 9.72736 7.60655 9.55992 7.77399C9.39247 7.94144 9.16537 8.0355 8.92857 8.0355H2.67857C2.44177 8.0355 2.21467 7.94144 2.04723 7.77399C1.87978 7.60655 1.78571 7.37945 1.78571 7.14265C1.78571 6.90585 1.87978 6.67875 2.04723 6.5113C2.21467 6.34386 2.44177 6.24979 2.67857 6.24979ZM2.67857 9.82122H6.25C6.4868 9.82122 6.7139 9.91529 6.88135 10.0827C7.04879 10.2502 7.14286 10.4773 7.14286 10.7141C7.14286 10.9509 7.04879 11.178 6.88135 11.3454C6.7139 11.5129 6.4868 11.6069 6.25 11.6069H2.67857C2.44177 11.6069 2.21467 11.5129 2.04723 11.3454C1.87978 11.178 1.78571 10.9509 1.78571 10.7141C1.78571 10.4773 1.87978 10.2502 2.04723 10.0827C2.21467 9.91529 2.44177 9.82122 2.67857 9.82122ZM2.67857 13.3926H6.25C6.4868 13.3926 6.7139 13.4867 6.88135 13.6542C7.04879 13.8216 7.14286 14.0487 7.14286 14.2855C7.14286 14.5223 7.04879 14.7494 6.88135 14.9169C6.7139 15.0843 6.4868 15.1784 6.25 15.1784H2.67857C2.44177 15.1784 2.21467 15.0843 2.04723 14.9169C1.87978 14.7494 1.78571 14.5223 1.78571 14.2855C1.78571 14.0487 1.87978 13.8216 2.04723 13.6542C2.21467 13.4867 2.44177 13.3926 2.67857 13.3926ZM8.03571 18.7498H2.67857C2.44177 18.7498 2.21467 18.6557 2.04723 18.4883C1.87978 18.3208 1.78571 18.0937 1.78571 17.8569C1.78571 17.6201 1.87978 17.393 2.04723 17.2256C2.21467 17.0581 2.44177 16.9641 2.67857 16.9641H8.03571C8.27251 16.9641 8.49962 17.0581 8.66706 17.2256C8.8345 17.393 8.92857 17.6201 8.92857 17.8569C8.92857 18.0937 8.8345 18.3208 8.66706 18.4883C8.49962 18.6557 8.27251 18.7498 8.03571 18.7498ZM14.231 17.4854C14.2223 17.3288 14.255 17.1727 14.3257 17.0328C14.3965 16.8929 14.5028 16.774 14.634 16.6882C14.7651 16.6028 14.871 16.4839 14.9407 16.3439C15.0482 16.1308 15.0664 15.8887 14.9919 15.6624C14.9173 15.4361 14.7588 15.2521 14.5458 15.1447C14.4412 15.0915 14.3271 15.0596 14.2101 15.0509C14.0932 15.0421 13.9756 15.0566 13.8643 15.0935C13.7528 15.13 13.6496 15.1882 13.5607 15.2647C13.4718 15.3413 13.399 15.4347 13.3464 15.5396C13.2751 15.6789 13.2424 15.8347 13.2517 15.9909C13.2608 16.1474 13.2285 16.3037 13.158 16.4438C13.0875 16.5839 12.9813 16.703 12.8502 16.789C12.719 16.875 12.5675 16.925 12.4109 16.9338C12.2543 16.9426 12.0981 16.91 11.9581 16.8393L9.35335 15.5252C9.24866 15.4724 9.15541 15.3995 9.0789 15.3107C9.0024 15.2218 8.94415 15.1187 8.90747 15.0074C8.87079 14.896 8.85641 14.7785 8.86514 14.6616C8.87388 14.5447 8.90556 14.4306 8.95837 14.3259L12.9801 6.35437C13.0329 6.24968 13.1059 6.15643 13.1947 6.07992C13.2836 6.00342 13.3866 5.94516 13.498 5.90849C13.6094 5.87181 13.7269 5.85743 13.8438 5.86616C13.9607 5.8749 14.0748 5.90657 14.1795 5.95939L22.151 9.98104C22.2557 10.0339 22.3489 10.1068 22.4254 10.1956C22.502 10.2845 22.5602 10.3875 22.5969 10.4989C22.6336 10.6103 22.6479 10.7278 22.6392 10.8447C22.6305 10.9616 22.5988 11.0757 22.546 11.1804L21.7416 12.7746C23.0603 13.4401 23.5917 15.054 22.9266 16.3726C22.6042 17.0115 22.0526 17.4866 21.373 17.7104C21.0391 17.8213 20.6864 17.865 20.3355 17.8387C19.9846 17.8125 19.6424 17.7169 19.3287 17.5575L18.5243 19.1518C18.4715 19.2565 18.3986 19.3498 18.3097 19.4263C18.2209 19.5028 18.1178 19.5611 18.0064 19.5977C17.895 19.6344 17.7775 19.6488 17.6606 19.64C17.5436 19.6313 17.4296 19.5996 17.3249 19.5468L14.7201 18.2327C14.5801 18.1621 14.4613 18.0558 14.3754 17.9246C14.2895 17.7934 14.2398 17.6419 14.231 17.4854ZM47.3214 33.0355H37.5C37.2632 33.0355 37.0361 32.9414 36.8687 32.774C36.7012 32.6065 36.6071 32.3794 36.6071 32.1426C36.6071 31.9058 36.7012 31.6787 36.8687 31.5113C37.0361 31.3439 37.2632 31.2498 37.5 31.2498H47.3214C47.5582 31.2498 47.7853 31.3439 47.9528 31.5113C48.1202 31.6787 48.2143 31.9058 48.2143 32.1426C48.2143 32.3794 48.1202 32.6065 47.9528 32.774C47.7853 32.9414 47.5582 33.0355 47.3214 33.0355ZM47.3214 29.4641H37.5C37.2632 29.4641 37.0361 29.37 36.8687 29.2026C36.7012 29.0351 36.6071 28.808 36.6071 28.5712C36.6071 28.3344 36.7012 28.1073 36.8687 27.9399C37.0361 27.7724 37.2632 27.6784 37.5 27.6784H47.3214C47.5582 27.6784 47.7853 27.7724 47.9528 27.9399C48.1202 28.1073 48.2143 28.3344 48.2143 28.5712C48.2143 28.808 48.1202 29.0351 47.9528 29.2026C47.7853 29.37 47.5582 29.4641 47.3214 29.4641ZM48.2143 24.9998C48.2143 25.2366 48.1202 25.4637 47.9528 25.6311C47.7853 25.7986 47.5582 25.8926 47.3214 25.8926H37.5C37.2632 25.8926 37.0361 25.7986 36.8687 25.6311C36.7012 25.4637 36.6071 25.2366 36.6071 24.9998C36.6071 24.763 36.7012 24.5359 36.8687 24.3684C37.0361 24.201 37.2632 24.1069 37.5 24.1069H47.3214C47.5582 24.1069 47.7853 24.201 47.9528 24.3684C48.1202 24.5359 48.2143 24.763 48.2143 24.9998ZM8.92857 33.9284H5.35714C4.86484 33.9284 4.46429 34.3289 4.46429 34.8212C4.46429 35.3135 4.86484 35.7141 5.35714 35.7141H8.92857C9.42087 35.7141 9.82143 35.3135 9.82143 34.8212C9.82143 34.3289 9.42087 33.9284 8.92857 33.9284ZM7.14286 39.2855C8.12746 39.2855 8.92857 38.4844 8.92857 37.4998H5.35714C5.35714 38.4844 6.15826 39.2855 7.14286 39.2855Z" fill="#075471"/>
<path d="M39.2856 15.1786C41.7511 15.1786 43.7499 13.1798 43.7499 10.7143C43.7499 8.24873 41.7511 6.25 39.2856 6.25C36.82 6.25 34.8213 8.24873 34.8213 10.7143C34.8213 13.1798 36.82 15.1786 39.2856 15.1786Z" fill="#075471"/>
<path d="M46.9529 8.30313C46.8109 7.85343 46.6294 7.41717 46.4106 6.99944C46.3225 6.83094 46.2905 6.63871 46.3193 6.45077C46.3481 6.26283 46.4361 6.08899 46.5706 5.95458L48.1245 4.40078L45.5991 1.87533L44.0453 3.42924C43.9108 3.56366 43.737 3.65166 43.5491 3.68045C43.3611 3.70923 43.1689 3.6773 43.0004 3.58929C42.5827 3.37045 42.1464 3.18898 41.6967 3.04699C41.5154 2.99004 41.3569 2.87672 41.2445 2.7235C41.132 2.57028 41.0713 2.38517 41.0713 2.19509V0H37.4999V2.19509C37.4998 2.38517 37.4392 2.57028 37.3267 2.7235C37.2142 2.87672 37.0558 2.99004 36.8744 3.04699C36.4247 3.18898 35.9885 3.37045 35.5707 3.58929C35.4022 3.67737 35.21 3.70934 35.0221 3.68056C34.8341 3.65177 34.6603 3.56372 34.5259 3.42924L32.9721 1.87533L30.4466 4.40078L32.0005 5.95458C32.135 6.08899 32.2231 6.26283 32.2518 6.45077C32.2806 6.63871 32.2487 6.83094 32.1606 6.99944C31.9417 7.41717 31.7603 7.85343 31.6183 8.30313C31.5613 8.48447 31.448 8.64292 31.2948 8.75541C31.1416 8.8679 30.9565 8.92856 30.7664 8.92857H28.5713V12.5H30.7664C30.9565 12.5 31.1416 12.5607 31.2948 12.6732C31.448 12.7857 31.5613 12.9441 31.6183 13.1254C31.7603 13.5751 31.9417 14.0114 32.1606 14.4291C32.2487 14.5976 32.2806 14.7899 32.2518 14.9778C32.2231 15.1657 32.135 15.3396 32.0005 15.474L30.4466 17.0278L32.9721 19.5532L33.2962 19.2291L33.298 19.2273L34.5259 17.9994C34.6603 17.8649 34.8341 17.7769 35.0221 17.7481C35.21 17.7193 35.4022 17.7513 35.5707 17.8394C35.9885 18.0582 36.4247 18.2397 36.8744 18.3817C37.0558 18.4386 37.2142 18.552 37.3267 18.7052C37.4392 18.8584 37.4998 19.0435 37.4999 19.2336V21.4286H41.0713V19.2335C41.0713 19.0434 41.132 18.8583 41.2445 18.7051C41.3569 18.5519 41.5154 18.4385 41.6967 18.3816C42.1464 18.2396 42.5827 18.0581 43.0004 17.8393C43.1689 17.7512 43.3611 17.7192 43.5491 17.748C43.737 17.7768 43.9109 17.8649 44.0453 17.9993L45.5991 19.5532L48.1245 17.0278L46.5706 15.474C46.4361 15.3396 46.3481 15.1657 46.3193 14.9778C46.2905 14.7899 46.3225 14.5976 46.4106 14.4291C46.6294 14.0114 46.8109 13.5751 46.9529 13.1254C47.0098 12.9441 47.1231 12.7857 47.2764 12.6732C47.4296 12.5607 47.6147 12.5 47.8048 12.5H49.9999V8.92857H47.8048C47.6147 8.92856 47.4296 8.8679 47.2764 8.75541C47.1231 8.64292 47.0098 8.48447 46.9529 8.30313ZM39.2856 16.9643C35.8393 16.9643 33.0356 14.1606 33.0356 10.7143C33.0356 7.26797 35.8393 4.46429 39.2856 4.46429C42.7319 4.46429 45.5356 7.26797 45.5356 10.7143C45.5356 14.1606 42.7319 16.9643 39.2856 16.9643Z" fill="#075471"/>
<path d="M49.5958 5.45508L48.2808 6.77014C48.335 6.89339 48.3868 7.01771 48.436 7.14302H50.0001V6.13856C49.9999 5.99891 49.9623 5.86186 49.8912 5.74166C49.8201 5.62146 49.7181 5.5225 49.5958 5.45508ZM48.2809 14.6588L50.0001 16.378V14.2859H48.436C48.3868 14.4112 48.3351 14.5355 48.2809 14.6588ZM33.0358 31.2502V24.1073H32.1429C32.1429 25.5842 30.9413 26.7859 29.4644 26.7859C27.9875 26.7859 26.7858 25.5842 26.7858 24.1073H25.8929V26.132C25.8929 26.2888 25.8516 26.4428 25.7731 26.5785C25.6947 26.7143 25.5819 26.827 25.446 26.9053C25.3102 26.9837 25.1562 27.0248 24.9994 27.0247C24.8426 27.0246 24.6886 26.9832 24.5529 26.9047C24.4176 26.8261 24.2637 26.7851 24.1072 26.7859C23.6149 26.7859 23.2144 27.1864 23.2144 27.6787C23.2144 28.171 23.6149 28.5716 24.1072 28.5716C24.2638 28.5724 24.4177 28.5314 24.5531 28.4527C24.6888 28.3742 24.8428 28.3329 24.9996 28.3328C25.1564 28.3327 25.3104 28.3739 25.4463 28.4523C25.5821 28.5306 25.6948 28.6434 25.7733 28.7791C25.8517 28.9149 25.8929 29.0689 25.8929 29.2257V31.2502H33.0358Z" fill="#075471"/>
<path d="M29.7707 15.1787H25.8929V16.0716C27.3698 16.0716 28.5715 17.2732 28.5715 18.7501C28.5715 20.227 27.3698 21.4287 25.8929 21.4287V22.3216H27.9197C28.0766 22.3216 28.2308 22.3629 28.3666 22.4414C28.5025 22.52 28.6153 22.6329 28.6936 22.7689C28.7719 22.9049 28.8129 23.0591 28.8126 23.2161C28.8124 23.373 28.7707 23.527 28.6919 23.6628C28.6128 23.7975 28.5712 23.951 28.5715 24.1073C28.5715 24.5996 28.9721 25.0001 29.4644 25.0001C29.9567 25.0001 30.3572 24.5996 30.3572 24.1073C30.3572 23.9499 30.3167 23.8004 30.2368 23.6628C30.1581 23.527 30.1166 23.373 30.1163 23.2161C30.1161 23.0592 30.1572 22.905 30.2355 22.7691C30.3137 22.6331 30.4264 22.5202 30.5622 22.4416C30.698 22.3631 30.8521 22.3217 31.009 22.3216H33.0358V21.7057C33.0147 21.7072 32.9936 21.7088 32.9724 21.7088C32.7356 21.7088 32.5085 21.6148 32.341 21.4474L28.553 17.6593C28.3856 17.4918 28.2916 17.2647 28.2916 17.0279C28.2916 16.7911 28.3857 16.564 28.5531 16.3966L29.7707 15.1787ZM18.9911 24.1073H16.9644V31.2501H24.1072V30.3573C22.6303 30.3573 21.4286 29.1556 21.4286 27.6787C21.4286 26.2018 22.6303 25.0001 24.1072 25.0001V24.1073H22.0804C21.9235 24.1073 21.7694 24.0659 21.6335 23.9874C21.4976 23.9089 21.3849 23.7959 21.3066 23.6599C21.2283 23.5239 21.1872 23.3697 21.1875 23.2128C21.1878 23.0559 21.2294 22.9018 21.3082 22.7661C21.3874 22.6313 21.4289 22.4778 21.4286 22.3216C21.4286 21.8293 21.0281 21.4287 20.5358 21.4287C20.0435 21.4287 19.6429 21.8293 19.6429 22.3216C19.6429 22.4789 19.6834 22.6285 19.7634 22.7661C19.842 22.9018 19.8836 23.0559 19.8838 23.2128C19.8841 23.3696 19.843 23.5238 19.7647 23.6598C19.6864 23.7957 19.5737 23.9087 19.4379 23.9872C19.3021 24.0658 19.148 24.1072 18.9911 24.1073Z" fill="#075471"/>
</svg>
