<svg width="646" height="557" viewBox="0 0 646 557" fill="none" xmlns="http://www.w3.org/2000/svg">
<path d="M626.115 501.515H598.461V501.888H626.115V501.515Z" fill="#E6E6E6"/>
<path d="M588.655 501.515H549.614V501.888H588.655V501.515Z" fill="#E6E6E6"/>
<path d="M482.159 501.887H453.267V502.261H482.159V501.887Z" fill="#E6E6E6"/>
<path d="M87.2468 498.497H22.791V498.87H87.2468V498.497Z" fill="#E6E6E6"/>
<path d="M9.49362 498.497H0.046875V498.87H9.49362V498.497Z" fill="#E6E6E6"/>
<path d="M206.906 509.738H112.916V510.111H206.906V509.738Z" fill="#E6E6E6"/>
<path d="M314.433 422.044H26.2702C24.0128 422.04 21.8491 421.141 20.2543 419.543C18.6594 417.945 17.7637 415.78 17.7637 413.523V8.44686C17.7833 6.20236 18.6877 4.05625 20.2805 2.47469C21.8732 0.893125 24.0256 0.00384494 26.2702 0H314.433C316.693 0 318.861 0.897796 320.459 2.49588C322.057 4.09397 322.955 6.26144 322.955 8.52147V413.523C322.955 415.783 322.057 417.95 320.459 419.548C318.861 421.147 316.693 422.044 314.433 422.044ZM26.2702 0.298477C24.1117 0.30243 22.043 1.16266 20.5181 2.69035C18.9932 4.21804 18.1368 6.28835 18.1368 8.44686V413.523C18.1368 415.681 18.9932 417.752 20.5181 419.279C22.043 420.807 24.1117 421.667 26.2702 421.671H314.433C316.593 421.667 318.664 420.807 320.191 419.28C321.718 417.753 322.578 415.683 322.582 413.523V8.44686C322.578 6.28698 321.718 4.2167 320.191 2.68944C318.664 1.16217 316.593 0.302422 314.433 0.298477H26.2702Z" fill="#E6E6E6"/>
<path d="M637.248 422.044H349.07C346.811 422.04 344.646 421.141 343.049 419.544C341.452 417.947 340.553 415.782 340.549 413.523V8.44686C340.572 6.201 341.48 4.0549 343.075 2.47375C344.67 0.892604 346.824 0.00380301 349.07 0H637.248C639.49 0.00776707 641.639 0.898783 643.228 2.47992C644.818 4.06107 645.72 6.20494 645.74 8.44686V413.523C645.74 415.778 644.846 417.941 643.255 419.538C641.663 421.135 639.503 422.036 637.248 422.044ZM349.07 0.298477C346.91 0.302422 344.84 1.16217 343.313 2.68944C341.786 4.2167 340.926 6.28698 340.922 8.44686V413.523C340.926 415.683 341.786 417.753 343.313 419.28C344.84 420.807 346.91 421.667 349.07 421.671H637.248C639.408 421.667 641.479 420.807 643.006 419.28C644.533 417.753 645.393 415.683 645.397 413.523V8.44686C645.393 6.28698 644.533 4.2167 643.006 2.68944C641.479 1.16217 639.408 0.302422 637.248 0.298477H349.07Z" fill="#E6E6E6"/>
<path d="M589.059 45.6073H386.543V238.96H589.059V45.6073Z" fill="#E0E0E0"/>
<path d="M593.552 45.6073H391.036V238.96H593.552V45.6073Z" fill="#F5F5F5"/>
<path d="M585.475 229.887V54.6824L399.121 54.6824V229.887H585.475Z" fill="white"/>
<path d="M585.475 229.887V54.6824H582.072V229.887H585.475Z" fill="#E0E0E0"/>
<path d="M590.209 175.431H394.379V187.608H590.209V175.431Z" fill="#F5F5F5"/>
<path d="M338.683 394.361H298.717V482.993H338.683V394.361Z" fill="#E6E6E6"/>
<path d="M482.383 482.993H306.401V488.605H482.383V482.993Z" fill="#E6E6E6"/>
<path d="M338.682 482.993H490.039V394.361H338.682V482.993Z" fill="#FAFAFA"/>
<path d="M354.399 434.34H474.326V405.268H354.399V434.34Z" fill="#E6E6E6"/>
<path d="M354.399 472.07H474.326V442.998H354.399V472.07Z" fill="#E6E6E6"/>
<path d="M432.344 417.808H396.393C395.42 417.808 394.632 418.597 394.632 419.569V420.032C394.632 421.004 395.42 421.793 396.393 421.793H432.344C433.317 421.793 434.105 421.004 434.105 420.032V419.569C434.105 418.597 433.317 417.808 432.344 417.808Z" fill="#FAFAFA"/>
<path d="M432.344 455.549H396.393C395.42 455.549 394.632 456.337 394.632 457.31V457.772C394.632 458.745 395.42 459.533 396.393 459.533H432.344C433.317 459.533 434.105 458.745 434.105 457.772V457.31C434.105 456.337 433.317 455.549 432.344 455.549Z" fill="#FAFAFA"/>
<path d="M94.5872 300.595H53.8154V477.397H94.5872V300.595Z" fill="#E6E6E6"/>
<path d="M262.704 477.398H61.6514V488.606H262.704V477.398Z" fill="#E6E6E6"/>
<path d="M94.59 477.398H270.526V300.596H94.59L94.59 477.398Z" fill="#FAFAFA"/>
<path d="M110.618 380.331H254.498V322.337H110.618V380.331Z" fill="#E6E6E6"/>
<path d="M110.618 455.638H254.498V397.644H110.618V455.638Z" fill="#E6E6E6"/>
<path d="M198.713 355.32H166.403C165.352 355.316 164.344 354.896 163.601 354.153C162.857 353.409 162.438 352.401 162.434 351.35C162.434 350.296 162.851 349.284 163.595 348.538C164.339 347.791 165.349 347.369 166.403 347.365H198.713C199.768 347.369 200.777 347.791 201.521 348.538C202.265 349.284 202.683 350.296 202.683 351.35C202.679 352.401 202.26 353.409 201.516 354.153C200.772 354.896 199.765 355.316 198.713 355.32Z" fill="#FAFAFA"/>
<path d="M198.713 430.612H166.403C165.352 430.608 164.344 430.188 163.601 429.445C162.857 428.701 162.438 427.693 162.434 426.642C162.438 425.59 162.857 424.583 163.601 423.839C164.344 423.096 165.352 422.676 166.403 422.672H198.713C199.765 422.676 200.772 423.096 201.516 423.839C202.26 424.583 202.679 425.59 202.683 426.642C202.683 427.695 202.265 428.704 201.52 429.449C200.776 430.193 199.766 430.612 198.713 430.612Z" fill="#FAFAFA"/>
<path d="M430.836 380.301C430.836 380.301 400.809 328.53 442.461 287.326C442.461 287.326 453.341 294.4 453.177 303.936C453.013 313.472 441.536 315.875 443.999 323.829C446.461 331.784 457.296 339.574 450.192 346.215C443.088 352.856 451.326 358.632 450.849 366.69C450.371 374.749 430.836 380.301 430.836 380.301Z" fill="#FAFAFA"/>
<path d="M386.931 365.513C386.931 365.513 387.96 394.361 427.329 394.361C466.698 394.361 467.713 365.513 467.713 365.513H386.931Z" fill="#E6E6E6"/>
<path d="M433.106 385.034C433.106 385.034 445.269 326.428 392.812 300.461C392.812 300.461 384.738 310.624 387.902 319.608C391.066 328.592 402.706 327.264 402.826 335.591C402.945 343.919 395.155 354.738 403.99 358.723C412.825 362.708 406.81 370.886 409.81 378.378C412.81 385.869 433.106 385.034 433.106 385.034Z" fill="#E6E6E6"/>
<path d="M193.626 135.568C193.626 135.568 194.656 152.91 234.01 152.91C273.364 152.91 274.408 135.568 274.408 135.568H193.626Z" fill="#F0F0F0"/>
<path d="M86.8868 165.535L80.4248 208.65H86.8868L126.524 165.535H86.8868Z" fill="#F5F5F5"/>
<path d="M80.4248 165.535V208.65L120.062 165.535H80.4248Z" fill="#E0E0E0"/>
<path d="M242.348 165.535L235.871 208.65H242.348L281.986 165.535H242.348Z" fill="#F5F5F5"/>
<path d="M235.871 165.535V208.65L275.524 165.535H235.871Z" fill="#E0E0E0"/>
<path d="M51.311 166.356H94.4258V152.909H51.311V166.356Z" fill="#E0E0E0"/>
<path d="M308.791 152.91H94.4404V166.356H308.791V152.91Z" fill="#F5F5F5"/>
<path d="M138.479 97.66C149.627 99.1523 156.522 74.9907 131.913 54.4855C133.241 78.2143 119.064 94.9886 138.479 97.66Z" fill="#E0E0E0"/>
<path d="M146.674 129.388C162.822 118.061 151.763 78.4979 101.769 81.3633C123.408 110.435 118.498 149.117 146.674 129.388Z" fill="#E0E0E0"/>
<path d="M140.969 129.12C130.224 117.554 145.447 88.4527 184.144 99.0784C162.325 118.241 159.684 149.237 140.969 129.12Z" fill="#E0E0E0"/>
<path d="M154.748 112.258C158.464 107.781 162.852 102.647 161.792 97.3346C160.733 92.0217 158.061 87.9475 160.181 82.2168C162.718 75.3519 162.225 67.1587 157.942 67.8452C153.659 68.5317 148.853 73.561 148.988 80.2021C149.122 86.8432 144.854 88.7087 140.899 92.1411C136.944 95.5736 135.407 100.558 134.691 105.573C133.452 113.363 123.349 111.885 120.662 118.661C117.902 125.197 123.423 133.913 132.258 135.913C141.093 137.912 147.391 139.166 153.42 132.271C159.539 124.824 149.241 118.735 154.748 112.258Z" fill="#F5F5F5"/>
<path d="M124.332 152.909H157.538L160.045 130.837H121.825L124.332 152.909Z" fill="#E6E6E6"/>
<path d="M119.364 134.776H162.523V129.911H119.364V134.776Z" fill="#E6E6E6"/>
<path d="M232.142 276.806H196.086V300.58H232.142V276.806Z" fill="#F5F5F5"/>
<path d="M169.014 300.595H196.086V276.822H169.014V300.595Z" fill="#E0E0E0"/>
<path d="M158.447 264.15H142.986V300.594H158.447V264.15Z" fill="#F5F5F5"/>
<path d="M131.376 300.595H142.986V264.151H131.376V300.595Z" fill="#E0E0E0"/>
<path d="M333.833 556.002C493.64 556.002 623.19 548.438 623.19 539.108C623.19 529.778 493.64 522.214 333.833 522.214C174.025 522.214 44.4756 529.778 44.4756 539.108C44.4756 548.438 174.025 556.002 333.833 556.002Z" fill="#F5F5F5"/>
<path d="M195.307 263.881C197.026 264.637 198.846 265.14 200.71 265.373C204.541 265.84 208.414 264.942 211.649 262.836C216.768 259.523 219.872 253.718 219.379 248.375C219.353 248.114 219.23 247.872 219.033 247.698C218.837 247.524 218.582 247.43 218.32 247.435C213.687 247.402 209.105 248.4 204.905 250.356C200.705 252.313 196.994 255.179 194.039 258.747C192.636 252.778 191.397 246.465 190.502 239.958C192.985 241.86 195.904 243.111 198.993 243.6C200.272 243.755 201.568 243.699 202.829 243.435C209.5 242.062 214.768 234.914 219.573 227.377C219.662 227.242 219.721 227.09 219.747 226.931C219.772 226.771 219.764 226.608 219.723 226.452C219.682 226.301 219.607 226.162 219.504 226.046C219.4 225.929 219.271 225.838 219.126 225.781C206.963 220.706 194.069 231.675 189.95 235.63C189.323 230.15 188.99 224.64 188.95 219.125C191.552 219.953 194.225 220.542 196.934 220.886C203.485 221.647 208.992 220.512 212.932 217.468C217.603 213.886 219.767 207.932 219.185 200.276C219.173 200.129 219.13 199.987 219.06 199.858C218.99 199.728 218.893 199.615 218.776 199.525C218.66 199.435 218.526 199.371 218.383 199.336C218.24 199.3 218.092 199.295 217.947 199.321C204.097 201.335 193.457 210.2 189.024 214.468C189.024 213.483 189.024 212.498 189.129 211.484C189.145 211.239 189.077 210.997 188.935 210.797C188.813 208.924 188.276 207.102 187.362 205.463C186.448 203.824 185.181 202.409 183.652 201.32C180.175 199.067 175.309 198.769 169.176 200.41C168.995 200.462 168.827 200.551 168.683 200.672C168.539 200.793 168.422 200.943 168.34 201.112C168.259 201.271 168.216 201.447 168.216 201.626C168.216 201.805 168.259 201.982 168.34 202.141C168.594 202.574 173.951 211.618 183.398 212.737C184.421 212.827 185.45 212.827 186.472 212.737C186.353 215.453 186.308 218.184 186.353 220.915C183.064 218.096 179.2 216.029 175.029 214.858C170.858 213.688 166.482 213.443 162.206 214.14C161.868 214.195 161.564 214.376 161.356 214.647C161.257 214.778 161.187 214.928 161.151 215.087C161.115 215.247 161.114 215.412 161.147 215.573C163.027 224.811 167.579 231.034 173.325 232.198C173.578 232.198 173.847 232.287 174.13 232.332C177.115 232.675 181.383 231.795 186.577 226.855C186.943 233.167 187.655 239.455 188.711 245.689C183.697 242.45 172.19 236.526 161.953 242.286C161.693 242.424 161.494 242.652 161.392 242.927C161.29 243.202 161.293 243.505 161.4 243.779C165.564 252.196 170.101 256.583 175.294 257.21H175.429C179.757 257.673 184.383 255.524 189.621 250.703C190.8 256.792 192.203 262.642 193.695 268.075C188.86 264.03 182.682 263.851 174.608 267.478C174.431 267.559 174.275 267.679 174.151 267.829C174.027 267.979 173.939 268.154 173.892 268.343C173.845 268.522 173.846 268.711 173.896 268.889C173.946 269.067 174.042 269.229 174.175 269.358C174.518 269.701 180.383 275.327 187.607 276.148C190.366 276.495 193.167 276.012 195.65 274.76C198.611 284.697 202.22 294.428 206.455 303.892C206.54 304.07 206.67 304.223 206.833 304.335C206.995 304.448 207.184 304.516 207.381 304.533C207.647 304.559 207.915 304.512 208.157 304.399C208.464 304.25 208.702 303.99 208.824 303.671C208.946 303.352 208.942 302.999 208.813 302.683C203.238 290.148 198.72 277.169 195.307 263.881Z" fill="#075471"/>
<g opacity="0.6">
<path d="M195.306 263.881C197.025 264.637 198.845 265.14 200.709 265.373C204.54 265.84 208.413 264.942 211.648 262.836C216.767 259.523 219.871 253.718 219.378 248.375C219.352 248.114 219.229 247.872 219.032 247.698C218.836 247.524 218.581 247.43 218.319 247.435C213.686 247.402 209.104 248.4 204.904 250.356C200.704 252.313 196.993 255.179 194.038 258.747C192.635 252.778 191.396 246.465 190.501 239.958C192.984 241.86 195.903 243.111 198.992 243.6C200.271 243.755 201.567 243.699 202.828 243.435C209.499 242.062 214.767 234.914 219.572 227.377C219.661 227.242 219.72 227.09 219.746 226.931C219.771 226.771 219.763 226.608 219.722 226.452C219.681 226.301 219.606 226.162 219.503 226.046C219.399 225.929 219.27 225.838 219.125 225.781C206.962 220.706 194.068 231.675 189.949 235.63C189.322 230.15 188.989 224.64 188.949 219.125C191.551 219.953 194.224 220.542 196.933 220.886C203.485 221.647 208.991 220.512 212.931 217.468C217.602 213.886 219.766 207.932 219.184 200.276C219.172 200.129 219.129 199.987 219.059 199.858C218.989 199.728 218.892 199.615 218.775 199.525C218.659 199.435 218.525 199.371 218.382 199.336C218.239 199.3 218.091 199.295 217.946 199.321C204.096 201.335 193.456 210.2 189.023 214.468C189.023 213.483 189.023 212.498 189.128 211.484C189.144 211.239 189.076 210.997 188.934 210.797C188.812 208.924 188.275 207.102 187.361 205.463C186.447 203.824 185.18 202.409 183.651 201.32C180.174 199.067 175.308 198.769 169.175 200.41C168.994 200.462 168.826 200.551 168.682 200.672C168.539 200.793 168.421 200.943 168.339 201.112C168.258 201.271 168.215 201.447 168.215 201.626C168.215 201.805 168.258 201.982 168.339 202.141C168.593 202.574 173.95 211.618 183.397 212.737C184.42 212.827 185.449 212.827 186.471 212.737C186.352 215.453 186.307 218.184 186.352 220.915C183.063 218.096 179.199 216.029 175.028 214.858C170.857 213.688 166.481 213.443 162.205 214.14C161.868 214.195 161.563 214.376 161.355 214.647C161.256 214.778 161.186 214.928 161.15 215.087C161.114 215.247 161.113 215.412 161.146 215.573C163.026 224.811 167.578 231.034 173.324 232.198C173.577 232.198 173.846 232.287 174.129 232.332C177.114 232.675 181.382 231.795 186.576 226.855C186.942 233.167 187.654 239.455 188.71 245.689C183.696 242.45 172.189 236.526 161.952 242.286C161.692 242.424 161.493 242.652 161.391 242.927C161.289 243.202 161.292 243.505 161.399 243.779C165.563 252.196 170.1 256.583 175.293 257.21H175.428C179.756 257.673 184.382 255.524 189.62 250.703C190.799 256.792 192.202 262.642 193.695 268.075C188.859 264.03 182.681 263.851 174.607 267.478C174.43 267.559 174.274 267.679 174.15 267.829C174.026 267.979 173.938 268.154 173.891 268.343C173.844 268.522 173.845 268.711 173.895 268.889C173.945 269.067 174.041 269.229 174.174 269.358C174.517 269.701 180.383 275.327 187.606 276.148C190.365 276.495 193.166 276.012 195.65 274.76C198.61 284.697 202.219 294.428 206.454 303.892C206.539 304.07 206.669 304.223 206.832 304.335C206.994 304.448 207.183 304.516 207.38 304.533C207.646 304.559 207.914 304.512 208.156 304.399C208.463 304.25 208.701 303.99 208.823 303.671C208.945 303.352 208.941 302.999 208.812 302.683C203.237 290.148 198.72 277.169 195.306 263.881Z" fill="black"/>
</g>
<path d="M584.328 228.826H223.471C217.545 228.826 212.741 233.63 212.741 239.556V461.801C212.741 467.727 217.545 472.531 223.471 472.531H584.328C590.254 472.531 595.058 467.727 595.058 461.801V239.556C595.058 233.63 590.254 228.826 584.328 228.826Z" fill="#075471"/>
<path opacity="0.6" d="M584.328 228.826H223.471C217.545 228.826 212.741 233.63 212.741 239.556V461.801C212.741 467.727 217.545 472.531 223.471 472.531H584.328C590.254 472.531 595.058 467.727 595.058 461.801V239.556C595.058 233.63 590.254 228.826 584.328 228.826Z" fill="black"/>
<path d="M452.804 539.106H363.53C372.275 506.124 367.037 470.591 347.83 437.624H437.104C456.311 470.591 461.549 506.124 452.804 539.106Z" fill="#075471"/>
<path d="M448.15 539.106H358.861C367.606 506.124 362.383 470.591 343.161 437.624H432.45C451.732 470.591 456.895 506.124 448.15 539.106Z" fill="#075471"/>
<path d="M451.194 485.021H360.935C357.836 468.311 351.819 452.278 343.161 437.653H433.42C442.065 452.284 448.081 468.315 451.194 485.021Z" fill="#075471"/>
<g opacity="0.4">
<path d="M452.808 539.105H363.534C372.279 506.124 367.041 470.59 347.834 437.624H437.108C456.315 470.59 461.553 506.124 452.808 539.105Z" fill="black"/>
<path d="M448.15 539.105H358.861C367.606 506.124 362.383 470.59 343.161 437.624H432.45C451.732 470.59 456.895 506.124 448.15 539.105Z" fill="black"/>
<path d="M451.194 485.021H360.935C357.836 468.311 351.819 452.277 343.161 437.653H433.42C442.065 452.283 448.081 468.315 451.194 485.021Z" fill="black"/>
</g>
<path d="M448.15 539.106H358.861C367.606 506.124 362.383 470.591 343.161 437.624H432.45C451.732 470.591 456.895 506.124 448.15 539.106Z" fill="#075471"/>
<path opacity="0.2" d="M448.15 539.106H358.861C367.606 506.124 362.383 470.591 343.161 437.624H432.45C451.732 470.591 456.895 506.124 448.15 539.106Z" fill="black"/>
<path opacity="0.2" d="M450.238 485.021H360.844C357.771 468.329 351.812 452.3 343.234 437.653H432.628C441.205 452.3 447.164 468.329 450.238 485.021Z" fill="black"/>
<path d="M579.255 228.826H218.398C212.472 228.826 207.668 233.63 207.668 239.556V461.801C207.668 467.727 212.472 472.531 218.398 472.531H579.255C585.181 472.531 589.985 467.727 589.985 461.801V239.556C589.985 233.63 585.181 228.826 579.255 228.826Z" fill="#075471"/>
<path opacity="0.3" d="M579.255 228.826H218.398C212.472 228.826 207.668 233.63 207.668 239.556V461.801C207.668 467.727 212.472 472.531 218.398 472.531H579.255C585.181 472.531 589.985 467.727 589.985 461.801V239.556C589.985 233.63 585.181 228.826 579.255 228.826Z" fill="black"/>
<path d="M431.583 532.047H329.654C327.782 532.047 325.986 532.791 324.662 534.115C323.338 535.438 322.595 537.234 322.595 539.106H438.642C438.642 537.234 437.898 535.438 436.574 534.115C435.251 532.791 433.455 532.047 431.583 532.047Z" fill="#075471"/>
<path opacity="0.3" d="M431.583 532.047H329.654C327.782 532.047 325.986 532.791 324.662 534.115C323.338 535.438 322.595 537.234 322.595 539.106H438.642C438.642 537.234 437.898 535.438 436.574 534.115C435.251 532.791 433.455 532.047 431.583 532.047Z" fill="black"/>
<path d="M589.985 241.167H207.668V437.609H589.985V241.167Z" fill="#075471"/>
<path opacity="0.84" d="M589.85 241.167H207.533V437.609H589.85V241.167Z" fill="#FAFAFA"/>
<path opacity="0.23" d="M534.423 256.345H276.854C274.513 256.345 272.615 258.243 272.615 260.584V411.254C272.615 413.595 274.513 415.492 276.854 415.492H534.423C536.764 415.492 538.661 413.595 538.661 411.254V260.584C538.661 258.243 536.764 256.345 534.423 256.345Z" fill="#075471"/>
<path opacity="0.67" d="M537.542 267.298V411.253C537.542 412.377 537.096 413.455 536.301 414.25C535.506 415.044 534.428 415.491 533.304 415.491H275.734C274.612 415.487 273.536 415.039 272.742 414.245C271.948 413.451 271.5 412.376 271.496 411.253V267.298H537.542Z" fill="#FAFAFA"/>
<path opacity="0.41" d="M536.767 272.941H272.272V409.867H536.767V272.941Z" fill="white"/>
<path opacity="0.19" d="M482.756 367.469C475.805 367.469 469.01 365.408 463.23 361.546C457.45 357.684 452.946 352.195 450.286 345.773C447.626 339.351 446.93 332.284 448.286 325.467C449.642 318.649 452.989 312.387 457.904 307.472C462.819 302.557 469.082 299.209 475.899 297.853C482.717 296.497 489.783 297.193 496.205 299.853C502.627 302.513 508.116 307.018 511.978 312.798C515.84 318.577 517.901 325.372 517.901 332.323C517.889 341.641 514.183 350.573 507.594 357.162C501.006 363.75 492.073 367.457 482.756 367.469ZM482.756 297.551C475.879 297.551 469.156 299.59 463.437 303.411C457.719 307.232 453.262 312.663 450.63 319.017C447.999 325.37 447.31 332.362 448.652 339.107C449.993 345.852 453.305 352.048 458.168 356.911C463.031 361.774 469.227 365.086 475.972 366.428C482.717 367.769 489.709 367.081 496.063 364.449C502.416 361.817 507.847 357.36 511.668 351.642C515.489 345.924 517.528 339.201 517.528 332.323C517.52 323.104 513.854 314.264 507.335 307.744C500.816 301.225 491.976 297.559 482.756 297.551Z" fill="#075471"/>
<path opacity="0.19" d="M423.674 367.469C416.723 367.469 409.928 365.408 404.148 361.546C398.368 357.684 393.864 352.195 391.204 345.773C388.544 339.351 387.848 332.284 389.204 325.467C390.56 318.649 393.907 312.387 398.822 307.472C403.737 302.557 410 299.209 416.817 297.853C423.635 296.497 430.701 297.193 437.123 299.853C443.545 302.513 449.034 307.018 452.896 312.798C456.758 318.577 458.819 325.372 458.819 332.323C458.804 341.64 455.096 350.57 448.508 357.158C441.92 363.745 432.99 367.453 423.674 367.469ZM423.674 297.551C416.797 297.551 410.074 299.59 404.355 303.411C398.637 307.232 394.18 312.663 391.548 319.017C388.916 325.37 388.228 332.362 389.57 339.107C390.911 345.852 394.223 352.048 399.086 356.911C403.949 361.774 410.145 365.086 416.89 366.428C423.635 367.769 430.627 367.081 436.981 364.449C443.334 361.817 448.765 357.36 452.586 351.642C456.407 345.924 458.446 339.201 458.446 332.323C458.434 323.105 454.767 314.267 448.249 307.749C441.73 301.23 432.892 297.563 423.674 297.551Z" fill="#075471"/>
<path opacity="0.19" d="M517.725 387.108H310.284C310.259 387.108 310.235 387.103 310.212 387.093C310.189 387.083 310.169 387.068 310.152 387.05C310.135 387.032 310.122 387.01 310.114 386.987C310.106 386.963 310.103 386.938 310.105 386.914V381.138C310.103 381.113 310.106 381.089 310.114 381.065C310.122 381.042 310.135 381.02 310.152 381.002C310.169 380.984 310.189 380.969 310.212 380.959C310.235 380.949 310.259 380.944 310.284 380.944H517.725C517.749 380.944 517.774 380.949 517.797 380.959C517.82 380.969 517.84 380.984 517.857 381.002C517.874 381.02 517.887 381.042 517.895 381.065C517.903 381.089 517.906 381.113 517.904 381.138V386.914C517.906 386.938 517.903 386.963 517.895 386.987C517.887 387.01 517.874 387.032 517.857 387.05C517.84 387.068 517.82 387.083 517.797 387.093C517.774 387.103 517.749 387.108 517.725 387.108ZM310.419 386.735H517.531V381.317H310.419V386.735Z" fill="#075471"/>
<path opacity="0.19" d="M529.334 397.195H279.749C279.724 397.195 279.7 397.19 279.677 397.18C279.654 397.17 279.634 397.156 279.617 397.138C279.6 397.119 279.587 397.098 279.579 397.074C279.571 397.051 279.568 397.026 279.57 397.001V285.789C279.568 285.764 279.571 285.74 279.579 285.716C279.587 285.693 279.6 285.671 279.617 285.653C279.634 285.635 279.654 285.62 279.677 285.61C279.7 285.6 279.724 285.595 279.749 285.595H529.334C529.359 285.595 529.384 285.6 529.406 285.61C529.429 285.62 529.45 285.635 529.466 285.653C529.483 285.671 529.496 285.693 529.504 285.716C529.512 285.74 529.515 285.764 529.513 285.789V396.971C529.52 396.998 529.521 397.026 529.515 397.054C529.509 397.081 529.497 397.106 529.48 397.128C529.462 397.15 529.44 397.167 529.415 397.179C529.39 397.19 529.362 397.196 529.334 397.195ZM279.988 396.822H529.215V285.968H279.943L279.988 396.822Z" fill="#075471"/>
<path d="M526.007 261.854C526.004 262.301 526.134 262.738 526.379 263.11C526.625 263.483 526.976 263.774 527.388 263.947C527.799 264.12 528.253 264.166 528.691 264.081C529.129 263.996 529.532 263.782 529.849 263.468C530.165 263.153 530.381 262.752 530.469 262.314C530.558 261.877 530.514 261.423 530.344 261.01C530.174 260.598 529.885 260.245 529.514 259.996C529.143 259.748 528.707 259.616 528.26 259.616C527.965 259.614 527.672 259.67 527.399 259.782C527.126 259.893 526.877 260.058 526.668 260.266C526.458 260.474 526.292 260.722 526.179 260.994C526.065 261.267 526.007 261.559 526.007 261.854Z" fill="white"/>
<path d="M520.278 264.104C521.522 264.104 522.531 263.095 522.531 261.85C522.531 260.606 521.522 259.597 520.278 259.597C519.033 259.597 518.024 260.606 518.024 261.85C518.024 263.095 519.033 264.104 520.278 264.104Z" fill="white"/>
<path d="M512.291 264.104C513.535 264.104 514.544 263.095 514.544 261.85C514.544 260.606 513.535 259.597 512.291 259.597C511.046 259.597 510.037 260.606 510.037 261.85C510.037 263.095 511.046 264.104 512.291 264.104Z" fill="white"/>
<path d="M537.542 267.016H271.496V267.583H537.542V267.016Z" fill="#075471"/>
<path opacity="0.47" d="M309.851 241.167L274.735 437.609H309.493L344.608 241.167H309.851Z" fill="#FAFAFA"/>
<path opacity="0.47" d="M353.084 241.167L317.983 437.609H335.355L370.47 241.167H353.084Z" fill="#FAFAFA"/>
<path opacity="0.4" d="M547.333 241.167L512.218 437.609H520.918L556.019 241.167H547.333Z" fill="white"/>
<path opacity="0.4" d="M532.037 241.167L496.921 437.609H505.621L540.722 241.167H532.037Z" fill="white"/>
<path d="M455.863 532.047H437.612C435.74 532.047 433.944 532.791 432.62 534.115C431.296 535.438 430.553 537.234 430.553 539.106H462.907C462.909 538.18 462.729 537.262 462.376 536.406C462.022 535.549 461.504 534.771 460.85 534.115C460.195 533.46 459.418 532.94 458.563 532.585C457.707 532.23 456.79 532.047 455.863 532.047Z" fill="#075471"/>
<path opacity="0.4" d="M455.863 532.047H437.612C435.74 532.047 433.944 532.791 432.62 534.115C431.296 535.438 430.553 537.234 430.553 539.106H462.907C462.909 538.18 462.729 537.262 462.376 536.406C462.022 535.549 461.504 534.771 460.85 534.115C460.195 533.46 459.418 532.94 458.563 532.585C457.707 532.23 456.79 532.047 455.863 532.047Z" fill="black"/>
<path d="M406.138 455.519C406.138 456.965 405.709 458.379 404.906 459.581C404.102 460.784 402.96 461.721 401.624 462.275C400.288 462.828 398.817 462.973 397.399 462.691C395.98 462.409 394.677 461.712 393.655 460.69C392.632 459.667 391.935 458.364 391.653 456.945C391.371 455.527 391.516 454.057 392.069 452.72C392.623 451.384 393.56 450.242 394.763 449.438C395.965 448.635 397.379 448.206 398.825 448.206C400.765 448.206 402.625 448.976 403.996 450.348C405.368 451.719 406.138 453.579 406.138 455.519Z" fill="#075471"/>
<path opacity="0.5" d="M406.138 455.519C406.138 456.965 405.709 458.379 404.906 459.581C404.102 460.784 402.96 461.721 401.624 462.275C400.288 462.828 398.817 462.973 397.399 462.691C395.98 462.409 394.677 461.712 393.655 460.69C392.632 459.667 391.935 458.364 391.653 456.945C391.371 455.527 391.516 454.057 392.069 452.72C392.623 451.384 393.56 450.242 394.763 449.438C395.965 448.635 397.379 448.206 398.825 448.206C400.765 448.206 402.625 448.976 403.996 450.348C405.368 451.719 406.138 453.579 406.138 455.519Z" fill="black"/>
<path d="M336.34 513.882C335.311 478.154 335.4 260.282 337.475 242.389L340.295 238.494C340.295 238.494 338.997 241.956 338.683 303.188C338.37 364.42 337.952 504.793 338.295 513.882H336.34Z" fill="#075471"/>
<path d="M353.097 381.373C365.036 361.494 378.109 347.362 387.571 339.586C397.033 331.811 372.229 382.298 362.529 401.087C352.828 419.876 340.875 440.65 337.024 458.2C336.278 422.503 341.143 401.251 353.097 381.373Z" fill="#075471"/>
<path d="M337.266 244.897C339.713 222.302 336.4 201.424 348.697 174.964C360.994 148.504 370.352 127.731 382.216 118.075C385.066 115.747 375.321 161.742 363.994 187.649C356.01 205.931 353.443 218.989 344.966 231.316C342.981 234.182 337.266 244.897 337.266 244.897Z" fill="#075471"/>
<path d="M337.203 365.449C339.68 337.557 341.919 310.694 357.932 271.012C361.827 261.341 397.928 193.766 407.345 186.453C411.956 182.857 395.824 227.762 380.064 265.549C368.26 293.905 363.365 302.023 350.217 334.915C345.068 347.944 337.203 365.449 337.203 365.449Z" fill="#075471"/>
<path d="M316.192 227.811C302.761 209.619 289.777 197.322 280.241 190.89C270.704 184.457 296.657 229.184 309.133 248.704C321.609 268.225 332.907 285.163 338.07 302.087C335.593 266.464 329.624 246.018 316.192 227.811Z" fill="#075471"/>
<path d="M337.204 414.881C334.667 395.48 329.444 372.691 321.982 355.797C314.52 338.904 303.029 312.996 293.896 304.206C291.702 302.087 303.447 352.484 310.998 365.886C318.55 379.287 324.071 391.928 328.817 399.524C330.399 401.986 337.204 414.881 337.204 414.881Z" fill="#075471"/>
<path opacity="0.5" d="M336.34 513.882C335.311 478.154 335.4 260.282 337.475 242.389L340.295 238.494C340.295 238.494 338.997 241.956 338.683 303.188C338.37 364.42 337.952 504.793 338.295 513.882H336.34Z" fill="white"/>
<path opacity="0.5" d="M353.097 381.373C365.036 361.494 378.109 347.362 387.571 339.586C397.033 331.811 372.229 382.298 362.529 401.087C352.828 419.876 340.875 440.65 337.024 458.2C336.278 422.503 341.143 401.251 353.097 381.373Z" fill="white"/>
<path opacity="0.5" d="M337.266 244.897C339.713 222.302 336.4 201.424 348.697 174.964C360.994 148.504 370.352 127.731 382.216 118.075C385.066 115.747 375.321 161.742 363.994 187.649C356.01 205.931 353.443 218.989 344.966 231.316C342.981 234.182 337.266 244.897 337.266 244.897Z" fill="white"/>
<path opacity="0.5" d="M337.203 365.449C339.68 337.557 341.919 310.694 357.932 271.012C361.827 261.341 397.928 193.766 407.345 186.453C411.956 182.857 395.824 227.762 380.064 265.549C368.26 293.905 363.365 302.023 350.217 334.915C345.068 347.944 337.203 365.449 337.203 365.449Z" fill="white"/>
<path opacity="0.5" d="M316.192 227.811C302.761 209.619 289.777 197.322 280.241 190.89C270.704 184.457 296.657 229.184 309.133 248.704C321.609 268.225 332.907 285.163 338.07 302.087C335.593 266.464 329.624 246.018 316.192 227.811Z" fill="white"/>
<path opacity="0.5" d="M337.204 414.881C334.667 395.48 329.444 372.691 321.982 355.797C314.52 338.904 303.029 312.996 293.896 304.206C291.702 302.087 303.447 352.484 310.998 365.886C318.55 379.287 324.071 391.928 328.817 399.524C330.399 401.986 337.204 414.881 337.204 414.881Z" fill="white"/>
<path d="M365.621 539.104H309.06L304.792 506.6H369.89L365.621 539.104Z" fill="#263238"/>
<path d="M374.099 510.393H300.569L298.465 499.424H376.203L374.099 510.393Z" fill="#263238"/>
<path d="M303.909 263.51H135.644C129.882 263.51 125.212 268.18 125.212 273.941V528.675C125.212 534.437 129.882 539.107 135.644 539.107H303.909C309.67 539.107 314.341 534.437 314.341 528.675V273.941C314.341 268.18 309.67 263.51 303.909 263.51Z" fill="#075471"/>
<path opacity="0.6" d="M303.909 263.51H135.644C129.882 263.51 125.212 268.18 125.212 273.941V528.675C125.212 534.437 129.882 539.107 135.644 539.107H303.909C309.67 539.107 314.341 534.437 314.341 528.675V273.941C314.341 268.18 309.67 263.51 303.909 263.51Z" fill="black"/>
<path d="M298.91 263.51H130.645C124.883 263.51 120.213 268.18 120.213 273.941V528.675C120.213 534.437 124.883 539.107 130.645 539.107H298.91C304.671 539.107 309.342 534.437 309.342 528.675V273.941C309.342 268.18 304.671 263.51 298.91 263.51Z" fill="#075471"/>
<path opacity="0.3" d="M298.91 263.51H130.645C124.883 263.51 120.213 268.18 120.213 273.941V528.675C120.213 534.437 124.883 539.107 130.645 539.107H298.91C304.671 539.107 309.342 534.437 309.342 528.675V273.941C309.342 268.18 304.671 263.51 298.91 263.51Z" fill="black"/>
<path d="M309.342 275.478H120.213V514.706H309.342V275.478Z" fill="#FAFAFA"/>
<path opacity="0.1" d="M309.342 275.478H120.213V514.706H309.342V275.478Z" fill="#075471"/>
<path opacity="0.48" d="M187.264 276.075L143.985 515.303H177.042L220.32 276.075H187.264Z" fill="#FAFAFA"/>
<path opacity="0.48" d="M230.142 275.478L186.863 514.721H203.384L246.663 275.478H230.142Z" fill="#FAFAFA"/>
<path d="M214.77 533.87C218.693 533.87 221.873 530.689 221.873 526.766C221.873 522.843 218.693 519.662 214.77 519.662C210.846 519.662 207.666 522.843 207.666 526.766C207.666 530.689 210.846 533.87 214.77 533.87Z" fill="#075471"/>
<path opacity="0.5" d="M214.77 533.87C218.693 533.87 221.873 530.689 221.873 526.766C221.873 522.843 218.693 519.662 214.77 519.662C210.846 519.662 207.666 522.843 207.666 526.766C207.666 530.689 210.846 533.87 214.77 533.87Z" fill="black"/>
<path d="M216.412 269.016C216.412 269.341 216.316 269.658 216.135 269.928C215.955 270.198 215.699 270.409 215.399 270.533C215.099 270.657 214.769 270.69 214.45 270.626C214.132 270.563 213.839 270.407 213.61 270.177C213.38 269.948 213.224 269.655 213.16 269.337C213.097 269.018 213.13 268.688 213.254 268.388C213.378 268.088 213.589 267.832 213.858 267.651C214.128 267.471 214.446 267.375 214.771 267.375C215.206 267.375 215.623 267.548 215.931 267.856C216.239 268.163 216.412 268.581 216.412 269.016Z" fill="#075471"/>
<path opacity="0.5" d="M216.412 269.016C216.412 269.341 216.316 269.658 216.135 269.928C215.955 270.198 215.699 270.409 215.399 270.533C215.099 270.657 214.769 270.69 214.45 270.626C214.132 270.563 213.839 270.407 213.61 270.177C213.38 269.948 213.224 269.655 213.16 269.337C213.097 269.018 213.13 268.688 213.254 268.388C213.378 268.088 213.589 267.832 213.858 267.651C214.128 267.471 214.446 267.375 214.771 267.375C215.206 267.375 215.623 267.548 215.931 267.856C216.239 268.163 216.412 268.581 216.412 269.016Z" fill="black"/>
<path d="M450.997 222.365L462.384 220.23C462.566 220.2 462.74 220.13 462.891 220.025C463.043 219.92 463.17 219.783 463.263 219.623C463.355 219.463 463.412 219.285 463.428 219.101C463.443 218.917 463.418 218.732 463.354 218.559L454.4 192.039C454.26 191.657 453.991 191.335 453.64 191.128C453.289 190.921 452.877 190.842 452.475 190.905L441.103 193.024C440.919 193.054 440.744 193.125 440.591 193.231C440.437 193.336 440.31 193.475 440.217 193.637C440.124 193.798 440.068 193.979 440.054 194.164C440.039 194.35 440.066 194.537 440.133 194.711L449.087 221.23C449.222 221.613 449.487 221.937 449.836 222.144C450.186 222.352 450.597 222.43 450.997 222.365Z" fill="#075471"/>
<path opacity="0.6" d="M450.997 222.365L462.384 220.23C462.566 220.2 462.74 220.13 462.891 220.025C463.043 219.92 463.17 219.783 463.263 219.623C463.355 219.463 463.412 219.285 463.428 219.101C463.443 218.917 463.418 218.732 463.354 218.559L454.4 192.039C454.26 191.657 453.991 191.335 453.64 191.128C453.289 190.921 452.877 190.842 452.475 190.905L441.103 193.024C440.919 193.054 440.744 193.125 440.591 193.231C440.437 193.336 440.31 193.475 440.217 193.637C440.124 193.798 440.068 193.979 440.054 194.164C440.039 194.35 440.066 194.537 440.133 194.711L449.087 221.23C449.222 221.613 449.487 221.937 449.836 222.144C450.186 222.352 450.597 222.43 450.997 222.365Z" fill="black"/>
<path d="M452.403 222.155L463.775 220.036C463.959 220.006 464.134 219.936 464.287 219.83C464.441 219.724 464.568 219.585 464.661 219.424C464.754 219.262 464.81 219.082 464.825 218.896C464.839 218.71 464.812 218.524 464.745 218.35L455.791 191.83C455.651 191.448 455.382 191.125 455.031 190.919C454.68 190.712 454.268 190.633 453.866 190.696L442.494 192.83C442.31 192.858 442.136 192.926 441.982 193.031C441.829 193.135 441.701 193.273 441.608 193.433C441.515 193.593 441.459 193.773 441.444 193.958C441.43 194.143 441.457 194.328 441.524 194.501L450.478 221.021C450.618 221.404 450.887 221.726 451.238 221.933C451.589 222.139 452.001 222.218 452.403 222.155Z" fill="#075471"/>
<path opacity="0.3" d="M452.403 222.155L463.775 220.036C463.959 220.006 464.134 219.936 464.287 219.83C464.441 219.724 464.568 219.585 464.661 219.424C464.754 219.262 464.81 219.082 464.825 218.896C464.839 218.71 464.812 218.524 464.745 218.35L455.791 191.83C455.651 191.448 455.382 191.125 455.031 190.919C454.68 190.712 454.268 190.633 453.866 190.696L442.494 192.83C442.31 192.858 442.136 192.926 441.982 193.031C441.829 193.135 441.701 193.273 441.608 193.433C441.515 193.593 441.459 193.773 441.444 193.958C441.43 194.143 441.457 194.328 441.524 194.501L450.478 221.021C450.618 221.404 450.887 221.726 451.238 221.933C451.589 222.139 452.001 222.218 452.403 222.155Z" fill="black"/>
<path d="M449.866 219.215L464.133 216.544L456.104 192.755L441.822 195.427L449.866 219.215Z" fill="#FAFAFA"/>
<path opacity="0.14" d="M449.866 219.215L464.133 216.544L456.104 192.755L441.822 195.427L449.866 219.215Z" fill="#075471"/>
<path d="M441.822 205.712L442.942 203.115L453.687 215.189L444.389 215.905L441.822 205.712Z" fill="#E58A7B"/>
<path d="M258.244 112.077C270.962 112.077 281.272 101.767 281.272 89.0494C281.272 76.3317 270.962 66.022 258.244 66.022C245.527 66.022 235.217 76.3317 235.217 89.0494C235.217 101.767 245.527 112.077 258.244 112.077Z" fill="#075471"/>
<path d="M258.245 116.406C256.664 116.407 255.086 116.272 253.529 116.003L253.783 114.511C256.746 115.017 259.774 115.017 262.737 114.511L262.991 116.003C261.423 116.271 259.835 116.406 258.245 116.406ZM244.619 112.765C241.862 111.179 239.402 109.123 237.352 106.691L238.501 105.721C240.434 108.028 242.758 109.978 245.366 111.481L244.619 112.765ZM271.9 112.765L271.154 111.481C273.762 109.978 276.085 108.028 278.019 105.721L279.153 106.676C277.104 109.084 274.649 111.114 271.9 112.675V112.765ZM232.591 98.4976C231.501 95.5038 230.945 92.3416 230.949 89.1553H232.442C232.419 92.16 232.924 95.1454 233.934 97.9753L232.591 98.4976ZM283.899 98.4976L282.496 97.9902C283.506 95.1603 284.011 92.175 283.988 89.1703H285.003H285.481C285.489 92.3079 284.953 95.4232 283.899 98.3782V98.4976ZM233.964 80.3951L232.561 79.8877C233.645 76.8913 235.247 74.1082 237.292 71.6647L238.426 72.6198C236.51 74.8966 235.001 77.4864 233.964 80.2757V80.3951ZM282.466 80.2458C281.437 77.4271 279.922 74.8107 277.989 72.5153L279.138 71.5453C281.191 73.9746 282.807 76.7417 283.914 79.7235L282.466 80.2458ZM245.276 66.8144L244.53 65.531C247.295 63.9141 250.328 62.8071 253.484 62.2627L253.738 63.7551C250.766 64.2435 247.902 65.2486 245.276 66.7249V66.8144ZM271.064 66.8144C268.457 65.3297 265.607 64.3191 262.647 63.8297L262.901 62.3373C266.051 62.8742 269.081 63.9603 271.855 65.5459L271.064 66.8144Z" fill="#075471"/>
<path d="M437.39 205.486H432.913V206.979H437.39V205.486Z" fill="#075471"/>
<path d="M423.941 206.978H414.987V205.486H423.941V206.978ZM405.914 205.949C402.949 205.13 400.13 203.856 397.556 202.173L398.377 200.934C400.82 202.523 403.493 203.726 406.302 204.501L405.914 205.949ZM390.736 196.069C388.776 193.707 387.195 191.053 386.05 188.204L387.438 187.652C388.54 190.354 390.05 192.87 391.915 195.114L390.736 196.069ZM383.961 179.28C383.961 178.519 383.961 177.788 383.961 176.982C383.957 174.681 384.218 172.388 384.737 170.147L386.229 170.49C385.739 172.619 385.493 174.797 385.498 176.982C385.498 177.713 385.498 178.474 385.498 179.175L383.961 179.28ZM389.363 162.416L388.08 161.655C389.648 159.015 391.611 156.629 393.9 154.581L394.9 155.7C392.725 157.629 390.858 159.879 389.363 162.371V162.416ZM402.198 150.94L401.586 149.582C404.382 148.318 407.357 147.498 410.406 147.149L410.585 148.641C407.691 148.961 404.862 149.721 402.198 150.895V150.94ZM438.373 148.433H437.388V146.94H438.373C440.97 146.938 443.555 146.587 446.059 145.895L446.461 147.388C443.823 148.086 441.102 148.422 438.373 148.388V148.433ZM428.419 148.433H419.464V146.94H428.419V148.433ZM454.804 143.538L453.983 142.299C456.426 140.7 458.61 138.737 460.46 136.479L461.624 137.419C459.676 139.781 457.375 141.83 454.804 143.493V143.538ZM466.28 129.539L464.892 128.987C465.967 126.271 466.626 123.408 466.847 120.495L468.34 120.615C468.102 123.661 467.408 126.654 466.28 129.494V129.539ZM466.161 111.824C465.491 108.982 464.389 106.259 462.893 103.751L464.176 102.99C465.75 105.627 466.908 108.491 467.608 111.481L466.161 111.824ZM457.341 97.05C455.161 95.1138 452.701 93.5188 450.043 92.3191L450.64 90.9611C453.442 92.2126 456.035 93.8889 458.326 95.9307L457.341 97.05ZM441.641 90.0209C440.561 89.9013 439.475 89.8415 438.388 89.8418H432.761V88.3494H438.373C439.52 88.3375 440.667 88.4023 441.805 88.5434L441.641 90.0209ZM423.733 89.8418H414.778V88.3494H423.733V89.8418ZM405.824 89.8418H396.87V88.3494H405.824V89.8418ZM387.915 89.8418H378.961V88.3494H387.915V89.8418ZM370.007 89.8418H361.053V88.3494H370.007V89.8418ZM352.098 89.8418H343.144V88.3494H352.098V89.8418ZM334.19 89.8418H325.236V88.3494H334.19V89.8418ZM316.281 89.8418H307.327V88.3494H316.281V89.8418Z" fill="#075471"/>
<path d="M298.106 88.3044H293.629V89.7968H298.106V88.3044Z" fill="#075471"/>
<path d="M258.871 121.212H257.617V124.958H258.871V121.212Z" fill="#075471"/>
<path d="M102.514 369.037H101.275V361.575H102.514V369.037ZM102.514 354.113H101.275V346.652H102.514V354.113ZM238.723 350.278C237.263 350.277 235.807 350.117 234.381 349.801L234.649 348.592C237.025 349.099 239.474 349.16 241.872 348.771L242.066 349.994C240.95 350.156 239.822 350.226 238.693 350.203L238.723 350.278ZM161.806 350.278L161.732 349.024C164.154 348.875 166.525 348.262 168.716 347.219L169.253 348.338C166.901 349.419 164.362 350.037 161.776 350.159L161.806 350.278ZM154.15 349.218C151.695 348.402 149.42 347.12 147.45 345.443L148.255 344.488C150.102 346.064 152.235 347.27 154.538 348.039L154.15 349.218ZM249.245 347.263L248.588 346.204C250.653 344.93 252.457 343.274 253.901 341.324L254.916 342.07C253.37 344.132 251.445 345.879 249.245 347.219V347.263ZM227.292 346.711C225.159 345.252 223.325 343.398 221.889 341.249L222.934 340.548C224.279 342.569 226.002 344.313 228.008 345.682L227.292 346.711ZM175.387 343.727L174.477 342.891C176.113 341.096 177.39 339.003 178.237 336.727L179.416 337.16C178.497 339.556 177.13 341.754 175.387 343.637V343.727ZM142.644 339.488C141.436 337.198 140.685 334.693 140.435 332.116L141.674 331.996C141.911 334.412 142.616 336.759 143.748 338.906L142.644 339.488ZM102.514 339.04H101.275V331.579H102.514V339.04ZM258.259 335.086L257.05 334.772C257.442 333.221 257.642 331.627 257.647 330.027V327.475H258.9V330.027C258.887 331.734 258.661 333.434 258.229 335.086H258.259ZM218.919 334.101C218.645 332.76 218.505 331.395 218.502 330.027V326.504H219.755V330.027C219.757 331.31 219.887 332.59 220.143 333.847L218.919 334.101ZM180.655 329.504H179.416V322.042H180.655V329.504ZM141.57 324.475H140.316V317.013H141.57V324.475ZM102.514 324.042H101.275V316.58H102.514V324.042ZM258.9 319.983H257.647V312.521H258.9V319.983ZM219.8 318.998H218.546V313.715C218.552 313.002 218.512 312.289 218.427 311.581L219.666 311.431C219.755 312.189 219.8 312.952 219.8 313.715V318.998ZM180.7 314.521H179.461V313.73C179.457 311.416 179.851 309.119 180.625 306.939L181.804 307.357C181.071 309.402 180.698 311.558 180.7 313.73V314.521ZM139.928 309.656C139.406 307.281 138.428 305.031 137.048 303.029L138.077 302.328C139.521 304.465 140.535 306.862 141.062 309.387L139.928 309.656ZM103.051 309.238L101.843 308.939C102.455 306.424 103.55 304.052 105.066 301.955L106.066 302.686C104.646 304.652 103.612 306.871 103.021 309.223L103.051 309.238ZM258.9 304.984H257.647V297.523H258.9V304.984ZM216.263 304.716C215.107 302.579 213.551 300.685 211.681 299.134L212.472 298.179C214.473 299.836 216.135 301.863 217.367 304.149L216.263 304.716ZM185.49 301.164L184.55 300.328C186.27 298.392 188.348 296.806 190.669 295.657L191.221 296.776C189.034 297.844 187.077 299.33 185.46 301.149L185.49 301.164ZM131.914 297.97C129.897 296.622 127.636 295.679 125.258 295.194L125.512 293.971C128.046 294.495 130.454 295.509 132.6 296.955L131.914 297.97ZM111.319 297.746L110.662 296.687C112.843 295.29 115.277 294.336 117.826 293.881L118.05 295.12C115.647 295.541 113.351 296.428 111.289 297.731L111.319 297.746ZM205.339 295.687C203.495 295.102 201.572 294.805 199.638 294.806C199.086 294.806 198.653 294.806 198.146 294.806L198.056 293.553C198.563 293.553 199.086 293.553 199.548 293.553C201.613 293.553 203.666 293.865 205.637 294.478L205.339 295.687ZM258.9 289.986H257.647V282.524H258.9V289.986ZM258.9 274.988H257.647V267.526H258.9V274.988ZM258.9 259.989H257.647V252.527H258.9V259.989ZM258.9 245.065H257.647V237.604H258.9V245.065ZM258.9 230.067H257.647V222.605H258.9V230.067ZM258.9 215.054H257.647V207.592H258.9V215.054ZM258.9 200.13H257.647V192.668H258.9V200.13ZM258.9 185.132H257.647V177.67H258.9V185.132ZM258.9 170.133H257.647V162.671H258.9V170.133ZM258.9 155.209H257.647V147.748H258.9V155.209ZM258.9 140.211H257.647V132.749H258.9V140.211Z" fill="#075471"/>
<path d="M102.5 376.691H101.246V380.437H102.5V376.691Z" fill="#075471"/>
<path d="M255.424 100.274C254.831 100.269 254.264 100.033 253.842 99.6173L246.022 91.7973C245.606 91.3756 245.373 90.8074 245.373 90.2154C245.373 89.6233 245.606 89.0551 246.022 88.6334C246.228 88.4241 246.475 88.2578 246.746 88.1444C247.018 88.0309 247.309 87.9725 247.604 87.9725C247.898 87.9725 248.189 88.0309 248.461 88.1444C248.732 88.2578 248.979 88.4241 249.185 88.6334L255.424 94.8716L267.288 83.0072C267.712 82.6118 268.274 82.3965 268.854 82.4067C269.434 82.417 269.987 82.6519 270.397 83.062C270.807 83.4722 271.042 84.0255 271.052 84.6054C271.063 85.1854 270.847 85.7467 270.452 86.171L257.02 99.6024C256.813 99.8155 256.564 99.9847 256.29 100.1C256.016 100.215 255.721 100.275 255.424 100.274Z" fill="white"/>
<path d="M536.05 144.927C534.557 152.388 531.304 167.312 536.497 172.312C536.497 172.312 534.468 179.774 520.693 179.774C505.53 179.774 513.44 172.312 513.44 172.312C521.723 170.342 521.499 164.208 520.066 158.447L536.05 144.927Z" fill="#E58A7B"/>
<path d="M505.876 174.864C505.876 173.745 507.577 172.596 510.055 171.7C511.383 171.208 512.681 169.342 514.696 168.999C516.188 168.745 518.113 170.029 520.024 169.894C521.621 169.775 523.292 168.223 525.143 168.208C526.993 168.193 528.485 169.7 530.306 169.805C531.44 169.805 532.575 168.432 533.53 168.521C534.485 168.611 535.515 170.238 536.425 170.402C537.634 170.611 538.992 169.402 539.813 169.671C541.126 170.088 541.305 171.864 541.887 172.342C543.559 173.7 544.872 174.983 543.379 175.222C539.693 175.804 539.544 173.73 535.813 173.73C532.082 173.73 532.082 175.222 528.351 175.148C524.62 175.073 524.635 173.655 520.889 173.655C517.143 173.655 517.218 174.685 513.427 175.073C510.92 175.493 508.356 175.422 505.876 174.864Z" fill="#075471"/>
<g opacity="0.6">
<path d="M505.875 174.863C505.875 173.744 507.576 172.595 510.054 171.7C511.382 171.207 512.68 169.342 514.695 168.998C516.187 168.745 518.113 170.028 520.023 169.894C521.62 169.774 523.291 168.222 525.142 168.207C526.992 168.192 528.485 169.7 530.305 169.804C531.439 169.804 532.574 168.431 533.529 168.521C534.484 168.61 535.514 170.237 536.424 170.401C537.633 170.61 538.991 169.401 539.812 169.67C541.125 170.088 541.304 171.864 541.886 172.341C543.558 173.699 544.871 174.983 543.378 175.222C539.692 175.804 539.543 173.729 535.812 173.729C532.081 173.729 532.081 175.222 528.35 175.147C524.619 175.072 524.634 173.655 520.888 173.655C517.142 173.655 517.217 174.684 513.426 175.072C510.92 175.492 508.355 175.421 505.875 174.863Z" fill="black"/>
</g>
<path d="M563.154 188.383C565.094 192.487 566.616 196.412 568.153 200.501C569.69 204.59 570.929 208.709 572.123 212.873C573.332 217.078 574.328 221.342 575.108 225.647C575.466 227.811 575.839 229.975 576.078 232.199C576.227 233.288 576.361 234.393 576.436 235.512L576.69 238.944C576.755 241.783 576.247 244.605 575.197 247.242C574.34 249.455 573.317 251.6 572.138 253.659C569.914 257.492 567.42 261.163 564.676 264.643C559.363 271.387 553.535 277.708 547.245 283.552L542.589 279.254C545.051 276 547.573 272.657 549.931 269.284C552.289 265.912 554.647 262.539 556.781 259.092C558.921 255.729 560.854 252.241 562.572 248.645C563.362 247 564.03 245.299 564.572 243.556C565.01 242.264 565.212 240.905 565.169 239.541L564.795 236.721C564.691 235.751 564.527 234.781 564.333 233.736C564.019 231.796 563.587 229.841 563.154 227.901C562.721 225.961 562.229 224.021 561.661 222.081C561.094 220.14 560.587 218.2 559.99 216.275C558.811 212.425 557.453 208.589 556.05 204.799C554.647 201.008 553.065 197.158 551.573 193.621L563.154 188.383Z" fill="#E58A7B"/>
<path d="M558.062 175.16C563.255 176.295 568.792 194.979 568.792 194.979L548.347 208.022C548.347 208.022 541.929 193.099 544.407 186.592C547.003 179.876 551.928 173.817 558.062 175.16Z" fill="#075471"/>
<path opacity="0.6" d="M558.062 175.16C563.255 176.295 568.792 194.979 568.792 194.979L548.347 208.022C548.347 208.022 541.929 193.099 544.407 186.592C547.003 179.876 551.928 173.817 558.062 175.16Z" fill="white"/>
<path opacity="0.28" d="M555.288 181.519L548.304 207.904V208.024L556.482 202.8L555.288 181.519Z" fill="#075471"/>
<path d="M492.308 175.521C492.308 175.521 486.338 177.625 498.277 250.961H549.018C548.167 230.306 548.138 217.561 557.972 175.163C550.862 173.695 543.655 172.743 536.408 172.313C528.731 171.775 521.027 171.775 513.35 172.313C503.545 173.223 492.308 175.521 492.308 175.521Z" fill="#075471"/>
<path opacity="0.6" d="M492.308 175.521C492.308 175.521 486.338 177.625 498.277 250.961H549.018C548.167 230.306 548.138 217.561 557.972 175.163C550.862 173.695 543.655 172.743 536.408 172.313C528.731 171.775 521.027 171.775 513.35 172.313C503.545 173.223 492.308 175.521 492.308 175.521Z" fill="white"/>
<path d="M545.005 277.583L532.917 273.942L537.961 285.612C537.961 285.612 545.945 286.388 548.826 282.06L545.005 277.583Z" fill="#E58A7B"/>
<path d="M523.124 277.791L527.87 287.327L537.958 285.641L532.914 273.971L523.124 277.791Z" fill="#E58A7B"/>
<path d="M576.987 532.375H564.496L560.467 503.423H572.973L576.987 532.375Z" fill="#E58A7B"/>
<path d="M520.185 532.375H507.694L506.858 503.423H519.35L520.185 532.375Z" fill="#E58A7B"/>
<path d="M506.858 503.437L507.291 518.346H519.797L519.365 503.437H506.858Z" fill="#CF6F64"/>
<path d="M572.973 503.437H560.467L562.541 518.346H575.047L572.973 503.437Z" fill="#CF6F64"/>
<path d="M511.693 250.96C511.693 250.96 518.946 336.772 526.483 385.125C532.557 424.181 559.524 515.469 559.524 515.469H576.567C576.567 515.469 562.524 427.3 559.435 388.617C551.629 290.867 565.314 273.57 549.062 250.901L511.693 250.96Z" fill="#075471"/>
<path opacity="0.6" d="M511.693 250.96C511.693 250.96 518.946 336.772 526.483 385.125C532.557 424.181 559.524 515.469 559.524 515.469H576.567C576.567 515.469 562.524 427.3 559.435 388.617C551.629 290.867 565.314 273.57 549.062 250.901L511.693 250.96Z" fill="black"/>
<path opacity="0.4" d="M527.185 284.718C527.185 284.718 520.2 306.477 520.305 337.862C521.514 348.473 522.797 359.009 524.11 368.769C528.11 359.665 535.467 333.131 527.185 284.718Z" fill="black"/>
<path d="M498.292 250.959C498.292 250.959 488.427 347.262 489.248 385.377C490.098 425.03 504.634 515.468 504.634 515.468H521.528C521.528 515.468 518.857 427.418 520.349 388.407C521.976 345.949 535.467 250.959 535.467 250.959H498.292Z" fill="#075471"/>
<path opacity="0.6" d="M498.292 250.959C498.292 250.959 488.427 347.262 489.248 385.377C490.098 425.03 504.634 515.468 504.634 515.468H521.528C521.528 515.468 518.857 427.418 520.349 388.407C521.976 345.949 535.467 250.959 535.467 250.959H498.292Z" fill="black"/>
<path d="M559.437 533.11C558.591 533.181 557.746 532.954 557.049 532.468C556.842 532.267 556.688 532.016 556.602 531.74C556.516 531.464 556.5 531.17 556.557 530.886C556.575 530.707 556.639 530.535 556.744 530.389C556.849 530.242 556.99 530.125 557.154 530.05C558.646 529.409 562.407 531.841 562.825 532.125C562.874 532.156 562.913 532.201 562.937 532.254C562.961 532.307 562.968 532.366 562.959 532.423C562.951 532.481 562.925 532.536 562.885 532.578C562.845 532.621 562.793 532.65 562.735 532.662C561.656 532.932 560.55 533.082 559.437 533.11ZM557.766 530.528C557.637 530.521 557.509 530.547 557.393 530.603C557.303 530.603 557.184 530.722 557.154 530.976C557.106 531.161 557.109 531.355 557.161 531.539C557.214 531.722 557.314 531.888 557.452 532.02C558.079 532.602 559.721 532.677 561.93 532.244C560.677 531.387 559.258 530.803 557.766 530.528Z" fill="#075471"/>
<path d="M562.66 532.675C562.617 532.688 562.57 532.688 562.526 532.675C561.332 532.004 559.064 529.303 559.332 527.9C559.38 527.668 559.504 527.459 559.686 527.307C559.868 527.155 560.096 527.069 560.332 527.064C560.558 527.031 560.789 527.05 561.006 527.12C561.223 527.19 561.422 527.308 561.586 527.467C562.944 528.661 562.959 532.272 562.959 532.422C562.96 532.473 562.946 532.525 562.92 532.569C562.893 532.614 562.855 532.651 562.81 532.675C562.761 532.69 562.709 532.69 562.66 532.675ZM560.541 527.601H560.407C560.034 527.601 559.944 527.81 559.914 527.944C559.75 528.81 561.168 530.84 562.347 531.78C562.382 530.384 561.981 529.012 561.198 527.855C561.019 527.69 560.784 527.599 560.541 527.601Z" fill="#075471"/>
<path d="M502.561 533.107C501.509 533.191 500.459 532.924 499.576 532.346C499.37 532.162 499.215 531.928 499.123 531.667C499.032 531.406 499.008 531.126 499.054 530.854C499.06 530.691 499.109 530.532 499.195 530.393C499.281 530.254 499.403 530.141 499.546 530.063C501.039 529.227 506.068 531.779 506.62 532.063C506.677 532.091 506.724 532.136 506.754 532.192C506.783 532.249 506.794 532.313 506.784 532.376C506.775 532.436 506.747 532.492 506.704 532.535C506.661 532.578 506.606 532.606 506.546 532.615C505.236 532.904 503.902 533.068 502.561 533.107ZM500.337 530.525C500.147 530.515 499.958 530.551 499.785 530.63C499.727 530.663 499.679 530.711 499.645 530.769C499.611 530.826 499.592 530.891 499.591 530.958C499.568 531.131 499.587 531.307 499.647 531.471C499.706 531.635 499.805 531.781 499.934 531.898C500.695 532.585 502.755 532.704 505.516 532.242C503.9 531.379 502.149 530.799 500.337 530.525Z" fill="#075471"/>
<path d="M506.443 532.677H506.323C504.831 532.005 501.846 529.304 502.115 527.886C502.115 527.558 502.413 527.14 503.234 527.05C503.529 527.021 503.826 527.053 504.109 527.142C504.391 527.232 504.652 527.379 504.876 527.573C506.442 528.871 506.726 532.244 506.741 532.378C506.745 532.429 506.736 532.48 506.715 532.527C506.694 532.574 506.662 532.615 506.622 532.647C506.567 532.676 506.504 532.687 506.443 532.677ZM503.458 527.602H503.279C502.741 527.602 502.697 527.871 502.682 527.946C502.547 528.796 504.547 530.93 506.069 531.826C505.944 530.409 505.387 529.065 504.473 527.976C504.193 527.738 503.839 527.606 503.473 527.602H503.458Z" fill="#075471"/>
<path d="M506.009 131.777C505.913 131.787 505.816 131.775 505.725 131.741C505.635 131.708 505.553 131.653 505.487 131.583C505.008 131.011 504.399 130.562 503.711 130.274C503.023 129.986 502.276 129.867 501.532 129.926C501.376 129.948 501.218 129.906 501.092 129.811C500.966 129.716 500.883 129.575 500.861 129.419C500.843 129.266 500.884 129.111 500.975 128.986C501.066 128.862 501.201 128.777 501.353 128.747C502.291 128.669 503.234 128.813 504.105 129.168C504.977 129.524 505.752 130.08 506.367 130.792C506.473 130.905 506.532 131.055 506.532 131.21C506.532 131.365 506.473 131.514 506.367 131.628C506.265 131.712 506.141 131.764 506.009 131.777Z" fill="#263238"/>
<path d="M503.413 139.196C502.853 141.6 501.964 143.915 500.771 146.076C501.332 146.368 501.95 146.534 502.582 146.562C503.213 146.591 503.843 146.481 504.428 146.24L503.413 139.196Z" fill="#DF5753"/>
<path d="M504.067 137.299C504.201 138.299 503.798 139.179 503.141 139.269C502.485 139.359 501.843 138.627 501.649 137.642C501.455 136.657 501.918 135.747 502.574 135.657C503.231 135.568 503.962 136.359 504.067 137.299Z" fill="#263238"/>
<path d="M502.92 135.807L500.428 135.464C500.428 135.464 501.92 137.076 502.92 135.807Z" fill="#263238"/>
<path d="M563.66 530.928H577.704C577.944 530.922 578.178 531.006 578.36 531.163C578.542 531.321 578.659 531.54 578.689 531.778L580.3 542.897C580.33 543.178 580.299 543.463 580.211 543.732C580.123 544.001 579.98 544.248 579.789 544.458C579.599 544.668 579.367 544.836 579.108 544.95C578.849 545.064 578.569 545.122 578.286 545.12C573.391 545.031 571.033 544.747 564.854 544.747C561.064 544.747 555.512 545.135 550.259 545.135C545.006 545.135 544.737 539.942 546.916 539.479C556.721 537.375 558.258 534.465 561.571 531.689C562.156 531.196 562.896 530.927 563.66 530.928Z" fill="#263238"/>
<path d="M507.264 530.928H521.307C521.549 530.925 521.783 531.009 521.967 531.166C522.15 531.322 522.271 531.54 522.307 531.778L523.904 542.896C523.933 543.177 523.903 543.46 523.816 543.728C523.729 543.996 523.587 544.243 523.398 544.453C523.21 544.662 522.98 544.83 522.722 544.945C522.465 545.06 522.186 545.119 521.904 545.12C517.009 545.03 514.651 544.747 508.473 544.747C504.667 544.747 496.818 545.135 491.564 545.135C486.311 545.135 486.043 539.941 488.221 539.479C498.011 537.375 501.877 534.464 505.175 531.689C505.762 531.201 506.501 530.932 507.264 530.928Z" fill="#263238"/>
<path opacity="0.28" d="M490.847 187.369V187.668C490.996 196.01 492.145 210.053 495.607 233.663L502.681 205.949L490.847 187.369Z" fill="#075471"/>
<path d="M500.889 191.653C499.486 198.742 497.905 205.681 496.024 212.651C494.144 219.62 492.234 226.545 489.756 233.544L488.786 236.156L487.727 238.782C487.488 239.404 487.204 240.008 486.876 240.588C486.465 241.361 485.964 242.082 485.383 242.737C484.03 244.226 482.255 245.268 480.295 245.722C478.654 246.096 476.95 246.096 475.31 245.722C474.059 245.464 472.843 245.063 471.683 244.528C469.76 243.626 467.939 242.521 466.251 241.23C463.236 238.908 460.429 236.326 457.864 233.514C456.581 232.171 455.387 230.768 454.223 229.35C453.059 227.933 451.939 226.515 450.835 224.948L455.566 220.754C460.584 225.286 466.004 229.352 471.758 232.902C473 233.625 474.31 234.224 475.668 234.693C476.817 235.126 477.847 235.007 477.444 234.932C477.202 234.965 476.971 235.057 476.772 235.201L476.981 234.559L477.772 232.201L478.519 229.768C480.459 223.217 482.115 216.337 483.757 209.591L488.428 189.056L500.889 191.653Z" fill="#E58A7B"/>
<path d="M451.223 225.574L444.388 215.903L453.685 215.187C453.685 215.187 458.938 221.246 457.088 226.111L451.223 225.574Z" fill="#E58A7B"/>
<path d="M450.657 213.411L452.627 212.202L453.538 207.621L455.045 209.501L456.164 220.261L450.657 213.411Z" fill="#E58A7B"/>
<path d="M537.124 129.119C538.138 141.476 538.825 146.684 533.542 153.878C525.587 164.668 510.171 163.205 505.5 151.385C501.277 140.745 500.336 122.314 511.649 115.718C514.132 114.249 516.95 113.441 519.834 113.369C522.719 113.297 525.573 113.965 528.127 115.308C530.68 116.651 532.847 118.626 534.422 121.043C535.997 123.461 536.927 126.241 537.124 129.119Z" fill="#E58A7B"/>
<path d="M509.5 114.331C506.973 115.394 504.902 117.315 503.654 119.757C502.406 122.198 502.061 125.002 502.68 127.673C502.68 127.673 512.395 123.479 512.783 139.045C513.067 150.282 505.322 165.445 505.322 165.445C505.322 165.445 523.335 169.176 549.257 161.236C560.286 157.864 555.316 91.6618 509.5 114.331Z" fill="#263238"/>
<path d="M508.576 121.212C506.815 125.451 507.278 133.838 514.217 132.942C521.157 132.047 519.127 125.048 519.127 125.048L508.576 121.212Z" fill="#263238"/>
<path d="M516.308 137.957C516.38 140.357 515.506 142.688 513.875 144.449C511.696 146.748 508.965 145.195 508.219 142.27C507.532 139.659 507.846 135.286 510.696 134.062C511.325 133.806 512.007 133.711 512.681 133.785C513.356 133.859 514.001 134.101 514.558 134.488C515.116 134.875 515.568 135.395 515.873 136.001C516.179 136.607 516.328 137.279 516.308 137.957Z" fill="#E58A7B"/>
<path d="M577.837 516.02H558.362L556.287 509.229L578.509 509.752L577.837 516.02Z" fill="#075471"/>
<path d="M542.913 253.705H544.256C544.539 253.705 544.748 253.57 544.718 253.391L544.077 247.422C544.077 247.258 543.823 247.108 543.539 247.108H542.167C541.898 247.108 541.689 247.258 541.704 247.422L542.346 253.391C542.405 253.6 542.644 253.705 542.913 253.705Z" fill="#075471"/>
<path d="M509.547 253.705H510.92C511.189 253.705 511.398 253.57 511.383 253.391L510.741 247.422C510.741 247.258 510.472 247.108 510.204 247.108H508.831C508.547 247.108 508.338 247.258 508.368 247.422L509.01 253.391C509.025 253.6 509.263 253.705 509.547 253.705Z" fill="#075471"/>
<path d="M522.828 516.02H503.337L501.935 510.214L523.559 509.229L522.828 516.02Z" fill="#075471"/>
<path d="M549.826 247.991L552.11 252.468C552.289 252.827 551.871 253.185 551.289 253.185H497.996C497.534 253.185 497.16 252.961 497.131 252.677L496.668 248.2C496.668 247.887 497.041 247.618 497.534 247.618H548.946C549.113 247.596 549.282 247.619 549.437 247.684C549.592 247.75 549.727 247.856 549.826 247.991Z" fill="#075471"/>
<path opacity="0.1" d="M549.826 247.991L552.11 252.468C552.289 252.827 551.871 253.185 551.289 253.185H497.996C497.534 253.185 497.16 252.961 497.131 252.677L496.668 248.2C496.668 247.887 497.041 247.618 497.534 247.618H548.946C549.113 247.596 549.282 247.619 549.437 247.684C549.592 247.75 549.727 247.856 549.826 247.991Z" fill="black"/>
<path opacity="0.6" d="M542.913 253.705H544.256C544.539 253.705 544.748 253.57 544.718 253.391L544.077 247.422C544.077 247.258 543.823 247.108 543.539 247.108H542.167C541.898 247.108 541.689 247.258 541.704 247.422L542.346 253.391C542.405 253.6 542.644 253.705 542.913 253.705Z" fill="black"/>
<path opacity="0.6" d="M509.547 253.705H510.92C511.189 253.705 511.398 253.57 511.383 253.391L510.741 247.422C510.741 247.258 510.472 247.108 510.204 247.108H508.831C508.547 247.108 508.338 247.258 508.368 247.422L509.01 253.391C509.025 253.6 509.263 253.705 509.547 253.705Z" fill="black"/>
<path d="M492.308 175.52C487.159 176.833 483.562 198.04 483.562 198.04L503.441 211.546C503.441 211.546 511.425 186.295 507.411 180.579C503.277 174.729 499.829 173.609 492.308 175.52Z" fill="#075471"/>
<path opacity="0.6" d="M492.308 175.52C487.159 176.833 483.562 198.04 483.562 198.04L503.441 211.546C503.441 211.546 511.425 186.295 507.411 180.579C503.277 174.729 499.829 173.609 492.308 175.52Z" fill="white"/>
<path d="M210.354 448.951C210.361 448.902 210.361 448.852 210.354 448.802C210.772 446.399 211.13 443.982 211.428 441.534C215.652 446.235 219.323 447.429 221.949 447.429C222.228 447.445 222.507 447.445 222.785 447.429C227.934 446.922 232.277 441.877 234.426 433.998C234.468 433.842 234.477 433.678 234.451 433.519C234.425 433.359 234.366 433.207 234.276 433.072C234.092 432.789 233.811 432.583 233.485 432.49C229.838 431.492 226.014 431.316 222.291 431.974C218.567 432.632 215.035 434.108 211.95 436.296C212.13 433.998 212.234 431.699 212.264 429.386C213.097 429.532 213.94 429.607 214.786 429.61C223.293 429.61 228.561 422.044 228.814 421.671C228.909 421.527 228.967 421.361 228.983 421.189C228.999 421.018 228.971 420.844 228.904 420.686C228.835 420.512 228.73 420.354 228.596 420.223C228.463 420.092 228.303 419.99 228.128 419.925C222.815 417.925 218.502 417.746 215.323 419.417C213.3 420.517 211.746 422.315 210.951 424.476C208.703 419.579 205.297 415.301 201.028 412.012C196.759 408.723 191.755 406.522 186.446 405.598C186.294 405.562 186.136 405.562 185.984 405.599C185.833 405.636 185.692 405.709 185.574 405.811C185.456 405.913 185.364 406.041 185.305 406.186C185.247 406.331 185.223 406.487 185.237 406.642C185.774 414.358 187.207 423.775 193.564 428.282C196.108 430.025 199.138 430.918 202.22 430.834C204.856 430.777 207.472 430.36 209.995 429.595C209.863 435.094 209.365 440.578 208.503 446.011C204.966 441.997 195.967 433.072 183.685 429.998C183.548 429.956 183.404 429.943 183.262 429.962C183.121 429.981 182.985 430.03 182.864 430.107C182.743 430.184 182.641 430.286 182.563 430.406C182.486 430.527 182.436 430.662 182.416 430.804C181.506 437.445 183.088 442.833 186.968 446.384C190.192 449.369 194.818 450.861 200.399 450.861C202.876 450.839 205.345 450.579 207.772 450.085C206.936 454.637 205.906 459.04 204.787 463.338C200.922 460.263 189.744 452.488 179.088 455.727C178.948 455.773 178.819 455.851 178.713 455.954C178.607 456.058 178.526 456.184 178.476 456.324C178.425 456.473 178.407 456.631 178.423 456.789C178.438 456.946 178.487 457.097 178.566 457.234C182.506 464.576 186.446 468.651 190.938 470.068C192.107 470.432 193.325 470.618 194.549 470.621C197.718 470.489 200.801 469.549 203.504 467.89C201.817 473.531 199.967 478.784 198.146 483.47C195.102 480.627 191.394 478.591 187.362 477.549C183.329 476.506 179.1 476.489 175.059 477.5C174.931 477.528 174.81 477.582 174.704 477.658C174.597 477.733 174.507 477.83 174.439 477.941C174.37 478.053 174.325 478.177 174.306 478.307C174.287 478.436 174.294 478.568 174.328 478.694C174.953 481.114 176.133 483.354 177.776 485.238C179.418 487.121 181.477 488.595 183.789 489.544C185.479 490.243 187.289 490.603 189.117 490.604C191.536 490.585 193.909 489.948 196.012 488.753C193.632 494.567 190.947 500.25 187.968 505.781C187.841 506.057 187.821 506.37 187.912 506.659C188.003 506.949 188.199 507.194 188.46 507.348C188.656 507.475 188.884 507.543 189.117 507.542C189.291 507.547 189.463 507.506 189.615 507.422C189.768 507.338 189.894 507.214 189.983 507.064C193.595 500.293 196.809 493.317 199.609 486.171C199.666 486.057 199.711 485.937 199.743 485.813C200.3 484.41 200.852 482.963 201.399 481.47C204.996 485.619 209.369 487.917 213.756 487.917C214.234 487.917 214.696 487.917 215.174 487.917C217.606 487.674 219.903 486.683 221.748 485.079C223.592 483.475 224.893 481.338 225.471 478.963C225.513 478.695 225.47 478.421 225.346 478.18C225.223 477.939 225.026 477.743 224.785 477.62C221.495 475.775 217.814 474.737 214.045 474.589C210.276 474.441 206.525 475.188 203.101 476.769C204.28 473.352 205.429 469.725 206.488 465.964C206.583 465.812 206.634 465.636 206.638 465.457C206.921 464.397 207.22 463.338 207.488 462.248C211.801 466.934 215.786 469.233 219.621 469.233C224.278 469.233 228.576 465.785 232.709 458.786C232.821 458.526 232.839 458.235 232.76 457.962C232.681 457.69 232.51 457.454 232.277 457.294C223.606 451.324 213.234 455.398 208.608 457.786C209.264 454.99 209.841 452.145 210.339 449.25L210.354 448.951Z" fill="#075471"/>
<path opacity="0.3" d="M210.354 448.951C210.361 448.902 210.361 448.852 210.354 448.802C210.772 446.399 211.13 443.982 211.428 441.534C215.652 446.235 219.323 447.429 221.949 447.429C222.228 447.445 222.507 447.445 222.785 447.429C227.934 446.922 232.277 441.877 234.426 433.998C234.468 433.842 234.477 433.678 234.451 433.519C234.425 433.359 234.366 433.207 234.276 433.072C234.092 432.789 233.811 432.583 233.485 432.49C229.838 431.492 226.014 431.316 222.291 431.974C218.567 432.632 215.035 434.108 211.95 436.296C212.13 433.998 212.234 431.699 212.264 429.386C213.097 429.532 213.94 429.607 214.786 429.61C223.293 429.61 228.561 422.044 228.814 421.671C228.909 421.527 228.967 421.361 228.983 421.189C228.999 421.018 228.971 420.844 228.904 420.686C228.835 420.512 228.73 420.354 228.596 420.223C228.463 420.092 228.303 419.99 228.128 419.925C222.815 417.925 218.502 417.746 215.323 419.417C213.3 420.517 211.746 422.315 210.951 424.476C208.703 419.579 205.297 415.301 201.028 412.012C196.759 408.723 191.755 406.522 186.446 405.598C186.294 405.562 186.136 405.562 185.984 405.599C185.833 405.636 185.692 405.709 185.574 405.811C185.456 405.913 185.364 406.041 185.305 406.186C185.247 406.331 185.223 406.487 185.237 406.642C185.774 414.358 187.207 423.775 193.564 428.282C196.108 430.025 199.138 430.918 202.22 430.834C204.856 430.777 207.472 430.36 209.995 429.595C209.863 435.094 209.365 440.578 208.503 446.011C204.966 441.997 195.967 433.072 183.685 429.998C183.548 429.956 183.404 429.943 183.262 429.962C183.121 429.981 182.985 430.03 182.864 430.107C182.743 430.184 182.641 430.286 182.563 430.406C182.486 430.527 182.436 430.662 182.416 430.804C181.506 437.445 183.088 442.833 186.968 446.384C190.192 449.369 194.818 450.861 200.399 450.861C202.876 450.839 205.345 450.579 207.772 450.085C206.936 454.637 205.906 459.04 204.787 463.338C200.922 460.263 189.744 452.488 179.088 455.727C178.948 455.773 178.819 455.851 178.713 455.954C178.607 456.058 178.526 456.184 178.476 456.324C178.425 456.473 178.407 456.631 178.423 456.789C178.438 456.946 178.487 457.097 178.566 457.234C182.506 464.576 186.446 468.651 190.938 470.068C192.107 470.432 193.325 470.618 194.549 470.621C197.718 470.489 200.801 469.549 203.504 467.89C201.817 473.531 199.967 478.784 198.146 483.47C195.102 480.627 191.394 478.591 187.362 477.549C183.329 476.506 179.1 476.489 175.059 477.5C174.931 477.528 174.81 477.582 174.704 477.658C174.597 477.733 174.507 477.83 174.439 477.941C174.37 478.053 174.325 478.177 174.306 478.307C174.287 478.436 174.294 478.568 174.328 478.694C174.953 481.114 176.133 483.354 177.776 485.238C179.418 487.121 181.477 488.595 183.789 489.544C185.479 490.243 187.289 490.603 189.117 490.604C191.536 490.585 193.909 489.948 196.012 488.753C193.632 494.567 190.947 500.25 187.968 505.781C187.841 506.057 187.821 506.37 187.912 506.659C188.003 506.949 188.199 507.194 188.46 507.348C188.656 507.475 188.884 507.543 189.117 507.542C189.291 507.547 189.463 507.506 189.615 507.422C189.768 507.338 189.894 507.214 189.983 507.064C193.595 500.293 196.809 493.317 199.609 486.171C199.666 486.057 199.711 485.937 199.743 485.813C200.3 484.41 200.852 482.963 201.399 481.47C204.996 485.619 209.369 487.917 213.756 487.917C214.234 487.917 214.696 487.917 215.174 487.917C217.606 487.674 219.903 486.683 221.748 485.079C223.592 483.475 224.893 481.338 225.471 478.963C225.513 478.695 225.47 478.421 225.346 478.18C225.223 477.939 225.026 477.743 224.785 477.62C221.495 475.775 217.814 474.737 214.045 474.589C210.276 474.441 206.525 475.188 203.101 476.769C204.28 473.352 205.429 469.725 206.488 465.964C206.583 465.812 206.634 465.636 206.638 465.457C206.921 464.397 207.22 463.338 207.488 462.248C211.801 466.934 215.786 469.233 219.621 469.233C224.278 469.233 228.576 465.785 232.709 458.786C232.821 458.526 232.839 458.235 232.76 457.962C232.681 457.69 232.51 457.454 232.277 457.294C223.606 451.324 213.234 455.398 208.608 457.786C209.264 454.99 209.841 452.145 210.339 449.25L210.354 448.951Z" fill="black"/>
<path d="M156.241 479.203C157.85 479.708 159.524 479.974 161.21 479.994C163.351 479.984 165.465 479.517 167.411 478.624C169.357 477.731 171.09 476.434 172.494 474.817C173.899 473.201 174.942 471.304 175.554 469.253C176.166 467.201 176.333 465.042 176.045 462.921C175.994 462.689 175.859 462.484 175.666 462.346C175.473 462.208 175.236 462.147 175 462.175C170.875 462.631 166.903 463.999 163.372 466.181C159.841 468.362 156.839 471.301 154.584 474.785C152.704 469.622 150.943 464.13 149.465 458.444C151.877 459.87 154.605 460.675 157.405 460.787C158.556 460.791 159.699 460.609 160.792 460.25C166.598 458.324 170.582 451.4 174.03 444.192C174.092 444.061 174.124 443.918 174.124 443.774C174.124 443.629 174.092 443.486 174.03 443.356C173.979 443.226 173.899 443.11 173.795 443.017C173.691 442.923 173.567 442.856 173.433 442.819C162.076 439.58 151.749 450.684 148.495 454.653C147.356 449.839 146.479 444.967 145.869 440.058C148.274 440.518 150.717 440.758 153.166 440.774C159.136 440.774 163.852 439.192 167.046 436.073C170.836 432.387 172.135 426.865 170.821 420.12C170.796 419.989 170.743 419.866 170.667 419.757C170.59 419.649 170.492 419.558 170.378 419.49C170.263 419.422 170.136 419.38 170.004 419.365C169.872 419.35 169.739 419.363 169.612 419.403C157.494 422.627 148.943 431.641 145.451 435.909C145.451 435.028 145.302 434.148 145.242 433.267C145.224 433.046 145.135 432.837 144.988 432.671C144.686 431.017 144.017 429.452 143.03 428.091C142.044 426.73 140.765 425.608 139.287 424.806C135.974 423.164 131.602 423.403 126.319 425.507C126.162 425.568 126.021 425.662 125.905 425.783C125.789 425.905 125.701 426.05 125.647 426.209C125.594 426.362 125.578 426.527 125.601 426.688C125.625 426.849 125.686 427.002 125.781 427.134C126.05 427.492 131.751 434.984 140.287 434.984C141.209 434.981 142.128 434.891 143.033 434.715C143.212 437.143 143.466 439.575 143.794 442.013C140.578 439.826 136.923 438.369 133.085 437.743C129.246 437.116 125.317 437.336 121.573 438.386C121.425 438.423 121.287 438.489 121.166 438.582C121.045 438.674 120.945 438.791 120.871 438.924C120.797 439.051 120.749 439.192 120.731 439.338C120.713 439.484 120.725 439.633 120.767 439.774C123.408 447.803 128.109 452.862 133.363 453.295C133.601 453.311 133.84 453.311 134.079 453.295C136.765 453.295 140.481 452.071 144.526 447.117C145.514 452.701 146.81 458.226 148.406 463.667C143.6 461.309 132.736 457.25 124.229 463.428C124.109 463.504 124.005 463.603 123.924 463.72C123.842 463.836 123.784 463.967 123.754 464.106C123.723 464.245 123.72 464.388 123.746 464.528C123.771 464.668 123.824 464.801 123.901 464.921C128.483 471.98 132.989 475.367 137.676 475.367H137.795C141.69 475.367 145.615 472.935 149.734 468.085C151.42 473.397 153.271 478.442 155.166 483.128C150.45 480.039 144.929 480.531 138.123 484.62C137.976 484.714 137.85 484.839 137.755 484.986C137.66 485.132 137.597 485.298 137.571 485.471C137.553 485.634 137.576 485.798 137.639 485.95C137.701 486.101 137.801 486.234 137.929 486.336C138.273 486.605 144.078 490.978 150.57 490.978C153.062 491.002 155.505 490.279 157.584 488.903C161.257 497.441 165.489 505.727 170.254 513.707C170.349 513.857 170.482 513.98 170.639 514.063C170.796 514.147 170.972 514.189 171.15 514.184C171.39 514.186 171.625 514.113 171.821 513.975C172.083 513.814 172.272 513.557 172.348 513.259C172.423 512.96 172.379 512.644 172.224 512.378C165.977 501.787 160.631 490.689 156.241 479.203Z" fill="#075471"/>
<path opacity="0.5" d="M156.241 479.203C157.85 479.708 159.524 479.974 161.21 479.994C163.351 479.984 165.465 479.517 167.411 478.624C169.357 477.731 171.09 476.434 172.494 474.817C173.899 473.201 174.942 471.304 175.554 469.253C176.166 467.201 176.333 465.042 176.045 462.921C175.994 462.689 175.859 462.484 175.666 462.346C175.473 462.208 175.236 462.147 175 462.175C170.875 462.631 166.903 463.999 163.372 466.181C159.841 468.362 156.839 471.301 154.584 474.785C152.704 469.622 150.943 464.13 149.465 458.444C151.877 459.87 154.605 460.675 157.405 460.787C158.556 460.791 159.699 460.609 160.792 460.25C166.598 458.324 170.582 451.4 174.03 444.192C174.092 444.061 174.124 443.918 174.124 443.774C174.124 443.629 174.092 443.486 174.03 443.356C173.979 443.226 173.899 443.11 173.795 443.017C173.691 442.923 173.567 442.856 173.433 442.819C162.076 439.58 151.749 450.684 148.495 454.653C147.356 449.839 146.479 444.967 145.869 440.058C148.274 440.518 150.717 440.758 153.166 440.774C159.136 440.774 163.852 439.192 167.046 436.073C170.836 432.387 172.135 426.865 170.821 420.12C170.796 419.989 170.743 419.866 170.667 419.757C170.59 419.649 170.492 419.558 170.378 419.49C170.263 419.422 170.136 419.38 170.004 419.365C169.872 419.35 169.739 419.363 169.612 419.403C157.494 422.627 148.943 431.641 145.451 435.909C145.451 435.028 145.302 434.148 145.242 433.267C145.224 433.046 145.135 432.837 144.988 432.671C144.686 431.017 144.017 429.452 143.03 428.091C142.044 426.73 140.765 425.608 139.287 424.806C135.974 423.164 131.602 423.403 126.319 425.507C126.162 425.568 126.021 425.662 125.905 425.783C125.789 425.905 125.701 426.05 125.647 426.209C125.594 426.362 125.578 426.527 125.601 426.688C125.625 426.849 125.686 427.002 125.781 427.134C126.05 427.492 131.751 434.984 140.287 434.984C141.209 434.981 142.128 434.891 143.033 434.715C143.212 437.143 143.466 439.575 143.794 442.013C140.578 439.826 136.923 438.369 133.085 437.743C129.246 437.116 125.317 437.336 121.573 438.386C121.425 438.423 121.287 438.489 121.166 438.582C121.045 438.674 120.945 438.791 120.871 438.924C120.797 439.051 120.749 439.192 120.731 439.338C120.713 439.484 120.725 439.633 120.767 439.774C123.408 447.803 128.109 452.862 133.363 453.295C133.601 453.311 133.84 453.311 134.079 453.295C136.765 453.295 140.481 452.071 144.526 447.117C145.514 452.701 146.81 458.226 148.406 463.667C143.6 461.309 132.736 457.25 124.229 463.428C124.109 463.504 124.005 463.603 123.924 463.72C123.842 463.836 123.784 463.967 123.754 464.106C123.723 464.245 123.72 464.388 123.746 464.528C123.771 464.668 123.824 464.801 123.901 464.921C128.483 471.98 132.989 475.367 137.676 475.367H137.795C141.69 475.367 145.615 472.935 149.734 468.085C151.42 473.397 153.271 478.442 155.166 483.128C150.45 480.039 144.929 480.531 138.123 484.62C137.976 484.714 137.85 484.839 137.755 484.986C137.66 485.132 137.597 485.298 137.571 485.471C137.553 485.634 137.576 485.798 137.639 485.95C137.701 486.101 137.801 486.234 137.929 486.336C138.273 486.605 144.078 490.978 150.57 490.978C153.062 491.002 155.505 490.279 157.584 488.903C161.257 497.441 165.489 505.727 170.254 513.707C170.349 513.857 170.482 513.98 170.639 514.063C170.796 514.147 170.972 514.189 171.15 514.184C171.39 514.186 171.625 514.113 171.821 513.975C172.083 513.814 172.272 513.557 172.348 513.259C172.423 512.96 172.379 512.644 172.224 512.378C165.977 501.787 160.631 490.689 156.241 479.203Z" fill="white"/>
<path d="M197.281 539.105H161.732L159.046 502.348H199.967L197.281 539.105Z" fill="#263238"/>
<path d="M202.61 499.871H156.391V506.095H202.61V499.871Z" fill="#263238"/>
<path d="M181.611 321.711H99.545C93.7837 321.711 89.1133 326.382 89.1133 332.143V528.674C89.1133 534.435 93.7837 539.106 99.545 539.106H181.611C187.372 539.106 192.043 534.435 192.043 528.674V332.143C192.043 326.382 187.372 321.711 181.611 321.711Z" fill="#075471"/>
<path opacity="0.6" d="M181.611 321.711H99.545C93.7837 321.711 89.1133 326.382 89.1133 332.143V528.674C89.1133 534.435 93.7837 539.106 99.545 539.106H181.611C187.372 539.106 192.043 534.435 192.043 528.674V332.143C192.043 326.382 187.372 321.711 181.611 321.711Z" fill="black"/>
<path d="M176.612 321.711H94.546C88.7847 321.711 84.1143 326.382 84.1143 332.143V528.674C84.1143 534.435 88.7847 539.106 94.546 539.106H176.612C182.373 539.106 187.044 534.435 187.044 528.674V332.143C187.044 326.382 182.373 321.711 176.612 321.711Z" fill="#075471"/>
<path opacity="0.3" d="M176.612 321.711H94.546C88.7847 321.711 84.1143 326.382 84.1143 332.143V528.674C84.1143 534.435 88.7847 539.106 94.546 539.106H176.612C182.373 539.106 187.044 534.435 187.044 528.674V332.143C187.044 326.382 182.373 321.711 176.612 321.711Z" fill="black"/>
<path d="M187.044 333.679H84.1143V520.495H187.044V333.679Z" fill="#FAFAFA"/>
<path opacity="0.18" d="M187.101 333.292H84.1719V520.108H187.101V333.292Z" fill="#075471"/>
<path opacity="0.4" d="M121.469 333.694L88.085 520.51H121.141L154.541 333.694H121.469Z" fill="white"/>
<path opacity="0.4" d="M162.6 333.694L129.216 520.51H145.751L179.136 333.694H162.6Z" fill="white"/>
<path d="M140.229 529.153C140.229 530.071 139.957 530.969 139.447 531.732C138.937 532.495 138.212 533.09 137.364 533.441C136.516 533.793 135.582 533.885 134.682 533.705C133.782 533.526 132.955 533.084 132.306 532.435C131.657 531.786 131.215 530.959 131.035 530.059C130.856 529.159 130.948 528.225 131.3 527.377C131.651 526.529 132.246 525.804 133.009 525.294C133.772 524.784 134.67 524.512 135.588 524.512C136.819 524.512 137.999 525.001 138.869 525.872C139.74 526.742 140.229 527.922 140.229 529.153Z" fill="#075471"/>
<path opacity="0.5" d="M140.229 529.153C140.229 530.071 139.957 530.969 139.447 531.732C138.937 532.495 138.212 533.09 137.364 533.441C136.516 533.793 135.582 533.885 134.682 533.705C133.782 533.526 132.955 533.084 132.306 532.435C131.657 531.786 131.215 530.959 131.035 530.059C130.856 529.159 130.948 528.225 131.3 527.377C131.651 526.529 132.246 525.804 133.009 525.294C133.772 524.784 134.67 524.512 135.588 524.512C136.819 524.512 137.999 525.001 138.869 525.872C139.74 526.742 140.229 527.922 140.229 529.153Z" fill="black"/>
<path d="M147.747 328.859C148.654 328.859 149.389 328.124 149.389 327.218C149.389 326.311 148.654 325.576 147.747 325.576C146.84 325.576 146.105 326.311 146.105 327.218C146.105 328.124 146.84 328.859 147.747 328.859Z" fill="#075471"/>
<path d="M141.049 328.859H123.409C122.974 328.859 122.556 328.686 122.248 328.379C121.941 328.071 121.768 327.653 121.768 327.218C121.771 326.784 121.946 326.368 122.253 326.061C122.56 325.754 122.975 325.58 123.409 325.576H141.034C141.468 325.58 141.884 325.754 142.191 326.061C142.498 326.368 142.672 326.784 142.676 327.218C142.676 327.651 142.505 328.066 142.2 328.373C141.896 328.681 141.482 328.855 141.049 328.859Z" fill="#075471"/>
<path opacity="0.5" d="M147.747 328.859C148.654 328.859 149.389 328.124 149.389 327.218C149.389 326.311 148.654 325.576 147.747 325.576C146.84 325.576 146.105 326.311 146.105 327.218C146.105 328.124 146.84 328.859 147.747 328.859Z" fill="black"/>
<path opacity="0.5" d="M141.049 328.859H123.409C122.974 328.859 122.556 328.686 122.248 328.379C121.941 328.071 121.768 327.653 121.768 327.218C121.771 326.784 121.946 326.368 122.253 326.061C122.56 325.754 122.975 325.58 123.409 325.576H141.034C141.468 325.58 141.884 325.754 142.191 326.061C142.498 326.368 142.672 326.784 142.676 327.218C142.676 327.651 142.505 328.066 142.2 328.373C141.896 328.681 141.482 328.855 141.049 328.859Z" fill="black"/>
</svg>
