<svg width="40" height="51" viewBox="0 0 40 51" fill="none" xmlns="http://www.w3.org/2000/svg">
<path d="M25.7085 41.064C25.7085 41.5816 25.5194 42.0595 25.1909 42.4178H7.5906C6.42588 41.1635 7.3915 38.9734 9.12366 39.0133H23.6578C24.7927 39.0133 25.7085 39.9291 25.7085 41.064ZM7.5906 43.8016C6.42588 45.0559 7.3915 47.246 9.12366 47.2061H23.6578C25.39 47.246 26.3556 45.0459 25.1809 43.8016H7.5906ZM13.3744 50.77H19.417C20.7112 50.77 21.7763 49.8243 21.9854 48.5899H10.806C11.0151 49.8243 12.0803 50.77 13.3744 50.77ZM26.4452 30.3824C24.3148 32.234 23.0107 34.8422 22.742 37.6295H18.3319V9.7558C18.3319 9.16846 18.8297 8.70058 19.417 8.75036C30.3077 9.71598 34.5584 23.3841 26.4452 30.3824ZM28.3764 21.0646C28.4063 16.8835 25.6587 12.9613 21.6967 11.5975C21.2885 11.4481 20.8207 11.6671 20.6813 12.0853C20.532 12.5034 20.741 12.9513 21.1591 13.1007C24.4841 14.2455 26.8036 17.5405 26.7737 21.0646C26.7936 22.1098 28.3665 22.1098 28.3764 21.0646ZM8.11821 32.891C8.63587 32.3534 9.81055 31.6566 10.2486 32.6421C10.4078 33.0503 10.1988 33.5182 9.78068 33.6774C7.9888 34.4937 8.9146 36.9128 10.0296 37.6295H13.6034C14.3699 37.0721 14.8676 36.1761 14.8676 35.1607V12.593C14.8477 9.3377 10.3879 8.38203 9.05397 11.3386C10.1291 11.5477 13.3047 14.2554 11.025 14.7631C10.2685 14.7333 10.0992 13.7278 9.50194 13.3893C6.50552 11.0201 2.24482 14.2654 3.53896 17.7197C4.89282 17.4709 6.67475 18.1378 7.58065 19.2826C8.02862 19.7704 7.62047 20.6166 6.9734 20.5967C6.74444 20.5967 6.52543 20.4971 6.36615 20.308C6.1571 20.0591 5.68922 19.6012 4.95255 19.3921C4.4349 19.2229 3.71815 19.2627 3.30004 19.4021C-0.831244 20.6066 -1.16971 26.48 2.77243 28.1624C3.30999 27.2963 6.45574 24.8972 7.02317 26.5796C7.13268 27.0076 6.86389 27.4457 6.44579 27.5452C1.90635 28.6701 2.53351 35.0413 7.21232 35.1707C7.22227 34.3942 7.47114 33.5381 8.11821 32.891ZM29.0534 11.259C29.2624 11.259 29.4615 11.1794 29.6208 11.03L33.3141 7.33676C34.0408 6.58019 32.9358 5.4752 32.1892 6.21186L28.4959 9.90513C27.9782 10.373 28.3665 11.2789 29.0534 11.259ZM38.7096 20.3777H33.4933C32.438 20.3976 32.448 21.9605 33.4933 21.9705H38.7096C39.7648 21.9605 39.7549 20.3976 38.7096 20.3777ZM29.6108 31.338C28.8543 30.6113 27.7493 31.7163 28.4859 32.4629L32.1792 36.1562C32.9258 36.8929 34.0408 35.768 33.3041 35.0313C33.3041 35.0213 29.6108 31.338 29.6108 31.338ZM18.3319 6.81911C18.77 6.81911 19.1283 6.46073 19.1283 6.02272V0.796392C19.1283 0.358376 18.77 0 18.3319 0C17.8939 0 17.5355 0.358376 17.5355 0.796392V6.01276C17.5355 6.46073 17.8939 6.81911 18.3319 6.81911Z" fill="#075471"/>
</svg>
