<svg width="396" height="405" viewBox="0 0 396 405" fill="none" xmlns="http://www.w3.org/2000/svg">
<path d="M45.1209 327.74C49.2109 325.63 54.0309 325.36 58.5709 326.11C61.0109 326.51 63.5709 327.24 65.2209 329.11C66.8709 330.98 67.2209 334.17 65.2909 335.75C64.0594 336.579 62.5783 336.954 61.1009 336.81C57.5409 336.81 53.6009 336.14 50.7609 338.28C49.1309 339.5 48.0609 341.53 46.1209 342.13C45.1574 342.347 44.1494 342.247 43.2481 341.843C42.3467 341.439 41.6004 340.754 41.1209 339.89C40.194 338.109 39.9898 336.039 40.5509 334.11C40.77 332.768 41.2965 331.495 42.0893 330.39C42.8821 329.285 43.9197 328.378 45.1209 327.74Z" fill="#075471"/>
<path d="M35.7513 309.651C38.2513 313.221 43.1113 312.041 45.3713 309.861C47.6313 307.681 48.5713 304.511 49.4413 301.501C51.4413 294.611 53.4413 287.391 51.9513 280.371C51.5921 278.247 50.6584 276.262 49.2513 274.631C48.5382 273.827 47.6256 273.225 46.6055 272.886C45.5854 272.547 44.4939 272.483 43.4413 272.701C40.9913 273.341 39.4413 275.701 38.3613 278.031C35.1096 284.773 33.4016 292.156 33.3613 299.641C33.3613 303.121 33.7513 306.771 35.7213 309.641" fill="#075471"/>
<path d="M28.8808 314.771C31.5908 311.551 32.1108 306.851 30.8808 302.771C29.5098 298.759 27.0602 295.202 23.8008 292.491C20.1034 289.196 15.8001 286.652 11.1308 285.001C9.32054 284.264 7.37369 283.924 5.42084 284.001C4.4468 284.058 3.50147 284.353 2.66679 284.858C1.83212 285.363 1.13327 286.065 0.630838 286.901C-0.709162 289.451 0.570838 292.541 1.96084 295.061C4.40175 299.502 7.18695 303.745 10.2908 307.751C12.7908 310.971 15.6508 314.151 19.4608 315.601C23.2708 317.051 27.2208 316.891 29.2408 314.251" fill="#075471"/>
<path d="M35.5814 363.551C35.7139 363.017 35.791 362.471 35.8114 361.921C35.9214 360.741 36.0714 359.261 36.2414 357.491C36.4642 355.309 36.7979 353.139 37.2414 350.991C37.8264 348.375 38.6189 345.811 39.6114 343.321C40.5792 340.834 41.8957 338.497 43.5214 336.381C44.8609 334.653 46.5691 333.245 48.5214 332.261C49.8336 331.609 51.2412 331.17 52.6914 330.961C53.2351 330.946 53.7752 330.869 54.3014 330.731C53.7564 330.67 53.2064 330.67 52.6614 330.731C51.155 330.841 49.6811 331.224 48.3114 331.861C46.2432 332.809 44.4249 334.226 43.0014 336.001C41.3315 338.151 39.984 340.532 39.0014 343.071C37.9972 345.598 37.2143 348.208 36.6614 350.871C36.241 353.045 35.9505 355.242 35.7914 357.451C35.6514 359.331 35.6014 360.851 35.5814 361.911C35.5171 362.456 35.5171 363.006 35.5814 363.551Z" fill="#263238"/>
<path d="M35.8806 360.14C35.9318 359.891 35.9487 359.635 35.9306 359.38C35.9306 358.82 35.9306 358.1 35.9306 357.23C35.9306 355.36 35.9306 352.65 36.0306 349.31C36.1906 342.63 36.7706 335.44 37.8806 325.31C38.8806 315.78 40.3506 304.68 41.8806 297.47C42.2006 295.83 42.5206 294.35 42.8206 293.06C43.1206 291.77 43.3606 290.65 43.5906 289.74C43.8206 288.83 43.9706 288.2 44.1006 287.65C44.1743 287.407 44.218 287.155 44.2306 286.9C44.12 287.128 44.0329 287.365 43.9706 287.61C43.8006 288.15 43.6006 288.84 43.3406 289.68C43.0806 290.52 42.7806 291.68 42.4606 292.97C42.1406 294.26 41.7606 295.73 41.4606 297.37C39.6205 305.901 38.2319 314.523 37.3006 323.2C36.1906 333.36 35.6906 342.61 35.6406 349.31C35.6406 352.66 35.6406 355.37 35.7606 357.25C35.8206 358.12 35.8606 358.83 35.8906 359.4C35.8632 359.646 35.8598 359.894 35.8806 360.14Z" fill="#263238"/>
<path d="M35.9308 342.292C35.9941 341.543 35.9941 340.79 35.9308 340.042C35.8032 338.002 35.5729 335.969 35.2408 333.952C34.7448 330.953 34.077 327.984 33.2408 325.062C32.2746 321.469 31.0343 317.955 29.5308 314.552C26.9523 308.272 23.2557 302.512 18.6208 297.552C17.8143 296.706 16.956 295.911 16.0508 295.172C15.6608 294.842 15.3108 294.502 14.9508 294.242L13.9508 293.562C13.3506 293.106 12.7153 292.698 12.0508 292.342C14.2354 294.056 16.3095 295.906 18.2608 297.882C22.7482 302.876 26.3469 308.602 28.9008 314.812C30.3757 318.196 31.6251 321.673 32.6408 325.222C33.6408 328.492 34.2608 331.492 34.7508 334.022C35.2408 336.552 35.4808 338.622 35.6408 340.022C35.676 340.785 35.773 341.544 35.9308 342.292Z" fill="#263238"/>
<path d="M18.6816 373.771L20.4716 398.262H51.9416L53.7316 373.771H18.6816Z" fill="#263238"/>
<path d="M57.4806 364.111H15.6406V373.761H57.4806V364.111Z" fill="#263238"/>
<path d="M15.6504 397.32V400H17.6104H56.7904V397.32H15.6504Z" fill="#455A64"/>
<path d="M19.5413 404.71L17.6113 400H55.2913L53.0413 404.71H19.5413Z" fill="#455A64"/>
<path d="M53.1407 381.77C53.1407 381.77 53.1407 381.86 52.9907 382C52.8407 382.14 52.7207 382.37 52.5207 382.62L50.6907 385L50.6107 385.1L50.5307 384.99L46.0007 378.73H46.2607L41.8507 385L41.7107 385.2L41.5607 385.01L36.3007 378.76H36.6007L36.3107 379.13L31.6107 385L31.4607 385.2L31.3107 384.99C29.7107 382.74 28.2207 380.63 26.8807 378.72H27.1307L21.6707 385L21.5707 385.11L21.5007 385C20.7807 383.79 20.2007 382.83 19.7907 382.13L19.3507 381.36C19.2924 381.278 19.2485 381.187 19.2207 381.09C19.2881 381.164 19.3484 381.245 19.4007 381.33C19.5307 381.52 19.6907 381.77 19.8807 382.07L21.6807 384.89H21.5107L26.8807 378.59L27.0207 378.44L27.1407 378.61L31.6207 384.85H31.3207L36.0007 378.88L36.2907 378.52L36.4407 378.33L36.5907 378.52L41.8307 384.78H41.5407L46.0007 378.55L46.1307 378.37L46.2607 378.55L50.6707 384.85H50.5107L52.4107 382.56C52.6207 382.33 52.7907 382.13 52.9207 381.97L53.1407 381.77Z" fill="#E0E0E0"/>
<path d="M54.16 373.61C54.16 373.71 46.28 373.8 36.56 373.8C26.84 373.8 19 373.71 19 373.61C19 373.51 26.88 373.41 36.61 373.41C46.34 373.41 54.16 373.5 54.16 373.61Z" fill="#455A64"/>
<path d="M55.7505 400.26C55.7505 400.37 47.1805 400.46 36.6205 400.46C26.0605 400.46 17.4805 400.37 17.4805 400.26C17.4805 400.15 26.0505 400.07 36.6205 400.07C47.1905 400.07 55.7505 400.16 55.7505 400.26Z" fill="#263238"/>
<path d="M136.2 0.0704457L118.47 0.220447C117.303 0.257041 116.199 0.754326 115.399 1.60339C114.598 2.45245 114.167 3.58409 114.2 4.75045V7.97045C114.235 9.12586 113.814 10.2488 113.028 11.0964C112.242 11.9441 111.154 12.4484 110 12.5004L75.4396 12.7904C74.8609 12.7826 74.2894 12.6607 73.7579 12.4317C73.2264 12.2027 72.7453 11.8711 72.3422 11.4559C71.939 11.0407 71.6217 10.55 71.4085 10.0119C71.1953 9.47392 71.0903 8.89911 71.0996 8.32045V5.11045C71.1156 3.94252 70.6676 2.81593 69.854 1.9779C69.0403 1.13988 67.9274 0.658876 66.7596 0.640445H60.5195L44.9996 0.820446C41.2935 0.849519 37.7501 2.34695 35.1464 4.98445C32.5426 7.62195 31.0909 11.1843 31.1096 14.8904L32.9996 238.63C33.0152 240.462 33.3917 242.272 34.1074 243.958C34.8231 245.644 35.8641 247.173 37.1707 248.456C38.4774 249.74 40.0242 250.753 41.7227 251.438C43.4212 252.124 45.2381 252.468 47.0696 252.45L138.31 251.7C142.007 251.658 145.537 250.155 148.13 247.519C150.723 244.883 152.168 241.328 152.15 237.63L150.26 13.9004C150.215 10.2065 148.712 6.68007 146.078 4.08952C143.444 1.49897 139.894 0.0543416 136.2 0.0704457Z" fill="white"/>
<path d="M136.2 0.0703125H136.67C137.145 0.0735553 137.619 0.106954 138.09 0.170311C139.946 0.375597 141.736 0.975711 143.34 1.93031C144.531 2.61162 145.61 3.47163 146.54 4.48032C147.681 5.68753 148.595 7.08979 149.24 8.62032C149.976 10.4123 150.346 12.3332 150.33 14.2703C150.33 16.3303 150.33 18.5303 150.4 20.8503C150.57 39.4403 150.82 66.3203 151.14 99.5503C151.46 132.78 151.79 172.34 152.19 216.27C152.23 221.764 152.277 227.324 152.33 232.95C152.33 234.35 152.33 235.76 152.33 237.18C152.373 238.617 152.204 240.052 151.83 241.44C151.452 242.834 150.865 244.162 150.09 245.38C149.291 246.596 148.321 247.691 147.21 248.63C144.943 250.506 142.145 251.624 139.21 251.83C136.29 251.94 133.38 251.9 130.45 251.95L112.68 252.1L76.22 252.4L57.58 252.56L48.16 252.63C44.9389 252.843 41.7375 251.989 39.05 250.2C36.3766 248.383 34.4015 245.71 33.45 242.62C33.0006 241.088 32.7914 239.496 32.83 237.9C32.83 236.33 32.83 234.76 32.83 233.2C32.7833 226.94 32.73 220.724 32.67 214.55C32.5633 202.197 32.46 190.04 32.36 178.08C32.16 154.17 31.96 131.08 31.77 109.14C31.58 87.2003 31.42 66.2903 31.25 46.7603C31.15 37.0003 31.0667 27.577 31 18.4903V15.1103C31 14.5503 31 13.9803 31.07 13.4203C31.14 12.8603 31.2 12.3003 31.34 11.7503C31.8201 9.57459 32.8068 7.54287 34.22 5.82031C35.5896 4.15404 37.3232 2.82419 39.2874 1.93309C41.2517 1.042 43.3941 0.613412 45.55 0.680313L57.71 0.580315H63.56H66.43C67.4028 0.520573 68.3685 0.780431 69.18 1.32031C69.9743 1.86355 70.5763 2.64412 70.9 3.55032C71.1753 4.43933 71.2805 5.37231 71.21 6.30032C71.21 6.75032 71.21 7.21032 71.21 7.66032C71.2046 8.10443 71.2246 8.54849 71.27 8.99031C71.3877 9.85101 71.7564 10.6579 72.33 11.3103C72.8906 11.9578 73.6383 12.4155 74.47 12.6203C74.8834 12.7118 75.307 12.7488 75.73 12.7303H77H82L100.39 12.6003L108.5 12.5403C109.14 12.5403 109.8 12.5403 110.4 12.5403C111.009 12.4643 111.594 12.2524 112.11 11.9203C112.603 11.5995 113.027 11.1842 113.358 10.6985C113.689 10.2127 113.921 9.66613 114.04 9.09031C114.13 8.53181 114.16 7.96525 114.13 7.40031C114.13 6.84031 114.13 6.28032 114.13 5.73032C114.097 5.15275 114.12 4.57333 114.2 4.00031C114.28 3.47733 114.453 2.9728 114.71 2.51031C115.191 1.60631 115.973 0.898841 116.92 0.510311C117.811 0.214012 118.754 0.105068 119.69 0.190311L128.74 0.130314H134.3L128.74 0.190311L119.69 0.280312C118.771 0.20684 117.847 0.315588 116.97 0.600311C116.053 0.979464 115.297 1.66521 114.83 2.54031C114.585 2.99583 114.42 3.48948 114.34 4.00031C114.269 4.53054 114.249 5.06628 114.28 5.60031C114.28 6.15031 114.28 6.70031 114.28 7.27031C114.309 7.84854 114.279 8.42826 114.19 9.00031C114.069 9.59735 113.829 10.1641 113.486 10.6673C113.142 11.1705 112.702 11.5999 112.19 11.9303C111.656 12.2751 111.051 12.494 110.42 12.5703C109.78 12.6403 109.15 12.5703 108.51 12.5703L100.4 12.6403L82 12.8103H77H75.7C75.2599 12.8295 74.8193 12.7891 74.39 12.6903C73.5084 12.4829 72.7144 12.0036 72.12 11.3203C71.5388 10.6658 71.151 9.86254 71 9.00031C70.9503 8.54878 70.9303 8.09447 70.94 7.64031C70.94 7.19031 70.94 6.74031 70.94 6.28031C71.0077 5.37938 70.9059 4.47375 70.64 3.61031C70.335 2.74063 69.7605 1.99094 69 1.47031C68.2293 0.959247 67.313 0.713485 66.39 0.770313H63.52L57.67 0.820312L45.51 1.00031C43.4235 0.953828 41.3519 1.36336 39.44 2.20031C37.5063 3.0889 35.7974 4.40134 34.44 6.04031C33.0564 7.73222 32.0904 9.72595 31.62 11.8603C31.48 12.3903 31.45 12.9403 31.36 13.4903C31.27 14.0403 31.3 14.5903 31.3 15.1503V18.5303C31.38 27.6036 31.4633 37.027 31.55 46.8003C31.73 66.3403 31.91 87.2203 32.11 109.19C32.31 131.16 32.5 154.19 32.71 178.12C32.8167 190.08 32.9233 202.237 33.03 214.59C33.0767 220.77 33.13 226.99 33.19 233.25C33.19 234.81 33.19 236.38 33.19 237.95C33.1567 239.506 33.3624 241.057 33.8 242.55C34.7251 245.555 36.6431 248.157 39.24 249.93C41.862 251.668 44.9815 252.497 48.12 252.29L57.54 252.21L76.19 252.06L112.65 251.76L130.41 251.62C133.34 251.57 136.28 251.62 139.16 251.5C142.025 251.308 144.757 250.22 146.97 248.39C148.052 247.479 148.996 246.414 149.77 245.23C150.532 244.046 151.105 242.751 151.47 241.39C151.833 240.034 151.998 238.633 151.96 237.23C151.96 235.82 151.96 234.41 151.96 233C151.92 227.38 151.873 221.824 151.82 216.33C151.46 172.39 151.13 132.83 150.82 99.6003C150.51 66.3703 150.35 39.4903 150.2 20.9003C150.2 18.5803 150.2 16.3803 150.15 14.3203C150.175 12.3983 149.815 10.4907 149.09 8.71031C148.452 7.19471 147.551 5.80344 146.43 4.60031C145.526 3.57823 144.471 2.70131 143.3 2.00031C141.708 1.03696 139.928 0.426541 138.08 0.210312C137.613 0.137066 137.142 0.0969663 136.67 0.090313L136.2 0.0703125Z" fill="#263238"/>
<path d="M139.089 22.639C139.089 22.699 136.789 22.789 133.949 22.829C131.109 22.869 128.799 22.829 128.789 22.829C128.779 22.829 131.099 22.689 133.939 22.639C136.779 22.589 139.089 22.579 139.089 22.639Z" fill="#263238"/>
<path d="M139.14 25.2718C139.14 25.3318 136.83 25.4218 133.99 25.4718C131.15 25.5218 128.84 25.4718 128.84 25.4718C128.84 25.4718 131.14 25.3218 133.99 25.2718C136.84 25.2218 139.14 25.2118 139.14 25.2718Z" fill="#263238"/>
<path d="M139.181 27.9085C139.181 27.9685 136.881 28.0585 134.041 28.0985C131.201 28.1385 128.891 28.0985 128.881 28.0985C128.871 28.0985 131.191 27.9585 134.031 27.9085C136.871 27.8585 139.181 27.8485 139.181 27.9085Z" fill="#263238"/>
<path d="M45.5005 31.7417H45.7105H46.3105L48.5005 31.6717L48.4405 31.7317C48.4405 31.2417 48.4405 30.7317 48.4405 30.1417C48.4405 29.8417 48.4405 29.5617 48.4405 29.2217C48.4745 29.0447 48.5633 28.8828 48.6943 28.759C48.8252 28.6352 48.9918 28.5557 49.1705 28.5317C49.5305 28.5317 49.8405 28.5317 50.2205 28.5317C50.4237 28.5585 50.6101 28.6587 50.7445 28.8134C50.879 28.9682 50.9522 29.1667 50.9505 29.3717C50.9505 30.1217 50.9505 30.8917 50.9505 31.7017L50.8405 31.6017H53.6205L53.5105 31.7017C53.5105 30.5917 53.5105 29.4317 53.4505 28.2517C53.4505 27.9517 53.4505 27.6617 53.4505 27.3717C53.4348 27.2408 53.391 27.1149 53.3219 27.0027C53.2528 26.8905 53.1602 26.7946 53.0505 26.7217L51.8305 25.5317L50.6505 24.3917C50.4605 24.2017 50.2605 24.0217 50.0805 23.8317C49.9005 23.6417 49.7205 23.4517 49.5005 23.4117C49.3909 23.3829 49.2763 23.3797 49.1653 23.4022C49.0544 23.4248 48.9501 23.4725 48.8605 23.5417C48.7005 23.6817 48.5205 23.8817 48.3505 24.0517C48.0105 24.4017 47.6805 24.7317 47.3505 25.0517C46.7205 25.7117 46.0805 26.3117 45.6105 26.8717C45.4793 27.1876 45.4344 27.5327 45.4805 27.8717V28.8717C45.4805 29.4717 45.4805 29.9917 45.4805 30.4417V31.4417C45.4805 31.6717 45.4805 31.8017 45.4805 31.8017C45.4663 31.6921 45.4663 31.5812 45.4805 31.4717C45.4805 31.1983 45.4805 30.865 45.4805 30.4717C45.4805 30.0117 45.4805 29.4717 45.4805 28.8817C45.4805 28.5717 45.4805 28.2317 45.4805 27.8817C45.4805 27.7117 45.4805 27.5217 45.4805 27.3417C45.47 27.1375 45.5224 26.9351 45.6305 26.7617C46.1305 26.1217 46.7405 25.5617 47.3705 24.8917L48.3705 23.8917C48.5505 23.7117 48.6905 23.5317 48.9005 23.3517C49.0144 23.2651 49.1466 23.2057 49.287 23.178C49.4273 23.1502 49.5722 23.1549 49.7105 23.1917C49.9733 23.2827 50.2054 23.4455 50.3805 23.6617L50.9505 24.2117L52.0005 25.2817L53.2205 26.4617C53.336 26.5596 53.4399 26.6703 53.5305 26.7917C53.6287 26.9286 53.6812 27.0931 53.6805 27.2617C53.6805 27.5517 53.6805 27.8517 53.6805 28.1417C53.6805 29.3317 53.6805 30.4817 53.7405 31.6017V31.7117H53.6305H50.8605H50.7605V31.6117C50.7605 30.8117 50.7605 30.0317 50.7605 29.2917C50.7647 29.1309 50.7102 28.9742 50.6071 28.8508C50.504 28.7275 50.3594 28.646 50.2005 28.6217C49.8805 28.6217 49.5005 28.6217 49.2005 28.6217C49.0557 28.6368 48.9199 28.6987 48.8134 28.7979C48.707 28.8972 48.6357 29.0284 48.6105 29.1717C48.6105 29.4517 48.6105 29.7717 48.6105 30.0517C48.6105 30.6317 48.6105 31.1617 48.6105 31.6517V31.7117H45.6905C45.5605 31.7517 45.4905 31.7517 45.5005 31.7417Z" fill="#263238"/>
<path d="M131.299 44.8998L48.9519 45.6328C44.832 45.6695 41.5219 49.039 41.5586 53.1589L41.5832 55.9288C41.6199 60.0487 44.9895 63.3588 49.1094 63.3221L131.456 62.5891C135.576 62.5524 138.886 59.1829 138.849 55.063L138.825 52.2931C138.788 48.1732 135.419 44.8631 131.299 44.8998Z" fill="#F5F5F5"/>
<path d="M131.439 62.6119L131.999 62.5519C132.542 62.4978 133.077 62.3906 133.599 62.2319C134.442 61.9535 135.231 61.5305 135.929 60.9819C136.885 60.2306 137.641 59.2551 138.129 58.1419C138.42 57.4879 138.609 56.7932 138.689 56.0819C138.757 55.2871 138.773 54.4888 138.739 53.6919C138.761 52.8262 138.714 51.9602 138.599 51.1019C138.438 50.1847 138.098 49.3081 137.599 48.5219C137.056 47.6466 136.337 46.8945 135.486 46.3141C134.635 45.7337 133.672 45.3378 132.659 45.1519C131.537 45.027 130.407 44.9936 129.279 45.0519H125.689L48.9991 45.8219C47.1722 45.837 45.4177 46.5384 44.0839 47.787C42.7501 49.0355 41.9345 50.7399 41.7991 52.5619C41.7991 53.4419 41.7991 54.3719 41.7991 55.2719C41.7668 56.1586 41.8679 57.0452 42.0991 57.9019C42.5797 59.5792 43.6436 61.0297 45.0991 61.9919C45.8191 62.4715 46.6232 62.8108 47.4691 62.9919C48.3127 63.1496 49.172 63.2067 50.0291 63.1619H55.1791L65.1791 63.0719L99.6891 62.8119L122.949 62.6619H129.279H130.919C131.289 62.6619 131.479 62.6619 131.479 62.6619H130.919H129.279L122.949 62.7519L99.6891 63.0119L65.1891 63.3619L55.1891 63.4519H50.0391C49.1551 63.4956 48.269 63.4352 47.3991 63.2719C46.5184 63.0924 45.678 62.7535 44.9191 62.2719C43.3694 61.2797 42.227 59.7646 41.6991 58.0019C41.4533 57.1137 41.3453 56.1929 41.3791 55.2719C41.3791 54.3619 41.3791 53.4719 41.3791 52.5319C41.5219 50.6215 42.3773 48.8344 43.7757 47.5249C45.1741 46.2155 47.0134 45.4791 48.9291 45.4619L125.689 44.8319H129.279C130.423 44.773 131.571 44.8098 132.709 44.9419C133.75 45.1391 134.739 45.5513 135.612 46.1522C136.485 46.7532 137.223 47.5296 137.779 48.4319C138.273 49.2497 138.612 50.1514 138.779 51.0919C138.892 51.9604 138.932 52.8368 138.899 53.7119C138.93 54.5157 138.91 55.3207 138.839 56.1219C138.75 56.849 138.548 57.5576 138.239 58.2219C137.742 59.3494 136.968 60.3332 135.989 61.0819C135.277 61.6293 134.475 62.0489 133.619 62.3219C133.087 62.4737 132.541 62.5708 131.989 62.6119H131.439Z" fill="#263238"/>
<path d="M132.86 53.3198C132.86 53.3198 132.86 53.0398 132.69 52.5598C132.484 51.8893 132.066 51.3034 131.5 50.8898C131.051 50.5707 130.523 50.3813 129.974 50.3423C129.425 50.3033 128.875 50.4163 128.386 50.6688C127.896 50.9213 127.486 51.3036 127.199 51.7738C126.913 52.2441 126.761 52.7841 126.761 53.3348C126.761 53.8854 126.913 54.4255 127.199 54.8957C127.486 55.366 127.896 55.7483 128.386 56.0008C128.875 56.2533 129.425 56.3662 129.974 56.3273C130.523 56.2883 131.051 56.0989 131.5 55.7798C132.062 55.3599 132.47 54.7657 132.66 54.0898C132.79 53.6098 132.79 53.3198 132.82 53.3198C132.85 53.3198 132.82 53.3898 132.82 53.5298C132.845 53.7256 132.845 53.9239 132.82 54.1198C132.677 54.858 132.281 55.5231 131.7 55.9998C131.263 56.3518 130.744 56.5869 130.191 56.6831C129.638 56.7793 129.07 56.7334 128.54 56.5498C127.884 56.3233 127.315 55.8995 126.91 55.3366C126.505 54.7738 126.284 54.0994 126.277 53.4059C126.271 52.7125 126.479 52.034 126.873 51.4636C127.268 50.8931 127.829 50.4587 128.48 50.2198C129.006 50.0266 129.572 49.9693 130.126 50.0532C130.681 50.1371 131.204 50.3595 131.65 50.6998C132.246 51.1543 132.661 51.8067 132.82 52.5398C132.866 52.7364 132.89 52.9377 132.89 53.1398C132.88 53.2498 132.88 53.3198 132.86 53.3198Z" fill="#263238"/>
<path d="M134.679 58.83C134.072 58.455 133.534 57.978 133.089 57.42C132.557 56.9456 132.113 56.3801 131.779 55.75C132.381 56.1325 132.915 56.6123 133.359 57.17C133.885 57.649 134.331 58.2095 134.679 58.83Z" fill="#263238"/>
<path d="M54.6694 52.6687H52.9395V52.2188H56.9395V52.6787H55.1994V57.1687H54.6694V52.6687Z" fill="#E0E0E0"/>
<path d="M60.5194 55.4024H57.4194C57.445 55.7669 57.6142 56.1063 57.8898 56.3463C58.1653 56.5862 58.5248 56.7071 58.8894 56.6824C59.1027 56.6854 59.314 56.6422 59.5091 56.5559C59.7041 56.4696 59.8782 56.3422 60.0194 56.1824L60.3094 56.5024C60.0389 56.7668 59.6989 56.9491 59.329 57.0281C58.9591 57.1071 58.5743 57.0796 58.2194 56.9487C57.8644 56.8179 57.5539 56.589 57.3238 56.2887C57.0937 55.9885 56.9535 55.6291 56.9194 55.2524C56.9043 55.0074 56.9398 54.7619 57.0236 54.5312C57.1074 54.3005 57.2377 54.0894 57.4066 53.9112C57.5754 53.7331 57.779 53.5915 58.0049 53.4953C58.2307 53.3992 58.4739 53.3505 58.7194 53.3524C58.9634 53.345 59.2062 53.3885 59.4324 53.4801C59.6587 53.5716 59.8634 53.7092 60.0336 53.8841C60.2039 54.059 60.3358 54.2675 60.4212 54.4961C60.5065 54.7248 60.5434 54.9687 60.5294 55.2124C60.5294 55.2924 60.5194 55.3424 60.5194 55.4024ZM57.4194 55.0524H60.0494C60.0207 54.7234 59.8697 54.4171 59.6263 54.194C59.3828 53.9709 59.0646 53.8471 58.7344 53.8471C58.4042 53.8471 58.086 53.9709 57.8425 54.194C57.5991 54.4171 57.4481 54.7234 57.4194 55.0524Z" fill="#E0E0E0"/>
<path d="M63.8304 57.0694L62.6304 55.5294L61.4604 57.0894H60.9004L62.3504 55.1694L60.9404 53.3794H61.5004L62.6304 54.8194L63.7304 53.3594H64.2804L62.9004 55.1694L64.4004 57.0694H63.8304Z" fill="#E0E0E0"/>
<path d="M67.1806 56.8195C66.9594 56.9953 66.6831 57.0874 66.4006 57.0795C66.2549 57.0932 66.108 57.0748 65.9702 57.0255C65.8324 56.9762 65.7072 56.8973 65.6032 56.7943C65.4993 56.6913 65.4192 56.5667 65.3686 56.4294C65.3181 56.2921 65.2983 56.1453 65.3106 55.9995V53.7595H64.6406V53.3295H65.3006V52.5195H65.8106V53.3295H66.9406V53.7595H65.7906V55.9695C65.7906 56.4095 66.0206 56.6495 66.4306 56.6395C66.6313 56.6475 66.8276 56.5797 66.9806 56.4495L67.1806 56.8195Z" fill="#E0E0E0"/>
<path d="M67.172 77.8691L45.8828 78.0586L46.0723 99.3477L67.3615 99.1582L67.172 77.8691Z" fill="#075471"/>
<path d="M108.13 79.6615C108.13 79.7615 101.02 79.9014 92.2398 79.9814C83.4598 80.0614 76.3398 80.0414 76.3398 79.9814C76.3398 79.9214 83.4499 79.7415 92.2299 79.6615C101.01 79.5815 108.13 79.5615 108.13 79.6615Z" fill="#075471"/>
<path d="M133.551 86.0021C133.551 86.1021 120.751 86.3021 104.971 86.4421C89.1906 86.5821 76.3906 86.6121 76.3906 86.5121C76.3906 86.4121 89.1806 86.2121 104.971 86.0721C120.761 85.9321 133.551 85.8621 133.551 86.0021Z" fill="#263238"/>
<path d="M132.92 90.6292C132.92 90.7292 120.27 90.9192 104.68 91.0592C89.0897 91.1992 76.4297 91.2292 76.4297 91.1292C76.4297 91.0292 89.0697 90.8392 104.67 90.6992C120.27 90.5592 132.92 90.5292 132.92 90.6292Z" fill="#263238"/>
<path d="M109.821 95.2821C109.821 95.3821 102.361 95.5321 93.1507 95.6121C83.9407 95.6921 76.4707 95.6721 76.4707 95.6121C76.4707 95.5521 83.9407 95.3721 93.1507 95.2921C102.361 95.2121 109.821 95.1821 109.821 95.2821Z" fill="#263238"/>
<path d="M67.6728 113.096L46.3828 113.309L46.5957 134.599L67.8857 134.386L67.6728 113.096Z" fill="#075471"/>
<path d="M108.45 115.131C108.45 115.231 101.33 115.381 92.5504 115.451C83.7704 115.521 76.6504 115.511 76.6504 115.451C76.6504 115.391 83.7604 115.211 92.5504 115.131C101.34 115.051 108.45 115.001 108.45 115.131Z" fill="#075471"/>
<path d="M133.861 121.432C133.861 121.532 121.071 121.732 105.291 121.872C89.5109 122.012 76.7109 122.042 76.7109 121.942C76.7109 121.842 89.5009 121.642 105.281 121.512C121.061 121.382 133.861 121.332 133.861 121.432Z" fill="#263238"/>
<path d="M133.23 126.102C133.23 126.202 120.59 126.392 104.99 126.532C89.39 126.672 76.75 126.702 76.75 126.602C76.75 126.502 89.39 126.312 104.99 126.172C120.59 126.032 133.23 126.002 133.23 126.102Z" fill="#263238"/>
<path d="M110.129 130.751C110.129 130.851 102.669 131.001 93.4591 131.081C84.2491 131.161 76.7891 131.151 76.7891 131.081C76.7891 131.011 84.2491 130.831 93.4591 130.751C102.669 130.671 110.129 130.651 110.129 130.751Z" fill="#263238"/>
<path d="M67.8028 148.67L46.5137 148.859L46.7032 170.149L67.9923 169.959L67.8028 148.67Z" fill="#455A64"/>
<path d="M108.761 150.599C108.761 150.699 101.641 150.849 92.8609 150.919C84.0809 150.989 76.9609 150.979 76.9609 150.919C76.9609 150.859 84.0809 150.679 92.8609 150.599C101.641 150.519 108.761 150.499 108.761 150.599Z" fill="#075471"/>
<path d="M134.17 156.91C134.17 157.01 121.38 157.2 105.6 157.34C89.8195 157.48 77.0195 157.51 77.0195 157.41C77.0195 157.31 89.8095 157.12 105.6 156.98C121.39 156.84 134.17 156.81 134.17 156.91Z" fill="#263238"/>
<path d="M133.541 161.571C133.541 161.671 120.901 161.861 105.301 162.001C89.7006 162.141 77.0605 162.171 77.0605 162.071C77.0605 161.971 89.7006 161.781 105.301 161.641C120.901 161.501 133.541 161.471 133.541 161.571Z" fill="#263238"/>
<path d="M110.45 166.22C110.45 166.32 102.98 166.47 93.7796 166.55C84.5796 166.63 77.0996 166.62 77.0996 166.55C77.0996 166.48 84.5596 166.3 93.7696 166.22C102.98 166.14 110.45 166.12 110.45 166.22Z" fill="#263238"/>
<path d="M68.1173 184.139L46.8281 184.328L47.0176 205.617L68.3068 205.428L68.1173 184.139Z" fill="#075471"/>
<path d="M109.07 186.072C109.07 186.172 101.96 186.322 93.1795 186.392C84.3995 186.462 77.2695 186.452 77.2695 186.392C77.2695 186.332 84.3895 186.152 93.1695 186.072C101.95 185.992 109.07 186.002 109.07 186.072Z" fill="#455A64"/>
<path d="M134.49 192.379C134.49 192.479 121.69 192.669 105.91 192.809C90.1301 192.949 77.3301 192.979 77.3301 192.879C77.3301 192.779 90.1201 192.589 105.91 192.449C121.7 192.309 134.49 192.279 134.49 192.379Z" fill="#263238"/>
<path d="M133.849 196.999C133.849 197.099 121.209 197.299 105.619 197.429C90.0291 197.559 77.3691 197.599 77.3691 197.499C77.3691 197.399 90.0091 197.209 105.609 197.069C121.209 196.929 133.849 196.939 133.849 196.999Z" fill="#263238"/>
<path d="M110.76 201.689C110.76 201.789 103.3 201.939 94.0901 202.019C84.8801 202.099 77.4102 202.089 77.4102 202.019C77.4102 201.949 84.8702 201.769 94.0802 201.689C103.29 201.609 110.76 201.589 110.76 201.689Z" fill="#263238"/>
<path d="M68.7373 219.514L47.4473 219.727L47.6602 241.017L68.9502 240.804L68.7373 219.514Z" fill="#E0E0E0"/>
<path d="M109.39 221.539C109.39 221.639 102.27 221.789 93.4898 221.869C84.7098 221.949 77.5898 221.919 77.5898 221.819C77.5898 221.719 84.6999 221.579 93.4799 221.499C102.26 221.419 109.38 221.439 109.39 221.539Z" fill="#E0E0E0"/>
<path d="M134.801 227.852C134.801 227.952 122.001 228.142 106.221 228.282C90.4406 228.422 77.6406 228.452 77.6406 228.352C77.6406 228.252 90.4406 228.062 106.221 227.922C122.001 227.782 134.801 227.752 134.801 227.852Z" fill="#EBEBEB"/>
<path d="M134.17 232.512C134.17 232.612 121.52 232.812 105.93 232.942C90.3397 233.072 77.6897 233.112 77.6797 233.012C77.6697 232.912 90.3297 232.722 105.93 232.582C121.53 232.442 134.17 232.412 134.17 232.512Z" fill="#EBEBEB"/>
<path d="M111.071 237.161C111.071 237.261 103.611 237.411 94.4007 237.491C85.1907 237.571 77.7207 237.561 77.7207 237.491C77.7207 237.421 85.1907 237.241 94.4007 237.161C103.611 237.081 111.071 237.061 111.071 237.161Z" fill="#EBEBEB"/>
<g opacity="0.3">
<path d="M68.1173 184.139L46.8281 184.328L47.0176 205.617L68.3068 205.428L68.1173 184.139Z" fill="black"/>
</g>
<path d="M385.371 243.352L373.531 243.272C373.144 243.278 372.762 243.361 372.407 243.515C372.052 243.67 371.731 243.893 371.463 244.171C371.194 244.45 370.984 244.779 370.843 245.14C370.701 245.5 370.633 245.885 370.641 246.272V248.412C370.65 248.799 370.583 249.184 370.442 249.545C370.301 249.906 370.091 250.236 369.822 250.515C369.553 250.794 369.232 251.017 368.876 251.171C368.521 251.324 368.138 251.406 367.751 251.412L344.691 251.252C343.915 251.231 343.178 250.903 342.642 250.341C342.106 249.779 341.815 249.028 341.831 248.252V246.112C341.832 245.34 341.535 244.597 341.002 244.038C340.47 243.48 339.742 243.148 338.971 243.112H334.811L324.461 243.032C323.239 243.021 322.027 243.251 320.894 243.71C319.76 244.168 318.729 244.845 317.858 245.702C316.987 246.56 316.293 247.58 315.816 248.706C315.34 249.831 315.09 251.039 315.081 252.262L314.221 348.262C314.213 349.482 314.446 350.693 314.906 351.824C315.366 352.954 316.045 353.983 316.903 354.852C317.761 355.72 318.782 356.411 319.907 356.884C321.033 357.358 322.24 357.605 323.461 357.612L384.371 358.032C385.593 358.043 386.805 357.814 387.938 357.357C389.071 356.9 390.102 356.224 390.973 355.367C391.845 354.511 392.539 353.491 393.015 352.366C393.492 351.241 393.742 350.033 393.751 348.812L394.611 252.812C394.632 251.582 394.409 250.36 393.955 249.217C393.501 248.074 392.825 247.033 391.965 246.153C391.106 245.273 390.081 244.573 388.949 244.092C387.817 243.611 386.601 243.359 385.371 243.352Z" fill="white"/>
<path d="M385.37 243.351H386.37C387.333 243.462 388.274 243.718 389.16 244.111C390.873 244.888 392.313 246.161 393.293 247.766C394.274 249.371 394.75 251.233 394.66 253.111C394.58 262.821 394.46 276.851 394.32 294.191C394.25 302.861 394.17 312.361 394.08 322.561C394.04 327.661 393.994 332.931 393.94 338.371C393.94 341.081 393.94 343.841 393.87 346.631C393.941 348.045 393.837 349.463 393.56 350.851C393.198 352.256 392.513 353.557 391.56 354.651C390.602 355.755 389.405 356.627 388.06 357.201C386.691 357.758 385.216 358.007 383.74 357.931L374.83 357.871L356.46 357.751L337.46 357.621L327.72 357.551C326.09 357.551 324.46 357.551 322.8 357.481C321.127 357.358 319.518 356.788 318.14 355.831C316.769 354.867 315.679 353.555 314.98 352.031C314.3 350.517 314.004 348.858 314.12 347.201C314.12 343.935 314.15 340.688 314.21 337.461C314.27 331.015 314.327 324.681 314.38 318.461C314.5 305.981 314.61 293.941 314.71 282.461C314.757 276.728 314.81 271.141 314.87 265.701C314.87 262.991 314.92 260.311 314.94 257.701C314.94 256.381 314.94 255.071 314.94 253.771C314.88 252.48 314.98 251.187 315.24 249.921C315.552 248.692 316.11 247.54 316.88 246.532C317.65 245.525 318.616 244.685 319.72 244.061C320.789 243.451 321.969 243.06 323.19 242.911C324.41 242.781 325.6 242.861 326.79 242.851L333.74 242.901H337.11H338.77C339.33 242.882 339.885 243.021 340.37 243.301C340.839 243.59 341.224 243.997 341.486 244.481C341.748 244.966 341.877 245.511 341.86 246.061C341.86 246.591 341.86 247.121 341.86 247.641C341.811 248.15 341.866 248.664 342.02 249.151C342.181 249.625 342.463 250.048 342.839 250.378C343.214 250.708 343.67 250.933 344.16 251.031C345.16 251.131 346.16 251.031 347.16 251.101L358.16 251.181L367.76 251.261C368.461 251.236 369.128 250.957 369.64 250.477C370.151 249.998 370.471 249.349 370.54 248.651C370.54 247.991 370.54 247.321 370.54 246.651C370.493 246.021 370.603 245.389 370.86 244.811C371.119 244.291 371.523 243.858 372.024 243.563C372.525 243.268 373.1 243.125 373.68 243.151H376.68H381.4L385.3 243.201H381.4H376.68H373.68C373.113 243.17 372.55 243.309 372.062 243.599C371.574 243.889 371.184 244.318 370.94 244.831C370.684 245.395 370.578 246.015 370.63 246.631C370.63 247.281 370.63 247.931 370.63 248.631C370.559 249.35 370.23 250.019 369.704 250.515C369.179 251.011 368.492 251.301 367.77 251.331L358.16 251.271L347.16 251.201C346.16 251.201 345.16 251.201 344.16 251.131C343.642 251.026 343.161 250.785 342.766 250.434C342.371 250.083 342.076 249.633 341.91 249.131C341.751 248.628 341.693 248.097 341.74 247.571C341.74 247.051 341.74 246.521 341.74 245.991C341.753 245.466 341.628 244.947 341.377 244.485C341.126 244.024 340.758 243.636 340.31 243.361C339.848 243.089 339.316 242.957 338.78 242.981H337.13H333.76L326.81 242.931C325.617 242.891 324.422 242.911 323.23 242.991C321.388 243.221 319.657 244.001 318.265 245.23C316.873 246.46 315.885 248.081 315.43 249.881C315.174 251.137 315.073 252.42 315.13 253.701C315.13 254.991 315.13 256.301 315.13 257.621C315.13 260.251 315.08 262.931 315.06 265.621C315.014 271.048 314.964 276.631 314.91 282.371C314.81 293.841 314.71 305.881 314.6 318.371C314.54 324.611 314.484 330.945 314.43 337.371C314.43 340.591 314.4 343.838 314.34 347.111C314.227 348.738 314.512 350.369 315.17 351.861C315.861 353.348 316.93 354.627 318.27 355.571C319.619 356.507 321.193 357.063 322.83 357.181C324.46 357.261 326.11 357.181 327.74 357.251L337.47 357.321L356.47 357.451L374.84 357.591L383.75 357.651C385.198 357.721 386.644 357.479 387.99 356.941C389.308 356.373 390.48 355.515 391.42 354.431C392.343 353.357 393.003 352.084 393.35 350.711C393.62 349.339 393.721 347.938 393.65 346.541C393.65 343.751 393.71 340.991 393.73 338.281C393.784 332.841 393.834 327.571 393.88 322.471C393.97 312.271 394.06 302.771 394.14 294.101C394.31 276.761 394.45 262.731 394.55 253.011C394.651 250.862 394.008 248.743 392.73 247.011C391.795 245.737 390.549 244.725 389.11 244.071C388.227 243.676 387.29 243.413 386.33 243.291L385.37 243.351Z" fill="#263238"/>
<path d="M386.645 270.817L322.285 270.66L322.176 315.35L386.536 315.507L386.645 270.817Z" fill="#075471"/>
<path d="M356.273 302.135C361.331 301.122 364.61 296.2 363.596 291.142C362.583 286.085 357.661 282.806 352.603 283.819C347.545 284.833 344.267 289.754 345.28 294.812C346.294 299.87 351.215 303.149 356.273 302.135Z" fill="white"/>
<path d="M352.129 292.98L352.139 288.77L355.779 290.88L359.419 292.99L355.769 295.09L352.119 297.18L352.129 292.98Z" fill="#075471"/>
<path d="M329.15 322.001V321.281C329.15 321.266 329.154 321.251 329.162 321.237C329.169 321.224 329.18 321.213 329.193 321.205C329.206 321.197 329.221 321.192 329.236 321.191C329.252 321.191 329.267 321.194 329.28 321.201L329.9 321.561L330.52 321.931C330.533 321.938 330.543 321.948 330.551 321.96C330.558 321.972 330.562 321.987 330.562 322.001C330.562 322.015 330.558 322.029 330.551 322.041C330.543 322.054 330.533 322.064 330.52 322.071L329.9 322.431L329.27 322.791C329.258 322.798 329.244 322.802 329.23 322.802C329.216 322.801 329.202 322.798 329.19 322.791C329.178 322.784 329.168 322.773 329.161 322.761C329.154 322.749 329.15 322.735 329.15 322.721V322.001Z" fill="#263238"/>
<path d="M335 321.491H334.46C334.448 321.491 334.437 321.493 334.426 321.498C334.416 321.503 334.407 321.509 334.399 321.518C334.392 321.527 334.386 321.537 334.382 321.547C334.379 321.558 334.378 321.57 334.38 321.581V322.581C334.382 322.603 334.393 322.624 334.409 322.638C334.426 322.653 334.447 322.661 334.47 322.661H335L335.83 323.501V320.701L335 321.491Z" fill="#263238"/>
<path d="M330.999 322.9C330.962 322.9 330.927 322.885 330.9 322.859C330.874 322.833 330.859 322.797 330.859 322.76V321.32C330.859 321.28 330.875 321.242 330.903 321.214C330.931 321.186 330.97 321.17 331.009 321.17C331.047 321.172 331.083 321.189 331.109 321.217C331.135 321.245 331.149 321.282 331.149 321.32V322.76C331.147 322.798 331.13 322.834 331.102 322.86C331.074 322.886 331.037 322.9 330.999 322.9Z" fill="#263238"/>
<path d="M336.17 321.18V322.93C336.345 322.856 336.495 322.734 336.603 322.578C336.711 322.422 336.772 322.239 336.78 322.05C336.779 321.86 336.72 321.675 336.611 321.519C336.502 321.363 336.348 321.245 336.17 321.18Z" fill="#263238"/>
<path d="M336.17 320.51V320.88C336.425 320.952 336.648 321.105 336.807 321.317C336.966 321.528 337.051 321.785 337.05 322.05C337.048 322.316 336.96 322.574 336.8 322.787C336.64 322.999 336.416 323.155 336.16 323.23V323.59C336.517 323.519 336.837 323.327 337.068 323.046C337.299 322.765 337.425 322.413 337.425 322.05C337.425 321.686 337.299 321.334 337.068 321.053C336.837 320.773 336.517 320.58 336.16 320.51H336.17Z" fill="#263238"/>
<path d="M340.681 321.49V323.18H340.441V321.7H340.061V321.49H340.681Z" fill="#263238"/>
<path d="M341 322.051C341 322.029 341.004 322.007 341.013 321.987C341.021 321.967 341.034 321.949 341.05 321.934C341.066 321.919 341.085 321.908 341.105 321.9C341.126 321.893 341.148 321.89 341.17 321.891C341.212 321.891 341.253 321.908 341.283 321.938C341.313 321.968 341.33 322.008 341.33 322.051C341.331 322.073 341.328 322.095 341.321 322.115C341.313 322.136 341.302 322.155 341.287 322.171C341.272 322.187 341.253 322.199 341.233 322.208C341.213 322.217 341.192 322.221 341.17 322.221C341.147 322.221 341.125 322.217 341.105 322.208C341.084 322.199 341.065 322.187 341.05 322.171C341.034 322.155 341.021 322.137 341.013 322.116C341.004 322.095 341 322.073 341 322.051ZM341 323.051C341 323.029 341.004 323.007 341.013 322.987C341.021 322.967 341.034 322.949 341.05 322.934C341.066 322.919 341.085 322.908 341.105 322.9C341.126 322.893 341.148 322.89 341.17 322.891C341.212 322.891 341.253 322.908 341.283 322.938C341.313 322.968 341.33 323.008 341.33 323.051C341.33 323.094 341.313 323.136 341.284 323.168C341.254 323.199 341.213 323.218 341.17 323.221C341.143 323.222 341.115 323.217 341.091 323.205C341.066 323.194 341.044 323.177 341.028 323.155C341.011 323.133 341 323.108 340.995 323.081C340.99 323.055 340.992 323.027 341 323.001V323.051Z" fill="#263238"/>
<path d="M341.6 322.341C341.6 321.781 341.89 321.471 342.29 321.471C342.69 321.471 342.98 321.791 342.98 322.341C342.98 322.891 342.68 323.211 342.29 323.211C341.9 323.211 341.6 322.891 341.6 322.341ZM342.74 322.341C342.74 321.911 342.56 321.691 342.29 321.691C342.02 321.691 341.84 321.901 341.84 322.341C341.84 322.781 342.02 322.991 342.29 322.991C342.56 322.991 342.74 322.771 342.74 322.341Z" fill="#263238"/>
<path d="M343.729 321.49V323.19H343.489V321.7H343.109V321.49H343.729Z" fill="#263238"/>
<path d="M345.371 321.15H345.581L344.781 323.43H344.561L345.371 321.15Z" fill="#263238"/>
<path d="M347.59 322.72C347.59 323.03 347.33 323.22 346.91 323.22C346.49 323.22 346.24 323.02 346.24 322.72C346.239 322.629 346.267 322.539 346.321 322.465C346.375 322.391 346.452 322.337 346.54 322.31C346.47 322.279 346.41 322.226 346.369 322.161C346.328 322.095 346.307 322.018 346.31 321.94C346.31 321.66 346.55 321.48 346.92 321.48C347.29 321.48 347.53 321.66 347.53 321.94C347.534 322.019 347.513 322.098 347.469 322.164C347.426 322.23 347.364 322.281 347.29 322.31C347.379 322.335 347.457 322.389 347.511 322.463C347.566 322.538 347.594 322.628 347.59 322.72ZM347.35 322.72C347.35 322.53 347.18 322.42 346.92 322.42C346.66 322.42 346.49 322.53 346.49 322.72C346.49 322.91 346.65 323.03 346.91 323.03C347.17 323.03 347.35 322.9 347.35 322.71V322.72ZM346.55 321.96C346.55 322.13 346.68 322.23 346.92 322.23C347.16 322.23 347.29 322.13 347.29 321.96C347.29 321.79 347.15 321.69 346.92 321.69C346.69 321.69 346.55 321.78 346.55 322V321.96Z" fill="#263238"/>
<path d="M347.811 322.07C347.81 322.027 347.827 321.985 347.857 321.954C347.887 321.922 347.927 321.903 347.971 321.9C348.016 321.9 348.059 321.918 348.091 321.95C348.123 321.982 348.141 322.025 348.141 322.07C348.141 322.115 348.123 322.159 348.091 322.191C348.059 322.222 348.016 322.24 347.971 322.24C347.927 322.238 347.887 322.219 347.857 322.187C347.827 322.156 347.81 322.114 347.811 322.07ZM347.811 323.07C347.811 323.028 347.827 322.987 347.857 322.957C347.887 322.927 347.928 322.91 347.971 322.91C348.013 322.91 348.054 322.927 348.084 322.957C348.114 322.987 348.131 323.028 348.131 323.07C348.131 323.113 348.114 323.154 348.084 323.184C348.054 323.214 348.013 323.23 347.971 323.23C347.928 323.23 347.887 323.214 347.857 323.184C347.827 323.154 347.811 323.113 347.811 323.07Z" fill="#263238"/>
<path d="M348.359 322.35C348.359 321.8 348.659 321.49 349.059 321.49C349.459 321.49 349.749 321.8 349.749 322.36C349.749 322.92 349.449 323.22 349.049 323.22C348.649 323.22 348.359 322.91 348.359 322.35ZM349.499 322.35C349.499 321.91 349.319 321.69 349.059 321.69C348.799 321.69 348.609 321.91 348.609 322.34C348.609 322.77 348.789 323 349.049 323C349.309 323 349.499 322.79 349.499 322.36V322.35Z" fill="#263238"/>
<path d="M350 322.36C350 321.8 350.3 321.49 350.69 321.49C351.08 321.49 351.38 321.81 351.38 322.36C351.38 322.91 351.08 323.23 350.69 323.23C350.3 323.23 350 322.91 350 322.36ZM351.14 322.36C351.14 321.93 350.96 321.71 350.69 321.71C350.42 321.71 350.24 321.92 350.24 322.36C350.24 322.8 350.42 323.01 350.69 323.01C350.96 323.01 351.12 322.79 351.12 322.36H351.14Z" fill="#263238"/>
<path d="M323.001 322.9C322.926 322.895 322.857 322.863 322.805 322.809C322.753 322.756 322.723 322.685 322.721 322.61V321.12C322.721 321.082 322.728 321.044 322.743 321.009C322.757 320.974 322.779 320.942 322.806 320.915C322.833 320.888 322.865 320.867 322.9 320.852C322.935 320.838 322.973 320.83 323.011 320.83C323.048 320.83 323.086 320.838 323.12 320.852C323.155 320.867 323.186 320.889 323.212 320.916C323.238 320.943 323.259 320.975 323.272 321.01C323.286 321.045 323.292 321.082 323.291 321.12V322.61C323.291 322.687 323.26 322.761 323.206 322.815C323.151 322.87 323.078 322.9 323.001 322.9Z" fill="#263238"/>
<path d="M324.261 322.9C324.223 322.9 324.186 322.893 324.151 322.878C324.116 322.863 324.085 322.842 324.059 322.815C324.033 322.788 324.012 322.755 323.999 322.72C323.986 322.685 323.979 322.648 323.981 322.61V321.12C323.981 321.043 324.011 320.969 324.066 320.915C324.12 320.861 324.194 320.83 324.271 320.83C324.346 320.833 324.417 320.864 324.469 320.918C324.522 320.973 324.551 321.045 324.551 321.12V322.61C324.551 322.687 324.52 322.761 324.466 322.815C324.411 322.87 324.338 322.9 324.261 322.9Z" fill="#263238"/>
<path d="M386.239 319.46L322.799 319.31C322.638 319.31 322.483 319.246 322.368 319.131C322.254 319.017 322.189 318.862 322.189 318.7C322.189 318.538 322.254 318.383 322.368 318.269C322.483 318.154 322.638 318.09 322.799 318.09L386.249 318.24C386.33 318.24 386.409 318.256 386.483 318.286C386.557 318.317 386.624 318.362 386.681 318.419C386.737 318.475 386.782 318.542 386.813 318.616C386.844 318.69 386.859 318.77 386.859 318.85C386.859 318.931 386.843 319.011 386.812 319.086C386.781 319.16 386.735 319.228 386.677 319.285C386.62 319.342 386.551 319.386 386.476 319.416C386.401 319.446 386.32 319.461 386.239 319.46Z" fill="#E0E0E0"/>
<path d="M346.119 319.36L322.799 319.31C322.638 319.31 322.483 319.246 322.368 319.131C322.254 319.017 322.189 318.862 322.189 318.7C322.189 318.538 322.254 318.383 322.368 318.269C322.483 318.154 322.638 318.09 322.799 318.09L346.119 318.14C346.26 318.14 346.395 318.196 346.494 318.295C346.594 318.394 346.649 318.529 346.649 318.67V318.84C346.649 318.909 346.636 318.977 346.609 319.041C346.582 319.105 346.543 319.163 346.494 319.211C346.444 319.26 346.386 319.298 346.322 319.323C346.257 319.349 346.189 319.361 346.119 319.36Z" fill="#075471"/>
<path d="M347.27 318.76C347.264 319.068 347.139 319.361 346.921 319.578C346.702 319.795 346.407 319.918 346.1 319.92C345.868 319.92 345.641 319.851 345.449 319.722C345.256 319.593 345.106 319.41 345.018 319.195C344.93 318.981 344.907 318.745 344.953 318.518C344.999 318.291 345.111 318.082 345.276 317.919C345.441 317.756 345.65 317.645 345.878 317.601C346.105 317.557 346.341 317.582 346.554 317.672C346.768 317.762 346.95 317.914 347.077 318.107C347.205 318.301 347.272 318.528 347.27 318.76Z" fill="#075471"/>
<path d="M386.35 330.7C386.35 330.85 372.17 330.93 354.69 330.89C337.21 330.85 323 330.7 323 330.55C323 330.4 337.18 330.33 354.67 330.37C372.16 330.41 386.35 330.56 386.35 330.7Z" fill="#263238"/>
<path d="M386.34 337.001C386.34 337.151 372.16 337.231 354.67 337.191C337.18 337.151 323 337.001 323 336.811C323 336.621 337.17 336.591 354.66 336.631C372.15 336.671 386.34 336.821 386.34 337.001Z" fill="#263238"/>
<path d="M386.32 343.22C386.32 343.37 372.14 343.45 354.66 343.41C337.18 343.37 322.99 343.22 322.99 343.07C322.99 342.92 337.17 342.85 354.66 342.89C372.15 342.93 386.32 343.08 386.32 343.22Z" fill="#263238"/>
<path d="M385.769 70.5609L373.929 70.5009C373.543 70.5087 373.162 70.5925 372.809 70.7475C372.455 70.9025 372.135 71.1256 371.868 71.4042C371.6 71.6828 371.39 72.0114 371.25 72.3711C371.109 72.7309 371.041 73.1148 371.049 73.5009V75.6409C371.057 76.0278 370.989 76.4125 370.848 76.7729C370.706 77.1333 370.496 77.4623 370.227 77.741C369.959 78.0197 369.638 78.2427 369.283 78.3971C368.928 78.5516 368.546 78.6344 368.159 78.6409L345.099 78.5309C344.714 78.5218 344.335 78.437 343.983 78.2813C343.631 78.1256 343.313 77.902 343.048 77.6234C342.782 77.3449 342.574 77.0167 342.435 76.6576C342.296 76.2986 342.23 75.9157 342.239 75.5309V73.3909C342.24 72.6189 341.943 71.8763 341.411 71.3176C340.878 70.7588 340.15 70.4269 339.379 70.3909H335.209H324.859C323.637 70.3817 322.426 70.6135 321.294 71.0731C320.162 71.5327 319.132 72.2111 318.263 73.0694C317.393 73.9276 316.701 74.949 316.227 76.0749C315.753 77.2008 315.506 78.4092 315.499 79.6309L314.869 228.571C314.864 231.036 315.837 233.402 317.575 235.149C319.314 236.897 321.674 237.883 324.139 237.891L385.049 238.171C386.27 238.179 387.48 237.946 388.611 237.486C389.742 237.026 390.771 236.347 391.639 235.489C392.508 234.631 393.198 233.61 393.672 232.485C394.146 231.359 394.393 230.152 394.399 228.931L394.999 79.8809C395.005 77.423 394.037 75.0629 392.307 73.3165C390.578 71.5701 388.227 70.5794 385.769 70.5609Z" fill="white"/>
<path d="M385.77 70.559H386.09C386.404 70.5637 386.719 70.5904 387.03 70.639C388.262 70.7928 389.448 71.2052 390.51 71.849C392.255 72.8911 393.616 74.4697 394.39 76.349C394.865 77.5479 395.096 78.8296 395.07 80.119C395.07 81.489 395.07 82.959 395.07 84.499C395.02 96.889 394.96 114.799 394.88 136.939C394.8 159.079 394.69 185.429 394.57 214.699C394.57 218.359 394.57 222.059 394.52 225.809C394.47 227.669 394.69 229.599 394.12 231.449C393.833 232.366 393.419 233.237 392.89 234.039C392.327 234.831 391.654 235.539 390.89 236.139C389.349 237.358 387.462 238.058 385.5 238.139C383.56 238.139 381.62 238.139 379.67 238.139L367.83 238.079L343.55 237.999L331.13 237.949H324.85C322.72 238.055 320.614 237.465 318.85 236.269C317.084 235.042 315.79 233.25 315.18 231.189C314.889 230.172 314.761 229.116 314.8 228.059C314.8 227.009 314.8 225.969 314.8 224.919C314.8 220.752 314.82 216.612 314.86 212.499C314.86 204.266 314.893 196.166 314.96 188.199C315.03 172.269 315.1 156.909 315.16 142.269C315.22 127.629 315.29 113.719 315.35 100.709C315.35 94.1956 315.376 87.9156 315.43 81.869C315.35 80.3694 315.448 78.8658 315.72 77.389C316.07 75.9525 316.755 74.6195 317.72 73.499C318.675 72.4071 319.864 71.5456 321.2 70.979C322.515 70.4574 323.925 70.2156 325.34 70.269H333.44H337.33H339.24C339.886 70.2523 340.521 70.4452 341.05 70.819C341.562 71.2004 341.943 71.7316 342.14 72.339C342.292 72.9362 342.346 73.5543 342.3 74.169C342.264 74.7651 342.264 75.3628 342.3 75.959C342.382 76.5372 342.636 77.0773 343.03 77.509C343.412 77.9377 343.919 78.2352 344.48 78.359C345.043 78.436 345.612 78.4627 346.18 78.439H349.53L361.79 78.509H367.19C367.62 78.509 368.05 78.509 368.46 78.509C368.865 78.4641 369.255 78.3273 369.6 78.109C370.264 77.6784 370.731 77.0026 370.9 76.229C370.982 75.4886 371.015 74.7437 371 73.999C370.933 73.2827 371.079 72.5625 371.42 71.929C371.753 71.3391 372.285 70.8858 372.92 70.649C373.515 70.4667 374.14 70.4055 374.76 70.469H380.76L385.76 70.519H380.76H374.76C374.147 70.4595 373.529 70.5206 372.94 70.699C372.321 70.9358 371.804 71.3815 371.48 71.959C371.151 72.5713 371.008 73.2666 371.07 73.959C371.101 74.713 371.077 75.4683 371 76.219C370.919 76.6161 370.759 76.9927 370.528 77.3261C370.298 77.6596 370.002 77.9429 369.66 78.159C369.305 78.3837 368.906 78.5271 368.49 78.579C368.06 78.579 367.64 78.579 367.21 78.579H361.81H349.55H346.2C345.622 78.6018 345.043 78.575 344.47 78.499C343.886 78.3677 343.357 78.0564 342.96 77.609C342.546 77.1628 342.277 76.6013 342.19 75.999C342.12 75.389 342.19 74.799 342.19 74.189C342.236 73.5881 342.185 72.9837 342.04 72.399C341.859 71.8265 341.511 71.3214 341.04 70.949C340.04 70.159 338.66 70.489 337.4 70.409H333.51H325.4C324.008 70.3598 322.622 70.6016 321.33 71.119C320.016 71.6757 318.847 72.5238 317.91 73.599C316.942 74.6943 316.255 76.0088 315.91 77.429C315.636 78.8921 315.539 80.3827 315.62 81.869C315.62 87.9223 315.596 94.2023 315.55 100.709C315.5 113.709 315.44 127.629 315.38 142.269C315.32 156.909 315.26 172.269 315.19 188.199C315.19 196.159 315.156 204.259 315.09 212.499C315.09 216.612 315.073 220.752 315.04 224.919C315.04 225.969 315.04 227.009 315.04 228.059C314.997 229.096 315.122 230.132 315.41 231.129C316.001 233.156 317.268 234.92 319 236.129C320.737 237.307 322.813 237.883 324.91 237.769H331.19L343.61 237.829L367.9 237.939L379.74 237.999C381.69 237.999 383.64 237.999 385.56 237.999C387.479 237.921 389.326 237.242 390.84 236.059C391.578 235.468 392.228 234.774 392.77 233.999C393.294 233.219 393.702 232.367 393.98 231.469C394.54 229.659 394.32 227.749 394.38 225.879C394.38 222.129 394.38 218.429 394.43 214.769C394.56 185.499 394.68 159.149 394.78 137.009C394.88 114.869 394.97 97.009 395.03 84.569C394.97 81.499 395.39 78.659 394.39 76.439C393.626 74.5707 392.279 72.9993 390.55 71.959C389.492 71.3097 388.31 70.8906 387.08 70.729C386.771 70.6834 386.461 70.6534 386.15 70.639L385.77 70.559Z" fill="#263238"/>
<path d="M384.62 92.1389C384.62 92.2789 371.76 92.3989 355.89 92.3989C340.02 92.3989 327.16 92.2789 327.16 92.1389C327.16 91.9989 340.02 91.8789 355.89 91.8789C371.76 91.8789 384.62 91.9989 384.62 92.1389Z" fill="#263238"/>
<path d="M382.05 188.031H329.83V224.291H382.05V188.031Z" fill="#075471"/>
<path d="M277.199 107.002H259.469C258.301 107.028 257.191 107.517 256.383 108.361C255.575 109.204 255.135 110.334 255.159 111.502V114.722C255.183 115.888 254.744 117.015 253.938 117.857C253.132 118.698 252.024 119.186 250.859 119.212H216.299C215.721 119.199 215.152 119.072 214.623 118.839C214.094 118.606 213.616 118.271 213.217 117.853C212.818 117.435 212.505 116.943 212.296 116.404C212.087 115.865 211.986 115.29 211.999 114.712V111.492C212.023 110.324 211.583 109.194 210.775 108.351C209.967 107.507 208.857 107.018 207.689 106.992H185.939C182.256 107.008 178.727 108.475 176.117 111.075C173.508 113.675 172.028 117.199 171.999 120.882L171.949 344.622C171.962 348.316 173.435 351.855 176.046 354.468C178.657 357.081 182.195 358.556 185.889 358.572L277.149 358.632C280.845 358.619 284.386 357.145 286.999 354.532C289.612 351.918 291.086 348.378 291.099 344.682L291.149 120.932C291.131 117.24 289.655 113.704 287.042 111.096C284.429 108.487 280.891 107.015 277.199 107.002Z" fill="white"/>
<path d="M277.201 107.002H277.671C278.146 107.004 278.621 107.041 279.091 107.112C280.943 107.331 282.726 107.945 284.321 108.912C285.505 109.606 286.577 110.476 287.501 111.492C288.632 112.71 289.533 114.123 290.161 115.662C290.87 117.462 291.211 119.387 291.161 121.322C291.161 123.382 291.161 125.575 291.161 127.902C291.161 146.482 291.161 173.372 291.211 206.602C291.261 239.832 291.211 279.402 291.211 323.332V344.232C291.236 345.67 291.054 347.105 290.671 348.492C290.285 349.886 289.684 351.212 288.891 352.422C288.085 353.633 287.108 354.721 285.991 355.652C283.698 357.511 280.878 358.603 277.931 358.772C275.011 358.862 272.101 358.772 269.161 358.772H215.001H196.351H186.931C183.711 358.954 180.52 358.072 177.851 356.262C175.192 354.418 173.242 351.723 172.321 348.622C171.884 347.088 171.688 345.496 171.741 343.902V320.552C171.741 308.199 171.741 296.042 171.741 284.082C171.741 260.172 171.741 237.082 171.741 215.142C171.741 193.202 171.741 172.292 171.741 152.752C171.741 142.979 171.741 133.555 171.741 124.482C171.741 123.352 171.741 122.222 171.741 121.102C171.741 120.532 171.741 119.972 171.811 119.402C171.881 118.832 171.961 118.282 172.101 117.742C172.603 115.57 173.607 113.547 175.031 111.832C176.422 110.188 178.171 108.883 180.143 108.016C182.115 107.15 184.258 106.745 186.411 106.832H207.281C208.256 106.786 209.221 107.056 210.031 107.602C210.818 108.155 211.415 108.937 211.741 109.842C212.001 110.737 212.096 111.673 212.021 112.602V113.962C211.99 114.405 211.99 114.849 212.021 115.292C212.12 116.149 212.467 116.959 213.021 117.622C213.579 118.27 214.322 118.731 215.151 118.942C215.562 119.045 215.987 119.089 216.411 119.072H222.731H241.131H249.241C249.881 119.072 250.531 119.072 251.141 119.072C251.745 119.001 252.326 118.796 252.841 118.472C253.346 118.163 253.784 117.754 254.128 117.272C254.472 116.789 254.714 116.241 254.841 115.662C254.937 115.104 254.974 114.538 254.951 113.972V112.302C254.929 111.758 254.952 111.212 255.021 110.672C255.112 110.149 255.292 109.645 255.551 109.182C256.037 108.275 256.826 107.567 257.781 107.182C258.675 106.897 259.617 106.795 260.551 106.882H269.601H275.161H277.061C277.061 106.882 276.411 106.882 275.161 106.882H269.601H260.551C259.63 106.798 258.701 106.9 257.821 107.182C256.903 107.549 256.143 108.224 255.671 109.092C255.42 109.546 255.247 110.04 255.161 110.552C255.097 111.083 255.073 111.618 255.091 112.152V114.002C255.114 114.577 255.077 115.154 254.981 115.722C254.859 116.317 254.619 116.882 254.276 117.384C253.932 117.885 253.492 118.313 252.981 118.642C252.44 118.978 251.833 119.193 251.201 119.272C250.561 119.332 249.931 119.272 249.291 119.272H216.591C216.15 119.288 215.71 119.244 215.281 119.142C214.402 118.923 213.613 118.437 213.021 117.752C212.423 117.056 212.041 116.201 211.921 115.292C211.891 114.839 211.891 114.385 211.921 113.932V112.572C211.99 111.672 211.895 110.768 211.641 109.902C211.339 109.044 210.776 108.302 210.031 107.782C209.264 107.26 208.346 107.007 207.421 107.062H186.511C184.393 106.984 182.286 107.394 180.353 108.262C178.419 109.129 176.711 110.429 175.361 112.062C173.966 113.742 172.983 115.724 172.491 117.852C172.351 118.382 172.311 118.932 172.211 119.472C172.111 120.012 172.141 120.582 172.141 121.142V152.792C172.141 172.332 172.141 193.212 172.141 215.182V284.122C172.141 296.075 172.141 308.232 172.141 320.592V343.902C172.088 345.459 172.281 347.015 172.711 348.512C173.612 351.523 175.504 354.141 178.081 355.942C180.689 357.7 183.8 358.557 186.941 358.382H215.001H251.461H269.221C272.151 358.382 275.091 358.432 277.971 358.382C280.833 358.225 283.575 357.176 285.811 355.382C286.901 354.478 287.855 353.42 288.641 352.242C289.412 351.066 289.995 349.777 290.371 348.422C290.747 347.068 290.926 345.667 290.901 344.262V323.362C290.901 279.432 290.901 239.862 290.971 206.632C291.041 173.402 291.031 146.512 291.051 127.932C291.051 125.599 291.051 123.405 291.051 121.352C291.095 119.431 290.755 117.52 290.051 115.732C289.427 114.209 288.541 112.807 287.431 111.592C286.518 110.577 285.456 109.707 284.281 109.012C282.696 108.042 280.924 107.418 279.081 107.182C278.615 107.102 278.143 107.058 277.671 107.052L277.201 107.002Z" fill="#263238"/>
<path d="M279.999 131.07C279.999 131.13 277.699 131.2 274.849 131.22C271.999 131.24 269.699 131.22 269.699 131.15C269.699 131.08 272.009 131.03 274.849 131C277.689 130.97 279.999 131 279.999 131.07Z" fill="#263238"/>
<path d="M280.06 133.7C280.06 133.76 277.75 133.83 274.91 133.86C272.07 133.89 269.76 133.86 269.76 133.79C269.76 133.72 272.06 133.66 274.9 133.64C277.74 133.62 280.05 133.64 280.06 133.7Z" fill="#263238"/>
<path d="M280.079 136.342C280.079 136.402 277.769 136.472 274.929 136.492C272.089 136.512 269.779 136.492 269.779 136.422C269.779 136.352 272.079 136.302 274.929 136.272C277.779 136.242 280.079 136.282 280.079 136.342Z" fill="#263238"/>
<path d="M182 138H182.22H182.81L185.01 137.95L185 138C185 137.52 185 137 185 136.41C185 136.11 185 135.83 185 135.49C185.035 135.312 185.126 135.151 185.259 135.029C185.392 134.906 185.56 134.83 185.74 134.81C186.09 134.81 186.4 134.81 186.74 134.81C186.941 134.843 187.124 134.947 187.256 135.102C187.388 135.258 187.46 135.456 187.46 135.66V137.98L187.35 137.88H190.13L190.02 137.98C190.02 136.87 190.02 135.71 190.02 134.53V133.65C190.01 133.517 189.97 133.388 189.903 133.274C189.835 133.159 189.742 133.062 189.63 132.99L188.42 131.79L187.25 130.64L186.68 130.08C186.535 129.885 186.337 129.736 186.11 129.65C186.001 129.621 185.887 129.617 185.777 129.638C185.666 129.658 185.561 129.704 185.47 129.77L184.96 130.28L183.96 131.28C183.34 131.93 182.68 132.52 182.21 133.08C182.079 133.396 182.03 133.74 182.07 134.08V135.08C182.07 135.68 182.07 136.21 182.07 136.66C182.07 137.11 182.07 137.39 182.07 137.66C182.078 137.78 182.078 137.9 182.07 138.02C182.07 138.02 182.07 137.91 182.07 137.69V136.69C182.07 136.24 182.07 135.69 182.07 135.11C182.07 134.79 182.07 134.46 182.07 134.11C182.07 133.93 182.07 133.75 182.07 133.56C182.07 133.355 182.125 133.155 182.23 132.98C182.74 132.36 183.35 131.8 183.98 131.13L184.98 130.13C185.16 129.95 185.31 129.78 185.52 129.6C185.633 129.515 185.763 129.456 185.902 129.428C186.04 129.401 186.183 129.405 186.32 129.44C186.582 129.532 186.814 129.694 186.99 129.91L187.56 130.47L188.73 131.62L189.95 132.82C190.061 132.923 190.164 133.033 190.26 133.15C190.351 133.289 190.4 133.453 190.4 133.62C190.4 133.91 190.4 134.21 190.4 134.5C190.4 135.69 190.4 136.84 190.4 137.96V138.07H190.29H187.52H187.41V138C187.41 137.19 187.41 136.41 187.41 135.67C187.414 135.509 187.36 135.352 187.257 135.229C187.154 135.106 187.009 135.024 186.85 135C186.53 135 186.16 135 185.85 135C185.708 135.017 185.575 135.079 185.469 135.176C185.363 135.272 185.29 135.4 185.26 135.54C185.26 135.82 185.26 136.15 185.26 136.43V138.09H185.19H182.96H182V138Z" fill="#263238"/>
<path d="M209.03 280.811H187.74V302.101H209.03V280.811Z" fill="#075471"/>
<path d="M249.999 283.11C249.999 283.21 242.879 283.29 234.099 283.29C225.319 283.29 218.199 283.21 218.199 283.11C218.199 283.01 225.309 282.92 234.099 282.92C242.889 282.92 249.999 283 249.999 283.11Z" fill="#075471"/>
<path d="M275.339 289.631C275.339 289.731 262.549 289.811 246.769 289.811C230.989 289.811 218.189 289.731 218.189 289.631C218.189 289.531 230.979 289.451 246.769 289.451C262.559 289.451 275.339 289.531 275.339 289.631Z" fill="#263238"/>
<path d="M274.669 294.291C274.669 294.391 262.029 294.471 246.429 294.471C230.829 294.471 218.189 294.391 218.189 294.291C218.189 294.191 230.829 294.111 246.429 294.111C262.029 294.111 274.669 294.191 274.669 294.291Z" fill="#263238"/>
<path d="M251.539 298.741C251.539 298.841 244.069 298.921 234.859 298.921C225.649 298.921 218.189 298.841 218.189 298.741C218.189 298.641 225.649 298.561 234.859 298.561C244.069 298.561 251.539 298.641 251.539 298.741Z" fill="#263238"/>
<g opacity="0.3">
<path d="M209.03 280.811H187.74V302.101H209.03V280.811Z" fill="black"/>
</g>
<path d="M209.03 315.471H187.74V336.761H209.03V315.471Z" fill="#075471"/>
<path d="M249.999 317.76C249.999 317.86 242.879 317.94 234.099 317.94C225.319 317.94 218.199 317.86 218.199 317.76C218.199 317.66 225.309 317.58 234.099 317.58C242.889 317.58 249.999 317.66 249.999 317.76Z" fill="#075471"/>
<path d="M275.339 324.28C275.339 324.38 262.549 324.47 246.769 324.47C230.989 324.47 218.189 324.38 218.189 324.28C218.189 324.18 230.979 324.1 246.769 324.1C262.559 324.1 275.339 324.18 275.339 324.28Z" fill="#263238"/>
<path d="M274.669 329.001C274.669 329.101 262.029 329.181 246.429 329.181C230.829 329.181 218.189 329.101 218.189 329.001C218.189 328.901 230.829 328.811 246.429 328.811C262.029 328.811 274.669 328.851 274.669 329.001Z" fill="#263238"/>
<path d="M251.539 333.391C251.539 333.491 244.069 333.571 234.859 333.571C225.649 333.571 218.189 333.491 218.189 333.391C218.189 333.291 225.649 333.211 234.859 333.211C244.069 333.211 251.539 333.291 251.539 333.391Z" fill="#263238"/>
<g opacity="0.3">
<path d="M209.03 315.471H187.74V336.761H209.03V315.471Z" fill="black"/>
</g>
<path d="M199.709 168.226L199.434 217.516L265.013 217.882L265.288 168.593L199.709 168.226Z" fill="#075471"/>
<path d="M198.58 217.512L221.66 186.992L235.74 206.242L245.42 196.052L264.17 217.872L198.58 217.512Z" fill="#075471"/>
<path d="M241.89 183.35C241.884 184.371 241.576 185.367 241.004 186.212C240.432 187.057 239.622 187.714 238.677 188.099C237.732 188.484 236.694 188.58 235.694 188.375C234.694 188.17 233.778 187.673 233.06 186.948C232.343 186.222 231.857 185.299 231.664 184.297C231.47 183.295 231.579 182.258 231.975 181.318C232.371 180.377 233.037 179.575 233.888 179.013C234.74 178.451 235.74 178.154 236.76 178.16C237.438 178.164 238.108 178.302 238.733 178.564C239.357 178.827 239.924 179.211 240.4 179.693C240.876 180.175 241.253 180.746 241.509 181.373C241.765 182.001 241.894 182.673 241.89 183.35Z" fill="#075471"/>
<g opacity="0.2">
<path d="M198.58 217.512L221.66 186.992L235.74 206.242L245.42 196.052L264.17 217.872L198.58 217.512Z" fill="black"/>
</g>
<g opacity="0.2">
<path d="M241.89 183.35C241.884 184.371 241.576 185.367 241.004 186.212C240.432 187.057 239.622 187.714 238.677 188.099C237.732 188.484 236.694 188.58 235.694 188.375C234.694 188.17 233.778 187.673 233.06 186.948C232.343 186.222 231.857 185.299 231.664 184.297C231.47 183.295 231.579 182.258 231.975 181.318C232.371 180.377 233.037 179.575 233.888 179.013C234.74 178.451 235.74 178.154 236.76 178.16C237.438 178.164 238.108 178.302 238.733 178.564C239.357 178.827 239.924 179.211 240.4 179.693C240.876 180.175 241.253 180.746 241.509 181.373C241.765 182.001 241.894 182.673 241.89 183.35Z" fill="black"/>
</g>
<path d="M274.051 227.24C274.051 227.38 255.001 227.5 231.511 227.5C208.021 227.5 188.971 227.38 188.971 227.24C188.971 227.1 208.001 227 231.511 227C255.021 227 274.051 227.1 274.051 227.24Z" fill="#263238"/>
<path d="M274.051 232.78C274.051 232.92 255.001 233.04 231.511 233.04C208.021 233.04 188.971 232.92 188.971 232.78C188.971 232.64 208.021 232.52 231.511 232.52C255.001 232.52 274.051 232.63 274.051 232.78Z" fill="#263238"/>
<path d="M245.379 259.321H217.639C215.711 259.321 213.862 258.555 212.498 257.192C211.135 255.829 210.369 253.979 210.369 252.051C210.369 250.123 211.135 248.274 212.498 246.911C213.862 245.547 215.711 244.781 217.639 244.781H245.379C246.334 244.78 247.28 244.967 248.163 245.332C249.045 245.697 249.847 246.232 250.523 246.908C251.198 247.583 251.734 248.385 252.098 249.268C252.463 250.15 252.65 251.096 252.649 252.051C252.65 253.006 252.463 253.952 252.098 254.835C251.734 255.718 251.198 256.52 250.523 257.195C249.847 257.87 249.045 258.406 248.163 258.771C247.28 259.135 246.334 259.323 245.379 259.321Z" fill="#075471"/>
<path d="M289.941 266.551C289.941 266.691 263.721 266.811 231.381 266.811C199.041 266.811 172.811 266.691 172.811 266.551C172.811 266.411 199.031 266.291 231.381 266.291C263.731 266.291 289.941 266.401 289.941 266.551Z" fill="#E0E0E0"/>
<path d="M255.651 156.209C255.651 156.359 244.841 156.469 231.511 156.469C218.181 156.469 207.381 156.359 207.381 156.209C207.381 156.059 218.181 155.949 231.511 155.949C244.841 155.949 255.651 156.069 255.651 156.209Z" fill="#075471"/>
<path d="M260.48 252.051C260.48 252.363 260.388 252.669 260.214 252.928C260.04 253.188 259.794 253.391 259.505 253.51C259.216 253.63 258.899 253.661 258.592 253.6C258.286 253.539 258.004 253.389 257.783 253.168C257.562 252.947 257.412 252.665 257.351 252.359C257.29 252.052 257.321 251.735 257.441 251.446C257.56 251.157 257.763 250.911 258.022 250.737C258.282 250.563 258.588 250.471 258.9 250.471C259.319 250.471 259.721 250.637 260.018 250.933C260.314 251.23 260.48 251.632 260.48 252.051Z" fill="#075471"/>
<path d="M324.47 147.809C324.344 147.824 324.216 147.824 324.09 147.809H322.95H318.56L302.2 147.999L302.38 147.829C302.38 163.149 302.38 185.509 302.38 210.359C302.38 225.599 302.29 239.909 302.26 252.069V252.299H302L270.77 252.199L262.01 252.139L270.77 252.079L302 251.979L301.78 252.209C301.78 240.039 301.78 225.739 301.83 210.499C301.91 185.649 301.98 163.289 302.03 147.969V147.789H302.2L318.56 147.869H322.95H324.09L324.47 147.809Z" fill="#075471"/>
<path d="M355.939 213.672C360.126 213.672 363.519 210.278 363.519 206.092C363.519 201.905 360.126 198.512 355.939 198.512C351.753 198.512 348.359 201.905 348.359 206.092C348.359 210.278 351.753 213.672 355.939 213.672Z" fill="white"/>
<path d="M354.07 206.09V202.68L357.03 204.38L359.99 206.09L357.03 207.8L354.07 209.5V206.09Z" fill="#075471"/>
<path d="M329.276 100.649L329.059 139.559L380.828 139.848L381.045 100.938L329.276 100.649Z" fill="#455A64"/>
<path d="M328.391 139.549L346.611 115.469L357.731 130.659L365.371 122.609L380.171 139.839L328.391 139.549Z" fill="#263238"/>
<path d="M362.59 112.592C362.586 113.399 362.342 114.187 361.891 114.856C361.439 115.524 360.8 116.044 360.053 116.349C359.305 116.654 358.485 116.731 357.694 116.57C356.903 116.409 356.178 116.016 355.611 115.443C355.043 114.87 354.658 114.141 354.504 113.349C354.351 112.556 354.435 111.736 354.748 110.992C355.06 110.248 355.586 109.614 356.26 109.169C356.933 108.724 357.723 108.488 358.53 108.492C359.611 108.5 360.645 108.936 361.406 109.704C362.167 110.473 362.592 111.511 362.59 112.592Z" fill="#263238"/>
<path d="M375.18 147.27H335.1V149.95H375.18V147.27Z" fill="#455A64"/>
<path d="M383.88 157.651C383.88 157.801 371.01 157.921 355.15 157.921C339.29 157.921 326.41 157.801 326.41 157.651C326.41 157.501 339.27 157.391 355.15 157.391C371.03 157.391 383.88 157.511 383.88 157.651Z" fill="#263238"/>
<path d="M383.88 165.002C383.88 165.152 371.01 165.272 355.15 165.272C339.29 165.272 326.41 165.152 326.41 165.002C326.41 164.852 339.27 164.742 355.15 164.742C371.03 164.742 383.88 164.852 383.88 165.002Z" fill="#263238"/>
<path d="M383.88 172.33C383.88 172.48 371.01 172.59 355.15 172.59C339.29 172.59 326.41 172.48 326.41 172.33C326.41 172.18 339.27 172.07 355.15 172.07C371.03 172.07 383.88 172.19 383.88 172.33Z" fill="#263238"/>
<path d="M383.88 179.67C383.88 179.82 371.01 179.93 355.15 179.93C339.29 179.93 326.41 179.82 326.41 179.67C326.41 179.52 339.27 179.41 355.15 179.41C371.03 179.41 383.88 179.53 383.88 179.67Z" fill="#263238"/>
<path d="M326.051 147.81C326.051 148.123 325.958 148.428 325.784 148.688C325.611 148.948 325.364 149.151 325.075 149.27C324.787 149.39 324.469 149.421 324.162 149.36C323.856 149.299 323.574 149.149 323.353 148.928C323.132 148.707 322.982 148.425 322.921 148.119C322.86 147.812 322.891 147.495 323.011 147.206C323.131 146.917 323.333 146.67 323.593 146.497C323.853 146.323 324.158 146.23 324.471 146.23C324.89 146.23 325.292 146.397 325.588 146.693C325.884 146.99 326.051 147.391 326.051 147.81Z" fill="#075471"/>
<path d="M357.471 229.22C357.509 229.53 357.452 229.844 357.308 230.122C357.163 230.399 356.938 230.625 356.661 230.771C356.385 230.917 356.071 230.976 355.76 230.939C355.45 230.902 355.158 230.771 354.923 230.564C354.689 230.358 354.523 230.084 354.448 229.781C354.372 229.477 354.391 229.158 354.502 228.866C354.612 228.573 354.809 228.321 355.066 228.143C355.323 227.965 355.628 227.87 355.941 227.87C356.322 227.848 356.697 227.977 356.983 228.23C357.27 228.483 357.445 228.838 357.471 229.22Z" fill="#075471"/>
<path d="M357.47 264.881C357.506 265.191 357.448 265.505 357.302 265.781C357.156 266.057 356.929 266.283 356.652 266.427C356.376 266.571 356.061 266.628 355.751 266.59C355.442 266.551 355.151 266.42 354.917 266.212C354.684 266.005 354.519 265.731 354.445 265.428C354.37 265.125 354.39 264.806 354.501 264.514C354.612 264.222 354.809 263.971 355.066 263.794C355.323 263.617 355.628 263.521 355.94 263.521C356.322 263.502 356.697 263.634 356.983 263.888C357.269 264.143 357.444 264.499 357.47 264.881Z" fill="#075471"/>
<path d="M355.94 264.879C355.8 264.879 355.68 256.879 355.68 247.049C355.68 237.219 355.8 229.219 355.94 229.219C356.08 229.219 356.2 237.219 356.2 247.049C356.2 256.879 356.08 264.879 355.94 264.879Z" fill="#075471"/>
<path d="M231.369 143.692C231.369 143.692 231.369 143.592 231.369 143.422C231.369 143.252 231.369 142.952 231.369 142.622C231.369 141.892 231.369 140.862 231.369 139.542C231.369 136.822 231.319 132.922 231.289 128.042C231.289 118.212 231.289 104.472 231.199 88.6617L231.449 88.9217H213.929L162.669 88.8517L147.139 88.7717L142.919 88.7217H141.819C141.696 88.7352 141.572 88.7352 141.449 88.7217H141.819H142.919L147.139 88.6717L162.669 88.5917L213.929 88.5117H231.629V88.7617C231.629 104.572 231.559 118.312 231.539 128.142C231.539 133.022 231.479 136.922 231.459 139.642C231.459 140.962 231.459 141.992 231.459 142.722C231.459 143.052 231.459 143.312 231.459 143.522C231.435 143.581 231.405 143.638 231.369 143.692Z" fill="#075471"/>
<path d="M233 143.689C233.002 144.004 232.911 144.313 232.737 144.575C232.564 144.838 232.316 145.044 232.026 145.165C231.735 145.287 231.415 145.32 231.106 145.26C230.797 145.2 230.513 145.049 230.29 144.827C230.066 144.605 229.914 144.322 229.852 144.013C229.789 143.705 229.82 143.384 229.94 143.093C230.06 142.802 230.264 142.553 230.526 142.378C230.788 142.203 231.095 142.109 231.41 142.109C231.83 142.109 232.233 142.276 232.531 142.572C232.829 142.868 232.998 143.269 233 143.689Z" fill="#075471"/>
<path d="M143 88.662C143 88.9745 142.907 89.28 142.734 89.5398C142.56 89.7997 142.313 90.0022 142.024 90.1218C141.736 90.2414 141.418 90.2726 141.112 90.2117C140.805 90.1507 140.524 90.0002 140.303 89.7793C140.082 89.5583 139.931 89.2768 139.87 88.9703C139.809 88.6638 139.841 88.3461 139.96 88.0574C140.08 87.7687 140.282 87.5219 140.542 87.3483C140.802 87.1747 141.107 87.082 141.42 87.082C141.838 87.0847 142.238 87.252 142.534 87.5477C142.83 87.8434 142.997 88.2438 143 88.662Z" fill="#075471"/>
<path d="M112.069 91.2826L117.069 97.7726C117.069 97.7726 119.489 101.503 117.609 102.303C115.949 103.003 114.869 100.913 114.869 100.913C114.869 100.913 113.809 96.1526 111.749 97.3126C111.459 97.4826 111.959 100.863 112.239 102.573C112.337 103.201 112.674 103.767 113.179 104.153L118.659 108.353C119.677 109.132 120.886 109.622 122.159 109.773L124.109 110.003L125.719 113.203L134.579 109.593L127.579 100.473L123.789 94.6726C123.509 94.4272 123.173 94.2542 122.81 94.1688C122.448 94.0834 122.07 94.0881 121.709 94.1826L120.839 94.4026L120.179 93.7526C119.992 93.5589 119.755 93.4201 119.494 93.3514C119.233 93.2827 118.958 93.2865 118.699 93.3626L118.159 93.5126L116.619 92.0026C116.129 91.5126 112.749 88.3626 112.119 88.6426C111.929 88.8042 111.775 89.0044 111.668 89.2301C111.561 89.4557 111.503 89.7016 111.498 89.9513C111.494 90.201 111.542 90.4489 111.641 90.6784C111.739 90.9079 111.885 91.1139 112.069 91.2826Z" fill="#FFBE9D"/>
<path d="M122.12 97.4408C121.966 97.1869 121.795 96.943 121.61 96.7108C121.119 96.1846 120.469 95.8335 119.76 95.7108C119.207 95.2277 118.713 94.6805 118.29 94.0808C118.102 93.8444 117.951 93.5816 117.84 93.3008C118.034 93.5299 118.214 93.7703 118.38 94.0208C118.824 94.576 119.312 95.0943 119.84 95.5708C120.02 95.6308 120.22 95.6708 120.42 95.7408C120.921 95.9279 121.363 96.2455 121.7 96.6608C121.836 96.8328 121.95 97.0209 122.04 97.2208C122.078 97.2896 122.105 97.3638 122.12 97.4408Z" fill="#EB996E"/>
<path d="M123.14 96.1333C123.065 95.9974 122.963 95.8783 122.84 95.7833C122.7 95.6758 122.536 95.6035 122.362 95.5721C122.188 95.5408 122.009 95.5515 121.84 95.6033H121.79L121.68 95.4933C121.242 95.0736 120.847 94.6113 120.5 94.1133C120.965 94.4991 121.397 94.924 121.79 95.3833L121.9 95.4933H121.82C122.019 95.428 122.232 95.4176 122.436 95.4634C122.64 95.5092 122.828 95.6093 122.98 95.7533C123.14 95.9133 123.17 96.1333 123.14 96.1333Z" fill="#EB996E"/>
<path d="M112.999 374.092L109.869 402.772L125.309 404.772L128.509 376.052L112.999 374.092Z" fill="#075471"/>
<path d="M117.61 402.681C117.74 402.681 118.46 396.421 119.21 388.681C119.96 380.941 120.46 374.631 120.33 374.621C120.2 374.611 119.49 380.881 118.74 388.621C117.99 396.361 117.48 402.671 117.61 402.681Z" fill="#263238"/>
<path d="M110.089 400.803L125.529 402.753L125.309 404.773L109.869 402.773L110.089 400.803Z" fill="#263238"/>
<path d="M126.33 395.592C126.33 395.592 126.25 395.342 126 394.922C125.641 394.347 125.233 393.805 124.78 393.302C124.099 392.548 123.314 391.895 122.45 391.362C120.943 390.422 119.176 389.991 117.406 390.131C115.636 390.272 113.959 390.977 112.62 392.142C112.111 392.597 111.67 393.122 111.31 393.702C111.06 394.112 110.96 394.362 110.99 394.382C111.548 393.663 112.167 392.994 112.84 392.382C114.531 391.029 116.685 390.394 118.84 390.612C121 390.909 122.993 391.936 124.49 393.522C125.72 394.732 126.26 395.642 126.33 395.592Z" fill="#263238"/>
<g opacity="0.3">
<path d="M127.599 384.222L127.249 387.382L111.779 385.312L112.039 382.932L127.599 384.222Z" fill="black"/>
</g>
<path d="M90.7793 375.992L91.9993 404.822L107.559 404.472L106.399 375.582L90.7793 375.992Z" fill="#075471"/>
<path d="M99.64 403.563C99.77 403.563 99.53 397.243 99.1 389.463C98.67 381.683 98.22 375.383 98.1 375.393C97.98 375.403 98.21 381.713 98.64 389.493C99.07 397.273 99.51 403.563 99.64 403.563Z" fill="#263238"/>
<path d="M91.9199 402.832L107.48 402.432L107.56 404.472L91.9999 404.822L91.9199 402.832Z" fill="#263238"/>
<path d="M107.19 395.241C107.086 395.013 106.94 394.806 106.76 394.631C106.327 394.109 105.841 393.633 105.31 393.211C104.526 392.567 103.654 392.038 102.72 391.641C101.09 390.937 99.2769 390.776 97.5484 391.181C95.8199 391.586 94.2674 392.536 93.1199 393.891C92.6828 394.416 92.3257 395.002 92.0598 395.631C91.9416 395.855 91.8669 396.099 91.8398 396.351C92.2876 395.561 92.7994 394.808 93.3699 394.101C94.8491 392.498 96.9007 391.542 99.0798 391.441C101.249 391.407 103.365 392.112 105.08 393.441C106.46 394.471 107.13 395.291 107.19 395.241Z" fill="#263238"/>
<g opacity="0.3">
<path d="M106.73 383.812L106.86 386.983L91.2504 387.263L91.1504 384.872L106.73 383.812Z" fill="black"/>
</g>
<path d="M108.209 312.603L107.599 233.703H76.9394C76.9394 233.703 74.5194 253.283 75.6694 261.183C76.8194 269.083 84.9994 312.713 84.9994 312.713C84.9994 312.713 87.6494 370.653 88.9994 385.533L108.139 383.813L108.209 312.603Z" fill="#263238"/>
<path d="M127.001 217.062C133.177 222.881 137.276 230.563 138.671 238.932C140.801 252.672 134.361 307.622 134.361 307.622L128.931 383.812H110.001L110.611 310.453L107.341 255.823L105.211 238.543L127.001 217.062Z" fill="#263238"/>
<path d="M110.18 306.512C110.127 306.361 110.099 306.202 110.1 306.042C110.1 305.672 110.02 305.222 109.97 304.682C109.88 303.412 109.76 301.682 109.61 299.682C109.33 295.442 108.99 289.582 108.69 283.112C108.39 276.642 108.19 270.772 108.12 266.522C108.12 264.392 108.12 262.672 108.12 261.522V260.162C108.115 260 108.132 259.839 108.17 259.682C108.216 259.837 108.236 259.999 108.23 260.162C108.23 260.532 108.23 260.982 108.29 261.522C108.29 262.792 108.4 264.522 108.47 266.522C108.66 270.842 108.91 276.662 109.19 283.092C109.47 289.522 109.76 295.352 109.96 299.672C110.04 301.732 110.11 303.432 110.16 304.672C110.16 305.212 110.16 305.672 110.16 306.032C110.195 306.189 110.202 306.352 110.18 306.512Z" fill="#455A64"/>
<path d="M133.32 311.002C132.394 310.999 131.469 310.939 130.55 310.822C126.112 310.513 121.653 310.932 117.35 312.062C116.469 312.347 115.571 312.574 114.66 312.742C115.48 312.306 116.35 311.97 117.25 311.742C121.561 310.399 126.106 309.977 130.59 310.502C131.518 310.55 132.436 310.718 133.32 311.002Z" fill="#455A64"/>
<path d="M103 311.702C103 311.792 102.08 311.512 100.61 311.292C98.7012 310.993 96.7578 310.993 94.8495 311.292C92.9456 311.62 91.1039 312.241 89.3895 313.132C88.0695 313.822 87.3195 314.382 87.2695 314.312C87.8229 313.702 88.4796 313.194 89.2095 312.812C90.9204 311.809 92.802 311.131 94.7595 310.812C96.7217 310.475 98.7298 310.509 100.68 310.912C101.492 311.043 102.276 311.31 103 311.702Z" fill="#455A64"/>
<path d="M103.191 312.701C101.432 313.683 99.5335 314.388 97.5605 314.791C95.6138 315.366 93.5898 315.636 91.5605 315.591C91.5605 315.441 94.2106 315.091 97.4006 314.291C100.591 313.491 103.141 312.551 103.191 312.701Z" fill="#455A64"/>
<path d="M109.181 258.882C108.983 259.175 108.748 259.441 108.481 259.672C108.251 259.922 107.941 260.202 107.581 260.522C107.221 260.842 106.801 261.222 106.311 261.592C105.185 262.504 103.981 263.314 102.711 264.012C101.141 264.907 99.435 265.538 97.6609 265.882L96.7409 266.102C93.3509 266.828 89.8438 266.811 86.4609 266.052C85.4393 265.83 84.4363 265.529 83.4609 265.152C83.1073 265.034 82.771 264.869 82.4609 264.662C82.4609 264.572 84.0009 265.202 86.5609 265.662C89.9009 266.299 93.3342 266.265 96.6609 265.562L97.5609 265.342C99.2726 265.003 100.922 264.403 102.451 263.562C103.712 262.898 104.919 262.136 106.061 261.282C108.051 259.862 109.121 258.812 109.181 258.882Z" fill="#455A64"/>
<path d="M115.641 239.42C115.641 239.42 115.721 239.74 115.841 240.29C115.961 240.84 116.111 241.69 116.301 242.66C116.681 244.75 117.221 247.66 117.861 251.07L117.721 250.9L126.001 254L125.711 254.08L129.861 248.7L130.861 247.4L130.811 247.59C130.351 243.52 129.911 239.69 129.531 236.33L129.881 236.5C128.081 237.37 126.17 237.986 124.201 238.33C122.471 238.68 120.941 238.9 119.681 239.06C118.421 239.22 117.421 239.32 116.741 239.37C116.391 239.403 116.04 239.403 115.691 239.37C116.019 239.288 116.353 239.231 116.691 239.2L119.611 238.77C120.861 238.57 122.381 238.31 124.091 237.93C126.007 237.558 127.866 236.936 129.621 236.08L129.921 235.91V236.25C130.321 239.6 130.771 243.43 131.261 247.5V247.61L131.191 247.69L130.191 248.99L126.031 254.36L125.921 254.51L125.741 254.44C122.741 253.28 119.981 252.21 117.541 251.25H117.421V251.13C116.871 247.61 116.421 244.68 116.071 242.55C115.921 241.55 115.811 240.81 115.721 240.21C115.669 239.95 115.642 239.685 115.641 239.42Z" fill="#455A64"/>
<path d="M98.7906 242.16C98.8113 242.427 98.8113 242.694 98.7906 242.96C98.7906 243.57 98.7906 244.35 98.7006 245.32C98.6006 247.48 98.4606 250.44 98.2906 254V254.12L98.1806 254.18L90.3706 258.25L90.2006 258.34L90.0706 258.2L85.3506 253.31L84.2106 252.14L84.1406 252.06V252C84.1406 247.89 84.2106 244 84.2306 240.66V240.32L84.5506 240.45C86.3833 241.116 88.297 241.533 90.2406 241.69C91.9906 241.88 93.5206 241.97 94.7906 242.03L97.7306 242.14C98.065 242.137 98.3991 242.157 98.7306 242.2C98.4004 242.257 98.0657 242.284 97.7306 242.28C97.0506 242.28 96.0506 242.28 94.7806 242.28C93.5106 242.28 91.9606 242.2 90.2006 242.04C88.208 241.918 86.2424 241.517 84.3606 240.85L84.6806 240.64C84.6806 244.02 84.6806 247.88 84.6806 251.98L84.6106 251.8L85.7406 252.97L90.4606 257.87L90.1606 257.82L98.0006 253.82L97.8806 254C98.1406 250.5 98.3606 247.59 98.5106 245.47C98.5906 244.47 98.6606 243.68 98.7106 243.06C98.7169 242.759 98.7436 242.458 98.7906 242.16Z" fill="#455A64"/>
<path d="M107.699 255.613C107.403 254.907 107.204 254.163 107.109 253.403C106.757 251.594 106.527 249.763 106.419 247.923C106.3 246.085 106.3 244.241 106.419 242.403C106.427 241.635 106.538 240.871 106.749 240.133C106.909 240.133 106.639 243.623 106.899 247.893C107.159 252.163 107.849 255.573 107.699 255.613Z" fill="#455A64"/>
<path d="M133.321 260.353C133.086 260.511 132.83 260.636 132.561 260.723C131.853 261.011 131.129 261.255 130.391 261.453C127.947 262.123 125.425 262.459 122.891 262.453C120.358 262.454 117.835 262.118 115.391 261.453C114.654 261.248 113.93 261 113.221 260.713C112.949 260.632 112.692 260.507 112.461 260.343C112.461 260.253 113.611 260.653 115.461 261.093C120.335 262.233 125.407 262.233 130.281 261.093C132.161 260.663 133.291 260.263 133.321 260.353Z" fill="#455A64"/>
<path d="M85.5705 135.41C85.5705 135.41 71.7705 142.95 67.7305 144.72L73.2405 171.09L81.9205 202.72L76.1005 236.08C76.1005 236.08 96.5605 239.7 106.59 238.4C120.32 236.62 137.82 231.57 137.82 231.57L124.19 190.9L127.68 162.82L121.83 139.15L107.57 137.46L85.5705 135.41Z" fill="#075471"/>
<g opacity="0.3">
<path d="M79.0898 161.782C80.0198 163.632 82.1498 164.522 84.1498 165.072C86.1498 165.622 88.2898 166.072 89.8598 167.382C92.6398 169.802 92.5598 174.382 95.1298 176.992C95.9636 177.836 97.0165 178.432 98.17 178.711C99.3236 178.99 100.532 178.942 101.66 178.572C103.08 178.082 104.33 177.092 105.82 176.952C106.82 176.852 107.88 177.182 108.92 177.102C111.83 176.902 113.54 173.812 114.7 171.102C115.86 168.392 117.14 165.392 116.84 162.382C116.4 157.872 112.65 154.232 112.07 149.742C111.86 148.072 112.07 146.382 111.92 144.742C111.77 143.102 111 141.302 109.48 140.602" fill="black"/>
</g>
<path d="M134.07 132.202L123.4 110.832L131.97 105.332C131.97 105.332 142.7 116.392 144.73 118.542C144.73 118.542 157.07 129.922 153.85 135.412C151.922 138.514 149.535 141.305 146.77 143.692L134.07 132.202Z" fill="#075471"/>
<path d="M67.7301 144.723C67.5401 145.283 39.0101 184.723 37.4801 188.933C37.4001 189.159 37.3201 189.399 37.2401 189.653C36.435 192.353 36.3415 195.216 36.9688 197.963C37.596 200.711 38.9227 203.249 40.8201 205.333L64.3501 231.573L74.6301 219.683L58.2701 190.853L73.9001 173.603L67.7301 144.723Z" fill="#075471"/>
<path d="M85.6101 221.441C84.6101 221.501 82.9201 222.821 82.1501 223.441C81.8971 223.647 81.5758 223.751 81.2501 223.731C80.9848 223.713 80.7314 223.615 80.524 223.448C80.3166 223.282 80.1651 223.056 80.0901 222.801L79.0901 219.371C78.5821 219.414 78.0919 219.578 77.6604 219.85C77.2289 220.121 76.8687 220.492 76.6101 220.931L75.4801 222.871L73.4801 220.991L64.3301 231.441C64.3301 231.441 67.9301 235.331 70.2201 235.391C72.5101 235.451 83.2201 226.621 83.2201 226.621L86.0701 224.121C86.0701 224.121 88.4101 221.271 85.6101 221.441Z" fill="#FFBE9D"/>
<path d="M115.26 138.37L123.36 138.73L134.89 129.91L151.21 138.91C151.21 138.91 143.86 146.77 136.94 154.82C131.35 161.33 127.37 165.4 127.37 165.4L115.26 138.37Z" fill="#075471"/>
<path d="M122.86 207.852C122.506 208.291 122.118 208.702 121.7 209.082C120.94 209.852 119.78 210.922 118.31 212.202C110.612 218.847 101.813 224.099 92.3103 227.722C90.4903 228.402 89.0003 228.912 87.9603 229.222C87.427 229.412 86.8783 229.556 86.3203 229.652C86.8281 229.408 87.3528 229.2 87.8903 229.032C88.8903 228.662 90.3803 228.102 92.1703 227.372C96.8472 225.473 101.373 223.224 105.71 220.642C110.039 218.048 114.167 215.133 118.06 211.922C119.55 210.682 120.74 209.662 121.54 208.922C121.947 208.526 122.389 208.168 122.86 207.852Z" fill="#263238"/>
<path d="M94.5297 203.192C94.6497 203.262 91.7697 207.932 88.1097 213.602C84.4497 219.272 81.3697 223.802 81.2497 223.732C81.1297 223.662 83.9997 218.992 87.6697 213.312C91.3397 207.632 94.4097 203.112 94.5297 203.192Z" fill="#263238"/>
<path d="M126.391 163.183C126.321 163.183 126.391 162.023 126.261 160.183C126.131 158.343 126.041 155.743 125.781 152.903C125.521 150.063 125.181 147.503 124.831 145.673C124.481 143.843 124.111 142.753 124.191 142.723C124.687 143.614 125.026 144.585 125.191 145.593C125.725 147.985 126.096 150.41 126.301 152.853C126.561 155.713 126.651 158.303 126.631 160.183C126.675 161.189 126.594 162.196 126.391 163.183Z" fill="#263238"/>
<path d="M145.999 130.731C145.356 130.519 144.727 130.262 144.119 129.961C142.628 129.351 141.04 129.013 139.429 128.961C137.826 128.883 136.233 129.253 134.829 130.031C133.779 130.661 133.259 131.271 133.189 131.211C133.53 130.597 134.027 130.083 134.629 129.721C136.058 128.798 137.741 128.35 139.439 128.441C141.117 128.497 142.764 128.91 144.269 129.651C144.909 129.899 145.496 130.265 145.999 130.731Z" fill="#263238"/>
<path d="M140.83 126.172C140.83 126.372 138.56 126.112 136.35 127.542C134.14 128.972 133.4 131.172 133.23 131.072C133.283 130.585 133.448 130.116 133.71 129.702C134.269 128.659 135.076 127.769 136.06 127.112C137.057 126.467 138.205 126.095 139.39 126.032C139.875 125.961 140.369 126.009 140.83 126.172Z" fill="#263238"/>
<g opacity="0.3">
<path d="M95.4292 198.393C95.2692 197.463 94.6692 196.453 93.7192 196.393C92.7692 196.333 91.9692 197.503 91.5492 198.503L81.5492 222.173L81.1992 223.713C85.1992 217.343 89.1992 211.223 93.1992 204.853C94.5092 202.903 95.7992 200.693 95.4292 198.393Z" fill="black"/>
</g>
<g opacity="0.3">
<path d="M133.23 130.771C134.47 128.961 135.53 126.901 137.68 126.451C139.854 126.004 142.116 126.408 144 127.581C144.41 127.831 144.85 128.261 144.7 128.721C144.627 128.886 144.51 129.028 144.362 129.132C144.214 129.236 144.041 129.298 143.86 129.311C141.97 129.781 140.01 129.231 138.08 128.981C137.191 128.874 136.288 129.002 135.463 129.353C134.638 129.704 133.92 130.265 133.38 130.981" fill="black"/>
</g>
<path d="M72.2193 169.392C71.734 168.521 71.3386 167.603 71.0393 166.652C69.3877 162.13 68.2636 157.432 67.6893 152.652C67.5271 151.661 67.4667 150.656 67.5093 149.652C67.7669 150.614 67.9507 151.593 68.0593 152.582C68.3593 154.392 68.8193 156.892 69.4693 159.582C70.1193 162.272 70.8393 164.732 71.3893 166.492C71.7441 167.435 72.0217 168.405 72.2193 169.392Z" fill="#263238"/>
<path d="M87.1711 143.391L107.421 143.691L105.521 125.391C105.521 125.391 107.021 126.141 107.311 118.641C107.601 111.141 108.311 98.4206 108.311 98.4206C104.094 96.4661 99.4307 95.6747 94.8048 96.1284C90.1789 96.582 85.7583 98.2642 82.0011 101.001L80.8711 101.831L87.1711 143.391Z" fill="#FFBE9D"/>
<path d="M83.0002 111.11C82.8702 111.05 77.8902 109.44 77.9102 114.57C77.9302 119.7 83.0802 118.62 83.0902 118.47C83.1002 118.32 83.0002 111.11 83.0002 111.11Z" fill="#FFBE9D"/>
<path d="M107.101 110.692C107.221 110.642 111.831 109.532 111.521 114.692C111.211 119.852 106.141 118.442 106.141 118.302C106.141 118.162 107.101 110.692 107.101 110.692Z" fill="#FFBE9D"/>
<path d="M95.0692 89.4402C95.0692 89.4402 88.0692 89.1802 85.5792 90.4402C81.4292 92.5602 78.2092 98.4402 78.1492 105.78C78.0892 113.12 81.3992 122.99 86.7592 127.89C92.1192 132.79 96.3592 133.68 96.3592 133.68C96.3592 133.68 107.709 127.49 108.979 118.43C110.249 109.37 111.109 100.65 107.569 96.2601C104.029 91.8702 97.6392 89.5502 95.0692 89.4402Z" fill="#263238"/>
<path d="M79.0898 110.512C78.6798 105.872 78.2898 101.072 79.7498 96.6519C81.2098 92.2319 85.0098 88.2219 89.6698 88.0419C91.158 88.1468 92.6517 88.1468 94.1398 88.0419C95.3881 87.7212 96.6009 87.2756 97.7598 86.7119C99.8007 85.8148 102.094 85.673 104.23 86.3119C105.285 86.6474 106.217 87.2864 106.911 88.149C107.605 89.0116 108.029 90.0596 108.13 91.1619C108.02 92.0586 108.058 92.9671 108.24 93.8519C108.713 94.6542 109.307 95.3792 110 96.0019C110.856 97.2083 111.214 98.6982 111 100.162C110.787 101.616 110.39 103.037 109.82 104.392L106 114.632" fill="#263238"/>
<path d="M90.7906 113.112C92.1219 112.459 93.5912 112.136 95.0738 112.172C96.5563 112.207 98.0084 112.6 99.3068 113.316C100.605 114.033 101.712 115.052 102.532 116.287C103.353 117.522 103.863 118.937 104.021 120.412C104.351 123.412 104.351 123.932 106.311 126.272C107.521 127.722 108.691 127.632 110.111 128.862C111.016 129.686 111.63 130.781 111.863 131.983C112.095 133.185 111.933 134.43 111.401 135.532C115.071 135.352 118.511 135.112 119.761 138.532C114.281 137.402 108.761 142.532 103.311 141.382C101.549 141.155 99.8613 140.537 98.3706 139.572C96.7506 138.352 95.8706 136.412 95.0506 134.572L90.6406 124.572C89.6406 122.322 88.6406 119.982 88.6406 117.522C88.6406 115.062 90.0906 112.452 92.4706 111.832" fill="#263238"/>
<path d="M88.5796 116.464C88.0831 114.94 88.0724 113.3 88.5489 111.77C89.0255 110.24 89.9657 108.896 91.2396 107.924C92.5948 107.053 94.185 106.619 95.7947 106.682C97.4045 106.744 98.9561 107.3 100.24 108.274C101.237 108.998 102.039 109.958 102.575 111.067C103.111 112.177 103.363 113.402 103.31 114.634C103.224 115.8 102.721 116.897 101.893 117.723C101.064 118.55 99.9665 119.05 98.7996 119.134" fill="#075471"/>
<path d="M100.601 111.492C99.0555 110.288 97.1289 109.678 95.1722 109.776C93.2154 109.873 91.3588 110.67 89.9407 112.022C87.3307 114.642 87.0607 120.022 87.8607 123.652C88.7107 127.542 91.0907 131.312 90.3007 135.212C89.8207 137.592 88.1907 140.002 89.1307 142.212C89.9007 144.022 92.0407 144.812 93.2007 146.392C94.9107 148.722 94.0607 151.992 92.9207 154.642C91.7807 157.292 90.3607 160.152 91.1607 162.932C91.7807 165.082 93.5907 166.632 95.0407 168.342C96.4907 170.052 97.6507 172.452 96.6807 174.472C97.6103 175.165 98.7287 175.558 99.8872 175.599C101.046 175.641 102.189 175.329 103.166 174.705C104.143 174.081 104.907 173.174 105.356 172.105C105.805 171.037 105.918 169.857 105.681 168.722C106.829 169.906 107.511 171.465 107.601 173.112C109.181 172.98 110.701 172.442 112.013 171.551C113.325 170.659 114.384 169.444 115.088 168.022C115.792 166.601 116.117 165.022 116.032 163.438C115.946 161.854 115.453 160.319 114.601 158.982C113.361 157.042 111.361 155.472 110.941 153.212C110.441 150.512 112.391 147.872 112.141 145.142C111.911 142.692 109.981 140.762 108.001 139.302C106.021 137.842 103.811 136.522 102.531 134.422C100.461 131.022 101.421 126.692 102.221 122.792C103.021 118.892 103.411 114.292 100.611 111.462" fill="#263238"/>
<path d="M88.7798 113.871C86.0098 115.741 85.7798 119.711 86.2098 123.031C86.6398 126.351 87.1298 130.081 85.0898 132.731C83.7098 134.511 81.2998 135.541 80.5998 137.731C79.7398 140.341 81.8798 142.961 82.1298 145.731C82.164 147.729 81.6036 149.692 80.5198 151.371C79.4481 153.039 78.6008 154.842 77.9998 156.731C77.7104 157.684 77.6888 158.699 77.9375 159.664C78.1862 160.629 78.6956 161.506 79.4098 162.201C80.4384 162.919 81.6394 163.351 82.8898 163.451C87.3153 164.13 91.8195 164.113 96.2398 163.401C97.5598 157.971 98.8798 152.481 98.8798 146.901C98.8798 135.801 93.6298 125.231 93.4898 114.141" fill="#263238"/>
<path d="M96.5496 170.773C96.3836 170.621 96.2328 170.454 96.0996 170.273L94.8596 168.783C93.3077 166.98 91.8555 165.094 90.5096 163.133C89.5748 161.758 88.8502 160.251 88.3596 158.663C87.777 156.811 87.8156 154.82 88.4696 152.993C89.2579 151.052 90.2044 149.179 91.2996 147.393C92.2996 145.533 93.2996 143.443 93.0496 141.213C92.7996 138.983 91.3596 137.163 90.6996 135.043C90.5248 134.509 90.4239 133.954 90.3996 133.393C90.3942 132.835 90.4821 132.281 90.6596 131.753C91.0719 130.788 91.6622 129.909 92.3996 129.163C93.0601 128.476 93.6559 127.729 94.1796 126.933C94.6236 126.172 94.871 125.313 94.8996 124.433C94.8826 122.814 94.5848 121.21 94.0196 119.693C93.5672 118.401 93.2815 117.057 93.1696 115.693C93.1233 114.657 93.3365 113.626 93.7896 112.693C94.0839 112.099 94.5159 111.585 95.0496 111.193C95.2366 111.06 95.4422 110.956 95.6596 110.883C94.9268 111.339 94.3429 112 93.9796 112.783C93.5617 113.696 93.3828 114.701 93.4596 115.703C93.605 117.035 93.9105 118.344 94.3696 119.603C94.9858 121.152 95.3243 122.797 95.3696 124.463C95.3511 125.418 95.0932 126.353 94.6196 127.183C94.0905 128.011 93.4809 128.785 92.7996 129.493C92.1118 130.204 91.5594 131.034 91.1696 131.943C91.0123 132.413 90.9345 132.907 90.9396 133.403C90.9737 133.912 91.0677 134.416 91.2196 134.903C91.8396 136.903 93.3696 138.753 93.6096 141.183C93.7252 142.35 93.5783 143.529 93.1796 144.633C92.7946 145.669 92.3264 146.672 91.7796 147.633C90.694 149.386 89.7541 151.226 88.9696 153.133C88.3286 154.871 88.2759 156.772 88.8196 158.543C89.2692 160.092 89.943 161.568 90.8196 162.923C92.4296 165.443 94.0096 167.303 95.0196 168.643C95.5296 169.313 95.9296 169.833 96.1796 170.193C96.3229 170.373 96.4469 170.567 96.5496 170.773Z" fill="#455A64"/>
<path d="M85.6504 132.202C86.1578 131 86.5171 129.741 86.7204 128.452C86.8956 127.05 86.9525 125.635 86.8904 124.222C86.8904 122.622 86.7304 120.842 86.8304 118.962C86.8818 117.176 87.322 115.422 88.1204 113.822C88.8095 112.528 89.8492 111.453 91.1204 110.722C91.9961 110.222 92.9925 109.973 94.0004 110.002C94.2677 110.017 94.5326 110.06 94.7904 110.132C94.8819 110.151 94.9697 110.185 95.0504 110.232C94.7173 110.248 94.3835 110.248 94.0504 110.232C93.1082 110.273 92.1923 110.556 91.3904 111.052C90.2057 111.784 89.2388 112.82 88.5904 114.052C87.8489 115.618 87.4435 117.321 87.4004 119.052C87.3004 120.892 87.4004 122.652 87.4004 124.272C87.4407 125.711 87.3469 127.151 87.1204 128.572C86.9592 129.534 86.6665 130.47 86.2504 131.352C86.0999 131.667 85.897 131.955 85.6504 132.202Z" fill="#455A64"/>
<path d="M115.081 168.003C115.087 167.788 115.111 167.574 115.151 167.363C115.2 166.754 115.2 166.142 115.151 165.533C114.945 163.294 114.413 161.097 113.571 159.013C113.001 157.743 112.101 156.413 111.431 154.853C111.056 154.042 110.794 153.184 110.651 152.303C110.501 151.369 110.501 150.417 110.651 149.483C110.791 148.483 111.011 147.583 111.131 146.623C111.271 145.643 111.25 144.646 111.071 143.673C110.704 141.618 109.691 139.733 108.181 138.293C106.661 136.813 104.531 136.133 102.961 134.653C101.512 133.203 100.563 131.329 100.251 129.303C99.9444 127.516 99.8838 125.696 100.071 123.893C100.201 122.203 100.401 120.643 100.501 119.223C100.611 117.951 100.595 116.671 100.451 115.403C100.341 114.453 99.9742 113.55 99.3906 112.793C98.8822 112.166 98.1777 111.73 97.3906 111.553C97.6077 111.542 97.8248 111.573 98.0306 111.643C98.6339 111.824 99.1743 112.17 99.5906 112.643C100.239 113.407 100.656 114.34 100.791 115.333C100.964 116.622 101.007 117.925 100.921 119.223C100.841 120.663 100.661 122.223 100.551 123.903C100.387 125.668 100.461 127.447 100.771 129.193C101.079 131.113 101.985 132.888 103.361 134.263C104.811 135.643 106.941 136.313 108.591 137.893C110.168 139.416 111.219 141.402 111.591 143.563C111.77 144.587 111.79 145.633 111.651 146.663C111.511 147.663 111.291 148.613 111.151 149.533C110.983 150.42 110.96 151.328 111.081 152.223C111.22 153.062 111.462 153.882 111.801 154.663C112.441 156.203 113.311 157.503 113.891 158.853C114.719 160.979 115.205 163.224 115.331 165.503C115.369 166.121 115.342 166.741 115.251 167.353C115.251 167.563 115.161 167.723 115.141 167.823C115.121 167.923 115.091 168.003 115.081 168.003Z" fill="#455A64"/>
<path d="M111.11 139.771C111.279 139.367 111.422 138.953 111.54 138.531C111.783 137.364 111.714 136.153 111.34 135.021C110.709 133.371 109.476 132.02 107.89 131.241C106.857 130.869 105.925 130.259 105.17 129.461C104.479 128.517 103.905 127.493 103.46 126.411C102.748 124.285 102.469 122.037 102.64 119.801C102.751 118.024 102.537 116.242 102.01 114.541C101.625 113.413 100.933 112.416 100.01 111.661C99.6526 111.409 99.2821 111.175 98.9004 110.961C98.9004 110.961 99.0204 110.961 99.2404 111.041C99.5552 111.156 99.8542 111.311 100.13 111.501C101.155 112.222 101.936 113.236 102.37 114.411C102.966 116.143 103.227 117.972 103.14 119.801C103 121.97 103.278 124.147 103.96 126.211C104.387 127.243 104.93 128.223 105.58 129.131C105.914 129.525 106.309 129.863 106.75 130.131C107.19 130.401 107.66 130.581 108.13 130.821C109.808 131.669 111.092 133.135 111.71 134.911C112.074 136.108 112.091 137.384 111.76 138.591C111.666 138.915 111.528 139.224 111.35 139.511C111.2 139.691 111.12 139.781 111.11 139.771Z" fill="#455A64"/>
<path d="M87.1705 112.703C86.436 112.41 85.759 111.991 85.1705 111.463C83.6501 110.237 82.4061 108.703 81.5202 106.962C80.6344 105.222 80.1267 103.313 80.0305 101.363C79.946 100.56 80.0173 99.7484 80.2405 98.9727C80.3305 98.9727 80.2405 99.8927 80.3905 101.333C80.7762 105.123 82.5585 108.634 85.3905 111.183C86.4405 112.153 87.2205 112.623 87.1705 112.703Z" fill="#455A64"/>
<path d="M86.2393 114.062C84.9571 113.694 83.7607 113.076 82.7193 112.242C81.5754 111.555 80.5766 110.652 79.7793 109.582C80.9071 110.248 81.9864 110.994 83.0093 111.812C84.1351 112.489 85.2142 113.241 86.2393 114.062Z" fill="#455A64"/>
<path d="M108.141 100.934C107.961 103.01 107.348 105.026 106.342 106.851C105.336 108.677 103.96 110.272 102.301 111.534C103.624 109.986 104.825 108.338 105.891 106.604C106.794 104.778 107.546 102.882 108.141 100.934Z" fill="#455A64"/>
<path d="M109.771 104.911C109.163 108.256 107.707 111.389 105.541 114.011C105.411 113.921 106.611 112.011 107.771 109.511C108.931 107.011 109.621 104.871 109.771 104.911Z" fill="#455A64"/>
<path d="M107.411 92.001C107.039 91.3886 106.705 90.7541 106.411 90.101C106.07 89.4352 105.613 88.8358 105.061 88.331C104.397 87.7266 103.528 87.3976 102.631 87.411C100.958 87.5518 99.4006 88.3198 98.2707 89.561C97.7974 90.0948 97.2788 90.5866 96.7207 91.031C97.0565 90.3897 97.4919 89.8058 98.0107 89.301C98.5374 88.7078 99.1431 88.1896 99.8107 87.761C100.653 87.2177 101.629 86.9167 102.631 86.891C103.654 86.8764 104.641 87.2643 105.381 87.971C105.962 88.5413 106.424 89.221 106.741 89.971C107.086 90.6013 107.313 91.2893 107.411 92.001Z" fill="#455A64"/>
<path d="M105.4 170.104C105.227 169.983 105.066 169.846 104.92 169.694C104.62 169.404 104.19 168.984 103.66 168.404C103.013 167.698 102.427 166.939 101.91 166.134C101.211 165.055 100.782 163.823 100.66 162.544C100.62 161.789 100.718 161.033 100.95 160.314C101.208 159.558 101.543 158.831 101.95 158.144C102.76 156.724 103.76 155.234 103.81 153.434C103.804 151.537 103.26 149.682 102.24 148.084C101.24 146.384 99.8899 144.794 98.6999 143.014C97.4783 141.285 96.6646 139.302 96.3199 137.214C96.0385 135.279 96.0049 133.317 96.2199 131.374C96.5899 127.684 97.3199 124.444 97.4299 121.664C97.6132 119.48 97.3998 117.281 96.7999 115.174C96.3299 113.704 95.8599 112.964 95.9099 112.934C96.045 113.095 96.1592 113.273 96.2499 113.464C96.5474 113.989 96.7951 114.542 96.9899 115.114C97.6764 117.232 97.9513 119.462 97.7999 121.684C97.7299 124.494 97.0399 127.774 96.6999 131.424C96.5012 133.321 96.5415 135.236 96.8199 137.124C97.1611 139.14 97.9505 141.053 99.1299 142.724C100.3 144.474 101.66 146.064 102.69 147.834C103.748 149.516 104.304 151.466 104.29 153.454C104.22 155.454 103.13 156.974 102.29 158.354C101.889 159.016 101.554 159.716 101.29 160.444C101.06 161.112 100.959 161.818 100.99 162.524C101.086 163.75 101.474 164.936 102.12 165.984C102.609 166.789 103.16 167.555 103.77 168.274C104.27 168.874 104.68 169.274 104.96 169.614C105.124 169.761 105.271 169.925 105.4 170.104Z" fill="#455A64"/>
</svg>
