<svg width="41" height="50" viewBox="0 0 41 50" fill="none" xmlns="http://www.w3.org/2000/svg">
<path d="M28.2263 15.5878C27.1694 16.5286 25.7784 17.1018 24.2554 17.1018C22.7324 17.1018 21.3411 16.5286 20.2843 15.5877C21.2552 14.2214 22.7196 13.4137 24.2553 13.4137C25.791 13.4137 27.2555 14.2216 28.2263 15.5879V15.5878ZM22.3269 12.7225C21.6473 12.164 21.213 11.3175 21.213 10.3714C21.213 8.69387 22.5778 7.3291 24.2553 7.3291C25.9328 7.3291 27.2975 8.69387 27.2975 10.3714C27.2975 11.3175 26.8633 12.164 26.1837 12.7225C27.2507 13.1191 28.2129 13.8397 28.9524 14.8158C29.7544 13.7981 30.2348 12.5156 30.2348 11.1223C30.2348 7.82524 27.5525 5.14287 24.2554 5.14287C20.9582 5.14287 18.2759 7.82524 18.2759 11.1223C18.2759 12.5156 18.7562 13.798 19.5582 14.8157C20.2978 13.8394 21.26 13.1191 22.3269 12.7225ZM26.2559 10.3714C26.2559 9.26824 25.3584 8.37075 24.2553 8.37075C23.1522 8.37075 22.2547 9.26824 22.2547 10.3714C22.2547 11.4745 23.1522 12.372 24.2553 12.372C25.3584 12.372 26.2559 11.4745 26.2559 10.3714ZM31.9525 19.2672C31.344 19.4015 30.8966 19.7768 30.6588 20.3528L30.1824 21.5067C29.867 22.2705 29.2899 22.8236 28.5134 23.1063C28.3262 23.1741 28.1327 23.2229 27.9358 23.252L30.8767 28.3458L32.058 25.6397C32.1297 25.474 32.2528 25.3358 32.4092 25.2455C32.5655 25.1552 32.7468 25.1177 32.9261 25.1384L35.8605 25.4683L32.2432 19.2031L31.9524 19.2673L31.9525 19.2672ZM15.5634 17.9812C15.0422 17.8663 14.6428 17.5737 14.376 17.1115C14.1091 16.6494 14.0555 16.1572 14.2165 15.6484L14.5933 14.4584C14.8845 13.5385 14.7209 12.6106 14.1327 11.8457L13.3716 10.8562C13.0463 10.4332 12.9284 9.9524 13.021 9.42678C13.1137 8.90127 13.389 8.48971 13.8393 8.20346L14.8929 7.53399C15.7072 7.01649 16.1784 6.20056 16.2194 5.23641L16.2724 3.98923C16.295 3.45611 16.5138 3.01185 16.9226 2.66883C17.3315 2.32581 17.8068 2.18737 18.3359 2.25779L19.5732 2.42216C20.5295 2.54925 21.4152 2.22706 22.0662 1.51478L22.9085 0.593536C23.2685 0.199685 23.7217 0 24.2553 0C24.7888 0 25.242 0.199685 25.602 0.593536L26.4443 1.51488C27.0955 2.22696 27.9809 2.54904 28.9373 2.42216L30.1747 2.25779C30.7033 2.18737 31.1792 2.32581 31.5879 2.66883C31.9967 3.01185 32.2154 3.45611 32.2381 3.98923L32.2911 5.23641C32.3322 6.20046 32.8033 7.01639 33.6177 7.53388L34.6712 8.20336C35.1216 8.4896 35.3969 8.90116 35.4895 9.42668C35.5822 9.95209 35.4642 10.433 35.1389 10.856L34.3779 11.8455C33.7897 12.6104 33.626 13.5383 33.9173 14.4582L34.2939 15.6483C34.455 16.157 34.4013 16.6492 34.1346 17.1114C33.8677 17.5736 33.4683 17.8662 32.9472 17.981L31.7282 18.2498C30.7859 18.4576 30.0642 19.0633 29.6959 19.9551L29.2196 21.109C29.016 21.6022 28.6585 21.9448 28.157 22.1274C27.6557 22.3098 27.1615 22.2772 26.6884 22.0303L25.5818 21.4527C25.1541 21.2294 24.7047 21.1177 24.2553 21.1177C23.8058 21.1177 23.3565 21.2294 22.9288 21.4526L21.8222 22.0303C21.3492 22.2773 20.8551 22.31 20.3536 22.1274C19.8522 21.9449 19.4947 21.6023 19.2911 21.1091L18.8147 19.9552C18.4464 19.0634 17.7247 18.4577 16.7824 18.2499L15.5635 17.9811L15.5634 17.9812ZM17.2342 11.1223C17.2342 14.9938 20.3839 18.1434 24.2554 18.1434C28.1269 18.1434 31.2765 14.9937 31.2765 11.1223C31.2765 7.25087 28.1268 4.10121 24.2554 4.10121C20.384 4.10121 17.2342 7.25087 17.2342 11.1223ZM3.36287 39.2938C3.2979 39.2194 3.21882 39.1586 3.1302 39.115C3.04159 39.0714 2.9452 39.0458 2.84663 39.0397C2.74812 39.0325 2.64914 39.0449 2.55547 39.0762C2.4618 39.1076 2.3753 39.1572 2.30101 39.2223L0.256132 41.0091C0.181736 41.074 0.120965 41.1531 0.0773376 41.2417C0.0337102 41.3304 0.00809275 41.4267 0.0019683 41.5253C-0.00519864 41.6238 0.00725054 41.7228 0.038595 41.8164C0.0699395 41.9101 0.119556 41.9966 0.184571 42.0709L6.88898 49.7439C6.95395 49.8183 7.03303 49.8791 7.12165 49.9227C7.21026 49.9663 7.30665 49.9919 7.40523 49.9981C7.50373 50.0052 7.60266 49.9927 7.69631 49.9614C7.78996 49.93 7.87647 49.8804 7.95085 49.8155L9.99572 48.0287C10.3082 47.7557 10.3403 47.2793 10.0673 46.9668L3.36287 39.294V39.2938ZM10.4883 45.8655C13.6537 42.8164 15.795 42.6271 18.8932 42.6876C19.3272 42.696 19.7093 42.7076 20.0534 42.718C22.1931 42.7831 22.7695 42.8006 25.3415 41.6977L39.0567 35.2754C40.222 34.7297 40.7287 33.9151 40.3791 33.1496C40.0345 32.3949 38.9666 31.9309 37.7757 32.461C34.4827 33.926 29.0606 35.6187 26.7245 36.058C26.6079 36.2571 26.4657 36.4401 26.3016 36.6022C24.5546 38.3423 20.3156 38.0855 17.7828 37.9321C17.4505 37.912 17.1636 37.8946 16.934 37.8858C16.796 37.8805 16.6657 37.8205 16.5719 37.7192C16.478 37.6179 16.4283 37.4834 16.4336 37.3454C16.4446 37.058 16.6868 36.8347 16.974 36.845C17.215 36.8542 17.5073 36.8719 17.8458 36.8925C19.8922 37.0164 24.1508 37.2743 25.5665 35.8642C25.9028 35.5294 26.0519 35.115 26.0227 34.5972C25.9748 33.7517 25.2961 32.8313 23.5347 32.7845C20.2172 32.6961 19.0506 32.5879 15.8774 32.1992C13.9871 31.9676 12.3988 33.1975 10.9337 34.4771C8.56345 36.5474 7.05659 37.5771 4.5588 39.0795L10.4883 45.8656V45.8655ZM16.4527 25.6399L17.6341 28.3459L20.5737 23.2541C20.3772 23.2242 20.1842 23.1747 19.9975 23.1064C19.2209 22.8238 18.6438 22.2707 18.3284 21.5069L17.852 20.353C17.6142 19.777 17.1668 19.4016 16.5583 19.2674L16.2674 19.2032L12.6502 25.4684L15.5843 25.1385C15.7637 25.1178 15.945 25.1554 16.1014 25.2457C16.2578 25.336 16.3809 25.4742 16.4527 25.6399Z" fill="#075471"/>
</svg>
