<svg width="90" height="90" viewBox="0 0 90 90" fill="none" xmlns="http://www.w3.org/2000/svg">
<path d="M30.9375 28.125H47.8125V30.9375H30.9375V28.125ZM50.625 28.125H53.4375V30.9375H50.625V28.125ZM56.25 28.125H59.0625V30.9375H56.25V28.125ZM30.9375 39.375H47.8125V42.1875H30.9375V39.375ZM50.625 39.375H53.4375V42.1875H50.625V39.375ZM56.25 39.375H59.0625V42.1875H56.25V39.375ZM30.9375 50.625H47.8125V53.4375H30.9375V50.625ZM50.625 50.625H53.4375V53.4375H50.625V50.625ZM56.25 50.625H59.0625V53.4375H56.25V50.625Z" fill="white"/>
<path d="M81.5625 60.4687C80.3158 60.4703 79.1048 60.8853 78.1192 61.6487C77.1336 62.4121 76.4289 63.4808 76.1156 64.6875H60.4688V59.0625C61.5872 59.0612 62.6595 58.6163 63.4504 57.8254C64.2413 57.0345 64.6862 55.9622 64.6875 54.8437V50.625H73.125C75.0678 50.6236 76.9892 50.2196 78.7681 49.4386C80.547 48.6576 82.1447 47.5164 83.4606 46.0871C84.7765 44.6578 85.7819 42.9713 86.4135 41.134C87.045 39.2968 87.2891 37.3485 87.1301 35.4123C86.9712 33.476 86.4128 31.5936 85.4902 29.8839C84.5675 28.1742 83.3006 26.6742 81.7693 25.4786C80.238 24.2829 78.4756 23.4175 76.5931 22.937C74.7107 22.4564 72.7491 22.3711 70.8321 22.6865C69.4565 17.497 66.5497 12.8422 62.4905 9.32851C58.4314 5.81482 53.408 3.60516 48.075 2.98744C42.7419 2.36973 37.3465 3.37259 32.5916 5.86538C27.8367 8.35816 23.9428 12.2253 21.4174 16.9629C20.8426 16.9044 20.2652 16.875 19.6875 16.875C15.212 16.875 10.9197 18.6529 7.75507 21.8176C4.5904 24.9822 2.8125 29.2745 2.8125 33.75C2.8125 38.2255 4.5904 42.5177 7.75507 45.6824C10.9197 48.8471 15.212 50.625 19.6875 50.625H25.3125V54.8437C25.3138 55.9622 25.7587 57.0345 26.5496 57.8254C27.3405 58.6163 28.4128 59.0612 29.5312 59.0625V64.6875H13.8844C13.5422 63.3619 12.7282 62.2066 11.595 61.4382C10.4619 60.6698 9.08745 60.3411 7.72928 60.5136C6.3711 60.6861 5.12246 61.348 4.21742 62.3753C3.31237 63.4026 2.81305 64.7247 2.81305 66.0937C2.81305 67.4628 3.31237 68.7849 4.21742 69.8122C5.12246 70.8395 6.3711 71.5014 7.72928 71.6739C9.08745 71.8464 10.4619 71.5177 11.595 70.7493C12.7282 69.9809 13.5422 68.8256 13.8844 67.5H30.9375C31.3105 67.5 31.6681 67.3518 31.9319 67.0881C32.1956 66.8244 32.3438 66.4667 32.3438 66.0937V59.0625H35.1562V70.3125H23.9062C23.5333 70.3125 23.1756 70.4606 22.9119 70.7244C22.6482 70.9881 22.5 71.3458 22.5 71.7187V76.1156C21.1744 76.4578 20.0191 77.2718 19.2507 78.4049C18.4823 79.5381 18.1536 80.9125 18.3261 82.2707C18.4986 83.6289 19.1605 84.8775 20.1878 85.7826C21.2151 86.6876 22.5372 87.1869 23.9062 87.1869C25.2753 87.1869 26.5974 86.6876 27.6247 85.7826C28.652 84.8775 29.3139 83.6289 29.4864 82.2707C29.6589 80.9125 29.3302 79.5381 28.5618 78.4049C27.7934 77.2718 26.6381 76.4578 25.3125 76.1156V73.125H36.5625C36.9355 73.125 37.2931 72.9768 37.5569 72.7131C37.8206 72.4494 37.9688 72.0917 37.9688 71.7187V59.0625H43.5938V73.3031C42.2681 73.6453 41.1129 74.4593 40.3445 75.5924C39.5761 76.7256 39.2473 78.1 39.4198 79.4582C39.5923 80.8164 40.2543 82.065 41.2815 82.9701C42.3088 83.8751 43.6309 84.3744 45 84.3744C46.3691 84.3744 47.6912 83.8751 48.7185 82.9701C49.7457 82.065 50.4077 80.8164 50.5802 79.4582C50.7527 78.1 50.4239 76.7256 49.6555 75.5924C48.8871 74.4593 47.7319 73.6453 46.4062 73.3031V59.0625H52.0312V71.7187C52.0312 72.0917 52.1794 72.4494 52.4431 72.7131C52.7069 72.9768 53.0645 73.125 53.4375 73.125H64.6875V76.1156C63.3619 76.4578 62.2066 77.2718 61.4382 78.4049C60.6698 79.5381 60.3411 80.9125 60.5136 82.2707C60.6861 83.6289 61.348 84.8775 62.3753 85.7826C63.4026 86.6876 64.7247 87.1869 66.0938 87.1869C67.4628 87.1869 68.7849 86.6876 69.8122 85.7826C70.8395 84.8775 71.5014 83.6289 71.6739 82.2707C71.8464 80.9125 71.5177 79.5381 70.7493 78.4049C69.9809 77.2718 68.8256 76.4578 67.5 76.1156V71.7187C67.5 71.3458 67.3518 70.9881 67.0881 70.7244C66.8244 70.4606 66.4667 70.3125 66.0938 70.3125H54.8438V59.0625H57.6562V66.0937C57.6562 66.4667 57.8044 66.8244 58.0681 67.0881C58.3319 67.3518 58.6895 67.5 59.0625 67.5H76.1156C76.3786 68.5186 76.922 69.4431 77.6841 70.1684C78.4461 70.8936 79.3963 71.3907 80.4267 71.603C81.4571 71.8153 82.5264 71.7344 83.5131 71.3695C84.4998 71.0046 85.3644 70.3702 86.0087 69.5386C86.653 68.7069 87.0511 67.7112 87.1579 66.6646C87.2647 65.618 87.0758 64.5624 86.6127 63.6177C86.1496 62.6731 85.4309 61.8773 84.5382 61.3206C83.6455 60.764 82.6145 60.4688 81.5625 60.4687ZM8.4375 68.9062C7.88124 68.9062 7.33747 68.7413 6.87496 68.4323C6.41245 68.1232 6.05196 67.684 5.83909 67.17C5.62622 66.6561 5.57052 66.0906 5.67904 65.545C5.78756 64.9995 6.05543 64.4983 6.44876 64.105C6.8421 63.7117 7.34324 63.4438 7.88881 63.3353C8.43438 63.2268 8.99988 63.2825 9.5138 63.4953C10.0277 63.7082 10.467 64.0687 10.776 64.5312C11.085 64.9937 11.25 65.5375 11.25 66.0937C11.2491 66.8394 10.9525 67.5543 10.4253 68.0815C9.89801 68.6088 9.18315 68.9054 8.4375 68.9062ZM26.7188 81.5625C26.7188 82.1188 26.5538 82.6625 26.2448 83.125C25.9357 83.5875 25.4965 83.948 24.9825 84.1609C24.4686 84.3738 23.9031 84.4295 23.3576 84.3209C22.812 84.2124 22.3108 83.9446 21.9175 83.5512C21.5242 83.1579 21.2563 82.6568 21.1478 82.1112C21.0393 81.5656 21.095 81.0001 21.3078 80.4862C21.5207 79.9723 21.8812 79.533 22.3437 79.224C22.8062 78.9149 23.35 78.75 23.9062 78.75C24.6519 78.7509 25.3668 79.0475 25.894 79.5747C26.4213 80.102 26.7179 80.8168 26.7188 81.5625ZM47.8125 78.75C47.8125 79.3063 47.6476 79.85 47.3385 80.3125C47.0295 80.775 46.5902 81.1355 46.0763 81.3484C45.5624 81.5613 44.9969 81.617 44.4513 81.5084C43.9057 81.3999 43.4046 81.1321 43.0113 80.7387C42.6179 80.3454 42.3501 79.8443 42.2415 79.2987C42.133 78.7531 42.1887 78.1876 42.4016 77.6737C42.6145 77.1598 42.9749 76.7205 43.4375 76.4115C43.9 76.1024 44.4437 75.9375 45 75.9375C45.7457 75.9384 46.4605 76.235 46.9878 76.7622C47.515 77.2895 47.8116 78.0043 47.8125 78.75ZM68.9062 81.5625C68.9062 82.1188 68.7413 82.6625 68.4323 83.125C68.1232 83.5875 67.684 83.948 67.17 84.1609C66.6561 84.3738 66.0906 84.4295 65.5451 84.3209C64.9995 84.2124 64.4983 83.9446 64.105 83.5512C63.7117 83.1579 63.4438 82.6568 63.3353 82.1112C63.2268 81.5656 63.2825 81.0001 63.4953 80.4862C63.7082 79.9723 64.0687 79.533 64.5312 79.224C64.9937 78.9149 65.5375 78.75 66.0938 78.75C66.8394 78.7509 67.5543 79.0475 68.0815 79.5747C68.6088 80.102 68.9054 80.8168 68.9062 81.5625ZM28.125 32.3437V26.7187C28.1254 26.3459 28.2737 25.9885 28.5373 25.7248C28.801 25.4612 29.1584 25.3129 29.5312 25.3125H60.4688C60.8416 25.3129 61.199 25.4612 61.4627 25.7248C61.7263 25.9885 61.8746 26.3459 61.875 26.7187V32.3437C61.8746 32.7166 61.7263 33.074 61.4627 33.3376C61.199 33.6013 60.8416 33.7496 60.4688 33.75H29.5312C29.1584 33.7496 28.801 33.6013 28.5373 33.3376C28.2737 33.074 28.1254 32.7166 28.125 32.3437ZM28.125 43.5937V37.9687C28.1254 37.5959 28.2737 37.2385 28.5373 36.9748C28.801 36.7112 29.1584 36.5629 29.5312 36.5625H60.4688C60.8416 36.5629 61.199 36.7112 61.4627 36.9748C61.7263 37.2385 61.8746 37.5959 61.875 37.9687V43.5937C61.8746 43.9666 61.7263 44.324 61.4627 44.5876C61.199 44.8513 60.8416 44.9996 60.4688 45H29.5312C29.1584 44.9996 28.801 44.8513 28.5373 44.5876C28.2737 44.324 28.1254 43.9666 28.125 43.5937ZM5.625 33.75C5.62923 30.0217 7.11217 26.4473 9.74849 23.811C12.3848 21.1747 15.9592 19.6917 19.6875 19.6875C20.4589 19.6873 21.229 19.7499 21.9902 19.8745C22.2894 19.9241 22.5966 19.8755 22.8659 19.7361C23.1351 19.5967 23.3521 19.374 23.4844 19.1011C25.662 14.6118 29.1893 10.9162 33.5722 8.53182C37.9551 6.14746 42.9741 5.19382 47.9261 5.80449C52.8781 6.41517 57.515 8.55956 61.1874 11.9373C64.8598 15.315 67.3836 19.7569 68.4053 24.6407C68.4444 24.8289 68.5217 25.0071 68.6324 25.1643C68.7431 25.3215 68.8849 25.4543 69.0489 25.5546C69.213 25.6548 69.3959 25.7204 69.5863 25.7472C69.7767 25.7739 69.9705 25.7614 70.1559 25.7103C71.7027 25.2876 73.3221 25.2006 74.9053 25.4549C76.4886 25.7092 77.9991 26.2991 79.3358 27.1849C80.6725 28.0707 81.8043 29.2321 82.6554 30.5911C83.5066 31.9501 84.0574 33.4754 84.2709 35.0647C84.4844 36.6539 84.3556 38.2705 83.8933 39.8059C83.431 41.3414 82.6458 42.7603 81.5903 43.9675C80.5348 45.1747 79.2334 46.1423 77.7734 46.8054C76.3134 47.4686 74.7285 47.8119 73.125 47.8125H64.4456C64.2614 47.2937 63.9774 46.816 63.6098 46.4062C64.3043 45.6342 64.6882 44.6322 64.6875 43.5937V37.9687C64.6882 36.9303 64.3043 35.9283 63.6098 35.1562C64.3043 34.3842 64.6882 33.3822 64.6875 32.3437V26.7187C64.6862 25.6003 64.2413 24.528 63.4504 23.7371C62.6595 22.9462 61.5872 22.5013 60.4688 22.5H29.5312C28.4128 22.5013 27.3405 22.9462 26.5496 23.7371C25.7587 24.528 25.3138 25.6003 25.3125 26.7187V32.3437C25.3118 33.3822 25.6957 34.3842 26.3902 35.1562C25.6957 35.9283 25.3118 36.9303 25.3125 37.9687V43.5937C25.3118 44.6322 25.6957 45.6342 26.3902 46.4062C26.0226 46.816 25.7386 47.2937 25.5544 47.8125H19.6875C15.9592 47.8083 12.3848 46.3253 9.74849 43.689C7.11217 41.0527 5.62923 37.4783 5.625 33.75ZM28.125 54.8437V49.2187C28.1254 48.8459 28.2737 48.4885 28.5373 48.2248C28.801 47.9612 29.1584 47.8129 29.5312 47.8125H60.4688C60.8416 47.8129 61.199 47.9612 61.4627 48.2248C61.7263 48.4885 61.8746 48.8459 61.875 49.2187V54.8437C61.8746 55.2166 61.7263 55.574 61.4627 55.8377C61.199 56.1013 60.8416 56.2496 60.4688 56.25H29.5312C29.1584 56.2496 28.801 56.1013 28.5373 55.8377C28.2737 55.574 28.1254 55.2166 28.125 54.8437ZM81.5625 68.9062C81.0062 68.9062 80.4625 68.7413 80 68.4323C79.5374 68.1232 79.177 67.684 78.9641 67.17C78.7512 66.6561 78.6955 66.0906 78.804 65.545C78.9126 64.9995 79.1804 64.4983 79.5738 64.105C79.9671 63.7117 80.4682 63.4438 81.0138 63.3353C81.5594 63.2268 82.1249 63.2825 82.6388 63.4953C83.1527 63.7082 83.592 64.0687 83.901 64.5312C84.2101 64.9937 84.375 65.5375 84.375 66.0937C84.3741 66.8394 84.0775 67.5543 83.5503 68.0815C83.023 68.6088 82.3082 68.9054 81.5625 68.9062Z" fill="white"/>
</svg>
